  0
SECTION
  2
HEADER
  9
$ACADVER
  1
AC1027
  9
$ACADMAINTVER
 70
105
  9
$DWGCODEPAGE
  3
ANSI_1252
  9
$LASTSAVEDBY
  1
ezdxf
  9
$REQUIREDVERSIONS
160
0
  9
$INSBASE
 10
0.0
 20
0.0
 30
0.0
  9
$EXTMIN
 10
1e+20
 20
1e+20
 30
1e+20
  9
$EXTMAX
 10
-1e+20
 20
-1e+20
 30
-1e+20
  9
$LIMMIN
 10
0.0
 20
0.0
  9
$LIMMAX
 10
420.0
 20
297.0
  9
$ORTHOMODE
 70
0
  9
$REGENMODE
 70
1
  9
$FILLMODE
 70
1
  9
$QTEXTMODE
 70
0
  9
$MIRRTEXT
 70
1
  9
$LTSCALE
 40
1.0
  9
$ATTMODE
 70
1
  9
$TEXTSIZE
 40
2.5
  9
$TRACEWID
 40
1.0
  9
$TEXTSTYLE
  7
OpenSans
  9
$CLAYER
  8
0
  9
$CELTYPE
  6
ByLayer
  9
$CECOLOR
 62
256
  9
$CELTSCALE
 40
1.0
  9
$DISPSILH
 70
0
  9
$DIMSCALE
 40
1.0
  9
$DIMASZ
 40
0.175
  9
$DIMEXO
 40
0.125
  9
$DIMDLI
 40
3.75
  9
$DIMRND
 40
0.0
  9
$DIMDLE
 40
0.0
  9
$DIMEXE
 40
0.375
  9
$DIMTP
 40
0.0
  9
$DIMTM
 40
0.0
  9
$DIMTXT
 40
0.25
  9
$DIMCEN
 40
2.5
  9
$DIMTSZ
 40
0.0
  9
$DIMTOL
 70
0
  9
$DIMLIM
 70
0
  9
$DIMTIH
 70
0
  9
$DIMTOH
 70
0
  9
$DIMSE1
 70
0
  9
$DIMSE2
 70
0
  9
$DIMTAD
 70
1
  9
$DIMZIN
 70
12
  9
$DIMBLK
  1
ARCHTICK
  9
$DIMASO
 70
1
  9
$DIMSHO
 70
1
  9
$DIMPOST
  1

  9
$DIMAPOST
  1

  9
$DIMALT
 70
0
  9
$DIMALTD
 70
3
  9
$DIMALTF
 40
0.03937007874
  9
$DIMLFAC
 40
100.0
  9
$DIMTOFL
 70
1
  9
$DIMTVP
 40
0.0
  9
$DIMTIX
 70
0
  9
$DIMSOXD
 70
0
  9
$DIMSAH
 70
0
  9
$DIMBLK1
  1

  9
$DIMBLK2
  1

  9
$DIMSTYLE
  2
EZDXF
  9
$DIMCLRD
 70
0
  9
$DIMCLRE
 70
0
  9
$DIMCLRT
 70
0
  9
$DIMTFAC
 40
0.5
  9
$DIMGAP
 40
0.1
  9
$DIMJUST
 70
0
  9
$DIMSD1
 70
0
  9
$DIMSD2
 70
0
  9
$DIMTOLJ
 70
0
  9
$DIMTZIN
 70
8
  9
$DIMALTZ
 70
0
  9
$DIMALTTZ
 70
0
  9
$DIMUPT
 70
1
  9
$DIMDEC
 70
2
  9
$DIMTDEC
 70
2
  9
$DIMALTU
 70
2
  9
$DIMALTTD
 70
3
  9
$DIMTXSTY
  7
OpenSansCondensed-Light
  9
$DIMAUNIT
 70
0
  9
$DIMADEC
 70
2
  9
$DIMALTRND
 40
0.0
  9
$DIMAZIN
 70
3
  9
$DIMDSEP
 70
46
  9
$DIMATFIT
 70
3
  9
$DIMFRAC
 70
0
  9
$DIMLDRBLK
  1

  9
$DIMLUNIT
 70
2
  9
$DIMLWD
 70
-2
  9
$DIMLWE
 70
-2
  9
$DIMTMOVE
 70
2
  9
$DIMFXL
 40
1.0
  9
$DIMFXLON
 70
0
  9
$DIMJOGANG
 40
0.785398163397
  9
$DIMTFILL
 70
0
  9
$DIMTFILLCLR
 70
0
  9
$DIMARCSYM
 70
0
  9
$DIMLTYPE
  6

  9
$DIMLTEX1
  6

  9
$DIMLTEX2
  6

  9
$DIMTXTDIRECTION
 70
0
  9
$LUNITS
 70
2
  9
$LUPREC
 70
4
  9
$SKETCHINC
 40
1.0
  9
$FILLETRAD
 40
10.0
  9
$AUNITS
 70
0
  9
$AUPREC
 70
2
  9
$MENU
  1
.
  9
$ELEVATION
 40
0.0
  9
$PELEVATION
 40
0.0
  9
$THICKNESS
 40
0.0
  9
$LIMCHECK
 70
0
  9
$CHAMFERA
 40
0.0
  9
$CHAMFERB
 40
0.0
  9
$CHAMFERC
 40
0.0
  9
$CHAMFERD
 40
0.0
  9
$SKPOLY
 70
0
  9
$TDCREATE
 40
2461322.5361689813
  9
$TDUCREATE
 40
2458532.153996898
  9
$TDUPDATE
 40
2461322.5361689813
  9
$TDUUPDATE
 40
2458532.1544311
  9
$TDINDWG
 40
0.0
  9
$TDUSRTIMER
 40
0.0
  9
$USRTIMER
 70
1
  9
$ANGBASE
 50
0.0
  9
$ANGDIR
 70
0
  9
$PDMODE
 70
0
  9
$PDSIZE
 40
0.0
  9
$PLINEWID
 40
0.0
  9
$SPLFRAME
 70
0
  9
$SPLINETYPE
 70
6
  9
$SPLINESEGS
 70
8
  9
$HANDSEED
  5
2EC
  9
$SURFTAB1
 70
6
  9
$SURFTAB2
 70
6
  9
$SURFTYPE
 70
6
  9
$SURFU
 70
6
  9
$SURFV
 70
6
  9
$UCSBASE
  2

  9
$UCSNAME
  2

  9
$UCSORG
 10
0.0
 20
0.0
 30
0.0
  9
$UCSXDIR
 10
1.0
 20
0.0
 30
0.0
  9
$UCSYDIR
 10
0.0
 20
1.0
 30
0.0
  9
$UCSORTHOREF
  2

  9
$UCSORTHOVIEW
 70
0
  9
$UCSORGTOP
 10
0.0
 20
0.0
 30
0.0
  9
$UCSORGBOTTOM
 10
0.0
 20
0.0
 30
0.0
  9
$UCSORGLEFT
 10
0.0
 20
0.0
 30
0.0
  9
$UCSORGRIGHT
 10
0.0
 20
0.0
 30
0.0
  9
$UCSORGFRONT
 10
0.0
 20
0.0
 30
0.0
  9
$UCSORGBACK
 10
0.0
 20
0.0
 30
0.0
  9
$PUCSBASE
  2

  9
$PUCSNAME
  2

  9
$PUCSORG
 10
0.0
 20
0.0
 30
0.0
  9
$PUCSXDIR
 10
1.0
 20
0.0
 30
0.0
  9
$PUCSYDIR
 10
0.0
 20
1.0
 30
0.0
  9
$PUCSORTHOREF
  2

  9
$PUCSORTHOVIEW
 70
0
  9
$PUCSORGTOP
 10
0.0
 20
0.0
 30
0.0
  9
$PUCSORGBOTTOM
 10
0.0
 20
0.0
 30
0.0
  9
$PUCSORGLEFT
 10
0.0
 20
0.0
 30
0.0
  9
$PUCSORGRIGHT
 10
0.0
 20
0.0
 30
0.0
  9
$PUCSORGFRONT
 10
0.0
 20
0.0
 30
0.0
  9
$PUCSORGBACK
 10
0.0
 20
0.0
 30
0.0
  9
$USERI1
 70
0
  9
$USERI2
 70
0
  9
$USERI3
 70
0
  9
$USERI4
 70
0
  9
$USERI5
 70
0
  9
$USERR1
 40
0.0
  9
$USERR2
 40
0.0
  9
$USERR3
 40
0.0
  9
$USERR4
 40
0.0
  9
$USERR5
 40
0.0
  9
$WORLDVIEW
 70
1
  9
$SHADEDGE
 70
3
  9
$SHADEDIF
 70
70
  9
$TILEMODE
 70
1
  9
$MAXACTVP
 70
64
  9
$PINSBASE
 10
0.0
 20
0.0
 30
0.0
  9
$PLIMCHECK
 70
0
  9
$PEXTMIN
 10
1e+20
 20
1e+20
 30
1e+20
  9
$PEXTMAX
 10
-1e+20
 20
-1e+20
 30
-1e+20
  9
$PLIMMIN
 10
0.0
 20
0.0
  9
$PLIMMAX
 10
420.0
 20
297.0
  9
$UNITMODE
 70
0
  9
$VISRETAIN
 70
1
  9
$PLINEGEN
 70
0
  9
$PSLTSCALE
 70
1
  9
$TREEDEPTH
 70
3020
  9
$CMLSTYLE
  2
Standard
  9
$CMLJUST
 70
0
  9
$CMLSCALE
 40
20.0
  9
$PROXYGRAPHICS
 70
1
  9
$MEASUREMENT
 70
1
  9
$CELWEIGHT
370
-1
  9
$ENDCAPS
280
0
  9
$JOINSTYLE
280
0
  9
$LWDISPLAY
290
0
  9
$INSUNITS
 70
5
  9
$HYPERLINKBASE
  1

  9
$STYLESHEET
  1

  9
$XEDIT
290
1
  9
$CEPSNTYPE
380
0
  9
$PSTYLEMODE
290
1
  9
$FINGERPRINTGUID
  2
{C8C92F42-E211-4BAA-BD2C-9F7D92629160}
  9
$VERSIONGUID
  2
{9B388549-327B-4519-857E-5473DB70CE02}
  9
$EXTNAMES
290
1
  9
$PSVPSCALE
 40
0.0
  9
$OLESTARTUP
290
0
  9
$SORTENTS
280
127
  9
$INDEXCTL
280
0
  9
$HIDETEXT
280
1
  9
$XCLIPFRAME
280
1
  9
$HALOGAP
280
0
  9
$OBSCOLOR
 70
257
  9
$OBSLTYPE
280
0
  9
$INTERSECTIONDISPLAY
280
0
  9
$INTERSECTIONCOLOR
 70
257
  9
$DIMASSOC
280
2
  9
$PROJECTNAME
  1

  9
$CAMERADISPLAY
290
0
  9
$LENSLENGTH
 40
50.0
  9
$CAMERAHEIGHT
 40
0.0
  9
$STEPSPERSEC
 40
24.0
  9
$STEPSIZE
 40
100.0
  9
$3DDWFPREC
 40
2.0
  9
$PSOLWIDTH
 40
0.005
  9
$PSOLHEIGHT
 40
0.08
  9
$LOFTANG1
 40
1.570796326795
  9
$LOFTANG2
 40
1.570796326795
  9
$LOFTMAG1
 40
0.0
  9
$LOFTMAG2
 40
0.0
  9
$LOFTPARAM
 70
7
  9
$LOFTNORMALS
280
1
  9
$LATITUDE
 40
37.795
  9
$LONGITUDE
 40
-122.394
  9
$NORTHDIRECTION
 40
0.0
  9
$TIMEZONE
 70
-8000
  9
$LIGHTGLYPHDISPLAY
280
1
  9
$TILEMODELIGHTSYNCH
280
1
  9
$CMATERIAL
347
20
  9
$SOLIDHIST
280
0
  9
$SHOWHIST
280
1
  9
$DWFFRAME
280
2
  9
$DGNFRAME
280
2
  9
$REALWORLDSCALE
290
1
  9
$INTERFERECOLOR
 62
256
  9
$CSHADOW
280
0
  9
$SHADOWPLANELOCATION
 40
0.0
  0
ENDSEC
  0
SECTION
  2
CLASSES
  0
CLASS
  1
ACDBDICTIONARYWDFLT
  2
AcDbDictionaryWithDefault
  3
ObjectDBX Classes
 90
0
 91
0
280
0
281
0
  0
CLASS
  1
SUN
  2
AcDbSun
  3
SCENEOE
 90
1153
 91
0
280
0
281
0
  0
CLASS
  1
VISUALSTYLE
  2
AcDbVisualStyle
  3
ObjectDBX Classes
 90
4095
 91
0
280
0
281
0
  0
CLASS
  1
MATERIAL
  2
AcDbMaterial
  3
ObjectDBX Classes
 90
1153
 91
0
280
0
281
0
  0
CLASS
  1
SCALE
  2
AcDbScale
  3
ObjectDBX Classes
 90
1153
 91
0
280
0
281
0
  0
CLASS
  1
TABLESTYLE
  2
AcDbTableStyle
  3
ObjectDBX Classes
 90
4095
 91
0
280
0
281
0
  0
CLASS
  1
MLEADERSTYLE
  2
AcDbMLeaderStyle
  3
ACDB_MLEADERSTYLE_CLASS
 90
4095
 91
0
280
0
281
0
  0
CLASS
  1
DICTIONARYVAR
  2
AcDbDictionaryVar
  3
ObjectDBX Classes
 90
0
 91
0
280
0
281
0
  0
CLASS
  1
CELLSTYLEMAP
  2
AcDbCellStyleMap
  3
ObjectDBX Classes
 90
1152
 91
0
280
0
281
0
  0
CLASS
  1
MENTALRAYRENDERSETTINGS
  2
AcDbMentalRayRenderSettings
  3
SCENEOE
 90
1024
 91
0
280
0
281
0
  0
CLASS
  1
ACDBDETAILVIEWSTYLE
  2
AcDbDetailViewStyle
  3
ObjectDBX Classes
 90
1025
 91
0
280
0
281
0
  0
CLASS
  1
ACDBSECTIONVIEWSTYLE
  2
AcDbSectionViewStyle
  3
ObjectDBX Classes
 90
1025
 91
0
280
0
281
0
  0
CLASS
  1
RASTERVARIABLES
  2
AcDbRasterVariables
  3
ISM
 90
0
 91
0
280
0
281
0
  0
CLASS
  1
ACDBPLACEHOLDER
  2
AcDbPlaceHolder
  3
ObjectDBX Classes
 90
0
 91
0
280
0
281
0
  0
CLASS
  1
LAYOUT
  2
AcDbLayout
  3
ObjectDBX Classes
 90
0
 91
0
280
0
281
0
  0
ENDSEC
  0
SECTION
  2
TABLES
  0
TABLE
  2
VPORT
  5
8
330
0
100
AcDbSymbolTable
 70
1
  0
VPORT
  5
23
330
8
100
AcDbSymbolTableRecord
100
AcDbViewportTableRecord
  2
*Active
 70
0
 10
0.0
 20
0.0
 11
1.0
 21
1.0
 12
0.0
 22
0.0
 13
0.0
 23
0.0
 14
0.5
 24
0.5
 15
0.5
 25
0.5
 16
0.0
 26
0.0
 36
1.0
 17
0.0
 27
0.0
 37
0.0
 40
1000.0
 41
1.34
 42
50.0
 43
0.0
 44
0.0
 50
0.0
 51
0.0
 71
0
 72
1000
 73
1
 74
3
 75
0
 76
0
 77
0
 78
0
281
0
 65
0
146
0.0
  0
ENDTAB
  0
TABLE
  2
LTYPE
  5
2
330
0
100
AcDbSymbolTable
 70
21
  0
LTYPE
  5
24
330
2
100
AcDbSymbolTableRecord
100
AcDbLinetypeTableRecord
  2
ByBlock
 70
0
  3

 72
65
 73
0
 40
0.0
  0
LTYPE
  5
25
330
2
100
AcDbSymbolTableRecord
100
AcDbLinetypeTableRecord
  2
ByLayer
 70
0
  3

 72
65
 73
0
 40
0.0
  0
LTYPE
  5
26
330
2
100
AcDbSymbolTableRecord
100
AcDbLinetypeTableRecord
  2
Continuous
 70
0
  3

 72
65
 73
0
 40
0.0
  0
LTYPE
  5
2F
330
2
100
AcDbSymbolTableRecord
100
AcDbLinetypeTableRecord
  2
CENTER
 70
0
  3
Center ____ _ ____ _ ____ _ ____ _ ____ _ ____
 72
65
 73
4
 40
5.08
 49
3.175
 74
0
 49
-0.635
 74
0
 49
0.635
 74
0
 49
-0.635
 74
0
  0
LTYPE
  5
30
330
2
100
AcDbSymbolTableRecord
100
AcDbLinetypeTableRecord
  2
CENTERX2
 70
0
  3
Center (2x) ________  __  ________  __  ________
 72
65
 73
4
 40
8.89
 49
6.35
 74
0
 49
-0.635
 74
0
 49
1.27
 74
0
 49
-0.635
 74
0
  0
LTYPE
  5
31
330
2
100
AcDbSymbolTableRecord
100
AcDbLinetypeTableRecord
  2
CENTER2
 70
0
  3
Center (.5x) ____ _ ____ _ ____ _ ____ _ ____
 72
65
 73
4
 40
2.54
 49
1.587
 74
0
 49
-0.318
 74
0
 49
0.318
 74
0
 49
-0.318
 74
0
  0
LTYPE
  5
32
330
2
100
AcDbSymbolTableRecord
100
AcDbLinetypeTableRecord
  2
DASHED
 70
0
  3
Dashed __ __ __ __ __ __ __ __ __ __ __ __ __ _
 72
65
 73
2
 40
1.524
 49
1.27
 74
0
 49
-0.254
 74
0
  0
LTYPE
  5
33
330
2
100
AcDbSymbolTableRecord
100
AcDbLinetypeTableRecord
  2
DASHEDX2
 70
0
  3
Dashed (2x) ____  ____  ____  ____  ____  ____
 72
65
 73
2
 40
3.048
 49
2.54
 74
0
 49
-0.508
 74
0
  0
LTYPE
  5
34
330
2
100
AcDbSymbolTableRecord
100
AcDbLinetypeTableRecord
  2
DASHED2
 70
0
  3
Dashed (.5x) _ _ _ _ _ _ _ _ _ _ _ _ _ _
 72
65
 73
2
 40
0.762
 49
0.635
 74
0
 49
-0.127
 74
0
  0
LTYPE
  5
35
330
2
100
AcDbSymbolTableRecord
100
AcDbLinetypeTableRecord
  2
PHANTOM
 70
0
  3
Phantom ______  __  __  ______  __  __  ______
 72
65
 73
6
 40
6.35
 49
3.175
 74
0
 49
-0.635
 74
0
 49
0.635
 74
0
 49
-0.635
 74
0
 49
0.635
 74
0
 49
-0.635
 74
0
  0
LTYPE
  5
36
330
2
100
AcDbSymbolTableRecord
100
AcDbLinetypeTableRecord
  2
PHANTOMX2
 70
0
  3
Phantom (2x)____________    ____    ____    ____________
 72
65
 73
6
 40
10.795
 49
6.35
 74
0
 49
-0.635
 74
0
 49
1.27
 74
0
 49
-0.635
 74
0
 49
1.27
 74
0
 49
-0.635
 74
0
  0
LTYPE
  5
37
330
2
100
AcDbSymbolTableRecord
100
AcDbLinetypeTableRecord
  2
PHANTOM2
 70
0
  3
Phantom (.5x) ___ _ _ ___ _ _ ___ _ _ ___ _ _ ___
 72
65
 73
6
 40
3.175
 49
1.587
 74
0
 49
-0.318
 74
0
 49
0.318
 74
0
 49
-0.318
 74
0
 49
0.318
 74
0
 49
-0.318
 74
0
  0
LTYPE
  5
38
330
2
100
AcDbSymbolTableRecord
100
AcDbLinetypeTableRecord
  2
DASHDOT
 70
0
  3
Dash dot __ . __ . __ . __ . __ . __ . __ . __
 72
65
 73
4
 40
3.556
 49
2.54
 74
0
 49
-0.508
 74
0
 49
0.0
 74
0
 49
-0.508
 74
0
  0
LTYPE
  5
39
330
2
100
AcDbSymbolTableRecord
100
AcDbLinetypeTableRecord
  2
DASHDOTX2
 70
0
  3
Dash dot (2x) ____  .  ____  .  ____  .  ____
 72
65
 73
4
 40
6.096
 49
5.08
 74
0
 49
-0.508
 74
0
 49
0.0
 74
0
 49
-0.508
 74
0
  0
LTYPE
  5
3A
330
2
100
AcDbSymbolTableRecord
100
AcDbLinetypeTableRecord
  2
DASHDOT2
 70
0
  3
Dash dot (.5x) _ . _ . _ . _ . _ . _ . _ . _
 72
65
 73
4
 40
1.778
 49
1.27
 74
0
 49
-0.254
 74
0
 49
0.0
 74
0
 49
-0.254
 74
0
  0
LTYPE
  5
3B
330
2
100
AcDbSymbolTableRecord
100
AcDbLinetypeTableRecord
  2
DOT
 70
0
  3
Dot .  .  .  .  .  .  .  .  .  .  .  .  .  .  .  .
 72
65
 73
2
 40
0.508
 49
0.0
 74
0
 49
-0.508
 74
0
  0
LTYPE
  5
3C
330
2
100
AcDbSymbolTableRecord
100
AcDbLinetypeTableRecord
  2
DOTX2
 70
0
  3
Dot (2x) .    .    .    .    .    .    .    . 
 72
65
 73
2
 40
1.016
 49
0.0
 74
0
 49
-1.016
 74
0
  0
LTYPE
  5
3D
330
2
100
AcDbSymbolTableRecord
100
AcDbLinetypeTableRecord
  2
DOT2
 70
0
  3
Dot (.5) . . . . . . . . . . . . . . . . . . . 
 72
65
 73
2
 40
0.254
 49
0.0
 74
0
 49
-0.254
 74
0
  0
LTYPE
  5
3E
330
2
100
AcDbSymbolTableRecord
100
AcDbLinetypeTableRecord
  2
DIVIDE
 70
0
  3
Divide __ . . __ . . __ . . __ . . __ . . __
 72
65
 73
6
 40
4.064
 49
2.54
 74
0
 49
-0.508
 74
0
 49
0.0
 74
0
 49
-0.508
 74
0
 49
0.0
 74
0
 49
-0.508
 74
0
  0
LTYPE
  5
3F
330
2
100
AcDbSymbolTableRecord
100
AcDbLinetypeTableRecord
  2
DIVIDEX2
 70
0
  3
Divide (2x) ____  . .  ____  . .  ____  . .  ____
 72
65
 73
6
 40
6.604
 49
5.08
 74
0
 49
-0.508
 74
0
 49
0.0
 74
0
 49
-0.508
 74
0
 49
0.0
 74
0
 49
-0.508
 74
0
  0
LTYPE
  5
40
330
2
100
AcDbSymbolTableRecord
100
AcDbLinetypeTableRecord
  2
DIVIDE2
 70
0
  3
Divide(.5x) _ . _ . _ . _ . _ . _ . _ . _
 72
65
 73
6
 40
2.032
 49
1.27
 74
0
 49
-0.254
 74
0
 49
0.0
 74
0
 49
-0.254
 74
0
 49
0.0
 74
0
 49
-0.254
 74
0
  0
ENDTAB
  0
TABLE
  2
LAYER
  5
1
330
0
100
AcDbSymbolTable
 70
11
  0
LAYER
  5
27
330
1
100
AcDbSymbolTableRecord
100
AcDbLayerTableRecord
  2
0
 70
0
 62
7
  6
Continuous
370
-3
390
13
347
21
  0
LAYER
  5
28
330
1
100
AcDbSymbolTableRecord
100
AcDbLayerTableRecord
  2
Defpoints
 70
0
 62
7
  6
Continuous
290
0
370
-3
390
13
347
21
  0
LAYER
  5
8A
330
1
100
AcDbSymbolTableRecord
100
AcDbLayerTableRecord
  2
MURI_ESISTENTI
 70
0
 62
7
  6
Continuous
370
-3
390
13
347
21
  0
LAYER
  5
8B
330
1
100
AcDbSymbolTableRecord
100
AcDbLayerTableRecord
  2
ARREDI_BAR_RIMOSSI
 70
0
 62
30
  6
DASHED
370
-3
390
13
347
21
  0
LAYER
  5
8C
330
1
100
AcDbSymbolTableRecord
100
AcDbLayerTableRecord
  2
TAVOLI_80x80
 70
0
 62
5
  6
Continuous
370
-3
390
13
347
21
  0
LAYER
  5
8D
330
1
100
AcDbSymbolTableRecord
100
AcDbLayerTableRecord
  2
SEDIE
 70
0
 62
8
  6
Continuous
370
-3
390
13
347
21
  0
LAYER
  5
8E
330
1
100
AcDbSymbolTableRecord
100
AcDbLayerTableRecord
  2
FASCIA_SEDUTA
 70
0
 62
2
  6
Continuous
370
-3
390
13
347
21
  0
LAYER
  5
8F
330
1
100
AcDbSymbolTableRecord
100
AcDbLayerTableRecord
  2
PERCORSI
 70
0
 62
3
  6
Continuous
370
-3
390
13
347
21
  0
LAYER
  5
90
330
1
100
AcDbSymbolTableRecord
100
AcDbLayerTableRecord
  2
MONTACARICHI
 70
0
 62
6
  6
Continuous
370
-3
390
13
347
21
  0
LAYER
  5
91
330
1
100
AcDbSymbolTableRecord
100
AcDbLayerTableRecord
  2
TESTI
 70
0
 62
7
  6
Continuous
370
-3
390
13
347
21
  0
LAYER
  5
92
330
1
100
AcDbSymbolTableRecord
100
AcDbLayerTableRecord
  2
NUMERAZIONE
 70
0
 62
5
  6
Continuous
370
-3
390
13
347
21
  0
ENDTAB
  0
TABLE
  2
STYLE
  5
5
330
0
100
AcDbSymbolTable
 70
26
  0
STYLE
  5
29
330
5
100
AcDbSymbolTableRecord
100
AcDbTextStyleTableRecord
  2
Standard
 70
0
 40
0.0
 41
1.0
 50
0.0
 71
0
 42
2.5
  3
txt
  4

  0
STYLE
  5
41
330
5
100
AcDbSymbolTableRecord
100
AcDbTextStyleTableRecord
  2
OpenSans-Light
 70
0
 40
0.0
 41
1.0
 50
0.0
 71
0
 42
2.5
  3
OpenSans-Light.ttf
  4

  0
STYLE
  5
42
330
5
100
AcDbSymbolTableRecord
100
AcDbTextStyleTableRecord
  2
OpenSans-Light-Italic
 70
0
 40
0.0
 41
1.0
 50
0.0
 71
0
 42
2.5
  3
OpenSans-LightItalic.ttf
  4

  0
STYLE
  5
43
330
5
100
AcDbSymbolTableRecord
100
AcDbTextStyleTableRecord
  2
OpenSans
 70
0
 40
0.0
 41
1.0
 50
0.0
 71
0
 42
2.5
  3
OpenSans-Regular.ttf
  4

  0
STYLE
  5
44
330
5
100
AcDbSymbolTableRecord
100
AcDbTextStyleTableRecord
  2
OpenSans-Italic
 70
0
 40
0.0
 41
1.0
 50
0.0
 71
0
 42
2.5
  3
OpenSans-Italic.ttf
  4

  0
STYLE
  5
45
330
5
100
AcDbSymbolTableRecord
100
AcDbTextStyleTableRecord
  2
OpenSans-SemiBold
 70
0
 40
0.0
 41
1.0
 50
0.0
 71
0
 42
2.5
  3
OpenSans-SemiBold.ttf
  4

  0
STYLE
  5
46
330
5
100
AcDbSymbolTableRecord
100
AcDbTextStyleTableRecord
  2
OpenSans-SemiBoldItalic
 70
0
 40
0.0
 41
1.0
 50
0.0
 71
0
 42
2.5
  3
OpenSans-SemiBoldItalic.ttf
  4

  0
STYLE
  5
47
330
5
100
AcDbSymbolTableRecord
100
AcDbTextStyleTableRecord
  2
OpenSans-Bold
 70
0
 40
0.0
 41
1.0
 50
0.0
 71
0
 42
2.5
  3
OpenSans-Bold.ttf
  4

  0
STYLE
  5
48
330
5
100
AcDbSymbolTableRecord
100
AcDbTextStyleTableRecord
  2
OpenSans-BoldItalic
 70
0
 40
0.0
 41
1.0
 50
0.0
 71
0
 42
2.5
  3
OpenSans-BoldItalic.ttf
  4

  0
STYLE
  5
49
330
5
100
AcDbSymbolTableRecord
100
AcDbTextStyleTableRecord
  2
OpenSans-ExtraBold
 70
0
 40
0.0
 41
1.0
 50
0.0
 71
0
 42
2.5
  3
OpenSans-ExtraBold.ttf
  4

  0
STYLE
  5
4A
330
5
100
AcDbSymbolTableRecord
100
AcDbTextStyleTableRecord
  2
OpenSans-ExtraBoldItalic
 70
0
 40
0.0
 41
1.0
 50
0.0
 71
0
 42
2.5
  3
OpenSans-ExtraBoldItalic.ttf
  4

  0
STYLE
  5
4B
330
5
100
AcDbSymbolTableRecord
100
AcDbTextStyleTableRecord
  2
OpenSansCondensed-Bold
 70
0
 40
0.0
 41
1.0
 50
0.0
 71
0
 42
2.5
  3
OpenSansCondensed-Bold.ttf
  4

  0
STYLE
  5
4C
330
5
100
AcDbSymbolTableRecord
100
AcDbTextStyleTableRecord
  2
OpenSansCondensed-Light
 70
0
 40
0.0
 41
1.0
 50
0.0
 71
0
 42
2.5
  3
OpenSansCondensed-Light.ttf
  4

  0
STYLE
  5
4D
330
5
100
AcDbSymbolTableRecord
100
AcDbTextStyleTableRecord
  2
OpenSansCondensed-Italic
 70
0
 40
0.0
 41
1.0
 50
0.0
 71
0
 42
2.5
  3
OpenSansCondensed-LightItalic.ttf
  4

  0
STYLE
  5
4E
330
5
100
AcDbSymbolTableRecord
100
AcDbTextStyleTableRecord
  2
LiberationSans
 70
0
 40
0.0
 41
1.0
 50
0.0
 71
0
 42
2.5
  3
LiberationSans-Regular.ttf
  4

  0
STYLE
  5
4F
330
5
100
AcDbSymbolTableRecord
100
AcDbTextStyleTableRecord
  2
LiberationSans-Bold
 70
0
 40
0.0
 41
1.0
 50
0.0
 71
0
 42
2.5
  3
LiberationSans-Bold.ttf
  4

  0
STYLE
  5
50
330
5
100
AcDbSymbolTableRecord
100
AcDbTextStyleTableRecord
  2
LiberationSans-BoldItalic
 70
0
 40
0.0
 41
1.0
 50
0.0
 71
0
 42
2.5
  3
LiberationSans-BoldItalic.ttf
  4

  0
STYLE
  5
51
330
5
100
AcDbSymbolTableRecord
100
AcDbTextStyleTableRecord
  2
LiberationSans-Italic
 70
0
 40
0.0
 41
1.0
 50
0.0
 71
0
 42
2.5
  3
LiberationSans-Italic.ttf
  4

  0
STYLE
  5
52
330
5
100
AcDbSymbolTableRecord
100
AcDbTextStyleTableRecord
  2
LiberationSerif
 70
0
 40
0.0
 41
1.0
 50
0.0
 71
0
 42
2.5
  3
LiberationSerif-Regular.ttf
  4

  0
STYLE
  5
53
330
5
100
AcDbSymbolTableRecord
100
AcDbTextStyleTableRecord
  2
LiberationSerif-Bold
 70
0
 40
0.0
 41
1.0
 50
0.0
 71
0
 42
2.5
  3
LiberationSerif-Bold.ttf
  4

  0
STYLE
  5
54
330
5
100
AcDbSymbolTableRecord
100
AcDbTextStyleTableRecord
  2
LiberationSerif-BoldItalic
 70
0
 40
0.0
 41
1.0
 50
0.0
 71
0
 42
2.5
  3
LiberationSerif-BoldItalic.ttf
  4

  0
STYLE
  5
55
330
5
100
AcDbSymbolTableRecord
100
AcDbTextStyleTableRecord
  2
LiberationSerif-Italic
 70
0
 40
0.0
 41
1.0
 50
0.0
 71
0
 42
2.5
  3
LiberationSerif-Italic.ttf
  4

  0
STYLE
  5
56
330
5
100
AcDbSymbolTableRecord
100
AcDbTextStyleTableRecord
  2
LiberationMono
 70
0
 40
0.0
 41
1.0
 50
0.0
 71
0
 42
2.5
  3
LiberationMono-Regular.ttf
  4

  0
STYLE
  5
57
330
5
100
AcDbSymbolTableRecord
100
AcDbTextStyleTableRecord
  2
LiberationMono-Bold
 70
0
 40
0.0
 41
1.0
 50
0.0
 71
0
 42
2.5
  3
LiberationMono-Bold.ttf
  4

  0
STYLE
  5
58
330
5
100
AcDbSymbolTableRecord
100
AcDbTextStyleTableRecord
  2
LiberationMono-BoldItalic
 70
0
 40
0.0
 41
1.0
 50
0.0
 71
0
 42
2.5
  3
LiberationMono-BoldItalic.ttf
  4

  0
STYLE
  5
59
330
5
100
AcDbSymbolTableRecord
100
AcDbTextStyleTableRecord
  2
LiberationMono-Italic
 70
0
 40
0.0
 41
1.0
 50
0.0
 71
0
 42
2.5
  3
LiberationMono-Italic.ttf
  4

  0
ENDTAB
  0
TABLE
  2
VIEW
  5
7
330
0
100
AcDbSymbolTable
 70
0
  0
ENDTAB
  0
TABLE
  2
UCS
  5
6
330
0
100
AcDbSymbolTable
 70
0
  0
ENDTAB
  0
TABLE
  2
APPID
  5
3
330
0
100
AcDbSymbolTable
 70
3
  0
APPID
  5
2A
330
3
100
AcDbSymbolTableRecord
100
AcDbRegAppTableRecord
  2
ACAD
 70
0
  0
APPID
  5
2E9
330
3
100
AcDbSymbolTableRecord
100
AcDbRegAppTableRecord
  2
HATCHBACKGROUNDCOLOR
 70
0
  0
APPID
  5
2EA
330
3
100
AcDbSymbolTableRecord
100
AcDbRegAppTableRecord
  2
EZDXF
 70
0
  0
ENDTAB
  0
TABLE
  2
DIMSTYLE
  5
4
330
0
100
AcDbSymbolTable
 70
12
100
AcDbDimStyleTable
  0
DIMSTYLE
105
2B
330
4
100
AcDbSymbolTableRecord
100
AcDbDimStyleTableRecord
  2
Standard
 70
0
 40
1.0
 41
2.5
 42
0.625
 43
3.75
 44
1.25
 45
0.0
 46
0.0
 47
0.0
 48
0.0
 49
2.5
140
2.5
141
2.5
142
0.0
143
0.03937007874
144
1.0
145
0.0
146
1.0
147
0.625
148
0.0
 69
0
 70
0
 71
0
 72
0
 73
0
 74
0
 75
0
 76
0
 77
1
 78
8
 79
3
170
0
171
3
172
1
173
0
174
0
175
0
176
0
177
0
178
0
179
2
271
2
272
2
273
2
274
3
275
0
276
0
277
2
278
44
279
0
280
0
281
0
282
0
283
0
284
8
285
0
286
0
288
0
289
3
290
0
371
-2
372
-2
  0
DIMSTYLE
105
73
330
4
100
AcDbSymbolTableRecord
100
AcDbDimStyleTableRecord
  2
EZDXF
 70
0
 40
1.0
 41
0.175
 42
0.125
 43
3.75
 44
0.375
 45
0.0
 46
0.0
 47
0.0
 48
0.0
 49
2.5
140
0.25
141
2.5
142
0.0
143
0.03937007874
144
100.0
145
0.0
146
0.5
147
0.1
148
0.0
 69
0
 70
0
 71
0
 72
0
 73
0
 74
0
 75
0
 76
0
 77
1
 78
12
 79
3
170
0
171
3
172
1
173
0
174
0
175
0
176
0
177
0
178
0
179
2
271
2
272
2
273
2
274
3
275
0
276
0
277
2
278
46
279
2
280
0
281
0
282
0
283
0
284
8
285
0
286
0
288
1
289
3
290
0
340
4C
342
74
371
-2
372
-2
  0
DIMSTYLE
105
7C
330
4
100
AcDbSymbolTableRecord
100
AcDbDimStyleTableRecord
  2
EZ_M_100_H25_CM
 70
0
 40
1.0
 41
0.25
 42
0.125
 43
3.75
 44
0.375
 45
0.0
 46
0.0
 47
0.0
 48
0.0
 49
2.5
140
0.25
141
2.5
142
0.125
143
0.03937007874
144
100.0
145
0.0
146
0.5
147
0.1
148
0.0
 69
0
 70
0
 71
0
 72
0
 73
0
 74
0
 75
0
 76
0
 77
1
 78
12
 79
3
170
0
171
3
172
1
173
0
174
0
175
0
176
0
177
0
178
0
179
2
271
2
272
2
273
2
274
3
275
0
276
0
277
2
278
46
279
2
280
0
281
0
282
0
283
0
284
8
285
0
286
0
288
1
289
3
290
0
340
4C
371
-2
372
-2
  0
DIMSTYLE
105
7D
330
4
100
AcDbSymbolTableRecord
100
AcDbDimStyleTableRecord
  2
EZ_M_50_H25_CM
 70
0
 40
1.0
 41
0.125
 42
0.0625
 43
3.75
 44
0.1875
 45
0.0
 46
0.0
 47
0.0
 48
0.0
 49
2.5
140
0.125
141
2.5
142
0.0625
143
0.03937007874
144
100.0
145
0.0
146
0.5
147
0.05
148
0.0
 69
0
 70
0
 71
0
 72
0
 73
0
 74
0
 75
0
 76
0
 77
1
 78
12
 79
3
170
0
171
3
172
1
173
0
174
0
175
0
176
0
177
0
178
0
179
2
271
2
272
2
273
2
274
3
275
0
276
0
277
2
278
46
279
2
280
0
281
0
282
0
283
0
284
8
285
0
286
0
288
1
289
3
290
0
340
4C
371
-2
372
-2
  0
DIMSTYLE
105
7E
330
4
100
AcDbSymbolTableRecord
100
AcDbDimStyleTableRecord
  2
EZ_M_25_H25_CM
 70
0
 40
1.0
 41
0.0625
 42
0.03125
 43
3.75
 44
0.09375
 45
0.0
 46
0.0
 47
0.0
 48
0.0
 49
2.5
140
0.0625
141
2.5
142
0.03125
143
0.03937007874
144
100.0
145
0.0
146
0.5
147
0.025
148
0.0
 69
0
 70
0
 71
0
 72
0
 73
0
 74
0
 75
0
 76
0
 77
1
 78
12
 79
3
170
0
171
3
172
1
173
0
174
0
175
0
176
0
177
0
178
0
179
2
271
2
272
2
273
2
274
3
275
0
276
0
277
2
278
46
279
2
280
0
281
0
282
0
283
0
284
8
285
0
286
0
288
1
289
3
290
0
340
4C
371
-2
372
-2
  0
DIMSTYLE
105
7F
330
4
100
AcDbSymbolTableRecord
100
AcDbDimStyleTableRecord
  2
EZ_M_20_H25_CM
 70
0
 40
1.0
 41
0.05
 42
0.025
 43
3.75
 44
0.07500000000000001
 45
0.0
 46
0.0
 47
0.0
 48
0.0
 49
2.5
140
0.05
141
2.5
142
0.025
143
0.03937007874
144
100.0
145
0.0
146
0.5
147
0.020000000000000004
148
0.0
 69
0
 70
0
 71
0
 72
0
 73
0
 74
0
 75
0
 76
0
 77
1
 78
12
 79
3
170
0
171
3
172
1
173
0
174
0
175
0
176
0
177
0
178
0
179
2
271
2
272
2
273
2
274
3
275
0
276
0
277
2
278
46
279
2
280
0
281
0
282
0
283
0
284
8
285
0
286
0
288
1
289
3
290
0
340
4C
371
-2
372
-2
  0
DIMSTYLE
105
80
330
4
100
AcDbSymbolTableRecord
100
AcDbDimStyleTableRecord
  2
EZ_M_10_H25_CM
 70
0
 40
1.0
 41
0.025
 42
0.0125
 43
3.75
 44
0.037500000000000006
 45
0.0
 46
0.0
 47
0.0
 48
0.0
 49
2.5
140
0.025
141
2.5
142
0.0125
143
0.03937007874
144
100.0
145
0.0
146
0.5
147
0.010000000000000002
148
0.0
 69
0
 70
0
 71
0
 72
0
 73
0
 74
0
 75
0
 76
0
 77
1
 78
12
 79
3
170
0
171
3
172
1
173
0
174
0
175
0
176
0
177
0
178
0
179
2
271
2
272
2
273
2
274
3
275
0
276
0
277
2
278
46
279
2
280
0
281
0
282
0
283
0
284
8
285
0
286
0
288
1
289
3
290
0
340
4C
371
-2
372
-2
  0
DIMSTYLE
105
81
330
4
100
AcDbSymbolTableRecord
100
AcDbDimStyleTableRecord
  2
EZ_M_5_H25_CM
 70
0
 40
1.0
 41
0.0125
 42
0.00625
 43
3.75
 44
0.018750000000000003
 45
0.0
 46
0.0
 47
0.0
 48
0.0
 49
2.5
140
0.0125
141
2.5
142
0.00625
143
0.03937007874
144
100.0
145
0.0
146
0.5
147
0.005000000000000001
148
0.0
 69
0
 70
0
 71
0
 72
0
 73
0
 74
0
 75
0
 76
0
 77
1
 78
12
 79
3
170
0
171
3
172
1
173
0
174
0
175
0
176
0
177
0
178
0
179
2
271
2
272
2
273
2
274
3
275
0
276
0
277
2
278
46
279
2
280
0
281
0
282
0
283
0
284
8
285
0
286
0
288
1
289
3
290
0
340
4C
371
-2
372
-2
  0
DIMSTYLE
105
82
330
4
100
AcDbSymbolTableRecord
100
AcDbDimStyleTableRecord
  2
EZ_M_1_H25_CM
 70
0
 40
1.0
 41
0.0025
 42
0.00125
 43
3.75
 44
0.00375
 45
0.0
 46
0.0
 47
0.0
 48
0.0
 49
2.5
140
0.0025
141
2.5
142
0.00125
143
0.03937007874
144
100.0
145
0.0
146
0.5
147
0.001
148
0.0
 69
0
 70
0
 71
0
 72
0
 73
0
 74
0
 75
0
 76
0
 77
1
 78
12
 79
3
170
0
171
3
172
1
173
0
174
0
175
0
176
0
177
0
178
0
179
2
271
2
272
2
273
2
274
3
275
0
276
0
277
2
278
46
279
2
280
0
281
0
282
0
283
0
284
8
285
0
286
0
288
1
289
3
290
0
340
4C
371
-2
372
-2
  0
DIMSTYLE
105
83
330
4
100
AcDbSymbolTableRecord
100
AcDbDimStyleTableRecord
  2
EZ_RADIUS
 70
0
 40
1.0
 41
0.25
 42
0.125
 43
3.75
 44
0.375
 45
0.0
 46
0.0
 47
0.0
 48
0.0
 49
2.5
140
0.25
141
0.0
142
0.0
143
0.03937007874
144
100.0
145
0.0
146
0.5
147
0.1
148
0.0
 69
0
 70
0
 71
0
 72
0
 73
0
 74
0
 75
0
 76
0
 77
1
 78
12
 79
3
170
0
171
3
172
0
173
0
174
0
175
0
176
0
177
0
178
0
179
2
271
2
272
2
273
2
274
3
275
0
276
0
277
2
278
46
279
1
280
0
281
0
282
0
283
0
284
8
285
0
286
0
288
1
289
3
290
0
340
4C
342
84
371
-2
372
-2
  0
DIMSTYLE
105
88
330
4
100
AcDbSymbolTableRecord
100
AcDbDimStyleTableRecord
  2
EZ_RADIUS_INSIDE
 70
0
 40
1.0
 41
0.25
 42
0.125
 43
3.75
 44
0.375
 45
0.0
 46
0.0
 47
0.0
 48
0.0
 49
2.5
140
0.25
141
0.0
142
0.0
143
0.03937007874
144
100.0
145
0.0
146
0.5
147
0.1
148
0.0
 69
0
 70
0
 71
0
 72
0
 73
0
 74
0
 75
0
 76
0
 77
0
 78
12
 79
3
170
0
171
3
172
0
173
0
174
1
175
0
176
0
177
0
178
0
179
2
271
2
272
2
273
2
274
3
275
0
276
0
277
2
278
46
279
0
280
0
281
0
282
0
283
0
284
8
285
0
286
0
288
1
289
0
290
0
340
4C
342
84
371
-2
372
-2
  0
DIMSTYLE
105
89
330
4
100
AcDbSymbolTableRecord
100
AcDbDimStyleTableRecord
  2
EZ_CURVED
 70
0
 40
1.0
 41
0.25
 42
0.125
 43
3.75
 44
0.375
 45
0.0
 46
0.0
 47
0.0
 48
0.0
 49
2.5
140
0.25
141
2.5
142
0.0
143
0.03937007874
144
100.0
145
0.0
146
0.5
147
0.1
148
0.0
 69
0
 70
0
 71
0
 72
0
 73
0
 74
0
 75
0
 76
0
 77
1
 78
12
 79
2
 90
2
170
0
171
3
172
1
173
0
174
0
175
0
176
0
177
0
178
0
179
2
271
2
272
2
273
2
274
3
275
0
276
0
277
2
278
46
279
2
280
0
281
0
282
0
283
0
284
8
285
0
286
0
288
1
289
3
290
0
340
4C
371
-2
372
-2
  0
ENDTAB
  0
TABLE
  2
BLOCK_RECORD
  5
9
330
0
100
AcDbSymbolTable
 70
7
  0
BLOCK_RECORD
  5
17
330
9
100
AcDbSymbolTableRecord
100
AcDbBlockTableRecord
  2
*Model_Space
340
1A
 70
0
280
1
281
0
  0
BLOCK_RECORD
  5
1B
330
9
100
AcDbSymbolTableRecord
100
AcDbBlockTableRecord
  2
*Paper_Space
340
1E
 70
0
280
1
281
0
  0
BLOCK_RECORD
  5
74
330
9
100
AcDbSymbolTableRecord
100
AcDbBlockTableRecord
  2
_ARCHTICK
340
0
 70
0
280
1
281
0
  0
BLOCK_RECORD
  5
78
330
9
100
AcDbSymbolTableRecord
100
AcDbBlockTableRecord
  2
_CLOSEDFILLED
340
0
 70
0
280
1
281
0
  0
BLOCK_RECORD
  5
84
330
9
100
AcDbSymbolTableRecord
100
AcDbBlockTableRecord
  2
_CLOSEDBLANK
340
0
 70
0
280
1
281
0
  0
BLOCK_RECORD
  5
93
330
9
100
AcDbSymbolTableRecord
100
AcDbBlockTableRecord
  2
TAVOLO_80x80
340
0
 70
0
280
1
281
0
  0
BLOCK_RECORD
  5
97
330
9
100
AcDbSymbolTableRecord
100
AcDbBlockTableRecord
  2
SEDIA_45x45
340
0
 70
0
280
1
281
0
  0
ENDTAB
  0
ENDSEC
  0
SECTION
  2
BLOCKS
  0
BLOCK
  5
18
330
17
100
AcDbEntity
  8
0
100
AcDbBlockBegin
  2
*Model_Space
 70
0
 10
0.0
 20
0.0
 30
0.0
  3
*Model_Space
  1

  0
ENDBLK
  5
19
330
17
100
AcDbEntity
  8
0
100
AcDbBlockEnd
  0
BLOCK
  5
1C
330
1B
100
AcDbEntity
  8
0
100
AcDbBlockBegin
  2
*Paper_Space
 70
0
 10
0.0
 20
0.0
 30
0.0
  3
*Paper_Space
  1

  0
ENDBLK
  5
1D
330
1B
100
AcDbEntity
  8
0
100
AcDbBlockEnd
  0
BLOCK
  5
75
330
74
100
AcDbEntity
  8
0
100
AcDbBlockBegin
  2
_ARCHTICK
 70
0
 10
0.0
 20
0.0
 30
0.0
  3
_ARCHTICK
  1

  0
LWPOLYLINE
  5
77
330
74
100
AcDbEntity
  8
0
  6
BYBLOCK
 62
0
100
AcDbPolyline
 90
2
 70
0
 43
0.15
 10
-0.5
 20
-0.5
 10
0.5
 20
0.5
  0
ENDBLK
  5
76
330
74
100
AcDbEntity
  8
0
100
AcDbBlockEnd
  0
BLOCK
  5
79
330
78
100
AcDbEntity
  8
0
100
AcDbBlockBegin
  2
_CLOSEDFILLED
 70
0
 10
0.0
 20
0.0
 30
0.0
  3
_CLOSEDFILLED
  1

  0
SOLID
  5
7B
330
78
100
AcDbEntity
  8
0
  6
BYBLOCK
 62
0
100
AcDbTrace
 10
-1.0
 20
0.16439898372402537
 30
0.0
 11
0.0
 21
0.0
 31
0.0
 12
-1.0
 22
-0.16439898372402537
 32
0.0
 13
-1.0
 23
-0.16439898372402537
 33
0.0
  0
ENDBLK
  5
7A
330
78
100
AcDbEntity
  8
0
100
AcDbBlockEnd
  0
BLOCK
  5
85
330
84
100
AcDbEntity
  8
0
100
AcDbBlockBegin
  2
_CLOSEDBLANK
 70
0
 10
0.0
 20
0.0
 30
0.0
  3
_CLOSEDBLANK
  1

  0
LWPOLYLINE
  5
87
330
84
100
AcDbEntity
  8
0
  6
BYBLOCK
 62
0
100
AcDbPolyline
 90
3
 70
1
 10
-1.0
 20
0.16439898372402537
 10
0.0
 20
0.0
 10
-1.0
 20
-0.16439898372402537
  0
ENDBLK
  5
86
330
84
100
AcDbEntity
  8
0
100
AcDbBlockEnd
  0
BLOCK
  5
94
330
93
100
AcDbEntity
  8
0
100
AcDbBlockBegin
  2
TAVOLO_80x80
 70
0
 10
0.0
 20
0.0
 30
0.0
  3
TAVOLO_80x80
  1

  0
LWPOLYLINE
  5
96
330
93
100
AcDbEntity
  8
0
100
AcDbPolyline
 90
4
 70
1
 10
0.0
 20
0.0
 10
80.0
 20
0.0
 10
80.0
 20
80.0
 10
0.0
 20
80.0
  0
ENDBLK
  5
95
330
93
100
AcDbEntity
  8
0
100
AcDbBlockEnd
  0
BLOCK
  5
98
330
97
100
AcDbEntity
  8
0
100
AcDbBlockBegin
  2
SEDIA_45x45
 70
0
 10
0.0
 20
0.0
 30
0.0
  3
SEDIA_45x45
  1

  0
LWPOLYLINE
  5
9A
330
97
100
AcDbEntity
  8
0
100
AcDbPolyline
 90
4
 70
1
 10
-22.5
 20
0.0
 10
22.5
 20
0.0
 10
22.5
 20
45.0
 10
-22.5
 20
45.0
  0
LINE
  5
9B
330
97
100
AcDbEntity
  8
0
100
AcDbLine
 10
-18.5
 20
40.0
 30
0.0
 11
18.5
 21
40.0
 31
0.0
  0
ENDBLK
  5
99
330
97
100
AcDbEntity
  8
0
100
AcDbBlockEnd
  0
ENDSEC
  0
SECTION
  2
ENTITIES
  0
LWPOLYLINE
  5
9C
330
17
100
AcDbEntity
  8
MURI_ESISTENTI
100
AcDbPolyline
 90
2
 70
0
 10
1275.6248391718009
 20
-2046.0291251774788
 10
1776.8446449759294
 20
-2227.7458539135982
  0
LWPOLYLINE
  5
9D
330
17
100
AcDbEntity
  8
MURI_ESISTENTI
100
AcDbPolyline
 90
2
 70
0
 10
1776.8446449759294
 20
-2227.7458539135982
 10
1840.2456305993833
 20
-2211.769837658393
  0
LWPOLYLINE
  5
9E
330
17
100
AcDbEntity
  8
MURI_ESISTENTI
100
AcDbPolyline
 90
2
 70
0
 10
1840.2456305993833
 20
-2211.769837658393
 10
2599.0637744625615
 20
-930.2573116264225
  0
LWPOLYLINE
  5
9F
330
17
100
AcDbEntity
  8
MURI_ESISTENTI
100
AcDbPolyline
 90
2
 70
0
 10
2599.0637744625615
 20
-930.2573116264225
 10
1522.2006176336097
 20
-583.2417567413535
  0
LWPOLYLINE
  5
A0
330
17
100
AcDbEntity
  8
MURI_ESISTENTI
100
AcDbPolyline
 90
2
 70
0
 10
1522.2006176336097
 20
-583.2417567413535
 10
737.1380827659472
 20
-418.99810774633943
  0
LWPOLYLINE
  5
A1
330
17
100
AcDbEntity
  8
MURI_ESISTENTI
100
AcDbPolyline
 90
2
 70
0
 10
737.1380827659472
 20
-418.99810774633943
 10
684.9088870806643
 20
-635.6830612840388
  0
LWPOLYLINE
  5
A2
330
17
100
AcDbEntity
  8
MURI_ESISTENTI
100
AcDbPolyline
 90
2
 70
0
 10
684.9088870806643
 20
-635.6830612840388
 10
610.9968478952404
 20
-618.1176567971659
  0
LWPOLYLINE
  5
A3
330
17
100
AcDbEntity
  8
MURI_ESISTENTI
100
AcDbPolyline
 90
2
 70
0
 10
610.9968478952404
 20
-618.1176567971659
 10
604.5277553539809
 20
-643.825633017106
  0
LWPOLYLINE
  5
A4
330
17
100
AcDbEntity
  8
MURI_ESISTENTI
100
AcDbPolyline
 90
2
 70
0
 10
604.5277553539809
 20
-643.825633017106
 10
657.3249355116045
 20
-654.469795898413
  0
LWPOLYLINE
  5
A5
330
17
100
AcDbEntity
  8
MURI_ESISTENTI
100
AcDbPolyline
 90
2
 70
0
 10
657.3249355116045
 20
-654.469795898413
 10
624.052992564539
 20
-788.0598990714274
  0
LWPOLYLINE
  5
A6
330
17
100
AcDbEntity
  8
MURI_ESISTENTI
100
AcDbPolyline
 90
2
 70
0
 10
624.052992564539
 20
-788.0598990714274
 10
677.7643830246927
 20
-801.4609701845193
  0
LWPOLYLINE
  5
A7
330
17
100
AcDbEntity
  8
MURI_ESISTENTI
100
AcDbPolyline
 90
2
 70
0
 10
677.7643830246927
 20
-801.4609701845193
 10
684.7007267468016
 20
-770.7019470989168
  0
LWPOLYLINE
  5
A8
330
17
100
AcDbEntity
  8
MURI_ESISTENTI
100
AcDbPolyline
 90
2
 70
0
 10
684.7007267468016
 20
-770.7019470989168
 10
734.740173880292
 20
-782.7195493426723
  0
LWPOLYLINE
  5
A9
330
17
100
AcDbEntity
  8
MURI_ESISTENTI
100
AcDbPolyline
 90
2
 70
0
 10
734.740173880292
 20
-782.7195493426723
 10
742.6020562580322
 20
-747.3695330636133
  0
LWPOLYLINE
  5
AA
330
17
100
AcDbEntity
  8
MURI_ESISTENTI
100
AcDbPolyline
 90
2
 70
0
 10
742.6020562580322
 20
-747.3695330636133
 10
884.9142085784188
 20
-782.9510745623597
  0
LWPOLYLINE
  5
AB
330
17
100
AcDbEntity
  8
MURI_ESISTENTI
100
AcDbPolyline
 90
2
 70
0
 10
884.9142085784188
 20
-782.9510745623597
 10
876.5954545449582
 20
-816.922695482042
  0
LWPOLYLINE
  5
AC
330
17
100
AcDbEntity
  8
MURI_ESISTENTI
100
AcDbPolyline
 90
2
 70
0
 10
876.5954545449582
 20
-816.922695482042
 10
1011.1047241974917
 20
-849.7368251882507
  0
LWPOLYLINE
  5
AD
330
17
100
AcDbEntity
  8
MURI_ESISTENTI
100
AcDbPolyline
 90
2
 70
0
 10
1011.1047241974917
 20
-849.7368251882507
 10
1008.7908772883216
 20
-861.214483361073
  0
LWPOLYLINE
  5
AE
330
17
100
AcDbEntity
  8
MURI_ESISTENTI
100
AcDbPolyline
 90
2
 70
0
 10
1008.7908772883216
 20
-861.214483361073
 10
1062.9622051680765
 20
-874.1569164409595
  0
LWPOLYLINE
  5
AF
330
17
100
AcDbEntity
  8
MURI_ESISTENTI
100
AcDbPolyline
 90
2
 70
0
 10
1062.9622051680765
 20
-874.1569164409595
 10
1070.8262117245615
 20
-837.4290956491759
  0
LWPOLYLINE
  5
B0
330
17
100
AcDbEntity
  8
MURI_ESISTENTI
100
AcDbPolyline
 90
2
 70
0
 10
1070.8262117245615
 20
-837.4290956491759
 10
1029.9673347988007
 20
-828.1811459894288
  0
LWPOLYLINE
  5
B1
330
17
100
AcDbEntity
  8
MURI_ESISTENTI
100
AcDbPolyline
 90
2
 70
0
 10
1029.9673347988007
 20
-828.1811459894288
 10
1020.0401234412911
 20
-713.812816812534
  0
LWPOLYLINE
  5
B2
330
17
100
AcDbEntity
  8
MURI_ESISTENTI
100
AcDbPolyline
 90
2
 70
0
 10
1020.0401234412911
 20
-713.812816812534
 10
1327.159449026787
 20
-790.521695027309
  0
LWPOLYLINE
  5
B3
330
17
100
AcDbEntity
  8
MURI_ESISTENTI
100
AcDbPolyline
 90
2
 70
0
 10
1327.159449026787
 20
-790.521695027309
 10
1300.3629707970927
 20
-894.2706420277831
  0
LWPOLYLINE
  5
B4
330
17
100
AcDbEntity
  8
MURI_ESISTENTI
100
AcDbPolyline
 90
2
 70
0
 10
1300.3629707970927
 20
-894.2706420277831
 10
1395.8441420733063
 20
-921.9727175924245
  0
LWPOLYLINE
  5
B5
330
17
100
AcDbEntity
  8
MURI_ESISTENTI
100
AcDbPolyline
 90
2
 70
0
 10
1395.8441420733063
 20
-921.9727175924245
 10
1405.9850611484417
 20
-897.6482100617598
  0
LWPOLYLINE
  5
B6
330
17
100
AcDbEntity
  8
MURI_ESISTENTI
100
AcDbPolyline
 90
2
 70
0
 10
1405.9850611484417
 20
-897.6482100617598
 10
1580.873562572025
 20
-953.0276967387604
  0
LWPOLYLINE
  5
B7
330
17
100
AcDbEntity
  8
MURI_ESISTENTI
100
AcDbPolyline
 90
2
 70
0
 10
1580.873562572025
 20
-953.0276967387604
 10
1582.720508678708
 20
-946.601085971783
  0
LWPOLYLINE
  5
B8
330
17
100
AcDbEntity
  8
MURI_ESISTENTI
100
AcDbPolyline
 90
2
 70
0
 10
1582.720508678708
 20
-946.601085971783
 10
1501.9332498398685
 20
-920.299355193404
  0
LWPOLYLINE
  5
B9
330
17
100
AcDbEntity
  8
MURI_ESISTENTI
100
AcDbPolyline
 90
2
 70
0
 10
1501.9332498398685
 20
-920.299355193404
 10
1525.4801963851464
 20
-839.0486189371569
  0
LWPOLYLINE
  5
BA
330
17
100
AcDbEntity
  8
MURI_ESISTENTI
100
AcDbPolyline
 90
2
 70
0
 10
1525.4801963851464
 20
-839.0486189371569
 10
1519.9713360985668
 20
-837.6623180695757
  0
LWPOLYLINE
  5
BB
330
17
100
AcDbEntity
  8
MURI_ESISTENTI
100
AcDbPolyline
 90
2
 70
0
 10
1519.9713360985668
 20
-837.6623180695757
 10
1495.0480010396861
 20
-917.99247166712
  0
LWPOLYLINE
  5
BC
330
17
100
AcDbEntity
  8
MURI_ESISTENTI
100
AcDbPolyline
 90
2
 70
0
 10
1424.8263140698223
 20
-889.8699918461886
 10
1450.5314581114567
 20
-898.1761181401524
  0
LWPOLYLINE
  5
BD
330
17
100
AcDbEntity
  8
MURI_ESISTENTI
100
AcDbPolyline
 90
2
 70
0
 10
1450.5314581114567
 20
-898.1761181401524
 10
1483.2909528979326
 20
-799.028901299401
  0
LWPOLYLINE
  5
BE
330
17
100
AcDbEntity
  8
MURI_ESISTENTI
100
AcDbPolyline
 90
2
 70
0
 10
1483.2909528979326
 20
-799.028901299401
 10
1456.2074131367997
 20
-791.1798802467329
  0
LWPOLYLINE
  5
BF
330
17
100
AcDbEntity
  8
MURI_ESISTENTI
100
AcDbPolyline
 90
2
 70
0
 10
1456.2074131367997
 20
-791.1798802467329
 10
1421.1332464687441
 20
-902.264101113012
  0
LWPOLYLINE
  5
C0
330
17
100
AcDbEntity
  8
MURI_ESISTENTI
100
AcDbPolyline
 90
2
 70
0
 10
1450.5314581114567
 20
-898.1761181401524
 10
1494.5993921532472
 20
-911.1030914822966
  0
LWPOLYLINE
  5
C1
330
17
100
AcDbEntity
  8
MURI_ESISTENTI
100
AcDbPolyline
 90
2
 70
0
 10
1494.5993921532472
 20
-911.1030914822966
 10
1493.2132080784531
 20
-916.6119519489376
  0
LWPOLYLINE
  5
C2
330
17
100
AcDbEntity
  8
MURI_ESISTENTI
100
AcDbPolyline
 90
2
 70
0
 10
1493.2132080784531
 20
-916.6119519489376
 10
1495.0480010396861
 20
-917.99247166712
  0
LWPOLYLINE
  5
C3
330
17
100
AcDbEntity
  8
MURI_ESISTENTI
100
AcDbPolyline
 90
2
 70
0
 10
1580.873562572025
 20
-953.0276967387604
 10
1649.7232259985026
 20
-977.4741018483874
  0
LWPOLYLINE
  5
C4
330
17
100
AcDbEntity
  8
MURI_ESISTENTI
100
AcDbPolyline
 90
2
 70
0
 10
1649.7232259985026
 20
-977.4741018483874
 10
1749.3017488307348
 20
-730.5516607672441
  0
LWPOLYLINE
  5
C5
330
17
100
AcDbEntity
  8
MURI_ESISTENTI
100
AcDbPolyline
 90
2
 70
0
 10
1749.3017488307348
 20
-730.5516607672441
 10
1514.293538096068
 20
-647.9837292798003
  0
LWPOLYLINE
  5
C6
330
17
100
AcDbEntity
  8
MURI_ESISTENTI
100
AcDbPolyline
 90
2
 70
0
 10
1514.293538096068
 20
-647.9837292798003
 10
1468.204482853097
 20
-754.4584314510001
  0
LWPOLYLINE
  5
C7
330
17
100
AcDbEntity
  8
MURI_ESISTENTI
100
AcDbPolyline
 90
2
 70
0
 10
1468.204482853097
 20
-754.4584314510001
 10
1460.3582937986737
 20
-779.7050542522163
  0
LWPOLYLINE
  5
C8
330
17
100
AcDbEntity
  8
MURI_ESISTENTI
100
AcDbPolyline
 90
2
 70
0
 10
1460.3582937986737
 20
-779.7050542522163
 10
1499.8359428266301
 20
-791.2471429059628
  0
LWPOLYLINE
  5
C9
330
17
100
AcDbEntity
  8
MURI_ESISTENTI
100
AcDbPolyline
 90
2
 70
0
 10
1499.8359428266301
 20
-791.2471429059628
 10
1464.3025469185952
 20
-902.3306557726808
  0
LWPOLYLINE
  5
CA
330
17
100
AcDbEntity
  8
MURI_ESISTENTI
100
AcDbPolyline
 90
2
 70
0
 10
1649.7232259985026
 20
-977.4741018483874
 10
1810.8271860831017
 20
-1037.4247568308253
  0
LWPOLYLINE
  5
CB
330
17
100
AcDbEntity
  8
MURI_ESISTENTI
100
AcDbPolyline
 90
2
 70
0
 10
1810.8271860831017
 20
-1037.4247568308253
 10
1928.3616638037722
 20
-761.1380895263958
  0
LWPOLYLINE
  5
CC
330
17
100
AcDbEntity
  8
MURI_ESISTENTI
100
AcDbPolyline
 90
2
 70
0
 10
1928.3616638037722
 20
-761.1380895263958
 10
2484.6211024507634
 20
-988.4054618663416
  0
LWPOLYLINE
  5
CD
330
17
100
AcDbEntity
  8
MURI_ESISTENTI
100
AcDbPolyline
 90
2
 70
0
 10
2484.6211024507634
 20
-988.4054618663416
 10
2132.3817126210015
 20
-1581.2120576018408
  0
LWPOLYLINE
  5
CE
330
17
100
AcDbEntity
  8
MURI_ESISTENTI
100
AcDbPolyline
 90
2
 70
0
 10
2132.3817126210015
 20
-1581.2120576018408
 10
2125.038533607114
 20
-1577.9861242087636
  0
LWPOLYLINE
  5
CF
330
17
100
AcDbEntity
  8
MURI_ESISTENTI
100
AcDbPolyline
 90
2
 70
0
 10
2017.6476139274885
 20
-1530.5178486340064
 10
2044.8436135076522
 20
-1465.346383737456
  0
LWPOLYLINE
  5
D0
330
17
100
AcDbEntity
  8
MURI_ESISTENTI
100
AcDbPolyline
 90
2
 70
0
 10
2044.8436135076522
 20
-1465.346383737456
 10
1702.936989393081
 20
-1313.7264096390713
  0
LWPOLYLINE
  5
D1
330
17
100
AcDbEntity
  8
MURI_ESISTENTI
100
AcDbPolyline
 90
2
 70
0
 10
1813.0813942795346
 20
-1362.5765044984682
 10
1788.6407699591844
 20
-1427.7523341851731
  0
LWPOLYLINE
  5
D2
330
17
100
AcDbEntity
  8
MURI_ESISTENTI
100
AcDbPolyline
 90
2
 70
0
 10
1788.6407699591844
 20
-1427.7523341851731
 10
1693.1795403637773
 20
-1387.1912561172396
  0
LWPOLYLINE
  5
D3
330
17
100
AcDbEntity
  8
MURI_ESISTENTI
100
AcDbPolyline
 90
2
 70
0
 10
1693.1795403637773
 20
-1387.1912561172396
 10
1721.7526366371658
 20
-1322.481027846626
  0
LWPOLYLINE
  5
D4
330
17
100
AcDbEntity
  8
MURI_ESISTENTI
100
AcDbPolyline
 90
2
 70
0
 10
1702.936989393081
 20
-1313.7264096390713
 10
1766.1031908205705
 20
-1152.1680598787564
  0
LWPOLYLINE
  5
D5
330
17
100
AcDbEntity
  8
MURI_ESISTENTI
100
AcDbPolyline
 90
2
 70
0
 10
1766.1031908205705
 20
-1152.1680598787564
 10
1603.6270905798583
 20
-1088.541213212166
  0
LWPOLYLINE
  5
D6
330
17
100
AcDbEntity
  8
MURI_ESISTENTI
100
AcDbPolyline
 90
2
 70
0
 10
1677.0558274598554
 20
-1121.720404615493
 10
1678.4398875359657
 20
-1117.5892318687895
  0
LWPOLYLINE
  5
D7
330
17
100
AcDbEntity
  8
MURI_ESISTENTI
100
AcDbPolyline
 90
2
 70
0
 10
1603.6270905798583
 20
-1088.541213212166
 10
1439.0886391340641
 20
-1469.005020488777
  0
LWPOLYLINE
  5
D8
330
17
100
AcDbEntity
  8
MURI_ESISTENTI
100
AcDbPolyline
 90
2
 70
0
 10
1439.0886391340641
 20
-1469.005020488777
 10
1487.2785415681406
 20
-1489.2862676123355
  0
LWPOLYLINE
  5
D9
330
17
100
AcDbEntity
  8
MURI_ESISTENTI
100
AcDbPolyline
 90
2
 70
0
 10
1487.2785415681406
 20
-1489.2862676123355
 10
1558.71829986929
 20
-1323.148253191726
  0
LWPOLYLINE
  5
DA
330
17
100
AcDbEntity
  8
MURI_ESISTENTI
100
AcDbPolyline
 90
2
 70
0
 10
1558.71829986929
 20
-1323.148253191726
 10
1510.9883346747536
 20
-1302.4084848277498
  0
LWPOLYLINE
  5
DB
330
17
100
AcDbEntity
  8
MURI_ESISTENTI
100
AcDbPolyline
 90
2
 70
0
 10
1468.063730954907
 20
-1441.49470393512
 10
1502.0261471600497
 20
-1455.7839052594597
  0
LWPOLYLINE
  5
DC
330
17
100
AcDbEntity
  8
MURI_ESISTENTI
100
AcDbPolyline
 90
2
 70
0
 10
1482.3499833081537
 20
-1409.3693213026206
 10
1515.853170453378
 20
-1423.6576978346118
  0
LWPOLYLINE
  5
DD
330
17
100
AcDbEntity
  8
MURI_ESISTENTI
100
AcDbPolyline
 90
2
 70
0
 10
1530.1422549849299
 20
-1389.6952814494082
 10
1495.72202535887
 20
-1374.4870304383367
  0
LWPOLYLINE
  5
DE
330
17
100
AcDbEntity
  8
MURI_ESISTENTI
100
AcDbPolyline
 90
2
 70
0
 10
1495.72202535887
 20
-1374.4870304383367
 10
1481.8914620677353
 20
-1408.9093840630803
  0
LWPOLYLINE
  5
DF
330
17
100
AcDbEntity
  8
MURI_ESISTENTI
100
AcDbPolyline
 90
2
 70
0
 10
1481.8914620677353
 20
-1408.9093840630803
 10
1468.063730954907
 20
-1441.49470393512
  0
LWPOLYLINE
  5
E0
330
17
100
AcDbEntity
  8
MURI_ESISTENTI
100
AcDbPolyline
 90
2
 70
0
 10
1468.063730954907
 20
-1441.49470393512
 10
1453.3161251829372
 20
-1474.997183080783
  0
LWPOLYLINE
  5
E1
330
17
100
AcDbEntity
  8
MURI_ESISTENTI
100
AcDbPolyline
 90
2
 70
0
 10
1500.7907732939282
 20
-1363.4728498629825
 10
1524.7565914836473
 20
-1308.3999394201949
  0
LWPOLYLINE
  5
E2
330
17
100
AcDbEntity
  8
MURI_ESISTENTI
100
AcDbPolyline
 90
2
 70
0
 10
1538.002487777973
 20
-1355.263723290186
 10
1510.007569712555
 20
-1342.8208770458164
  0
LWPOLYLINE
  5
E3
330
17
100
AcDbEntity
  8
MURI_ESISTENTI
100
AcDbPolyline
 90
2
 70
0
 10
1554.5835869447192
 20
-1324.060456108299
 10
1484.5244655146616
 20
-1488.3634441621614
  0
LWPOLYLINE
  5
E4
330
17
100
AcDbEntity
  8
MURI_ESISTENTI
100
AcDbPolyline
 90
2
 70
0
 10
1346.142453398804
 20
-1286.539807805783
 10
1340.6151842233276
 20
-1297.0940511415968
  0
LWPOLYLINE
  5
E5
330
17
100
AcDbEntity
  8
MURI_ESISTENTI
100
AcDbPolyline
 90
2
 70
0
 10
1340.6151842233276
 20
-1297.0940511415968
 10
1500.7907732939282
 20
-1363.4728498629825
  0
LWPOLYLINE
  5
E6
330
17
100
AcDbEntity
  8
MURI_ESISTENTI
100
AcDbPolyline
 90
2
 70
0
 10
1500.7907732939282
 20
-1363.4728498629825
 10
1531.9989966528044
 20
-1376.8392275570873
  0
LWPOLYLINE
  5
E7
330
17
100
AcDbEntity
  8
MURI_ESISTENTI
100
AcDbPolyline
 90
2
 70
0
 10
1531.9989966528044
 20
-1376.8392275570873
 10
1500.7907732939282
 20
-1363.4728498629825
  0
LWPOLYLINE
  5
E8
330
17
100
AcDbEntity
  8
MURI_ESISTENTI
100
AcDbPolyline
 90
2
 70
0
 10
1345.6816911868539
 20
-1287.4576748989066
 10
1336.9623576050608
 20
-1283.3109256216735
  0
LWPOLYLINE
  5
E9
330
17
100
AcDbEntity
  8
MURI_ESISTENTI
100
AcDbPolyline
 90
2
 70
0
 10
1336.9637736041832
 20
-1282.3924671417153
 10
1292.2560628717429
 20
-1386.5731472917637
  0
LWPOLYLINE
  5
EA
330
17
100
AcDbEntity
  8
MURI_ESISTENTI
100
AcDbPolyline
 90
2
 70
0
 10
1204.111581640518
 20
-1366.2301848927389
 10
1287.6359238231234
 20
-1404.476708051941
  0
LWPOLYLINE
  5
EB
330
17
100
AcDbEntity
  8
MURI_ESISTENTI
100
AcDbPolyline
 90
2
 70
0
 10
1287.6359238231234
 20
-1404.476708051941
 10
1294.5509098653038
 20
-1387.4951459495892
  0
LWPOLYLINE
  5
EC
330
17
100
AcDbEntity
  8
MURI_ESISTENTI
100
AcDbPolyline
 90
2
 70
0
 10
1294.5509098653038
 20
-1387.4951459495892
 10
1292.2560628717429
 20
-1386.5731472917637
  0
LWPOLYLINE
  5
ED
330
17
100
AcDbEntity
  8
MURI_ESISTENTI
100
AcDbPolyline
 90
2
 70
0
 10
1304.1887021071161
 20
-1391.6431944331573
 10
1281.6076519930687
 20
-1442.1257028892626
  0
LWPOLYLINE
  5
EE
330
17
100
AcDbEntity
  8
MURI_ESISTENTI
100
AcDbPolyline
 90
2
 70
0
 10
1281.6076519930687
 20
-1442.1257028892626
 10
1351.3688105166184
 20
-1471.1659333706516
  0
LWPOLYLINE
  5
EF
330
17
100
AcDbEntity
  8
MURI_ESISTENTI
100
AcDbPolyline
 90
2
 70
0
 10
1351.3688105166184
 20
-1471.1659333706516
 10
1365.6570700757609
 20
-1437.662862838154
  0
LWPOLYLINE
  5
F0
330
17
100
AcDbEntity
  8
MURI_ESISTENTI
100
AcDbPolyline
 90
2
 70
0
 10
1365.6570700757609
 20
-1437.662862838154
 10
1439.0886391340641
 20
-1469.005020488777
  0
LWPOLYLINE
  5
F1
330
17
100
AcDbEntity
  8
MURI_ESISTENTI
100
AcDbPolyline
 90
2
 70
0
 10
1365.6570700757609
 20
-1437.662862838154
 10
1296.8160197969278
 20
-1407.7054734432634
  0
LWPOLYLINE
  5
F2
330
17
100
AcDbEntity
  8
MURI_ESISTENTI
100
AcDbPolyline
 90
2
 70
0
 10
1204.111581640518
 20
-1366.2301848927389
 10
1211.4872129217997
 20
-1348.33087230999
  0
LWPOLYLINE
  5
F3
330
17
100
AcDbEntity
  8
MURI_ESISTENTI
100
AcDbPolyline
 90
2
 70
0
 10
1211.4872129217997
 20
-1348.33087230999
 10
1194.0485455781525
 20
-1340.037490548311
  0
LWPOLYLINE
  5
F4
330
17
100
AcDbEntity
  8
MURI_ESISTENTI
100
AcDbPolyline
 90
2
 70
0
 10
1194.0485455781525
 20
-1340.037490548311
 10
1353.4424898947407
 20
-1019.727494794996
  0
LWPOLYLINE
  5
F5
330
17
100
AcDbEntity
  8
MURI_ESISTENTI
100
AcDbPolyline
 90
2
 70
0
 10
1353.4424898947407
 20
-1019.727494794996
 10
1270.8139493058293
 20
-996.178307278186
  0
LWPOLYLINE
  5
F6
330
17
100
AcDbEntity
  8
MURI_ESISTENTI
100
AcDbPolyline
 90
2
 70
0
 10
1270.8139493058293
 20
-996.178307278186
 10
1254.6327215077933
 20
-1065.9592906897544
  0
LWPOLYLINE
  5
F7
330
17
100
AcDbEntity
  8
MURI_ESISTENTI
100
AcDbPolyline
 90
2
 70
0
 10
1254.6327215077933
 20
-1065.9592906897544
 10
1237.6433710501465
 20
-1064.0960598729198
  0
LWPOLYLINE
  5
F8
330
17
100
AcDbEntity
  8
MURI_ESISTENTI
100
AcDbPolyline
 90
2
 70
0
 10
1237.6433710501465
 20
-1064.0960598729198
 10
1219.2117854187893
 20
-1104.022317607254
  0
LWPOLYLINE
  5
F9
330
17
100
AcDbEntity
  8
MURI_ESISTENTI
100
AcDbPolyline
 90
2
 70
0
 10
1219.2117854187893
 20
-1104.022317607254
 10
1217.362123926588
 20
-1112.2859623069962
  0
LWPOLYLINE
  5
FA
330
17
100
AcDbEntity
  8
MURI_ESISTENTI
100
AcDbPolyline
 90
2
 70
0
 10
1217.362123926588
 20
-1112.2859623069962
 10
1217.3564597500376
 20
-1115.959913019617
  0
LWPOLYLINE
  5
FB
330
17
100
AcDbEntity
  8
MURI_ESISTENTI
100
AcDbPolyline
 90
2
 70
0
 10
1217.3564597500376
 20
-1115.959913019617
 10
1217.3458392164366
 20
-1122.8487019976665
  0
LWPOLYLINE
  5
FC
330
17
100
AcDbEntity
  8
MURI_ESISTENTI
100
AcDbPolyline
 90
2
 70
0
 10
1217.3458392164366
 20
-1122.8487019976665
 10
1219.6313650627917
 20
-1129.7409141807345
  0
LWPOLYLINE
  5
FD
330
17
100
AcDbEntity
  8
MURI_ESISTENTI
100
AcDbPolyline
 90
2
 70
0
 10
1219.6313650627917
 20
-1129.7409141807345
 10
1099.793660786491
 20
-1410.6165674727242
  0
LWPOLYLINE
  5
FE
330
17
100
AcDbEntity
  8
MURI_ESISTENTI
100
AcDbPolyline
 90
2
 70
0
 10
1099.793660786491
 20
-1410.6165674727242
 10
1481.183714898356
 20
-1570.1046796922953
  0
LWPOLYLINE
  5
FF
330
17
100
AcDbEntity
  8
MURI_ESISTENTI
100
AcDbPolyline
 90
2
 70
0
 10
1481.183714898356
 20
-1570.1046796922953
 10
1275.6248391718009
 20
-2046.0291251774788
  0
LWPOLYLINE
  5
100
330
17
100
AcDbEntity
  8
MURI_ESISTENTI
100
AcDbPolyline
 90
2
 70
0
 10
1393.2546197730485
 20
-2005.796455437673
 10
1623.725385052473
 20
-1456.8899911857006
  0
LWPOLYLINE
  5
101
330
17
100
AcDbEntity
  8
MURI_ESISTENTI
100
AcDbPolyline
 90
2
 70
0
 10
1623.725385052473
 20
-1456.8899911857006
 10
2004.1934405065126
 20
-1618.6729503988324
  0
LWPOLYLINE
  5
102
330
17
100
AcDbEntity
  8
MURI_ESISTENTI
100
AcDbPolyline
 90
2
 70
0
 10
2090.4752824877983
 20
-1655.5458002498897
 10
1823.4205427021939
 20
-2103.3611018332613
  0
LWPOLYLINE
  5
103
330
17
100
AcDbEntity
  8
MURI_ESISTENTI
100
AcDbPolyline
 90
2
 70
0
 10
1823.4205427021939
 20
-2103.3611018332613
 10
1806.8946696619537
 20
-2098.7430867833255
  0
LWPOLYLINE
  5
104
330
17
100
AcDbEntity
  8
MURI_ESISTENTI
100
AcDbPolyline
 90
2
 70
0
 10
1806.8946696619537
 20
-2098.7430867833255
 10
1771.3895946366727
 20
-2191.45684608694
  0
LWPOLYLINE
  5
105
330
17
100
AcDbEntity
  8
MURI_ESISTENTI
100
AcDbPolyline
 90
2
 70
0
 10
1771.3895946366727
 20
-2191.45684608694
 10
1682.3457716338864
 20
-2158.7128110382064
  0
LWPOLYLINE
  5
106
330
17
100
AcDbEntity
  8
MURI_ESISTENTI
100
AcDbPolyline
 90
2
 70
0
 10
1682.3457716338864
 20
-2158.7128110382064
 10
1697.1103701155687
 20
-2114.1883629618937
  0
LWPOLYLINE
  5
107
330
17
100
AcDbEntity
  8
MURI_ESISTENTI
100
AcDbPolyline
 90
2
 70
0
 10
1619.1666800777305
 20
-1732.8916043446486
 10
1534.3358798102558
 20
-1946.3115664601894
  0
LWPOLYLINE
  5
108
330
17
100
AcDbEntity
  8
MURI_ESISTENTI
100
AcDbPolyline
 90
2
 70
0
 10
1534.3358798102558
 20
-1946.3115664601894
 10
1751.4453691689466
 20
-2021.0446372463114
  0
LWPOLYLINE
  5
109
330
17
100
AcDbEntity
  8
MURI_ESISTENTI
100
AcDbPolyline
 90
2
 70
0
 10
1751.4453691689466
 20
-2021.0446372463114
 10
1716.3931513875934
 20
-2117.8921677093
  0
LWPOLYLINE
  5
10A
330
17
100
AcDbEntity
  8
MURI_ESISTENTI
100
AcDbPolyline
 90
2
 70
0
 10
1716.3931513875934
 20
-2117.8921677093
 10
1393.2546197730485
 20
-2005.796455437673
  0
LWPOLYLINE
  5
10B
330
17
100
AcDbEntity
  8
MURI_ESISTENTI
100
AcDbPolyline
 90
2
 70
0
 10
1785.6836355252753
 20
-2154.279591436308
 10
1693.88148793146
 20
-2123.368458755637
  0
LWPOLYLINE
  5
10C
330
17
100
AcDbEntity
  8
MURI_ESISTENTI
100
AcDbPolyline
 90
2
 70
0
 10
2090.4752824877983
 20
-1655.5458002498897
 10
2125.038533607114
 20
-1577.9861242087636
  0
LWPOLYLINE
  5
10D
330
17
100
AcDbEntity
  8
MURI_ESISTENTI
100
AcDbPolyline
 90
2
 70
0
 10
2004.1934405065126
 20
-1618.6729503988324
 10
2038.758932777421
 20
-1539.735353232255
  0
LWPOLYLINE
  5
10E
330
17
100
AcDbEntity
  8
MURI_ESISTENTI
100
AcDbPolyline
 90
2
 70
0
 10
1484.5199359555832
 20
-1789.1716843835306
 10
1429.4456095136723
 20
-1766.1243246737697
  0
LWPOLYLINE
  5
10F
330
17
100
AcDbEntity
  8
MURI_ESISTENTI
100
AcDbPolyline
 90
2
 70
0
 10
1429.4456095136723
 20
-1766.1243246737697
 10
1472.7862530597763
 20
-1655.052731546988
  0
LWPOLYLINE
  5
110
330
17
100
AcDbEntity
  8
MURI_ESISTENTI
100
AcDbPolyline
 90
2
 70
0
 10
1472.7862530597763
 20
-1655.052731546988
 10
1530.6139475556047
 20
-1679.4821439469022
  0
LWPOLYLINE
  5
111
330
17
100
AcDbEntity
  8
MURI_ESISTENTI
100
AcDbPolyline
 90
2
 70
0
 10
1570.0569031645734
 20
-1713.527399701926
 10
1524.1618477240572
 20
-1694.1681512361927
  0
LWPOLYLINE
  5
112
330
17
100
AcDbEntity
  8
MURI_ESISTENTI
100
AcDbPolyline
 90
2
 70
0
 10
1524.1618477240572
 20
-1694.1681512361927
 10
1619.1666800777305
 20
-1732.8916043446486
  0
LWPOLYLINE
  5
113
330
17
100
AcDbEntity
  8
MURI_ESISTENTI
100
AcDbPolyline
 90
2
 70
0
 10
1435.6612279485423
 20
-1904.8270735552474
 10
1534.3358798102558
 20
-1946.3115664601894
  0
LWPOLYLINE
  5
114
330
17
100
AcDbEntity
  8
MURI_ESISTENTI
100
AcDbPolyline
 90
2
 70
0
 10
1534.3358798102558
 20
-1946.3115664601894
 10
1500.6613497488402
 20
-2043.161220921862
  0
LWPOLYLINE
  5
115
330
17
100
AcDbEntity
  8
MURI_ESISTENTI
100
AcDbPolyline
 90
2
 70
0
 10
1544.9395683032376
 20
-1919.6915039364026
 10
1446.7228464751684
 20
-1879.1261776910412
  0
LWPOLYLINE
  5
116
330
17
100
AcDbEntity
  8
MURI_ESISTENTI
100
AcDbPolyline
 90
2
 70
0
 10
1555.5433735890067
 20
-1893.0714415926777
 10
1457.7851730013554
 20
-1852.966052586856
  0
LWPOLYLINE
  5
117
330
17
100
AcDbEntity
  8
MURI_ESISTENTI
100
AcDbPolyline
 90
2
 70
0
 10
1536.7736316843452
 20
-1854.4655210929689
 10
1468.848915706726
 20
-1825.8873522099254
  0
LWPOLYLINE
  5
118
330
17
100
AcDbEntity
  8
MURI_ESISTENTI
100
AcDbPolyline
 90
2
 70
0
 10
1468.848915706726
 20
-1825.8873522099254
 10
1566.1478870543979
 20
-1865.992033216185
  0
LWPOLYLINE
  5
119
330
17
100
AcDbEntity
  8
MURI_ESISTENTI
100
AcDbPolyline
 90
2
 70
0
 10
1576.7515755473805
 20
-1839.371970692399
 10
1478.9898347818619
 20
-1801.562844679261
  0
LWPOLYLINE
  5
11A
330
17
100
AcDbEntity
  8
MURI_ESISTENTI
100
AcDbPolyline
 90
2
 70
0
 10
1587.3553808331494
 20
-1812.7519083486734
 10
1490.9748679654351
 20
-1772.6486433415355
  0
LWPOLYLINE
  5
11B
330
17
100
AcDbEntity
  8
MURI_ESISTENTI
100
AcDbPolyline
 90
2
 70
0
 10
1597.4984242670905
 20
-1787.0494795124969
 10
1501.5758412529597
 20
-1747.8654979577268
  0
LWPOLYLINE
  5
11C
330
17
100
AcDbEntity
  8
MURI_ESISTENTI
100
AcDbPolyline
 90
2
 70
0
 10
1608.1029375524208
 20
-1759.970187928792
 10
1513.0988130182484
 20
-1720.7876223731446
  0
LWPOLYLINE
  5
11D
330
17
100
AcDbEntity
  8
MURI_ESISTENTI
100
AcDbPolyline
 90
2
 70
0
 10
1526.8250152109529
 20
-2051.927167662578
 10
1560.499545092308
 20
-1955.0776299936933
  0
LWPOLYLINE
  5
11E
330
17
100
AcDbEntity
  8
MURI_ESISTENTI
100
AcDbPolyline
 90
2
 70
0
 10
1554.8242980665261
 20
-2061.6146386471337
 10
1587.580960854757
 20
-1964.3043387662988
  0
LWPOLYLINE
  5
11F
330
17
100
AcDbEntity
  8
MURI_ESISTENTI
100
AcDbPolyline
 90
2
 70
0
 10
1581.4464844089352
 20
-2070.8407562129655
 10
1615.1210144703507
 20
-1973.9911017512932
  0
LWPOLYLINE
  5
120
330
17
100
AcDbEntity
  8
MURI_ESISTENTI
100
AcDbPolyline
 90
2
 70
0
 10
1608.5279003514454
 20
-2080.067348192784
 10
1641.7432009928207
 20
-1983.2171025243376
  0
LWPOLYLINE
  5
121
330
17
100
AcDbEntity
  8
MURI_ESISTENTI
100
AcDbPolyline
 90
2
 70
0
 10
1581.4464844089352
 20
-2070.8407562129655
 10
1668.823908755709
 20
-1992.9030405369224
  0
LWPOLYLINE
  5
122
330
17
100
AcDbEntity
  8
MURI_ESISTENTI
100
AcDbPolyline
 90
2
 70
0
 10
1674.791290282707
 20
-1994.7492786440444
 10
1586.0361783960568
 20
-2072.684753528616
  0
LWPOLYLINE
  5
123
330
17
100
AcDbEntity
  8
MURI_ESISTENTI
100
AcDbPolyline
 90
2
 70
0
 10
1634.6909742466623
 20
-2089.2927579391153
 10
1668.823908755709
 20
-1992.9030405369224
  0
LWPOLYLINE
  5
124
330
17
100
AcDbEntity
  8
MURI_ESISTENTI
100
AcDbPolyline
 90
2
 70
0
 10
1662.6901406695697
 20
-2098.979995158035
 10
1696.3646703708637
 20
-2002.130574281938
  0
LWPOLYLINE
  5
125
330
17
100
AcDbEntity
  8
MURI_ESISTENTI
100
AcDbPolyline
 90
2
 70
0
 10
1689.7709650451848
 20
-2108.666050143468
 10
1723.445378133752
 20
-2011.8165122945227
  0
LWPOLYLINE
  5
126
330
17
100
AcDbEntity
  8
MURI_ESISTENTI
100
AcDbPolyline
 90
2
 70
0
 10
1538.0232830547225
 20
-1937.5915246987738
 10
1750.5417794000184
 20
-2011.3989400364771
  0
LWPOLYLINE
  5
127
330
17
100
AcDbEntity
  8
MURI_ESISTENTI
100
AcDbPolyline
 90
2
 70
0
 10
1750.5417794000184
 20
-2011.3989400364771
 10
1823.4205427021939
 20
-2103.3611018332613
  0
LWPOLYLINE
  5
128
330
17
100
AcDbEntity
  8
ARREDI_BAR_RIMOSSI
100
AcDbPolyline
 90
2
 70
0
 10
1579.8608007639373
 20
-1907.804886653179
 10
1835.0674194324024
 20
-1995.9148390542803
  0
LWPOLYLINE
  5
129
330
17
100
AcDbEntity
  8
ARREDI_BAR_RIMOSSI
100
AcDbPolyline
 90
2
 70
0
 10
1835.0674194324024
 20
-1995.9148390542803
 10
1864.6121927462377
 20
-1896.76266603654
  0
LWPOLYLINE
  5
12A
330
17
100
AcDbEntity
  8
ARREDI_BAR_RIMOSSI
100
AcDbPolyline
 90
2
 70
0
 10
1864.6121927462377
 20
-1896.76266603654
 10
1613.07397758669
 20
-1812.3322119118834
  0
LWPOLYLINE
  5
12B
330
17
100
AcDbEntity
  8
ARREDI_BAR_RIMOSSI
100
AcDbPolyline
 90
2
 70
0
 10
1613.07397758669
 20
-1812.3322119118834
 10
1580.319322004355
 20
-1908.26482389272
  0
LWPOLYLINE
  5
12C
330
17
100
AcDbEntity
  8
ARREDI_BAR_RIMOSSI
100
AcDbPolyline
 90
2
 70
0
 10
1853.0701042725525
 20
-1936.240198271709
 10
1600.6169706308526
 20
-1849.5121819480341
  0
LWPOLYLINE
  5
12D
330
17
100
AcDbEntity
  8
MURI_ESISTENTI
100
AcDbPolyline
 90
2
 70
0
 10
2206.0516534890908
 20
-1457.7877710016364
 10
2251.0247104518417
 20
-1479.4417496681428
  0
LWPOLYLINE
  5
12E
330
17
100
AcDbEntity
  8
MURI_ESISTENTI
100
AcDbPolyline
 90
2
 70
0
 10
2251.0247104518417
 20
-1479.4417496681428
 10
2316.4044521149203
 20
-1371.6190971990643
  0
LWPOLYLINE
  5
12F
330
17
100
AcDbEntity
  8
MURI_ESISTENTI
100
AcDbPolyline
 90
2
 70
0
 10
2316.4044521149203
 20
-1371.6190971990643
 10
2267.7516634702097
 20
-1353.6334048885665
  0
LWPOLYLINE
  5
130
330
17
100
AcDbEntity
  8
MURI_ESISTENTI
100
AcDbPolyline
 90
2
 70
0
 10
2213.8526455637734
 20
-1461.9329876670201
 10
2276.931759444014
 20
-1356.862170279889
  0
LWPOLYLINE
  5
131
330
17
100
AcDbEntity
  8
MURI_ESISTENTI
100
AcDbPolyline
 90
2
 70
0
 10
2083.5684351792756
 20
-1667.475607667079
 10
2124.8615265143717
 20
-1692.7981059150472
  0
LWPOLYLINE
  5
132
330
17
100
AcDbEntity
  8
MURI_ESISTENTI
100
AcDbPolyline
 90
2
 70
0
 10
2124.8615265143717
 20
-1692.7981059150472
 10
2065.92137373613
 20
-1794.2012281529437
  0
LWPOLYLINE
  5
133
330
17
100
AcDbEntity
  8
MURI_ESISTENTI
100
AcDbPolyline
 90
2
 70
0
 10
2065.92137373613
 20
-1794.2012281529437
 10
2022.7910148826943
 20
-1768.876014159335
  0
LWPOLYLINE
  5
134
330
17
100
AcDbEntity
  8
MURI_ESISTENTI
100
AcDbPolyline
 90
2
 70
0
 10
2031.5089324653654
 20
-1773.9412219165265
 10
2090.9090226632084
 20
-1672.0794616454248
  0
LWPOLYLINE
  5
135
330
17
100
AcDbEntity
  8
MURI_ESISTENTI
100
AcDbPolyline
 90
2
 70
0
 10
1405.312288599639
 20
-738.2877073937779
 10
1458.7888948638279
 20
-606.1064450017604
  0
LWPOLYLINE
  5
136
330
17
100
AcDbEntity
  8
MURI_ESISTENTI
100
AcDbPolyline
 90
2
 70
0
 10
1458.7888948638279
 20
-606.1064450017604
 10
1129.1474020813846
 20
-541.7626469914333
  0
LWPOLYLINE
  5
137
330
17
100
AcDbEntity
  8
MURI_ESISTENTI
100
AcDbPolyline
 90
2
 70
0
 10
1129.1474020813846
 20
-541.7626469914333
 10
1131.4272635711284
 20
-552.3289266799095
  0
LWPOLYLINE
  5
138
330
17
100
AcDbEntity
  8
MURI_ESISTENTI
100
AcDbPolyline
 90
2
 70
0
 10
1131.4272635711284
 20
-552.3289266799095
 10
748.0883072743634
 20
-465.39912201842316
  0
LWPOLYLINE
  5
139
330
17
100
AcDbEntity
  8
MURI_ESISTENTI
100
AcDbPolyline
 90
2
 70
0
 10
748.0883072743634
 20
-465.39912201842316
 10
727.7243377538331
 20
-567.3209479802944
  0
LWPOLYLINE
  5
13A
330
17
100
AcDbEntity
  8
MURI_ESISTENTI
100
AcDbPolyline
 90
2
 70
0
 10
727.7243377538331
 20
-567.3209479802944
 10
1468.204482853097
 20
-754.4584314510001
  0
LWPOLYLINE
  5
13B
330
17
100
AcDbEntity
  8
MURI_ESISTENTI
100
AcDbPolyline
 90
2
 70
0
 10
1508.3027915031846
 20
-661.292756848715
 10
1446.8031535006319
 20
-635.4799923722518
  0
LWPOLYLINE
  5
13C
330
17
100
AcDbEntity
  8
MURI_ESISTENTI
100
AcDbPolyline
 90
2
 70
0
 10
1338.2876222130815
 20
-721.6514987132517
 10
1327.6611600410486
 20
-762.967480700247
  0
LWPOLYLINE
  5
13D
330
17
100
AcDbEntity
  8
MURI_ESISTENTI
100
AcDbPolyline
 90
2
 70
0
 10
1327.6611600410486
 20
-762.967480700247
 10
1248.7016138077076
 20
-742.6387956254166
  0
LWPOLYLINE
  5
13E
330
17
100
AcDbEntity
  8
MURI_ESISTENTI
100
AcDbPolyline
 90
2
 70
0
 10
1248.7016138077076
 20
-742.6387956254166
 10
1254.7369661735574
 20
-700.3971580099416
  0
LWPOLYLINE
  5
13F
330
17
100
AcDbEntity
  8
MURI_ESISTENTI
100
AcDbPolyline
 90
2
 70
0
 10
1348.103556345169
 20
-908.1217382064974
 10
1349.0085622932813
 20
-916.848860143586
  0
LWPOLYLINE
  5
140
330
17
100
AcDbEntity
  8
MURI_ESISTENTI
100
AcDbPolyline
 90
2
 70
0
 10
1349.0085622932813
 20
-916.848860143586
 10
1436.6839021106093
 20
-943.6204406955453
  0
LWPOLYLINE
  5
141
330
17
100
AcDbEntity
  8
MURI_ESISTENTI
100
AcDbPolyline
 90
2
 70
0
 10
1436.6839021106093
 20
-943.6204406955453
 10
1440.8319505941774
 20
-933.982648453733
  0
LWPOLYLINE
  5
142
330
17
100
AcDbEntity
  8
MURI_ESISTENTI
100
AcDbPolyline
 90
2
 70
0
 10
1440.8319505941774
 20
-933.982648453733
 10
1395.8441420733063
 20
-921.9727175924245
  0
LWPOLYLINE
  5
143
330
17
100
AcDbEntity
  8
MURI_ESISTENTI
100
AcDbPolyline
 90
2
 70
0
 10
1312.1279239068679
 20
-1008.1825741430049
 10
1336.6145699993062
 20
-913.1556759297812
  0
LWPOLYLINE
  5
144
330
17
100
AcDbEntity
  8
MURI_ESISTENTI
100
AcDbPolyline
 90
2
 70
0
 10
1336.6145699993062
 20
-913.1556759297812
 10
1348.555705409475
 20
-912.7148553986376
  0
LWPOLYLINE
  5
145
330
17
100
AcDbEntity
  8
MURI_ESISTENTI
100
AcDbPolyline
 90
2
 70
0
 10
1348.555705409475
 20
-912.7148553986376
 10
1321.309319087007
 20
-1010.4928808743078
  0
LWPOLYLINE
  5
146
330
17
100
AcDbEntity
  8
MURI_ESISTENTI
100
AcDbPolyline
 90
2
 70
0
 10
1314.8997008496817
 20
-997.6240826297629
 10
1326.8344640837386
 20
-1001.316442051219
  0
LWPOLYLINE
  5
147
330
17
100
AcDbEntity
  8
MURI_ESISTENTI
100
AcDbPolyline
 90
2
 70
0
 10
1326.8344640837386
 20
-1001.316442051219
 10
1338.7720593160404
 20
-1003.1718845127585
  0
LWPOLYLINE
  5
148
330
17
100
AcDbEntity
  8
MURI_ESISTENTI
100
AcDbPolyline
 90
2
 70
0
 10
1338.7720593160404
 20
-1003.1718845127585
 10
1351.1710079670659
 20
-1003.6502304611345
  0
LWPOLYLINE
  5
149
330
17
100
AcDbEntity
  8
MURI_ESISTENTI
100
AcDbPolyline
 90
2
 70
0
 10
1351.1710079670659
 20
-1003.6502304611345
 10
1363.113559556418
 20
-1002.2908346572451
  0
LWPOLYLINE
  5
14A
330
17
100
AcDbEntity
  8
MURI_ESISTENTI
100
AcDbPolyline
 90
2
 70
0
 10
1363.113559556418
 20
-1002.2908346572451
 10
1375.51758117722
 20
-999.5544593130402
  0
LWPOLYLINE
  5
14B
330
17
100
AcDbEntity
  8
MURI_ESISTENTI
100
AcDbPolyline
 90
2
 70
0
 10
1375.51758117722
 20
-999.5544593130402
 10
1387.0051515239604
 20
-995.4389800697147
  0
LWPOLYLINE
  5
14C
330
17
100
AcDbEntity
  8
MURI_ESISTENTI
100
AcDbPolyline
 90
2
 70
0
 10
1387.0051515239604
 20
-995.4389800697147
 10
1397.5762707766994
 20
-989.944280134481
  0
LWPOLYLINE
  5
14D
330
17
100
AcDbEntity
  8
MURI_ESISTENTI
100
AcDbPolyline
 90
2
 70
0
 10
1397.5762707766994
 20
-989.944280134481
 10
1407.691109580492
 20
-982.6119554198305
  0
LWPOLYLINE
  5
14E
330
17
100
AcDbEntity
  8
MURI_ESISTENTI
100
AcDbPolyline
 90
2
 70
0
 10
1407.691109580492
 20
-982.6119554198305
 10
1416.8887892907217
 20
-974.3596392532506
  0
LWPOLYLINE
  5
14F
330
17
100
AcDbEntity
  8
MURI_ESISTENTI
100
AcDbPolyline
 90
2
 70
0
 10
1416.8887892907217
 20
-974.3596392532506
 10
1424.7101974601978
 20
-965.1866238152417
  0
LWPOLYLINE
  5
150
330
17
100
AcDbEntity
  8
MURI_ESISTENTI
100
AcDbPolyline
 90
2
 70
0
 10
1424.7101974601978
 20
-965.1866238152417
 10
1431.6151541755507
 20
-954.6346212708992
  0
LWPOLYLINE
  5
151
330
17
100
AcDbEntity
  8
MURI_ESISTENTI
100
AcDbPolyline
 90
2
 70
0
 10
1431.6151541755507
 20
-954.6346212708992
 10
1436.6839021106093
 20
-943.6204406955453
  0
LWPOLYLINE
  5
152
330
17
100
AcDbEntity
  8
MURI_ESISTENTI
100
AcDbPolyline
 90
2
 70
0
 10
1478.2214969633133
 20
-810.5023111147341
 10
1477.3087028399664
 20
-806.8268276102036
  0
LWPOLYLINE
  5
153
330
17
100
AcDbEntity
  8
MURI_ESISTENTI
100
AcDbPolyline
 90
2
 70
0
 10
1477.3087028399664
 20
-806.8268276102036
 10
1475.4766252642519
 20
-803.6092739592565
  0
LWPOLYLINE
  5
154
330
17
100
AcDbEntity
  8
MURI_ESISTENTI
100
AcDbPolyline
 90
2
 70
0
 10
1475.4766252642519
 20
-803.6092739592565
 10
1472.2654439694775
 20
-801.3080547895837
  0
LWPOLYLINE
  5
155
330
17
100
AcDbEntity
  8
MURI_ESISTENTI
100
AcDbPolyline
 90
2
 70
0
 10
1472.2654439694775
 20
-801.3080547895837
 10
1468.5922012564179
 20
-800.8431613730538
  0
LWPOLYLINE
  5
156
330
17
100
AcDbEntity
  8
MURI_ESISTENTI
100
AcDbPolyline
 90
2
 70
0
 10
1468.5922012564179
 20
-800.8431613730538
 10
1464.9175425442365
 20
-801.2967264364825
  0
LWPOLYLINE
  5
157
330
17
100
AcDbEntity
  8
MURI_ESISTENTI
100
AcDbPolyline
 90
2
 70
0
 10
1464.9175425442365
 20
-801.2967264364825
 10
1461.6992808937277
 20
-803.5880332521759
  0
LWPOLYLINE
  5
158
330
17
100
AcDbEntity
  8
MURI_ESISTENTI
100
AcDbPolyline
 90
2
 70
0
 10
1461.6992808937277
 20
-803.5880332521759
 10
1459.3980617240552
 20
-806.7992145469505
  0
LWPOLYLINE
  5
159
330
17
100
AcDbEntity
  8
MURI_ESISTENTI
100
AcDbPolyline
 90
2
 70
0
 10
1459.3980617240552
 20
-806.7992145469505
 10
1458.9331681274646
 20
-810.4725740527973
  0
LWPOLYLINE
  5
15A
330
17
100
AcDbEntity
  8
MURI_ESISTENTI
100
AcDbPolyline
 90
2
 70
0
 10
1458.9331681274646
 20
-810.4725740527973
 10
1459.3867331908928
 20
-814.147232764979
  0
LWPOLYLINE
  5
15B
330
17
100
AcDbEntity
  8
MURI_ESISTENTI
100
AcDbPolyline
 90
2
 70
0
 10
1459.3867331908928
 20
-814.147232764979
 10
1461.6787480061478
 20
-816.9062651755083
  0
LWPOLYLINE
  5
15C
330
17
100
AcDbEntity
  8
MURI_ESISTENTI
100
AcDbPolyline
 90
2
 70
0
 10
1461.6787480061478
 20
-816.9062651755083
 10
1464.8899293009222
 20
-819.207484345181
  0
LWPOLYLINE
  5
15D
330
17
100
AcDbEntity
  8
MURI_ESISTENTI
100
AcDbPolyline
 90
2
 70
0
 10
1464.8899293009222
 20
-819.207484345181
 10
1468.5624640144204
 20
-820.1316070016901
  0
LWPOLYLINE
  5
15E
330
17
100
AcDbEntity
  8
MURI_ESISTENTI
100
AcDbPolyline
 90
2
 70
0
 10
1468.5624640144204
 20
-820.1316070016901
 10
1472.2378307261636
 20
-819.2188126982825
  0
LWPOLYLINE
  5
15F
330
17
100
AcDbEntity
  8
MURI_ESISTENTI
100
AcDbPolyline
 90
2
 70
0
 10
1472.2378307261636
 20
-819.2188126982825
 10
1475.4560923766721
 20
-816.9275058825889
  0
LWPOLYLINE
  5
160
330
17
100
AcDbEntity
  8
MURI_ESISTENTI
100
AcDbPolyline
 90
2
 70
0
 10
1475.4560923766721
 20
-816.9275058825889
 10
1477.297374306804
 20
-814.1748458282322
  0
LWPOLYLINE
  5
161
330
17
100
AcDbEntity
  8
MURI_ESISTENTI
100
AcDbPolyline
 90
2
 70
0
 10
1477.297374306804
 20
-814.1748458282322
 10
1478.2214969633133
 20
-810.5023111147341
  0
LWPOLYLINE
  5
162
330
17
100
AcDbEntity
  8
MURI_ESISTENTI
100
AcDbPolyline
 90
2
 70
0
 10
1469.9210350259611
 20
-832.5333876509605
 10
1469.0082407225534
 20
-828.8580209392173
  0
LWPOLYLINE
  5
163
330
17
100
AcDbEntity
  8
MURI_ESISTENTI
100
AcDbPolyline
 90
2
 70
0
 10
1469.0082407225534
 20
-828.8580209392173
 10
1467.175571940065
 20
-826.0996967083101
  0
LWPOLYLINE
  5
164
330
17
100
AcDbEntity
  8
MURI_ESISTENTI
100
AcDbPolyline
 90
2
 70
0
 10
1467.175571940065
 20
-826.0996967083101
 10
1463.9642738525033
 20
-823.7984773585765
  0
LWPOLYLINE
  5
165
330
17
100
AcDbEntity
  8
MURI_ESISTENTI
100
AcDbPolyline
 90
2
 70
0
 10
1463.9642738525033
 20
-823.7984773585765
 10
1460.2910311394437
 20
-823.3335839420466
  0
LWPOLYLINE
  5
166
330
17
100
AcDbEntity
  8
MURI_ESISTENTI
100
AcDbPolyline
 90
2
 70
0
 10
1460.2910311394437
 20
-823.3335839420466
 10
1456.6163724272621
 20
-823.7871490054753
  0
LWPOLYLINE
  5
167
330
17
100
AcDbEntity
  8
MURI_ESISTENTI
100
AcDbPolyline
 90
2
 70
0
 10
1456.6163724272621
 20
-823.7871490054753
 10
1453.8573400167327
 20
-826.0791638207301
  0
LWPOLYLINE
  5
168
330
17
100
AcDbEntity
  8
MURI_ESISTENTI
100
AcDbPolyline
 90
2
 70
0
 10
1453.8573400167327
 20
-826.0791638207301
 10
1451.5568288466213
 20
-828.8311158755254
  0
LWPOLYLINE
  5
169
330
17
100
AcDbEntity
  8
MURI_ESISTENTI
100
AcDbPolyline
 90
2
 70
0
 10
1451.5568288466213
 20
-828.8311158755254
 10
1451.0919354300918
 20
-832.5043585885848
  0
LWPOLYLINE
  5
16A
330
17
100
AcDbEntity
  8
MURI_ESISTENTI
100
AcDbPolyline
 90
2
 70
0
 10
1451.0919354300918
 20
-832.5043585885848
 10
1451.545500313459
 20
-836.179134093554
  0
LWPOLYLINE
  5
16B
330
17
100
AcDbEntity
  8
MURI_ESISTENTI
100
AcDbPolyline
 90
2
 70
0
 10
1451.545500313459
 20
-836.179134093554
 10
1453.8368071291527
 20
-839.3973957440624
  0
LWPOLYLINE
  5
16C
330
17
100
AcDbEntity
  8
MURI_ESISTENTI
100
AcDbPolyline
 90
2
 70
0
 10
1453.8368071291527
 20
-839.3973957440624
 10
1456.5894673635703
 20
-841.2385608814075
  0
LWPOLYLINE
  5
16D
330
17
100
AcDbEntity
  8
MURI_ESISTENTI
100
AcDbPolyline
 90
2
 70
0
 10
1456.5894673635703
 20
-841.2385608814075
 10
1460.2620018970072
 20
-842.1628003307036
  0
LWPOLYLINE
  5
16E
330
17
100
AcDbEntity
  8
MURI_ESISTENTI
100
AcDbPolyline
 90
2
 70
0
 10
1460.2620018970072
 20
-842.1628003307036
 10
1463.9373687888112
 20
-841.2498892345086
  0
LWPOLYLINE
  5
16F
330
17
100
AcDbEntity
  8
MURI_ESISTENTI
100
AcDbPolyline
 90
2
 70
0
 10
1463.9373687888112
 20
-841.2498892345086
 10
1467.1550390524853
 20
-839.4179286316426
  0
LWPOLYLINE
  5
170
330
17
100
AcDbEntity
  8
MURI_ESISTENTI
100
AcDbPolyline
 90
2
 70
0
 10
1467.1550390524853
 20
-839.4179286316426
 10
1468.9969121893912
 20
-836.206039157246
  0
LWPOLYLINE
  5
171
330
17
100
AcDbEntity
  8
MURI_ESISTENTI
100
AcDbPolyline
 90
2
 70
0
 10
1468.9969121893912
 20
-836.206039157246
 10
1469.9210350259611
 20
-832.5333876509605
  0
LWPOLYLINE
  5
172
330
17
100
AcDbEntity
  8
MURI_ESISTENTI
100
AcDbPolyline
 90
2
 70
0
 10
1461.6263538778862
 20
-850.8906304474143
 10
1460.71273478213
 20
-847.6744927955895
  0
LWPOLYLINE
  5
173
330
17
100
AcDbEntity
  8
MURI_ESISTENTI
100
AcDbPolyline
 90
2
 70
0
 10
1460.71273478213
 20
-847.6744927955895
 10
1458.4200119673142
 20
-845.3746896250394
  0
LWPOLYLINE
  5
174
330
17
100
AcDbEntity
  8
MURI_ESISTENTI
100
AcDbPolyline
 90
2
 70
0
 10
1458.4200119673142
 20
-845.3746896250394
 10
1455.2067066738562
 20
-844.4511581753043
  0
LWPOLYLINE
  5
175
330
17
100
AcDbEntity
  8
MURI_ESISTENTI
100
AcDbPolyline
 90
2
 70
0
 10
1455.2067066738562
 20
-844.4511581753043
 10
1451.9905690220312
 20
-845.3647772710603
  0
LWPOLYLINE
  5
176
330
17
100
AcDbEntity
  8
MURI_ESISTENTI
100
AcDbPolyline
 90
2
 70
0
 10
1451.9905690220312
 20
-845.3647772710603
 10
1449.6907658514808
 20
-847.6575000858764
  0
LWPOLYLINE
  5
177
330
17
100
AcDbEntity
  8
MURI_ESISTENTI
100
AcDbPolyline
 90
2
 70
0
 10
1449.6907658514808
 20
-847.6575000858764
 10
1448.7673511945331
 20
-850.8708055593956
  0
LWPOLYLINE
  5
178
330
17
100
AcDbEntity
  8
MURI_ESISTENTI
100
AcDbPolyline
 90
2
 70
0
 10
1448.7673511945331
 20
-850.8708055593956
 10
1449.6808534975016
 20
-854.0869430311594
  0
LWPOLYLINE
  5
179
330
17
100
AcDbEntity
  8
MURI_ESISTENTI
100
AcDbPolyline
 90
2
 70
0
 10
1449.6808534975016
 20
-854.0869430311594
 10
1451.9728683127569
 20
-856.8459754416887
  0
LWPOLYLINE
  5
17A
330
17
100
AcDbEntity
  8
MURI_ESISTENTI
100
AcDbPolyline
 90
2
 70
0
 10
1451.9728683127569
 20
-856.8459754416887
 10
1455.186881785837
 20
-857.3101608586574
  0
LWPOLYLINE
  5
17B
330
17
100
AcDbEntity
  8
MURI_ESISTENTI
100
AcDbPolyline
 90
2
 70
0
 10
1455.186881785837
 20
-857.3101608586574
 10
1458.4023112580396
 20
-856.8558877956677
  0
LWPOLYLINE
  5
17C
330
17
100
AcDbEntity
  8
MURI_ESISTENTI
100
AcDbPolyline
 90
2
 70
0
 10
1458.4023112580396
 20
-856.8558877956677
 10
1460.702822428151
 20
-854.1039357408723
  0
LWPOLYLINE
  5
17D
330
17
100
AcDbEntity
  8
MURI_ESISTENTI
100
AcDbPolyline
 90
2
 70
0
 10
1460.702822428151
 20
-854.1039357408723
 10
1461.6263538778862
 20
-850.8906304474143
  0
LWPOLYLINE
  5
17E
330
17
100
AcDbEntity
  8
MURI_ESISTENTI
100
AcDbPolyline
 90
2
 70
0
 10
1455.633483286319
 20
-865.5773457362666
 10
1455.1790934305416
 20
-862.3619160840028
  0
LWPOLYLINE
  5
17F
330
17
100
AcDbEntity
  8
MURI_ESISTENTI
100
AcDbPolyline
 90
2
 70
0
 10
1455.1790934305416
 20
-862.3619160840028
 10
1452.8864874085132
 20
-860.0621130935136
  0
LWPOLYLINE
  5
180
330
17
100
AcDbEntity
  8
MURI_ESISTENTI
100
AcDbPolyline
 90
2
 70
0
 10
1452.8864874085132
 20
-860.0621130935136
 10
1449.6723571426453
 20
-859.597927496484
  0
LWPOLYLINE
  5
181
330
17
100
AcDbEntity
  8
MURI_ESISTENTI
100
AcDbPolyline
 90
2
 70
0
 10
1449.6723571426453
 20
-859.597927496484
 10
1446.4569276704426
 20
-860.0522005594737
  0
LWPOLYLINE
  5
182
330
17
100
AcDbEntity
  8
MURI_ESISTENTI
100
AcDbPolyline
 90
2
 70
0
 10
1446.4569276704426
 20
-860.0522005594737
 10
1444.15724129268
 20
-862.3449235543508
  0
LWPOLYLINE
  5
183
330
17
100
AcDbEntity
  8
MURI_ESISTENTI
100
AcDbPolyline
 90
2
 70
0
 10
1444.15724129268
 20
-862.3449235543508
 10
1443.2337098429448
 20
-865.5582288478088
  0
LWPOLYLINE
  5
184
330
17
100
AcDbEntity
  8
MURI_ESISTENTI
100
AcDbPolyline
 90
2
 70
0
 10
1443.2337098429448
 20
-865.5582288478088
 10
1444.1473289387009
 20
-868.7743664996337
  0
LWPOLYLINE
  5
185
330
17
100
AcDbEntity
  8
MURI_ESISTENTI
100
AcDbPolyline
 90
2
 70
0
 10
1444.1473289387009
 20
-868.7743664996337
 10
1446.43993496073
 20
-871.074169490123
  0
LWPOLYLINE
  5
186
330
17
100
AcDbEntity
  8
MURI_ESISTENTI
100
AcDbPolyline
 90
2
 70
0
 10
1446.43993496073
 20
-871.074169490123
 10
1449.6532404342488
 20
-871.9975841470708
  0
LWPOLYLINE
  5
187
330
17
100
AcDbEntity
  8
MURI_ESISTENTI
100
AcDbPolyline
 90
2
 70
0
 10
1449.6532404342488
 20
-871.9975841470708
 10
1452.8694946988
 20
-871.0840820241629
  0
LWPOLYLINE
  5
188
330
17
100
AcDbEntity
  8
MURI_ESISTENTI
100
AcDbPolyline
 90
2
 70
0
 10
1452.8694946988
 20
-871.0840820241629
 10
1455.1691810765628
 20
-868.7913590292857
  0
LWPOLYLINE
  5
189
330
17
100
AcDbEntity
  8
MURI_ESISTENTI
100
AcDbPolyline
 90
2
 70
0
 10
1455.1691810765628
 20
-868.7913590292857
 10
1455.633483286319
 20
-865.5773457362666
  0
LWPOLYLINE
  5
18A
330
17
100
AcDbEntity
  8
MURI_ESISTENTI
100
AcDbPolyline
 90
2
 70
0
 10
1451.4803618329736
 20
-878.4298592706593
 10
1451.0246727708616
 20
-876.132888278415
  0
LWPOLYLINE
  5
18B
330
17
100
AcDbEntity
  8
MURI_ESISTENTI
100
AcDbPolyline
 90
2
 70
0
 10
1451.0246727708616
 20
-876.132888278415
 10
1448.7319497759845
 20
-873.8332019006522
  0
LWPOLYLINE
  5
18C
330
17
100
AcDbEntity
  8
MURI_ESISTENTI
100
AcDbPolyline
 90
2
 70
0
 10
1448.7319497759845
 20
-873.8332019006522
 10
1446.4363947828629
 20
-873.3704324828061
  0
LWPOLYLINE
  5
18D
330
17
100
AcDbEntity
  8
MURI_ESISTENTI
100
AcDbPolyline
 90
2
 70
0
 10
1446.4363947828629
 20
-873.3704324828061
 10
1443.680194550639
 20
-873.8254135453569
  0
LWPOLYLINE
  5
18E
330
17
100
AcDbEntity
  8
MURI_ESISTENTI
100
AcDbPolyline
 90
2
 70
0
 10
1443.680194550639
 20
-873.8254135453569
 10
1441.8397375929164
 20
-876.1187277470078
  0
LWPOLYLINE
  5
18F
330
17
100
AcDbEntity
  8
MURI_ESISTENTI
100
AcDbPolyline
 90
2
 70
0
 10
1441.8397375929164
 20
-876.1187277470078
 10
1440.9176221423038
 20
-878.4135745605076
  0
LWPOLYLINE
  5
190
330
17
100
AcDbEntity
  8
MURI_ESISTENTI
100
AcDbPolyline
 90
2
 70
0
 10
1440.9176221423038
 20
-878.4135745605076
 10
1441.831949237621
 20
-881.1704829723533
  0
LWPOLYLINE
  5
191
330
17
100
AcDbEntity
  8
MURI_ESISTENTI
100
AcDbPolyline
 90
2
 70
0
 10
1441.831949237621
 20
-881.1704829723533
 10
1443.6660340192318
 20
-883.0103487233021
  0
LWPOLYLINE
  5
192
330
17
100
AcDbEntity
  8
MURI_ESISTENTI
100
AcDbPolyline
 90
2
 70
0
 10
1443.6660340192318
 20
-883.0103487233021
 10
1446.4201102527718
 20
-883.9330553806886
  0
LWPOLYLINE
  5
193
330
17
100
AcDbEntity
  8
MURI_ESISTENTI
100
AcDbPolyline
 90
2
 70
0
 10
1446.4201102527718
 20
-883.9330553806886
 10
1448.7177892445777
 20
-883.0181370785975
  0
LWPOLYLINE
  5
194
330
17
100
AcDbEntity
  8
MURI_ESISTENTI
100
AcDbPolyline
 90
2
 70
0
 10
1448.7177892445777
 20
-883.0181370785975
 10
1451.0168844155664
 20
-881.1846435037604
  0
LWPOLYLINE
  5
195
330
17
100
AcDbEntity
  8
MURI_ESISTENTI
100
AcDbPolyline
 90
2
 70
0
 10
1451.0168844155664
 20
-881.1846435037604
 10
1451.4803618329736
 20
-878.4298592706593
  0
LWPOLYLINE
  5
196
330
17
100
AcDbEntity
  8
MURI_ESISTENTI
100
AcDbPolyline
 90
2
 70
0
 10
1582.2619874382906
 20
-946.1411487322429
 10
1585.4951176197671
 20
-934.2056774986247
  0
LWPOLYLINE
  5
197
330
17
100
AcDbEntity
  8
MURI_ESISTENTI
100
AcDbPolyline
 90
2
 70
0
 10
1585.4951176197671
 20
-934.2056774986247
 10
1586.431984988622
 20
-922.2665492943523
  0
LWPOLYLINE
  5
198
330
17
100
AcDbEntity
  8
MURI_ESISTENTI
100
AcDbPolyline
 90
2
 70
0
 10
1586.431984988622
 20
-922.2665492943523
 10
1585.9918724570393
 20
-909.8661846442044
  0
LWPOLYLINE
  5
199
330
17
100
AcDbEntity
  8
MURI_ESISTENTI
100
AcDbPolyline
 90
2
 70
0
 10
1585.9918724570393
 20
-909.8661846442044
 10
1583.2547889332127
 20
-897.9215090561687
  0
LWPOLYLINE
  5
19A
330
17
100
AcDbEntity
  8
MURI_ESISTENTI
100
AcDbPolyline
 90
2
 70
0
 10
1583.2547889332127
 20
-897.9215090561687
 10
1579.139309689887
 20
-886.4339387094283
  0
LWPOLYLINE
  5
19B
330
17
100
AcDbEntity
  8
MURI_ESISTENTI
100
AcDbPolyline
 90
2
 70
0
 10
1579.139309689887
 20
-886.4339387094283
 10
1573.645317934276
 20
-875.4034734239227
  0
LWPOLYLINE
  5
19C
330
17
100
AcDbEntity
  8
MURI_ESISTENTI
100
AcDbPolyline
 90
2
 70
0
 10
1573.645317934276
 20
-875.4034734239227
 10
1566.3128762467766
 20
-865.2887512328567
  0
LWPOLYLINE
  5
19D
330
17
100
AcDbEntity
  8
MURI_ESISTENTI
100
AcDbPolyline
 90
2
 70
0
 10
1566.3128762467766
 20
-865.2887512328567
 10
1557.6006228406563
 20
-856.5495927630448
  0
LWPOLYLINE
  5
19E
330
17
100
AcDbEntity
  8
MURI_ESISTENTI
100
AcDbPolyline
 90
2
 70
0
 10
1557.6006228406563
 20
-856.5495927630448
 10
1547.9677869558946
 20
-849.1867060140477
  0
LWPOLYLINE
  5
19F
330
17
100
AcDbEntity
  8
MURI_ESISTENTI
100
AcDbPolyline
 90
2
 70
0
 10
1547.9677869558946
 20
-849.1867060140477
 10
1536.9543143801018
 20
-843.6587288390101
  0
LWPOLYLINE
  5
1A0
330
17
100
AcDbEntity
  8
MURI_ESISTENTI
100
AcDbPolyline
 90
2
 70
0
 10
1536.9543143801018
 20
-843.6587288390101
 10
1525.4801963851464
 20
-839.0486189371569
  0
LWPOLYLINE
  5
1A1
330
17
100
AcDbEntity
  8
MURI_ESISTENTI
100
AcDbPolyline
 90
2
 70
0
 10
1429.6139746551767
 20
-1061.177294280951
 10
1435.6068452467441
 20
-1046.490578992099
  0
LWPOLYLINE
  5
1A2
330
17
100
AcDbEntity
  8
MURI_ESISTENTI
100
AcDbPolyline
 90
2
 70
0
 10
1435.6068452467441
 20
-1046.490578992099
 10
1593.9482327429466
 20
-1111.029511782475
  0
LWPOLYLINE
  5
1A3
330
17
100
AcDbEntity
  8
MURI_ESISTENTI
100
AcDbPolyline
 90
2
 70
0
 10
1438.3347244161532
 20
-1064.4054682854382
 10
1440.6393669709053
 20
-1058.89802381792
  0
LWPOLYLINE
  5
1A4
330
17
100
AcDbEntity
  8
MURI_ESISTENTI
100
AcDbPolyline
 90
2
 70
0
 10
1440.6393669709053
 20
-1058.89802381792
 10
1589.7993592869689
 20
-1121.126649876993
  0
LWPOLYLINE
  5
1A5
330
17
100
AcDbEntity
  8
MURI_ESISTENTI
100
AcDbPolyline
 90
2
 70
0
 10
1375.2244572947927
 20
-1189.6831897811642
 10
1449.1186789781548
 20
-1218.729792258605
  0
LWPOLYLINE
  5
1A6
330
17
100
AcDbEntity
  8
MURI_ESISTENTI
100
AcDbPolyline
 90
2
 70
0
 10
1449.1186789781548
 20
-1218.729792258605
 10
1445.8919211528505
 20
-1226.5319667468355
  0
LWPOLYLINE
  5
1A7
330
17
100
AcDbEntity
  8
MURI_ESISTENTI
100
AcDbPolyline
 90
2
 70
0
 10
1445.8919211528505
 20
-1226.5319667468355
 10
1337.1209559889678
 20
-1180.4393713259974
  0
LWPOLYLINE
  5
1A8
330
17
100
AcDbEntity
  8
MURI_ESISTENTI
100
AcDbPolyline
 90
2
 70
0
 10
1337.1209559889678
 20
-1180.4393713259974
 10
1339.4264233360684
 20
-1174.4726977985608
  0
LWPOLYLINE
  5
1A9
330
17
100
AcDbEntity
  8
MURI_ESISTENTI
100
AcDbPolyline
 90
2
 70
0
 10
1339.4264233360684
 20
-1174.4726977985608
 10
1375.2244572947927
 20
-1189.6831897811642
  0
LWPOLYLINE
  5
1AA
330
17
100
AcDbEntity
  8
MURI_ESISTENTI
100
AcDbPolyline
 90
2
 70
0
 10
1375.2244572947927
 20
-1189.6831897811642
 10
1393.6630064890962
 20
-1145.164405881403
  0
LWPOLYLINE
  5
1AB
330
17
100
AcDbEntity
  8
MURI_ESISTENTI
100
AcDbPolyline
 90
2
 70
0
 10
1393.6630064890962
 20
-1145.164405881403
 10
1403.300798550848
 20
-1149.3125711577586
  0
LWPOLYLINE
  5
1AC
330
17
100
AcDbEntity
  8
MURI_ESISTENTI
100
AcDbPolyline
 90
2
 70
0
 10
1403.300798550848
 20
-1149.3125711577586
 10
1389.4724762312453
 20
-1182.357120449838
  0
LWPOLYLINE
  5
1AD
330
17
100
AcDbEntity
  8
MURI_ESISTENTI
100
AcDbPolyline
 90
2
 70
0
 10
1389.4724762312453
 20
-1182.357120449838
 10
1535.874852315963
 20
-1245.9591860514206
  0
LWPOLYLINE
  5
1AE
330
17
100
AcDbEntity
  8
MURI_ESISTENTI
100
AcDbPolyline
 90
2
 70
0
 10
1393.6630064890962
 20
-1145.164405881403
 10
1318.8572897086617
 20
-1111.5239780322001
  0
LWPOLYLINE
  5
1AF
330
17
100
AcDbEntity
  8
MURI_ESISTENTI
100
AcDbPolyline
 90
2
 70
0
 10
1321.620570296619
 20
-1106.476470984283
 10
1400.1009457892355
 20
-1139.663333770057
  0
LWPOLYLINE
  5
1B0
330
17
100
AcDbEntity
  8
MURI_ESISTENTI
100
AcDbPolyline
 90
2
 70
0
 10
1400.1009457892355
 20
-1139.663333770057
 10
1434.2042598490718
 20
-1062.5620621765615
  0
LWPOLYLINE
  5
1B1
330
17
100
AcDbEntity
  8
MURI_ESISTENTI
100
AcDbPolyline
 90
2
 70
0
 10
1434.2042598490718
 20
-1062.5620621765615
 10
1420.8918088950777
 20
-1058.8675787564218
  0
LWPOLYLINE
  5
1B2
330
17
100
AcDbEntity
  8
MURI_ESISTENTI
100
AcDbPolyline
 90
2
 70
0
 10
1420.8918088950777
 20
-1058.8675787564218
 10
1407.1164717304496
 20
-1057.468650149343
  0
LWPOLYLINE
  5
1B3
330
17
100
AcDbEntity
  8
MURI_ESISTENTI
100
AcDbPolyline
 90
2
 70
0
 10
1407.1164717304496
 20
-1057.468650149343
 10
1393.338302567577
 20
-1057.906638502181
  0
LWPOLYLINE
  5
1B4
330
17
100
AcDbEntity
  8
MURI_ESISTENTI
100
AcDbPolyline
 90
2
 70
0
 10
1393.338302567577
 20
-1057.906638502181
 10
1380.0165304663774
 20
-1060.182368607284
  0
LWPOLYLINE
  5
1B5
330
17
100
AcDbEntity
  8
MURI_ESISTENTI
100
AcDbPolyline
 90
2
 70
0
 10
1380.0165304663774
 20
-1060.182368607284
 10
1367.1505644001386
 20
-1064.754953091905
  0
LWPOLYLINE
  5
1B6
330
17
100
AcDbEntity
  8
MURI_ESISTENTI
100
AcDbPolyline
 90
2
 70
0
 10
1367.1505644001386
 20
-1064.754953091905
 10
1354.7408786027856
 20
-1071.1652791487304
  0
LWPOLYLINE
  5
1B7
330
17
100
AcDbEntity
  8
MURI_ESISTENTI
100
AcDbPolyline
 90
2
 70
0
 10
1354.7408786027856
 20
-1071.1652791487304
 10
1343.7069899322003
 20
-1078.9555340770862
  0
LWPOLYLINE
  5
1B8
330
17
100
AcDbEntity
  8
MURI_ESISTENTI
100
AcDbPolyline
 90
2
 70
0
 10
1343.7069899322003
 20
-1078.9555340770862
 10
1334.0478400104594
 20
-1088.5849465767685
  0
LWPOLYLINE
  5
1B9
330
17
100
AcDbEntity
  8
MURI_ESISTENTI
100
AcDbPolyline
 90
2
 70
0
 10
1334.0478400104594
 20
-1088.5849465767685
 10
1325.76437078282
 20
-1099.5940541823454
  0
LWPOLYLINE
  5
1BA
330
17
100
AcDbEntity
  8
MURI_ESISTENTI
100
AcDbPolyline
 90
2
 70
0
 10
1325.76437078282
 20
-1099.5940541823454
 10
1319.3165189486408
 20
-1111.5246860317616
  0
LWPOLYLINE
  5
1BB
330
17
100
AcDbEntity
  8
MURI_ESISTENTI
100
AcDbPolyline
 90
2
 70
0
 10
1434.2042598490718
 20
-1062.5620621765615
 10
1438.3347244161532
 20
-1064.4054682854382
  0
LWPOLYLINE
  5
1BC
330
17
100
AcDbEntity
  8
MURI_ESISTENTI
100
AcDbPolyline
 90
2
 70
0
 10
1445.8919211528505
 20
-1226.5319667468355
 10
1528.501345033365
 20
-1262.4808109142323
  0
LWPOLYLINE
  5
1BD
330
17
100
AcDbEntity
  8
MURI_ESISTENTI
100
AcDbPolyline
 90
2
 70
0
 10
1336.9637736041832
 20
-1282.3924671417153
 10
1373.3775111881098
 20
-1196.1098005481415
  0
LWPOLYLINE
  5
1BE
330
17
100
AcDbEntity
  8
MURI_ESISTENTI
100
AcDbPolyline
 90
2
 70
0
 10
1341.092822172142
 20
-1285.1543317305504
 10
1377.9672049951703
 20
-1197.9539146565796
  0
LWPOLYLINE
  5
1BF
330
17
100
AcDbEntity
  8
MURI_ESISTENTI
100
AcDbPolyline
 90
2
 70
0
 10
1376.1223830672316
 20
-1203.0027209108316
 10
1453.6850078993903
 20
-1235.7290552502916
  0
LWPOLYLINE
  5
1C0
330
17
100
AcDbEntity
  8
MURI_ESISTENTI
100
AcDbPolyline
 90
2
 70
0
 10
1453.6850078993903
 20
-1235.7290552502916
 10
1451.8401859714518
 20
-1240.7778615045438
  0
LWPOLYLINE
  5
1C1
330
17
100
AcDbEntity
  8
MURI_ESISTENTI
100
AcDbPolyline
 90
2
 70
0
 10
1451.8401859714518
 20
-1240.7778615045438
 10
1373.8190397188146
 20
-1207.5917067183311
  0
LWPOLYLINE
  5
1C2
330
17
100
AcDbEntity
  8
MURI_ESISTENTI
100
AcDbPolyline
 90
2
 70
0
 10
1341.092822172142
 20
-1285.1543317305504
 10
1352.5676481666585
 20
-1289.3052123924242
  0
LWPOLYLINE
  5
1C3
330
17
100
AcDbEntity
  8
MURI_ESISTENTI
100
AcDbPolyline
 90
2
 70
0
 10
1352.5676481666585
 20
-1289.3052123924242
 10
1364.5045353993992
 20
-1291.619884093943
  0
LWPOLYLINE
  5
1C4
330
17
100
AcDbEntity
  8
MURI_ESISTENTI
100
AcDbPolyline
 90
2
 70
0
 10
1364.5045353993992
 20
-1291.619884093943
 10
1376.4442548104457
 20
-1292.0975220427576
  0
LWPOLYLINE
  5
1C5
330
17
100
AcDbEntity
  8
MURI_ESISTENTI
100
AcDbPolyline
 90
2
 70
0
 10
1376.4442548104457
 20
-1292.0975220427576
 10
1388.3868062197364
 20
-1290.7382430316554
  0
LWPOLYLINE
  5
1C6
330
17
100
AcDbEntity
  8
MURI_ESISTENTI
100
AcDbPolyline
 90
2
 70
0
 10
1388.3868062197364
 20
-1290.7382430316554
 10
1399.8722525677929
 20
-1288.0004515082674
  0
LWPOLYLINE
  5
1C7
330
17
100
AcDbEntity
  8
MURI_ESISTENTI
100
AcDbPolyline
 90
2
 70
0
 10
1399.8722525677929
 20
-1288.0004515082674
 10
1411.3605310941555
 20
-1283.4256262321755
  0
LWPOLYLINE
  5
1C8
330
17
100
AcDbEntity
  8
MURI_ESISTENTI
100
AcDbPolyline
 90
2
 70
0
 10
1411.3605310941555
 20
-1283.4256262321755
 10
1421.4732458992644
 20
-1277.4709892374624
  0
LWPOLYLINE
  5
1C9
330
17
100
AcDbEntity
  8
MURI_ESISTENTI
100
AcDbPolyline
 90
2
 70
0
 10
1421.4732458992644
 20
-1277.4709892374624
 10
1431.1294466698514
 20
-1269.6787271032103
  0
LWPOLYLINE
  5
1CA
330
17
100
AcDbEntity
  8
MURI_ESISTENTI
100
AcDbPolyline
 90
2
 70
0
 10
1431.1294466698514
 20
-1269.6787271032103
 10
1439.409376079745
 20
-1260.9656489047418
  0
LWPOLYLINE
  5
1CB
330
17
100
AcDbEntity
  8
MURI_ESISTENTI
100
AcDbPolyline
 90
2
 70
0
 10
1439.409376079745
 20
-1260.9656489047418
 10
1446.3129167959753
 20
-1251.3321048403573
  0
LWPOLYLINE
  5
1CC
330
17
100
AcDbEntity
  8
MURI_ESISTENTI
100
AcDbPolyline
 90
2
 70
0
 10
1446.3129167959753
 20
-1251.3321048403573
 10
1451.8401859714518
 20
-1240.7778615045438
  0
LWPOLYLINE
  5
1CD
330
17
100
AcDbEntity
  8
MURI_ESISTENTI
100
AcDbPolyline
 90
2
 70
0
 10
1495.72202535887
 20
-1374.4870304383367
 10
1328.206914425097
 20
-1302.5859187184637
  0
LWPOLYLINE
  5
1CE
330
17
100
AcDbEntity
  8
MURI_ESISTENTI
100
AcDbPolyline
 90
2
 70
0
 10
1327.7271524775988
 20
-1315.9033258494474
 10
1407.1253950633388
 20
-1349.5509508471714
  0
LWPOLYLINE
  5
1CF
330
17
100
AcDbEntity
  8
MURI_ESISTENTI
100
AcDbPolyline
 90
2
 70
0
 10
1407.1253950633388
 20
-1349.5509508471714
 10
1409.4315704100009
 20
-1343.1250480797555
  0
LWPOLYLINE
  5
1D0
330
17
100
AcDbEntity
  8
MURI_ESISTENTI
100
AcDbPolyline
 90
2
 70
0
 10
1409.4315704100009
 20
-1343.1250480797555
 10
1330.4932650638013
 20
-1309.0189018416136
  0
LWPOLYLINE
  5
1D1
330
17
100
AcDbEntity
  8
MURI_ESISTENTI
100
AcDbPolyline
 90
2
 70
0
 10
1330.4932650638013
 20
-1309.0189018416136
 10
1296.8450488593035
 20
-1388.8763738473936
  0
LWPOLYLINE
  5
1D2
330
17
100
AcDbEntity
  8
MURI_ESISTENTI
100
AcDbPolyline
 90
2
 70
0
 10
1294.5509098653038
 20
-1387.4951459495892
 10
1305.56579862028
 20
-1392.104547851881
  0
LWPOLYLINE
  5
1D3
330
17
100
AcDbEntity
  8
MURI_ESISTENTI
100
AcDbPolyline
 90
2
 70
0
 10
1305.56579862028
 20
-1392.104547851881
 10
1317.0434566130414
 20
-1394.4185115538385
  0
LWPOLYLINE
  5
1D4
330
17
100
AcDbEntity
  8
MURI_ESISTENTI
100
AcDbPolyline
 90
2
 70
0
 10
1317.0434566130414
 20
-1394.4185115538385
 10
1328.9824680245263
 20
-1395.3553787426322
  0
LWPOLYLINE
  5
1D5
330
17
100
AcDbEntity
  8
MURI_ESISTENTI
100
AcDbPolyline
 90
2
 70
0
 10
1328.9824680245263
 20
-1395.3553787426322
 10
1340.9236034346952
 20
-1394.9145582114884
  0
LWPOLYLINE
  5
1D6
330
17
100
AcDbEntity
  8
MURI_ESISTENTI
100
AcDbPolyline
 90
2
 70
0
 10
1340.9236034346952
 20
-1394.9145582114884
 10
1352.4083416031297
 20
-1392.636112720867
  0
LWPOLYLINE
  5
1D7
330
17
100
AcDbEntity
  8
MURI_ESISTENTI
100
AcDbPolyline
 90
2
 70
0
 10
1352.4083416031297
 20
-1392.636112720867
 10
1363.8952041303698
 20
-1388.9797459247334
  0
LWPOLYLINE
  5
1D8
330
17
100
AcDbEntity
  8
MURI_ESISTENTI
100
AcDbPolyline
 90
2
 70
0
 10
1363.8952041303698
 20
-1388.9797459247334
 10
1374.466440175896
 20
-1383.4850461695605
  0
LWPOLYLINE
  5
1D9
330
17
100
AcDbEntity
  8
MURI_ESISTENTI
100
AcDbPolyline
 90
2
 70
0
 10
1374.466440175896
 20
-1383.4850461695605
 10
1384.1212249473604
 20
-1376.611242515267
  0
LWPOLYLINE
  5
1DA
330
17
100
AcDbEntity
  8
MURI_ESISTENTI
100
AcDbPolyline
 90
2
 70
0
 10
1384.1212249473604
 20
-1376.611242515267
 10
1393.3181966580294
 20
-1368.8181555886663
  0
LWPOLYLINE
  5
1DB
330
17
100
AcDbEntity
  8
MURI_ESISTENTI
100
AcDbPolyline
 90
2
 70
0
 10
1393.3181966580294
 20
-1368.8181555886663
 10
1400.6803754074654
 20
-1359.6445489438834
  0
LWPOLYLINE
  5
1DC
330
17
100
AcDbEntity
  8
MURI_ESISTENTI
100
AcDbPolyline
 90
2
 70
0
 10
1400.6803754074654
 20
-1359.6445489438834
 10
1407.1253950633388
 20
-1349.5509508471714
  0
LWPOLYLINE
  5
1DD
330
17
100
AcDbEntity
  8
MURI_ESISTENTI
100
AcDbPolyline
 90
2
 70
0
 10
1524.645004253041
 20
-1082.908447960666
 10
1371.1645143632186
 20
-1439.9676221856935
  0
LWPOLYLINE
  5
1DE
330
17
100
AcDbEntity
  8
MURI_ESISTENTI
100
AcDbPolyline
 90
2
 70
0
 10
1369.3205170475678
 20
-1444.5573161728148
 10
1369.3205170475678
 20
-1444.5573161728148
  0
LWPOLYLINE
  5
1DF
330
17
100
AcDbEntity
  8
MURI_ESISTENTI
100
AcDbPolyline
 90
2
 70
0
 10
1455.8127603342484
 20
-1345.0334758763304
 10
1496.3759624008653
 20
-1248.1945585609858
  0
LWPOLYLINE
  5
1E0
330
17
100
AcDbEntity
  8
MURI_ESISTENTI
100
AcDbPolyline
 90
2
 70
0
 10
1450.2861991583331
 20
-1355.1284899721645
 10
1408.3395280423188
 20
-1455.63946740696
  0
LWPOLYLINE
  5
1E1
330
17
100
AcDbEntity
  8
MURI_ESISTENTI
100
AcDbPolyline
 90
2
 70
0
 10
1533.2184839832123
 20
-1181.6602748355886
 10
1532.762086921539
 20
-1179.8225330833234
  0
LWPOLYLINE
  5
1E2
330
17
100
AcDbEntity
  8
MURI_ESISTENTI
100
AcDbPolyline
 90
2
 70
0
 10
1532.762086921539
 20
-1179.8225330833234
 10
1530.9271771675187
 20
-1178.44201318508
  0
LWPOLYLINE
  5
1E3
330
17
100
AcDbEntity
  8
MURI_ESISTENTI
100
AcDbPolyline
 90
2
 70
0
 10
1530.9271771675187
 20
-1178.44201318508
 10
1529.0908514143762
 20
-1177.9799517667952
  0
LWPOLYLINE
  5
1E4
330
17
100
AcDbEntity
  8
MURI_ESISTENTI
100
AcDbPolyline
 90
2
 70
0
 10
1529.0908514143762
 20
-1177.9799517667952
 10
1526.7938804221312
 20
-1178.4356408289073
  0
LWPOLYLINE
  5
1E5
330
17
100
AcDbEntity
  8
MURI_ESISTENTI
100
AcDbPolyline
 90
2
 70
0
 10
1526.7938804221312
 20
-1178.4356408289073
 10
1525.41406870351
 20
-1179.811204550161
  0
LWPOLYLINE
  5
1E6
330
17
100
AcDbEntity
  8
MURI_ESISTENTI
100
AcDbPolyline
 90
2
 70
0
 10
1525.41406870351
 20
-1179.811204550161
 10
1524.9520072852254
 20
-1181.6475303033037
  0
LWPOLYLINE
  5
1E7
330
17
100
AcDbEntity
  8
MURI_ESISTENTI
100
AcDbPolyline
 90
2
 70
0
 10
1524.9520072852254
 20
-1181.6475303033037
 10
1525.4076963473374
 20
-1183.9445012955482
  0
LWPOLYLINE
  5
1E8
330
17
100
AcDbEntity
  8
MURI_ESISTENTI
100
AcDbPolyline
 90
2
 70
0
 10
1525.4076963473374
 20
-1183.9445012955482
 10
1526.7832600685908
 20
-1185.324313014169
  0
LWPOLYLINE
  5
1E9
330
17
100
AcDbEntity
  8
MURI_ESISTENTI
100
AcDbPolyline
 90
2
 70
0
 10
1526.7832600685908
 20
-1185.324313014169
 10
1529.0788150617132
 20
-1185.7870824320155
  0
LWPOLYLINE
  5
1EA
330
17
100
AcDbEntity
  8
MURI_ESISTENTI
100
AcDbPolyline
 90
2
 70
0
 10
1529.0788150617132
 20
-1185.7870824320155
 10
1530.9165568139783
 20
-1185.330685370342
  0
LWPOLYLINE
  5
1EB
330
17
100
AcDbEntity
  8
MURI_ESISTENTI
100
AcDbPolyline
 90
2
 70
0
 10
1530.9165568139783
 20
-1185.330685370342
 10
1532.755714565366
 20
-1183.9558298287104
  0
LWPOLYLINE
  5
1EC
330
17
100
AcDbEntity
  8
MURI_ESISTENTI
100
AcDbPolyline
 90
2
 70
0
 10
1532.755714565366
 20
-1183.9558298287104
 10
1533.2184839832123
 20
-1181.6602748355886
  0
LWPOLYLINE
  5
1ED
330
17
100
AcDbEntity
  8
MURI_ESISTENTI
100
AcDbPolyline
 90
2
 70
0
 10
1543.7811068810947
 20
-1181.6765593656794
 10
1542.869020757309
 20
-1177.5418466211697
  0
LWPOLYLINE
  5
1EE
330
17
100
AcDbEntity
  8
MURI_ESISTENTI
100
AcDbPolyline
 90
2
 70
0
 10
1542.869020757309
 20
-1177.5418466211697
 10
1541.0383591807174
 20
-1173.4058344902642
  0
LWPOLYLINE
  5
1EF
330
17
100
AcDbEntity
  8
MURI_ESISTENTI
100
AcDbPolyline
 90
2
 70
0
 10
1541.0383591807174
 20
-1173.4058344902642
 10
1537.8285938850654
 20
-1170.1861568406334
  0
LWPOLYLINE
  5
1F0
330
17
100
AcDbEntity
  8
MURI_ESISTENTI
100
AcDbPolyline
 90
2
 70
0
 10
1537.8285938850654
 20
-1170.1861568406334
 10
1533.6989541103324
 20
-1167.8835216718383
  0
LWPOLYLINE
  5
1F1
330
17
100
AcDbEntity
  8
MURI_ESISTENTI
100
AcDbPolyline
 90
2
 70
0
 10
1533.6989541103324
 20
-1167.8835216718383
 10
1529.1071361245276
 20
-1167.417212076125
  0
LWPOLYLINE
  5
1F2
330
17
100
AcDbEntity
  8
MURI_ESISTENTI
100
AcDbPolyline
 90
2
 70
0
 10
1529.1071361245276
 20
-1167.417212076125
 10
1524.5140189323872
 20
-1167.869361140431
  0
LWPOLYLINE
  5
1F3
330
17
100
AcDbEntity
  8
MURI_ESISTENTI
100
AcDbPolyline
 90
2
 70
0
 10
1524.5140189323872
 20
-1167.869361140431
 10
1520.3771820091333
 20
-1170.1592517769413
  0
LWPOLYLINE
  5
1F4
330
17
100
AcDbEntity
  8
MURI_ESISTENTI
100
AcDbPolyline
 90
2
 70
0
 10
1520.3771820091333
 20
-1170.1592517769413
 10
1517.1575043595021
 20
-1173.3690170725934
  0
LWPOLYLINE
  5
1F5
330
17
100
AcDbEntity
  8
MURI_ESISTENTI
100
AcDbPolyline
 90
2
 70
0
 10
1517.1575043595021
 20
-1173.3690170725934
 10
1515.3140984306865
 20
-1177.4993648468874
  0
LWPOLYLINE
  5
1F6
330
17
100
AcDbEntity
  8
MURI_ESISTENTI
100
AcDbPolyline
 90
2
 70
0
 10
1515.3140984306865
 20
-1177.4993648468874
 10
1514.3892675945551
 20
-1181.631245593152
  0
LWPOLYLINE
  5
1F7
330
17
100
AcDbEntity
  8
MURI_ESISTENTI
100
AcDbPolyline
 90
2
 70
0
 10
1514.3892675945551
 20
-1181.631245593152
 10
1515.3006458988405
 20
-1186.2250707848534
  0
LWPOLYLINE
  5
1F8
330
17
100
AcDbEntity
  8
MURI_ESISTENTI
100
AcDbPolyline
 90
2
 70
0
 10
1515.3006458988405
 20
-1186.2250707848534
 10
1517.1313072953715
 20
-1190.3611997085463
  0
LWPOLYLINE
  5
1F9
330
17
100
AcDbEntity
  8
MURI_ESISTENTI
100
AcDbPolyline
 90
2
 70
0
 10
1517.1313072953715
 20
-1190.3611997085463
 10
1520.3410725910237
 20
-1193.580877358177
  0
LWPOLYLINE
  5
1FA
330
17
100
AcDbEntity
  8
MURI_ESISTENTI
100
AcDbPolyline
 90
2
 70
0
 10
1520.3410725910237
 20
-1193.580877358177
 10
1524.4708291585437
 20
-1195.8835127070333
  0
LWPOLYLINE
  5
1FB
330
17
100
AcDbEntity
  8
MURI_ESISTENTI
100
AcDbPolyline
 90
2
 70
0
 10
1524.4708291585437
 20
-1195.8835127070333
 10
1529.0625303515615
 20
-1196.3498221226855
  0
LWPOLYLINE
  5
1FC
330
17
100
AcDbEntity
  8
MURI_ESISTENTI
100
AcDbPolyline
 90
2
 70
0
 10
1529.0625303515615
 20
-1196.3498221226855
 10
1533.6557643364888
 20
-1195.8976732384401
  0
LWPOLYLINE
  5
1FD
330
17
100
AcDbEntity
  8
MURI_ESISTENTI
100
AcDbPolyline
 90
2
 70
0
 10
1533.6557643364888
 20
-1195.8976732384401
 10
1537.7924844669558
 20
-1193.6077824218692
  0
LWPOLYLINE
  5
1FE
330
17
100
AcDbEntity
  8
MURI_ESISTENTI
100
AcDbPolyline
 90
2
 70
0
 10
1537.7924844669558
 20
-1193.6077824218692
 10
1541.0121621165865
 20
-1190.3980171262172
  0
LWPOLYLINE
  5
1FF
330
17
100
AcDbEntity
  8
MURI_ESISTENTI
100
AcDbPolyline
 90
2
 70
0
 10
1541.0121621165865
 20
-1190.3980171262172
 10
1542.8555682254632
 20
-1186.2675525591358
  0
LWPOLYLINE
  5
200
330
17
100
AcDbEntity
  8
MURI_ESISTENTI
100
AcDbPolyline
 90
2
 70
0
 10
1542.8555682254632
 20
-1186.2675525591358
 10
1543.7811068810947
 20
-1181.6765593656794
  0
LWPOLYLINE
  5
201
330
17
100
AcDbEntity
  8
MURI_ESISTENTI
100
AcDbPolyline
 90
2
 70
0
 10
1562.607491271507
 20
-1183.5425055680325
 10
1554.8158203440287
 20
-1173.4270753774056
  0
LWPOLYLINE
  5
202
330
17
100
AcDbEntity
  8
MURI_ESISTENTI
100
AcDbPolyline
 90
2
 70
0
 10
1554.8158203440287
 20
-1173.4270753774056
 10
1547.9342285145008
 20
-1168.823929038499
  0
LWPOLYLINE
  5
203
330
17
100
AcDbEntity
  8
MURI_ESISTENTI
100
AcDbPolyline
 90
2
 70
0
 10
1547.9342285145008
 20
-1168.823929038499
 10
1541.5104497457687
 20
-1165.1400659718993
  0
LWPOLYLINE
  5
204
330
17
100
AcDbEntity
  8
MURI_ESISTENTI
100
AcDbPolyline
 90
2
 70
0
 10
1515.790436993105
 20
-1166.4782208886477
 10
1510.270248173363
 20
-1172.439938239095
  0
LWPOLYLINE
  5
205
330
17
100
AcDbEntity
  8
MURI_ESISTENTI
100
AcDbPolyline
 90
2
 70
0
 10
1510.270248173363
 20
-1172.439938239095
 10
1509.8046467572717
 20
-1176.5724101921332
  0
LWPOLYLINE
  5
206
330
17
100
AcDbEntity
  8
MURI_ESISTENTI
100
AcDbPolyline
 90
2
 70
0
 10
1509.8046467572717
 20
-1176.5724101921332
 10
1509.7968584019761
 20
-1181.6241654174787
  0
LWPOLYLINE
  5
207
330
17
100
AcDbEntity
  8
MURI_ESISTENTI
100
AcDbPolyline
 90
2
 70
0
 10
1509.7968584019761
 20
-1181.6241654174787
 10
1509.3318481926588
 20
-1185.2974079504772
  0
LWPOLYLINE
  5
208
330
17
100
AcDbEntity
  8
MURI_ESISTENTI
100
AcDbPolyline
 90
2
 70
0
 10
1509.3318481926588
 20
-1185.2974079504772
 10
1510.244759288854
 20
-1188.9727748422813
  0
LWPOLYLINE
  5
209
330
17
100
AcDbEntity
  8
MURI_ESISTENTI
100
AcDbPolyline
 90
2
 70
0
 10
1510.244759288854
 20
-1188.9727748422813
 10
1515.2864851873726
 20
-1195.410122755586
  0
LWPOLYLINE
  5
20A
330
17
100
AcDbEntity
  8
MURI_ESISTENTI
100
AcDbPolyline
 90
2
 70
0
 10
1515.2864851873726
 20
-1195.410122755586
 10
1521.2490275102289
 20
-1200.4709657226226
  0
LWPOLYLINE
  5
20B
330
17
100
AcDbEntity
  8
MURI_ESISTENTI
100
AcDbPolyline
 90
2
 70
0
 10
1521.2490275102289
 20
-1200.4709657226226
 10
1528.593388757603
 20
-1202.778557068407
  0
LWPOLYLINE
  5
20C
330
17
100
AcDbEntity
  8
MURI_ESISTENTI
100
AcDbPolyline
 90
2
 70
0
 10
1528.593388757603
 20
-1202.778557068407
 10
1535.4807617365302
 20
-1203.7076360819667
  0
LWPOLYLINE
  5
20D
330
17
100
AcDbEntity
  8
MURI_ESISTENTI
100
AcDbPolyline
 90
2
 70
0
 10
1535.4807617365302
 20
-1203.7076360819667
 10
1552.9293414341564
 20
-1205.5715748983625
  0
LWPOLYLINE
  5
20E
330
17
100
AcDbEntity
  8
MURI_ESISTENTI
100
AcDbPolyline
 90
2
 70
0
 10
1541.5104497457687
 20
-1165.1400659718993
 10
1533.245389046904
 20
-1164.2088629596565
  0
LWPOLYLINE
  5
20F
330
17
100
AcDbEntity
  8
MURI_ESISTENTI
100
AcDbPolyline
 90
2
 70
0
 10
1533.245389046904
 20
-1164.2088629596565
 10
1525.4395577680798
 20
-1163.2782511541873
  0
LWPOLYLINE
  5
210
330
17
100
AcDbEntity
  8
MURI_ESISTENTI
100
AcDbPolyline
 90
2
 70
0
 10
1525.4395577680798
 20
-1163.2782511541873
 10
1518.5480534045118
 20
-1165.104664553351
  0
LWPOLYLINE
  5
211
330
17
100
AcDbEntity
  8
MURI_ESISTENTI
100
AcDbPolyline
 90
2
 70
0
 10
1518.5480534045118
 20
-1165.104664553351
 10
1515.790436993105
 20
-1166.4782208886477
  0
LWPOLYLINE
  5
212
330
17
100
AcDbEntity
  8
MURI_ESISTENTI
100
AcDbPolyline
 90
2
 70
0
 10
1445.4631369743695
 20
-1206.7837006714462
 10
1456.5261716801788
 20
-1180.1642295344948
  0
LWPOLYLINE
  5
213
330
17
100
AcDbEntity
  8
MURI_ESISTENTI
100
AcDbPolyline
 90
2
 70
0
 10
1456.5261716801788
 20
-1180.1642295344948
 10
1424.3993728684961
 20
-1166.7965524539939
  0
LWPOLYLINE
  5
214
330
17
100
AcDbEntity
  8
MURI_ESISTENTI
100
AcDbPolyline
 90
2
 70
0
 10
1424.3993728684961
 20
-1166.7965524539939
 10
1413.33775434187
 20
-1192.4974483182002
  0
LWPOLYLINE
  5
215
330
17
100
AcDbEntity
  8
MURI_ESISTENTI
100
AcDbPolyline
 90
2
 70
0
 10
1420.2306747045607
 20
-1189.752576439078
 10
1426.6857235072002
 20
-1173.229535577144
  0
LWPOLYLINE
  5
216
330
17
100
AcDbEntity
  8
MURI_ESISTENTI
100
AcDbPolyline
 90
2
 70
0
 10
1426.6857235072002
 20
-1173.229535577144
 10
1451.9293975173841
 20
-1182.912641411423
  0
LWPOLYLINE
  5
217
330
17
100
AcDbEntity
  8
MURI_ESISTENTI
100
AcDbPolyline
 90
2
 70
0
 10
1451.9293975173841
 20
-1182.912641411423
 10
1445.0145282679914
 20
-1199.8942036938358
  0
LWPOLYLINE
  5
218
330
17
100
AcDbEntity
  8
MURI_ESISTENTI
100
AcDbPolyline
 90
2
 70
0
 10
1445.0145282679914
 20
-1199.8942036938358
 10
1418.8536949841841
 20
-1189.2912232004153
  0
LWPOLYLINE
  5
219
330
17
100
AcDbEntity
  8
ARREDI_BAR_RIMOSSI
100
AcDbPolyline
 90
2
 70
0
 10
1622.535043757289
 20
-1633.2397276986032
 10
1624.8362629269616
 20
-1630.0285464038288
  0
LWPOLYLINE
  5
21A
330
17
100
AcDbEntity
  8
ARREDI_BAR_RIMOSSI
100
AcDbPolyline
 90
2
 70
0
 10
1624.8362629269616
 20
-1630.0285464038288
 10
1609.7009387516707
 20
-1617.1462956274381
  0
LWPOLYLINE
  5
21B
330
17
100
AcDbEntity
  8
ARREDI_BAR_RIMOSSI
100
AcDbPolyline
 90
2
 70
0
 10
1609.7009387516707
 20
-1617.1462956274381
 10
1638.2322612503378
 20
-1579.5317604434683
  0
LWPOLYLINE
  5
21C
330
17
100
AcDbEntity
  8
ARREDI_BAR_RIMOSSI
100
AcDbPolyline
 90
2
 70
0
 10
1638.2322612503378
 20
-1579.5317604434683
 10
1654.289700696181
 20
-1590.1192811991466
  0
LWPOLYLINE
  5
21D
330
17
100
AcDbEntity
  8
ARREDI_BAR_RIMOSSI
100
AcDbPolyline
 90
2
 70
0
 10
1639.964506746519
 20
-1647.5033231655862
 10
1601.4365862324287
 20
-1615.7557465824286
  0
LWPOLYLINE
  5
21E
330
17
100
AcDbEntity
  8
ARREDI_BAR_RIMOSSI
100
AcDbPolyline
 90
2
 70
0
 10
1601.4365862324287
 20
-1615.7557465824286
 10
1635.9474434035435
 20
-1572.180319020421
  0
LWPOLYLINE
  5
21F
330
17
100
AcDbEntity
  8
ARREDI_BAR_RIMOSSI
100
AcDbPolyline
 90
2
 70
0
 10
1635.9474434035435
 20
-1572.180319020421
 10
1677.2336883286023
 20
-1602.0951100283025
  0
LWPOLYLINE
  5
220
330
17
100
AcDbEntity
  8
ARREDI_BAR_RIMOSSI
100
AcDbPolyline
 90
2
 70
0
 10
1654.289700696181
 20
-1590.1192811991466
 10
1656.590919865854
 20
-1586.9080999043724
  0
LWPOLYLINE
  5
221
330
17
100
AcDbEntity
  8
ARREDI_BAR_RIMOSSI
100
AcDbPolyline
 90
2
 70
0
 10
1677.2336883286023
 20
-1602.0951100283025
 10
1639.964506746519
 20
-1647.5033231655862
  0
LWPOLYLINE
  5
222
330
17
100
AcDbEntity
  8
ARREDI_BAR_RIMOSSI
100
AcDbPolyline
 90
2
 70
0
 10
1745.1422363888573
 20
-1641.236018782077
 10
1744.2328654705288
 20
-1635.2643888975897
  0
LWPOLYLINE
  5
223
330
17
100
AcDbEntity
  8
ARREDI_BAR_RIMOSSI
100
AcDbPolyline
 90
2
 70
0
 10
1744.2328654705288
 20
-1635.2643888975897
 10
1741.4858695927232
 20
-1629.749156254837
  0
LWPOLYLINE
  5
224
330
17
100
AcDbEntity
  8
ARREDI_BAR_RIMOSSI
100
AcDbPolyline
 90
2
 70
0
 10
1741.4858695927232
 20
-1629.749156254837
 10
1736.9005407558784
 20
-1625.1495500937976
  0
LWPOLYLINE
  5
225
330
17
100
AcDbEntity
  8
ARREDI_BAR_RIMOSSI
100
AcDbPolyline
 90
2
 70
0
 10
1736.9005407558784
 20
-1625.1495500937976
 10
1731.393804467982
 20
-1622.3855615062787
  0
LWPOLYLINE
  5
226
330
17
100
AcDbEntity
  8
ARREDI_BAR_RIMOSSI
100
AcDbPolyline
 90
2
 70
0
 10
1731.393804467982
 20
-1622.3855615062787
 10
1725.4250067618004
 20
-1621.4578986719025
  0
LWPOLYLINE
  5
227
330
17
100
AcDbEntity
  8
ARREDI_BAR_RIMOSSI
100
AcDbPolyline
 90
2
 70
0
 10
1725.4250067618004
 20
-1621.4578986719025
 10
1718.9941478173955
 20
-1622.3664447978822
  0
LWPOLYLINE
  5
228
330
17
100
AcDbEntity
  8
ARREDI_BAR_RIMOSSI
100
AcDbPolyline
 90
2
 70
0
 10
1718.9941478173955
 20
-1622.3664447978822
 10
1713.4789151746427
 20
-1625.1134406756878
  0
LWPOLYLINE
  5
229
330
17
100
AcDbEntity
  8
ARREDI_BAR_RIMOSSI
100
AcDbPolyline
 90
2
 70
0
 10
1713.4789151746427
 20
-1625.1134406756878
 10
1709.3385380735212
 20
-1629.6995943048812
  0
LWPOLYLINE
  5
22A
330
17
100
AcDbEntity
  8
ARREDI_BAR_RIMOSSI
100
AcDbPolyline
 90
2
 70
0
 10
1709.3385380735212
 20
-1629.6995943048812
 10
1706.1153202460234
 20
-1635.2056225932163
  0
LWPOLYLINE
  5
22B
330
17
100
AcDbEntity
  8
ARREDI_BAR_RIMOSSI
100
AcDbPolyline
 90
2
 70
0
 10
1706.1153202460234
 20
-1635.2056225932163
 10
1705.187657411647
 20
-1641.1744202993978
  0
LWPOLYLINE
  5
22C
330
17
100
AcDbEntity
  8
ARREDI_BAR_RIMOSSI
100
AcDbPolyline
 90
2
 70
0
 10
1705.187657411647
 20
-1641.1744202993978
 10
1706.096203537627
 20
-1647.6052792438031
  0
LWPOLYLINE
  5
22D
330
17
100
AcDbEntity
  8
ARREDI_BAR_RIMOSSI
100
AcDbPolyline
 90
2
 70
0
 10
1706.096203537627
 20
-1647.6052792438031
 10
1709.3024286554116
 20
-1653.121219886117
  0
LWPOLYLINE
  5
22E
330
17
100
AcDbEntity
  8
ARREDI_BAR_RIMOSSI
100
AcDbPolyline
 90
2
 70
0
 10
1709.3024286554116
 20
-1653.121219886117
 10
1713.4293530446257
 20
-1657.2608889876772
  0
LWPOLYLINE
  5
22F
330
17
100
AcDbEntity
  8
ARREDI_BAR_RIMOSSI
100
AcDbPolyline
 90
2
 70
0
 10
1713.4293530446257
 20
-1657.2608889876772
 10
1718.936089512583
 20
-1660.0247607824085
  0
LWPOLYLINE
  5
230
330
17
100
AcDbEntity
  8
ARREDI_BAR_RIMOSSI
100
AcDbPolyline
 90
2
 70
0
 10
1718.936089512583
 20
-1660.0247607824085
 10
1725.3634082791223
 20
-1661.4124776491126
  0
LWPOLYLINE
  5
231
330
17
100
AcDbEntity
  8
ARREDI_BAR_RIMOSSI
100
AcDbPolyline
 90
2
 70
0
 10
1725.3634082791223
 20
-1661.4124776491126
 10
1731.3357461631701
 20
-1660.0438774908052
  0
LWPOLYLINE
  5
232
330
17
100
AcDbEntity
  8
ARREDI_BAR_RIMOSSI
100
AcDbPolyline
 90
2
 70
0
 10
1731.3357461631701
 20
-1660.0438774908052
 10
1736.850978625862
 20
-1657.2969984057868
  0
LWPOLYLINE
  5
233
330
17
100
AcDbEntity
  8
ARREDI_BAR_RIMOSSI
100
AcDbPolyline
 90
2
 70
0
 10
1736.850978625862
 20
-1657.2969984057868
 10
1741.4497601746134
 20
-1653.1707818360728
  0
LWPOLYLINE
  5
234
330
17
100
AcDbEntity
  8
ARREDI_BAR_RIMOSSI
100
AcDbPolyline
 90
2
 70
0
 10
1741.4497601746134
 20
-1653.1707818360728
 10
1744.2137487621326
 20
-1647.6640455481765
  0
LWPOLYLINE
  5
235
330
17
100
AcDbEntity
  8
ARREDI_BAR_RIMOSSI
100
AcDbPolyline
 90
2
 70
0
 10
1744.2137487621326
 20
-1647.6640455481765
 10
1745.1422363888573
 20
-1641.236018782077
  0
LWPOLYLINE
  5
236
330
17
100
AcDbEntity
  8
ARREDI_BAR_RIMOSSI
100
AcDbPolyline
 90
2
 70
0
 10
1786.872133843304
 20
-1681.255028240211
 10
1785.9628797177636
 20
-1675.2833985357845
  0
LWPOLYLINE
  5
237
330
17
100
AcDbEntity
  8
ARREDI_BAR_RIMOSSI
100
AcDbPolyline
 90
2
 70
0
 10
1785.9628797177636
 20
-1675.2833985357845
 10
1783.2158838399582
 20
-1669.7681658930317
  0
LWPOLYLINE
  5
238
330
17
100
AcDbEntity
  8
ARREDI_BAR_RIMOSSI
100
AcDbPolyline
 90
2
 70
0
 10
1783.2158838399582
 20
-1669.7681658930317
 10
1779.089784243092
 20
-1665.1692677315534
  0
LWPOLYLINE
  5
239
330
17
100
AcDbEntity
  8
ARREDI_BAR_RIMOSSI
100
AcDbPolyline
 90
2
 70
0
 10
1779.089784243092
 20
-1665.1692677315534
 10
1773.583047955196
 20
-1662.4052791440347
  0
LWPOLYLINE
  5
23A
330
17
100
AcDbEntity
  8
ARREDI_BAR_RIMOSSI
100
AcDbPolyline
 90
2
 70
0
 10
1773.583047955196
 20
-1662.4052791440347
 10
1767.614250249015
 20
-1661.4776163096587
  0
LWPOLYLINE
  5
23B
330
17
100
AcDbEntity
  8
ARREDI_BAR_RIMOSSI
100
AcDbPolyline
 90
2
 70
0
 10
1767.614250249015
 20
-1661.4776163096587
 10
1761.1832745118215
 20
-1662.3861622555771
  0
LWPOLYLINE
  5
23C
330
17
100
AcDbEntity
  8
ARREDI_BAR_RIMOSSI
100
AcDbPolyline
 90
2
 70
0
 10
1761.1832745118215
 20
-1662.3861622555771
 10
1756.1273879018356
 20
-1665.1338663130052
  0
LWPOLYLINE
  5
23D
330
17
100
AcDbEntity
  8
ARREDI_BAR_RIMOSSI
100
AcDbPolyline
 90
2
 70
0
 10
1756.1273879018356
 20
-1665.1338663130052
 10
1751.527781560735
 20
-1669.7193119426372
  0
LWPOLYLINE
  5
23E
330
17
100
AcDbEntity
  8
ARREDI_BAR_RIMOSSI
100
AcDbPolyline
 90
2
 70
0
 10
1751.527781560735
 20
-1669.7193119426372
 10
1748.7637929732166
 20
-1675.2260482305335
  0
LWPOLYLINE
  5
23F
330
17
100
AcDbEntity
  8
ARREDI_BAR_RIMOSSI
100
AcDbPolyline
 90
2
 70
0
 10
1748.7637929732166
 20
-1675.2260482305335
 10
1747.8361301388404
 20
-1681.194845936715
  0
LWPOLYLINE
  5
240
330
17
100
AcDbEntity
  8
ARREDI_BAR_RIMOSSI
100
AcDbPolyline
 90
2
 70
0
 10
1747.8361301388404
 20
-1681.194845936715
 10
1748.7453842643808
 20
-1687.166475641141
  0
LWPOLYLINE
  5
241
330
17
100
AcDbEntity
  8
ARREDI_BAR_RIMOSSI
100
AcDbPolyline
 90
2
 70
0
 10
1748.7453842643808
 20
-1687.166475641141
 10
1751.4923801421867
 20
-1692.6817082838938
  0
LWPOLYLINE
  5
242
330
17
100
AcDbEntity
  8
ARREDI_BAR_RIMOSSI
100
AcDbPolyline
 90
2
 70
0
 10
1751.4923801421867
 20
-1692.6817082838938
 10
1756.078533951441
 20
-1696.8219685922277
  0
LWPOLYLINE
  5
243
330
17
100
AcDbEntity
  8
ARREDI_BAR_RIMOSSI
100
AcDbPolyline
 90
2
 70
0
 10
1756.078533951441
 20
-1696.8219685922277
 10
1761.1259242065705
 20
-1699.5852490001243
  0
LWPOLYLINE
  5
244
330
17
100
AcDbEntity
  8
ARREDI_BAR_RIMOSSI
100
AcDbPolyline
 90
2
 70
0
 10
1761.1259242065705
 20
-1699.5852490001243
 10
1767.5533599459577
 20
-1700.972849254102
  0
LWPOLYLINE
  5
245
330
17
100
AcDbEntity
  8
ARREDI_BAR_RIMOSSI
100
AcDbPolyline
 90
2
 70
0
 10
1767.5533599459577
 20
-1700.972849254102
 10
1773.525697649945
 20
-1699.6043658885822
  0
LWPOLYLINE
  5
246
330
17
100
AcDbEntity
  8
ARREDI_BAR_RIMOSSI
100
AcDbPolyline
 90
2
 70
0
 10
1773.525697649945
 20
-1699.6043658885822
 10
1779.0409302926978
 20
-1696.8573700107763
  0
LWPOLYLINE
  5
247
330
17
100
AcDbEntity
  8
ARREDI_BAR_RIMOSSI
100
AcDbPolyline
 90
2
 70
0
 10
1779.0409302926978
 20
-1696.8573700107763
 10
1783.1804824214098
 20
-1692.7305622342883
  0
LWPOLYLINE
  5
248
330
17
100
AcDbEntity
  8
ARREDI_BAR_RIMOSSI
100
AcDbPolyline
 90
2
 70
0
 10
1783.1804824214098
 20
-1692.7305622342883
 10
1785.9444710089278
 20
-1687.2238259463918
  0
LWPOLYLINE
  5
249
330
17
100
AcDbEntity
  8
ARREDI_BAR_RIMOSSI
100
AcDbPolyline
 90
2
 70
0
 10
1785.9444710089278
 20
-1687.2238259463918
 10
1786.872133843304
 20
-1681.255028240211
  0
LWPOLYLINE
  5
24A
330
17
100
AcDbEntity
  8
ARREDI_BAR_RIMOSSI
100
AcDbPolyline
 90
2
 70
0
 10
1725.6027220341657
 20
-1506.1865709328529
 10
1888.9894923995405
 20
-1574.8665888239111
  0
LWPOLYLINE
  5
24B
330
17
100
AcDbEntity
  8
ARREDI_BAR_RIMOSSI
100
AcDbPolyline
 90
2
 70
0
 10
1888.9894923995405
 20
-1574.8665888239111
 10
1853.497753293379
 20
-1658.8545252167116
  0
LWPOLYLINE
  5
24C
330
17
100
AcDbEntity
  8
ARREDI_BAR_RIMOSSI
100
AcDbPolyline
 90
2
 70
0
 10
1853.497753293379
 20
-1658.8545252167116
 10
1689.6524616875852
 20
-1589.7145700861126
  0
LWPOLYLINE
  5
24D
330
17
100
AcDbEntity
  8
ARREDI_BAR_RIMOSSI
100
AcDbPolyline
 90
2
 70
0
 10
1689.6524616875852
 20
-1589.7145700861126
 10
1724.6842635542068
 20
-1506.1851549337302
  0
LWPOLYLINE
  5
24E
330
17
100
AcDbEntity
  8
ARREDI_BAR_RIMOSSI
100
AcDbPolyline
 90
2
 70
0
 10
1727.8890724928087
 20
-1512.6196708487898
 10
1694.7013849146858
 20
-1591.5592754013244
  0
LWPOLYLINE
  5
24F
330
17
100
AcDbEntity
  8
ARREDI_BAR_RIMOSSI
100
AcDbPolyline
 90
2
 70
0
 10
1727.8890724928087
 20
-1512.6196708487898
 10
1882.555093097207
 20
-1578.071514735361
  0
LWPOLYLINE
  5
250
330
17
100
AcDbEntity
  8
ARREDI_BAR_RIMOSSI
100
AcDbPolyline
 90
2
 70
0
 10
1882.555093097207
 20
-1578.071514735361
 10
1849.3674055190843
 20
-1657.0111192878956
  0
LWPOLYLINE
  5
251
330
17
100
AcDbEntity
  8
ARREDI_BAR_RIMOSSI
100
AcDbPolyline
 90
2
 70
0
 10
1790.264570408249
 20
-1565.9887734709375
 10
1798.5593683491113
 20
-1547.6315308545443
  0
LWPOLYLINE
  5
252
330
17
100
AcDbEntity
  8
ARREDI_BAR_RIMOSSI
100
AcDbPolyline
 90
2
 70
0
 10
1798.5593683491113
 20
-1547.6315308545443
 10
1732.4708611517865
 20
-1519.5155400025126
  0
LWPOLYLINE
  5
253
330
17
100
AcDbEntity
  8
ARREDI_BAR_RIMOSSI
100
AcDbPolyline
 90
2
 70
0
 10
1732.4708611517865
 20
-1519.5155400025126
 10
1726.4786987398402
 20
-1533.7429092585978
  0
LWPOLYLINE
  5
254
330
17
100
AcDbEntity
  8
ARREDI_BAR_RIMOSSI
100
AcDbPolyline
 90
2
 70
0
 10
1726.4786987398402
 20
-1533.7429092585978
 10
1724.6354094237518
 20
-1537.8733740057405
  0
LWPOLYLINE
  5
255
330
17
100
AcDbEntity
  8
ARREDI_BAR_RIMOSSI
100
AcDbPolyline
 90
2
 70
0
 10
1869.2071241119377
 20
-1597.3393106836295
 10
1799.4439582024313
 20
-1569.6768848950262
  0
LWPOLYLINE
  5
256
330
17
100
AcDbEntity
  8
ARREDI_BAR_RIMOSSI
100
AcDbPolyline
 90
2
 70
0
 10
1799.4439582024313
 20
-1569.6768848950262
 10
1806.8173486922421
 20
-1553.155259852154
  0
LWPOLYLINE
  5
257
330
17
100
AcDbEntity
  8
ARREDI_BAR_RIMOSSI
100
AcDbPolyline
 90
2
 70
0
 10
1806.8173486922421
 20
-1553.155259852154
 10
1875.661347942168
 20
-1581.2756156744013
  0
LWPOLYLINE
  5
258
330
17
100
AcDbEntity
  8
ARREDI_BAR_RIMOSSI
100
AcDbPolyline
 90
2
 70
0
 10
1875.661347942168
 20
-1581.2756156744013
 10
1868.747186872397
 20
-1597.7978319240476
  0
LWPOLYLINE
  5
259
330
17
100
AcDbEntity
  8
ARREDI_BAR_RIMOSSI
100
AcDbPolyline
 90
2
 70
0
 10
1790.264570408249
 20
-1565.9887734709375
 10
1724.6347014241908
 20
-1538.3326032457196
  0
LWPOLYLINE
  5
25A
330
17
100
AcDbEntity
  8
ARREDI_BAR_RIMOSSI
100
AcDbPolyline
 90
2
 70
0
 10
1804.9924682650492
 20
-1545.3451803959013
 10
1771.8047805068652
 20
-1624.2849017412232
  0
LWPOLYLINE
  5
25B
330
17
100
AcDbEntity
  8
MURI_ESISTENTI
100
AcDbPolyline
 90
2
 70
0
 10
1873.2018115901785
 20
-1389.3057200689325
 10
1891.6355212202193
 20
-1348.0017746146605
  0
LWPOLYLINE
  5
25C
330
17
100
AcDbEntity
  8
MURI_ESISTENTI
100
AcDbPolyline
 90
2
 70
0
 10
1891.6355212202193
 20
-1348.0017746146605
 10
2003.6120035023257
 20
-1400.069539917792
  0
LWPOLYLINE
  5
25D
330
17
100
AcDbEntity
  8
MURI_ESISTENTI
100
AcDbPolyline
 90
2
 70
0
 10
2003.6120035023257
 20
-1400.069539917792
 10
1986.5596385628767
 20
-1439.079346558125
  0
LWPOLYLINE
  5
25E
330
17
100
AcDbEntity
  8
MURI_ESISTENTI
100
AcDbPolyline
 90
2
 70
0
 10
1403.300798550848
 20
-1149.3125711577586
 10
1439.7109961369683
 20
-1065.3260507640805
  0
LWPOLYLINE
  5
25F
330
17
100
AcDbEntity
  8
MURI_ESISTENTI
100
AcDbPolyline
 90
2
 70
0
 10
1439.7109961369683
 20
-1065.3260507640805
 10
1438.3347244161532
 20
-1064.4054682854382
  0
LWPOLYLINE
  5
260
330
17
100
AcDbEntity
  8
MURI_ESISTENTI
100
AcDbPolyline
 90
2
 70
0
 10
2038.758932777421
 20
-1539.735353232255
 10
2017.6476139274885
 20
-1530.5178486340064
  0
LWPOLYLINE
  5
261
330
17
100
AcDbEntity
  8
PERCORSI
100
AcDbPolyline
 90
4
 70
1
 10
1868.772663931292
 20
-897.0444417882218
 10
1963.863316293929
 20
-936.6268600221815
 10
1894.6901582151645
 20
-1102.804699102518
 10
1799.5995058525275
 20
-1063.2222808685583
  0
LWPOLYLINE
  5
262
330
17
100
AcDbEntity
  8
PERCORSI
100
AcDbPolyline
 90
4
 70
1
 10
1735.0378916456805
 20
-1218.321597343539
 10
2316.660328426858
 20
-1460.4276506192155
 10
2273.61925228896
 20
-1563.8271949358693
 10
1691.9968155077825
 20
-1321.7211416601929
  0
LWPOLYLINE
  5
263
330
17
100
AcDbEntity
  8
PERCORSI
100
AcDbPolyline
 90
4
 70
1
 10
1814.9713187589196
 20
-1026.2938721840392
 10
1910.0619711215566
 20
-1065.876290417999
 10
1787.0874678704195
 20
-1361.3035598941526
 10
1691.9968155077825
 20
-1321.7211416601929
  0
LWPOLYLINE
  5
264
330
17
100
AcDbEntity
  8
PERCORSI
100
AcDbPolyline
 90
4
 70
1
 10
1891.312630156877
 20
-1345.113576992321
 10
2008.5603277302255
 20
-1393.9190829701163
 10
1987.4240849839364
 20
-1444.6956449113302
 10
1870.176387410588
 20
-1395.890138933535
  0
INSERT
  5
265
330
17
100
AcDbEntity
  8
TAVOLI_80x80
100
AcDbBlockReference
  2
TAVOLO_80x80
 10
2036.8494435566913
 20
-896.6015526881475
 30
0.0
 50
-22.6
  0
INSERT
  5
267
330
17
100
AcDbEntity
  8
TAVOLI_80x80
100
AcDbBlockReference
  2
TAVOLO_80x80
 10
2006.105817743907
 20
-970.458370057186
 30
0.0
 50
-22.6
  0
INSERT
  5
269
330
17
100
AcDbEntity
  8
TAVOLI_80x80
100
AcDbBlockReference
  2
TAVOLO_80x80
 10
1975.3621919311227
 20
-1044.3151874262244
 30
0.0
 50
-22.6
  0
INSERT
  5
26B
330
17
100
AcDbEntity
  8
TAVOLI_80x80
100
AcDbBlockReference
  2
TAVOLO_80x80
 10
1944.6185661183383
 20
-1118.1720047952629
 30
0.0
 50
-22.6
  0
INSERT
  5
26D
330
17
100
AcDbEntity
  8
TAVOLI_80x80
100
AcDbBlockReference
  2
TAVOLO_80x80
 10
1913.8749403055542
 20
-1192.0288221643013
 30
0.0
 50
-22.6
  0
INSERT
  5
26F
330
17
100
AcDbEntity
  8
TAVOLI_80x80
100
AcDbBlockReference
  2
TAVOLO_80x80
 10
1883.13131449277
 20
-1265.8856395333398
 30
0.0
 50
-22.6
  0
LWPOLYLINE
  5
271
330
17
100
AcDbEntity
  8
FASCIA_SEDUTA
100
AcDbPolyline
 90
4
 70
1
 10
2021.4325585138267
 20
-803.5299691861188
 10
2187.6103975941633
 20
-872.7031272648835
 10
2003.1486427174575
 20
-1315.8440314791144
 10
1836.970803637121
 20
-1246.6708734003496
  0
INSERT
  5
272
330
17
100
AcDbEntity
  8
SEDIE
100
AcDbBlockReference
  2
SEDIA_45x45
 10
2130.694124917687
 20
-892.3382464297116
 30
0.0
 50
-112.6
  0
INSERT
  5
274
330
17
100
AcDbEntity
  8
SEDIE
100
AcDbBlockReference
  2
SEDIA_45x45
 10
2099.9504991049025
 20
-966.1950637987501
 30
0.0
 50
-112.6
  0
INSERT
  5
276
330
17
100
AcDbEntity
  8
SEDIE
100
AcDbBlockReference
  2
SEDIA_45x45
 10
2069.2068732921184
 20
-1040.0518811677885
 30
0.0
 50
-112.6
  0
INSERT
  5
278
330
17
100
AcDbEntity
  8
SEDIE
100
AcDbBlockReference
  2
SEDIA_45x45
 10
2038.4632474793339
 20
-1113.908698536827
 30
0.0
 50
-112.6
  0
INSERT
  5
27A
330
17
100
AcDbEntity
  8
SEDIE
100
AcDbBlockReference
  2
SEDIA_45x45
 10
2007.7196216665498
 20
-1187.7655159058654
 30
0.0
 50
-112.6
  0
INSERT
  5
27C
330
17
100
AcDbEntity
  8
SEDIE
100
AcDbBlockReference
  2
SEDIA_45x45
 10
1976.9759958537654
 20
-1261.622333274904
 30
0.0
 50
-112.6
  0
INSERT
  5
27E
330
17
100
AcDbEntity
  8
SEDIE
100
AcDbBlockReference
  2
SEDIA_45x45
 10
2047.6052053775186
 20
-857.7516673903292
 30
0.0
 50
67.4
  0
INSERT
  5
280
330
17
100
AcDbEntity
  8
SEDIE
100
AcDbBlockReference
  2
SEDIA_45x45
 10
2016.8615795647343
 20
-931.6084847593677
 30
0.0
 50
67.4
  0
INSERT
  5
282
330
17
100
AcDbEntity
  8
SEDIE
100
AcDbBlockReference
  2
SEDIA_45x45
 10
1986.11795375195
 20
-1005.4653021284062
 30
0.0
 50
67.4
  0
INSERT
  5
284
330
17
100
AcDbEntity
  8
SEDIE
100
AcDbBlockReference
  2
SEDIA_45x45
 10
1955.3743279391656
 20
-1079.3221194974446
 30
0.0
 50
67.4
  0
INSERT
  5
286
330
17
100
AcDbEntity
  8
SEDIE
100
AcDbBlockReference
  2
SEDIA_45x45
 10
1924.6307021263813
 20
-1153.1789368664831
 30
0.0
 50
67.4
  0
INSERT
  5
288
330
17
100
AcDbEntity
  8
SEDIE
100
AcDbBlockReference
  2
SEDIA_45x45
 10
1893.8870763135972
 20
-1227.0357542355216
 30
0.0
 50
67.4
  0
TEXT
  5
28A
330
17
100
AcDbEntity
  8
NUMERAZIONE
100
AcDbText
 10
2012.290600615642
 20
-1059.6870003326167
 30
0.0
 40
14.0
  1
T101 12p
 50
-22.6
 72
1
 11
2012.290600615642
 21
-1059.6870003326167
 31
0.0
100
AcDbText
 73
2
  0
INSERT
  5
28B
330
17
100
AcDbEntity
  8
TAVOLI_80x80
100
AcDbBlockReference
  2
TAVOLO_80x80
 10
2239.955691321547
 20
-981.1465236733044
 30
0.0
 50
-22.6
  0
INSERT
  5
28D
330
17
100
AcDbEntity
  8
TAVOLI_80x80
100
AcDbBlockReference
  2
TAVOLO_80x80
 10
2209.212065508763
 20
-1055.0033410423428
 30
0.0
 50
-22.6
  0
INSERT
  5
28F
330
17
100
AcDbEntity
  8
TAVOLI_80x80
100
AcDbBlockReference
  2
TAVOLO_80x80
 10
2178.4684396959783
 20
-1128.8601584113812
 30
0.0
 50
-22.6
  0
INSERT
  5
291
330
17
100
AcDbEntity
  8
TAVOLI_80x80
100
AcDbBlockReference
  2
TAVOLO_80x80
 10
2147.724813883194
 20
-1202.7169757804197
 30
0.0
 50
-22.6
  0
INSERT
  5
293
330
17
100
AcDbEntity
  8
TAVOLI_80x80
100
AcDbBlockReference
  2
TAVOLO_80x80
 10
2116.98118807041
 20
-1276.5737931494582
 30
0.0
 50
-22.6
  0
INSERT
  5
295
330
17
100
AcDbEntity
  8
TAVOLI_80x80
100
AcDbBlockReference
  2
TAVOLO_80x80
 10
2086.2375622576255
 20
-1350.4306105184967
 30
0.0
 50
-22.6
  0
LWPOLYLINE
  5
297
330
17
100
AcDbEntity
  8
FASCIA_SEDUTA
100
AcDbPolyline
 90
4
 70
1
 10
2224.5388062786824
 20
-888.0749401712757
 10
2390.716645359019
 20
-957.2480982500404
 10
2206.254890482313
 20
-1400.3890024642712
 10
2040.0770514019766
 20
-1331.2158443855064
  0
INSERT
  5
298
330
17
100
AcDbEntity
  8
SEDIE
100
AcDbBlockReference
  2
SEDIA_45x45
 10
2333.8003726825427
 20
-976.8832174148685
 30
0.0
 50
-112.6
  0
INSERT
  5
29A
330
17
100
AcDbEntity
  8
SEDIE
100
AcDbBlockReference
  2
SEDIA_45x45
 10
2303.056746869758
 20
-1050.7400347839068
 30
0.0
 50
-112.6
  0
INSERT
  5
29C
330
17
100
AcDbEntity
  8
SEDIE
100
AcDbBlockReference
  2
SEDIA_45x45
 10
2272.313121056974
 20
-1124.5968521529453
 30
0.0
 50
-112.6
  0
INSERT
  5
29E
330
17
100
AcDbEntity
  8
SEDIE
100
AcDbBlockReference
  2
SEDIA_45x45
 10
2241.56949524419
 20
-1198.4536695219838
 30
0.0
 50
-112.6
  0
INSERT
  5
2A0
330
17
100
AcDbEntity
  8
SEDIE
100
AcDbBlockReference
  2
SEDIA_45x45
 10
2210.8258694314054
 20
-1272.3104868910223
 30
0.0
 50
-112.6
  0
INSERT
  5
2A2
330
17
100
AcDbEntity
  8
SEDIE
100
AcDbBlockReference
  2
SEDIA_45x45
 10
2180.0822436186213
 20
-1346.1673042600607
 30
0.0
 50
-112.6
  0
INSERT
  5
2A4
330
17
100
AcDbEntity
  8
SEDIE
100
AcDbBlockReference
  2
SEDIA_45x45
 10
2250.7114531423745
 20
-942.296638375486
 30
0.0
 50
67.4
  0
INSERT
  5
2A6
330
17
100
AcDbEntity
  8
SEDIE
100
AcDbBlockReference
  2
SEDIA_45x45
 10
2219.96782732959
 20
-1016.1534557445245
 30
0.0
 50
67.4
  0
INSERT
  5
2A8
330
17
100
AcDbEntity
  8
SEDIE
100
AcDbBlockReference
  2
SEDIA_45x45
 10
2189.224201516806
 20
-1090.010273113563
 30
0.0
 50
67.4
  0
INSERT
  5
2AA
330
17
100
AcDbEntity
  8
SEDIE
100
AcDbBlockReference
  2
SEDIA_45x45
 10
2158.4805757040212
 20
-1163.8670904826015
 30
0.0
 50
67.4
  0
INSERT
  5
2AC
330
17
100
AcDbEntity
  8
SEDIE
100
AcDbBlockReference
  2
SEDIA_45x45
 10
2127.736949891237
 20
-1237.72390785164
 30
0.0
 50
67.4
  0
INSERT
  5
2AE
330
17
100
AcDbEntity
  8
SEDIE
100
AcDbBlockReference
  2
SEDIA_45x45
 10
2096.993324078453
 20
-1311.5807252206785
 30
0.0
 50
67.4
  0
TEXT
  5
2B0
330
17
100
AcDbEntity
  8
NUMERAZIONE
100
AcDbText
 10
2215.396848380498
 20
-1144.2319713177735
 30
0.0
 40
14.0
  1
T102 12p
 50
-22.6
 72
1
 11
2215.396848380498
 21
-1144.2319713177735
 31
0.0
100
AcDbText
 73
2
  0
LWPOLYLINE
  5
2B1
330
17
100
AcDbEntity
  8
PERCORSI
100
AcDbPolyline
 90
4
 70
1
 10
1615.8883127665522
 20
-1452.516767773944
 10
2123.653932178692
 20
-1663.879195236836
 10
2083.687218622072
 20
-1759.8930578165862
 10
1575.9215992099325
 20
-1548.530630353694
  0
LWPOLYLINE
  5
2B2
330
17
100
AcDbEntity
  8
PERCORSI
100
AcDbPolyline
 90
4
 70
1
 10
1615.8883127665522
 20
-1452.516767773944
 10
1724.8271183858838
 20
-1497.863615847801
 10
1622.9888578810358
 20
-1742.5143233827407
 10
1514.0500522617042
 20
-1697.167475308884
  0
INSERT
  5
2B3
330
17
100
AcDbEntity
  8
TAVOLI_80x80
100
AcDbBlockReference
  2
TAVOLO_80x80
 10
1673.1198982531928
 20
-1676.7277077895583
 30
0.0
 50
-22.6
  0
INSERT
  5
2B5
330
17
100
AcDbEntity
  8
TAVOLI_80x80
100
AcDbBlockReference
  2
TAVOLO_80x80
 10
1746.9767156222313
 20
-1707.4713336023424
 30
0.0
 50
-22.6
  0
INSERT
  5
2B7
330
17
100
AcDbEntity
  8
TAVOLI_80x80
100
AcDbBlockReference
  2
TAVOLO_80x80
 10
1820.8335329912697
 20
-1738.2149594151267
 30
0.0
 50
-22.6
  0
INSERT
  5
2B9
330
17
100
AcDbEntity
  8
TAVOLI_80x80
100
AcDbBlockReference
  2
TAVOLO_80x80
 10
1894.6903503603082
 20
-1768.958585227911
 30
0.0
 50
-22.6
  0
LWPOLYLINE
  5
2BB
330
17
100
AcDbEntity
  8
FASCIA_SEDUTA
100
AcDbPolyline
 90
4
 70
1
 10
1703.8635240659771
 20
-1602.8708904205196
 10
1999.290793542131
 20
-1725.845393671657
 10
1949.3324015963565
 20
-1845.8627218963443
 10
1653.9051321202026
 20
-1722.8882186452072
  0
INSERT
  5
2BC
330
17
100
AcDbEntity
  8
SEDIE
100
AcDbBlockReference
  2
SEDIA_45x45
 10
1708.126830324413
 20
-1696.715571781515
 30
0.0
 50
157.4
  0
INSERT
  5
2BE
330
17
100
AcDbEntity
  8
SEDIE
100
AcDbBlockReference
  2
SEDIA_45x45
 10
1781.9836476934515
 20
-1727.4591975942994
 30
0.0
 50
157.4
  0
INSERT
  5
2C0
330
17
100
AcDbEntity
  8
SEDIE
100
AcDbBlockReference
  2
SEDIA_45x45
 10
1855.84046506249
 20
-1758.2028234070838
 30
0.0
 50
157.4
  0
INSERT
  5
2C2
330
17
100
AcDbEntity
  8
SEDIE
100
AcDbBlockReference
  2
SEDIA_45x45
 10
1929.6972824315285
 20
-1788.946449219868
 30
0.0
 50
157.4
  0
TEXT
  5
2C4
330
17
100
AcDbEntity
  8
NUMERAZIONE
100
AcDbText
 10
1836.2053458976618
 20
-1701.2865507306076
 30
0.0
 40
14.0
  1
T103 4p
 50
-22.6
 72
1
 11
1836.2053458976618
 21
-1701.2865507306076
 31
0.0
100
AcDbText
 73
2
  0
INSERT
  5
2C5
330
17
100
AcDbEntity
  8
TAVOLI_80x80
100
AcDbBlockReference
  2
TAVOLO_80x80
 10
1572.0321995390755
 20
-1867.5319980156528
 30
0.0
 50
-22.6
  0
INSERT
  5
2C7
330
17
100
AcDbEntity
  8
TAVOLI_80x80
100
AcDbBlockReference
  2
TAVOLO_80x80
 10
1645.8890169081137
 20
-1898.2756238284371
 30
0.0
 50
-22.6
  0
INSERT
  5
2C9
330
17
100
AcDbEntity
  8
TAVOLI_80x80
100
AcDbBlockReference
  2
TAVOLO_80x80
 10
1719.7458342771522
 20
-1929.0192496412214
 30
0.0
 50
-22.6
  0
INSERT
  5
2CB
330
17
100
AcDbEntity
  8
TAVOLI_80x80
100
AcDbBlockReference
  2
TAVOLO_80x80
 10
1793.6026516461907
 20
-1959.7628754540058
 30
0.0
 50
-22.6
  0
LWPOLYLINE
  5
2CD
330
17
100
AcDbEntity
  8
FASCIA_SEDUTA
100
AcDbPolyline
 90
4
 70
1
 10
1621.9905914848498
 20
-1747.5146697909654
 10
1917.4178609610037
 20
-1870.4891730421027
 10
1848.2447028822392
 20
-2036.6670121224392
 10
1552.8174334060852
 20
-1913.6925088713022
  0
INSERT
  5
2CE
330
17
100
AcDbEntity
  8
SEDIE
100
AcDbBlockReference
  2
SEDIA_45x45
 10
1641.6257106496778
 20
-1804.4309424674418
 30
0.0
 50
-22.6
  0
INSERT
  5
2D0
330
17
100
AcDbEntity
  8
SEDIE
100
AcDbBlockReference
  2
SEDIA_45x45
 10
1715.4825280187163
 20
-1835.1745682802261
 30
0.0
 50
-22.6
  0
INSERT
  5
2D2
330
17
100
AcDbEntity
  8
SEDIE
100
AcDbBlockReference
  2
SEDIA_45x45
 10
1789.3393453877547
 20
-1865.9181940930105
 30
0.0
 50
-22.6
  0
INSERT
  5
2D4
330
17
100
AcDbEntity
  8
SEDIE
100
AcDbBlockReference
  2
SEDIA_45x45
 10
1863.1961627567932
 20
-1896.6618199057946
 30
0.0
 50
-22.6
  0
INSERT
  5
2D6
330
17
100
AcDbEntity
  8
SEDIE
100
AcDbBlockReference
  2
SEDIA_45x45
 10
1607.0391316102955
 20
-1887.51986200761
 30
0.0
 50
157.4
  0
INSERT
  5
2D8
330
17
100
AcDbEntity
  8
SEDIE
100
AcDbBlockReference
  2
SEDIA_45x45
 10
1680.895948979334
 20
-1918.2634878203944
 30
0.0
 50
157.4
  0
INSERT
  5
2DA
330
17
100
AcDbEntity
  8
SEDIE
100
AcDbBlockReference
  2
SEDIA_45x45
 10
1754.7527663483725
 20
-1949.0071136331787
 30
0.0
 50
157.4
  0
INSERT
  5
2DC
330
17
100
AcDbEntity
  8
SEDIE
100
AcDbBlockReference
  2
SEDIA_45x45
 10
1828.609583717411
 20
-1979.7507394459628
 30
0.0
 50
157.4
  0
TEXT
  5
2DE
330
17
100
AcDbEntity
  8
NUMERAZIONE
100
AcDbText
 10
1735.1176471835445
 20
-1892.0908409567023
 30
0.0
 40
14.0
  1
T104 8p
 50
-22.6
 72
1
 11
1735.1176471835445
 21
-1892.0908409567023
 31
0.0
100
AcDbText
 73
2
  0
LWPOLYLINE
  5
2DF
330
17
100
AcDbEntity
  8
TESTI
100
AcDbPolyline
 90
4
 70
1
 10
1838.8021359774746
 20
-982.054837941689
 10
1912.658953346513
 20
-1012.7984637544733
 10
1897.2871404401208
 20
-1049.7268724389926
 10
1823.4303230710823
 20
-1018.9832466262083
  0
LWPOLYLINE
  5
2E0
330
17
100
AcDbEntity
  8
MONTACARICHI
100
AcDbPolyline
 90
4
 70
1
 10
1869.545761790259
 20
-908.1980205726505
 10
1943.4025791592974
 20
-938.9416463854349
 10
1912.658953346513
 20
-1012.7984637544733
 10
1838.8021359774746
 20
-982.054837941689
  0
LINE
  5
2E1
330
17
100
AcDbEntity
  8
MONTACARICHI
100
AcDbLine
 10
1869.545761790259
 20
-908.1980205726505
 30
0.0
 11
1912.658953346513
 21
-1012.7984637544733
 31
0.0
  0
LINE
  5
2E2
330
17
100
AcDbEntity
  8
MONTACARICHI
100
AcDbLine
 10
1943.4025791592974
 20
-938.9416463854349
 30
0.0
 11
1838.8021359774746
 21
-982.054837941689
 31
0.0
  0
TEXT
  5
2E3
330
17
100
AcDbEntity
  8
MONTACARICHI
100
AcDbText
 10
1829.1947529109796
 20
-1005.1350933695135
 30
0.0
 40
10.0
  1
MC montacarichi bevande (ingombro parametrico)
 50
-22.6
 11
1829.1947529109796
 21
-1005.1350933695135
 31
0.0
100
AcDbText
  0
TEXT
  5
2E4
330
17
100
AcDbEntity
  8
TESTI
100
AcDbText
 10
1943.5603316369516
 20
-1393.9416190383524
 30
0.0
 40
18.0
  1
SALA INTERRATA
 72
1
 11
1943.5603316369516
 21
-1393.9416190383524
 31
0.0
100
AcDbText
 73
2
  0
TEXT
  5
2E5
330
17
100
AcDbEntity
  8
TESTI
100
AcDbText
 10
1633.6470274545538
 20
-1644.049083722533
 30
0.0
 40
18.0
  1
EX AREA BAR
 72
1
 11
1633.6470274545538
 21
-1644.049083722533
 31
0.0
100
AcDbText
 73
2
  0
TEXT
  5
2E6
330
17
100
AcDbEntity
  8
TESTI
100
AcDbText
 10
1587.9666455707998
 20
-790.9879471614104
 30
0.0
 40
18.0
  1
IMMONDIZIA
 72
1
 11
1587.9666455707998
 21
-790.9879471614104
 31
0.0
100
AcDbText
 73
2
  0
TEXT
  5
2E7
330
17
100
AcDbEntity
  8
TESTI
100
AcDbText
 10
1154.0578435276987
 20
-610.3691455113026
 30
0.0
 40
18.0
  1
LOC. TECNICO
 72
1
 11
1154.0578435276987
 21
-610.3691455113026
 31
0.0
100
AcDbText
 73
2
  0
TEXT
  5
2E8
330
17
100
AcDbEntity
  8
TESTI
100
AcDbText
 10
1437.3409079427456
 20
-1204.886349144318
 30
0.0
 40
18.0
  1
WC PERS. / SPOGLIATOIO
 72
1
 11
1437.3409079427456
 21
-1204.886349144318
 31
0.0
100
AcDbText
 73
2
  0
ENDSEC
  0
SECTION
  2
OBJECTS
  0
DICTIONARY
  5
A
330
0
100
AcDbDictionary
281
1
  3
ACAD_COLOR
350
B
  3
ACAD_GROUP
350
C
  3
ACAD_LAYOUT
350
D
  3
ACAD_MATERIAL
350
E
  3
ACAD_MLEADERSTYLE
350
F
  3
ACAD_MLINESTYLE
350
10
  3
ACAD_PLOTSETTINGS
350
11
  3
ACAD_PLOTSTYLENAME
350
12
  3
ACAD_SCALELIST
350
14
  3
ACAD_TABLESTYLE
350
15
  3
ACAD_VISUALSTYLE
350
16
  3
EZDXF_META
350
2D
  0
DICTIONARY
  5
B
330
A
100
AcDbDictionary
281
1
  0
DICTIONARY
  5
C
330
A
100
AcDbDictionary
281
1
  0
DICTIONARY
  5
D
330
A
100
AcDbDictionary
281
1
  3
Model
350
1A
  3
Layout1
350
1E
  0
DICTIONARY
  5
E
330
A
100
AcDbDictionary
281
1
  3
ByBlock
350
1F
  3
ByLayer
350
20
  3
Global
350
21
  0
DICTIONARY
  5
F
330
A
100
AcDbDictionary
281
1
  3
Standard
350
2C
  0
DICTIONARY
  5
10
330
A
100
AcDbDictionary
281
1
  3
Standard
350
22
  0
DICTIONARY
  5
11
330
A
100
AcDbDictionary
281
1
  0
ACDBDICTIONARYWDFLT
  5
12
330
A
100
AcDbDictionary
281
1
  3
Normal
350
13
100
AcDbDictionaryWithDefault
340
13
  0
ACDBPLACEHOLDER
  5
13
330
12
  0
DICTIONARY
  5
14
330
A
100
AcDbDictionary
281
1
  0
DICTIONARY
  5
15
330
A
100
AcDbDictionary
281
1
  0
DICTIONARY
  5
16
330
A
100
AcDbDictionary
281
1
  3
2dWireframe
350
5A
  3
Basic
350
5B
  3
Brighten
350
5C
  3
ColorChange
350
5D
  3
Conceptual
350
5E
  3
Dim
350
5F
  3
EdgeColorOff
350
60
  3
Facepattern
350
61
  3
Flat
350
62
  3
FlatWithEdges
350
63
  3
Gouraud
350
64
  3
GouraudWithEdges
350
65
  3
Hidden
350
66
  3
JitterOff
350
67
  3
Linepattern
350
68
  3
Modeling
350
69
  3
OverhangOff
350
6A
  3
Realistic
350
6B
  3
Shaded
350
6C
  3
Shaded with edges
350
6D
  3
Shades of Gray
350
6E
  3
Sketchy
350
6F
  3
Thicken
350
70
  3
Wireframe
350
71
  3
X-Ray
350
72
  0
LAYOUT
  5
1A
330
D
100
AcDbPlotSettings
  1

  4
A3
  6

 40
7.5
 41
20.0
 42
7.5
 43
20.0
 44
420.0
 45
297.0
 46
0.0
 47
0.0
 48
0.0
 49
0.0
140
0.0
141
0.0
142
1.0
143
1.0
 70
1024
 72
1
 73
0
 74
5
  7

 75
16
 76
0
 77
2
 78
300
147
1.0
148
0.0
149
0.0
100
AcDbLayout
  1
Model
 70
1
 71
0
 10
0.0
 20
0.0
 11
420.0
 21
297.0
 12
0.0
 22
0.0
 32
0.0
 14
1e+20
 24
1e+20
 34
1e+20
 15
-1e+20
 25
-1e+20
 35
-1e+20
146
0.0
 13
0.0
 23
0.0
 33
0.0
 16
1.0
 26
0.0
 36
0.0
 17
0.0
 27
1.0
 37
0.0
 76
1
330
17
  0
LAYOUT
  5
1E
330
D
100
AcDbPlotSettings
  1

  4
A3
  6

 40
7.5
 41
20.0
 42
7.5
 43
20.0
 44
420.0
 45
297.0
 46
0.0
 47
0.0
 48
0.0
 49
0.0
140
0.0
141
0.0
142
1.0
143
1.0
 70
0
 72
1
 73
0
 74
5
  7

 75
16
 76
0
 77
2
 78
300
147
1.0
148
0.0
149
0.0
100
AcDbLayout
  1
Layout1
 70
1
 71
1
 10
0.0
 20
0.0
 11
420.0
 21
297.0
 12
0.0
 22
0.0
 32
0.0
 14
1e+20
 24
1e+20
 34
1e+20
 15
-1e+20
 25
-1e+20
 35
-1e+20
146
0.0
 13
0.0
 23
0.0
 33
0.0
 16
1.0
 26
0.0
 36
0.0
 17
0.0
 27
1.0
 37
0.0
 76
1
330
1B
  0
MATERIAL
  5
1F
102
{ACAD_REACTORS
330
E
102
}
330
E
100
AcDbMaterial
  1
ByBlock
  2

 70
0
 40
1.0
 71
1
 41
1.0
 91
-1023410177
 42
1.0
 72
1
  3

 73
1
 74
1
 75
1
 44
0.5
 73
0
 45
1.0
 46
1.0
 77
1
  4

 78
1
 79
1
170
1
 48
1.0
171
1
  6

172
1
173
1
174
1
140
1.0
141
1.0
175
1
  7

176
1
177
1
178
1
143
1.0
179
1
  8

270
1
271
1
272
1
145
1.0
146
1.0
273
1
  9

274
1
275
1
276
1
 42
1.0
 72
1
  3

 73
1
 74
1
 75
1
 94
63
  0
MATERIAL
  5
20
102
{ACAD_REACTORS
330
E
102
}
330
E
100
AcDbMaterial
  1
ByLayer
  2

 70
0
 40
1.0
 71
1
 41
1.0
 91
-1023410177
 42
1.0
 72
1
  3

 73
1
 74
1
 75
1
 44
0.5
 73
0
 45
1.0
 46
1.0
 77
1
  4

 78
1
 79
1
170
1
 48
1.0
171
1
  6

172
1
173
1
174
1
140
1.0
141
1.0
175
1
  7

176
1
177
1
178
1
143
1.0
179
1
  8

270
1
271
1
272
1
145
1.0
146
1.0
273
1
  9

274
1
275
1
276
1
 42
1.0
 72
1
  3

 73
1
 74
1
 75
1
 94
63
  0
MATERIAL
  5
21
102
{ACAD_REACTORS
330
E
102
}
330
E
100
AcDbMaterial
  1
Global
  2

 70
0
 40
1.0
 71
1
 41
1.0
 91
-1023410177
 42
1.0
 72
1
  3

 73
1
 74
1
 75
1
 44
0.5
 73
0
 45
1.0
 46
1.0
 77
1
  4

 78
1
 79
1
170
1
 48
1.0
171
1
  6

172
1
173
1
174
1
140
1.0
141
1.0
175
1
  7

176
1
177
1
178
1
143
1.0
179
1
  8

270
1
271
1
272
1
145
1.0
146
1.0
273
1
  9

274
1
275
1
276
1
 42
1.0
 72
1
  3

 73
1
 74
1
 75
1
 94
63
  0
MLINESTYLE
  5
22
102
{ACAD_REACTORS
330
10
102
}
330
10
100
AcDbMlineStyle
  2
Standard
 70
0
  3

 62
256
 51
90.0
 52
90.0
 71
2
 49
0.5
 62
256
  6
BYLAYER
 49
-0.5
 62
256
  6
BYLAYER
  0
MLEADERSTYLE
  5
2C
102
{ACAD_REACTORS
330
F
102
}
330
F
100
AcDbMLeaderStyle
179
2
170
2
171
1
172
0
 90
2
 40
0.0
 41
0.0
173
1
 91
-1056964608
 92
-2
290
1
 42
2.0
291
1
 43
8.0
  3
Standard
 44
4.0
300

342
29
174
1
175
1
176
0
178
1
 93
-1056964608
 45
4.0
292
0
297
0
 46
4.0
 94
-1056964608
 47
1.0
 49
1.0
140
1.0
294
1
141
0.0
177
0
142
1.0
295
0
296
0
143
3.75
271
0
272
9
273
9
  0
DICTIONARY
  5
2D
330
A
100
AcDbDictionary
280
1
281
1
  3
CREATED_BY_EZDXF
350
2E
  3
WRITTEN_BY_EZDXF
350
2EB
  0
DICTIONARYVAR
  5
2E
330
2D
100
DictionaryVariables
280
0
  1
1.4.4 @ 2026-10-08T12:52:05.334380+00:00
  0
VISUALSTYLE
  5
5A
102
{ACAD_REACTORS
330
16
102
}
330
16
100
AcDbVisualStyle
  2
2dWireframe
 70
4
177
3
291
0
 70
58
 90
2
176
1
 90
2
176
1
 90
0
176
1
 90
0
176
1
 40
0.6
176
1
 40
30.0
176
1
 62
7
420
16777215
176
1
 90
1
176
1
 90
4
176
1
 62
7
176
1
 62
257
176
1
 90
1
176
1
 90
1
176
1
 40
1.0
176
1
 90
8
176
1
 62
7
176
1
 40
1.0
176
1
 90
1
176
1
 90
6
176
1
 90
2
176
1
 62
7
176
1
 90
5
176
1
 90
0
176
1
 90
0
176
1
290
0
176
1
 90
1
176
1
 40
0.0
176
1
 90
0
176
1
290
1
176
1
290
1
176
1
290
0
176
1
290
0
176
1
290
0
176
1
290
0
176
1
290
0
176
1
290
0
176
1
290
0
176
1
 90
50
176
1
 40
0.0
176
1
 40
1.0
176
1
 90
0
176
1
 62
18
420
0
176
1
 90
50
176
1
 90
3
176
1
 62
5
420
255
176
1
290
0
176
1
 90
50
176
1
 90
50
176
1
 90
50
176
1
290
0
176
1
 90
50
176
1
 62
256
176
0
 40
1.0
176
0
 90
2
176
1
  1
strokes_ogs.tif
176
1
290
0
176
1
 40
1.0
176
1
 40
1.0
176
1
  0
VISUALSTYLE
  5
5B
102
{ACAD_REACTORS
330
16
102
}
330
16
100
AcDbVisualStyle
  2
Basic
 70
7
177
3
291
1
 70
58
 90
2
176
1
 90
2
176
1
 90
0
176
1
 90
1
176
1
 40
0.6
176
1
 40
30.0
176
1
 62
7
420
16777215
176
1
 90
1
176
1
 90
4
176
1
 62
7
176
1
 62
257
176
1
 90
1
176
1
 90
1
176
1
 40
1.0
176
1
 90
8
176
1
 62
7
176
1
 40
1.0
176
1
 90
1
176
1
 90
6
176
1
 90
2
176
1
 62
7
176
1
 90
5
176
1
 90
0
176
1
 90
0
176
1
290
0
176
1
 90
1
176
1
 40
0.0
176
1
 90
0
176
1
290
0
176
1
290
1
176
1
290
1
176
1
290
0
176
1
290
0
176
1
290
0
176
1
290
0
176
1
290
0
176
1
290
0
176
1
 90
50
176
1
 40
0.0
176
1
 40
1.0
176
1
 90
0
176
1
 62
18
420
0
176
1
 90
50
176
1
 90
3
176
1
 62
5
420
255
176
1
290
0
176
1
 90
50
176
1
 90
50
176
1
 90
50
176
1
290
0
176
1
 90
50
176
1
 62
256
176
0
 40
1.0
176
0
 90
2
176
1
  1
strokes_ogs.tif
176
1
290
0
176
1
 40
1.0
176
1
 40
1.0
176
1
  0
VISUALSTYLE
  5
5C
102
{ACAD_REACTORS
330
16
102
}
330
16
100
AcDbVisualStyle
  2
Brighten
 70
12
177
3
291
1
 70
58
 90
2
176
1
 90
2
176
1
 90
0
176
1
 90
2
176
1
 40
0.6
176
1
 40
30.0
176
1
 62
7
420
16777215
176
1
 90
1
176
1
 90
4
176
1
 62
7
176
1
 62
257
176
1
 90
1
176
1
 90
1
176
1
 40
1.0
176
1
 90
8
176
1
 62
7
176
1
 40
1.0
176
1
 90
1
176
1
 90
6
176
1
 90
2
176
1
 62
7
176
1
 90
5
176
1
 90
0
176
1
 90
0
176
1
290
0
176
1
 90
1
176
1
 40
0.0
176
1
 90
0
176
1
290
0
176
1
290
1
176
1
290
1
176
1
290
0
176
1
290
0
176
1
290
0
176
1
290
0
176
1
290
0
176
1
290
0
176
1
 90
50
176
1
 40
0.0
176
1
 40
1.0
176
1
 90
0
176
1
 62
18
420
0
176
1
 90
50
176
1
 90
3
176
1
 62
5
420
255
176
1
290
0
176
1
 90
50
176
1
 90
50
176
1
 90
50
176
1
290
0
176
1
 90
50
176
1
 62
256
176
0
 40
1.0
176
0
 90
2
176
1
  1
strokes_ogs.tif
176
1
290
0
176
1
 40
1.0
176
1
 40
1.0
176
1
  0
VISUALSTYLE
  5
5D
102
{ACAD_REACTORS
330
16
102
}
330
16
100
AcDbVisualStyle
  2
ColorChange
 70
16
177
3
291
1
 70
58
 90
2
176
1
 90
2
176
1
 90
0
176
1
 90
2
176
1
 40
0.6
176
1
 40
30.0
176
1
 62
7
420
16777215
176
1
 90
1
176
1
 90
4
176
1
 62
7
176
1
 62
257
176
1
 90
1
176
1
 90
1
176
1
 40
1.0
176
1
 90
8
176
1
 62
7
176
1
 40
1.0
176
1
 90
1
176
1
 90
6
176
1
 90
2
176
1
 62
7
176
1
 90
5
176
1
 90
0
176
1
 90
0
176
1
290
0
176
1
 90
1
176
1
 40
0.0
176
1
 90
0
176
1
290
0
176
1
290
1
176
1
290
1
176
1
290
0
176
1
290
0
176
1
290
0
176
1
290
0
176
1
290
0
176
1
290
0
176
1
 90
50
176
1
 40
0.0
176
1
 40
1.0
176
1
 90
0
176
1
 62
18
420
0
176
1
 90
50
176
1
 90
3
176
1
 62
5
420
255
176
1
290
0
176
1
 90
50
176
1
 90
50
176
1
 90
50
176
1
290
0
176
1
 90
50
176
1
 62
256
176
0
 40
1.0
176
0
 90
2
176
1
  1
strokes_ogs.tif
176
1
290
0
176
1
 40
1.0
176
1
 40
1.0
176
1
  0
VISUALSTYLE
  5
5E
102
{ACAD_REACTORS
330
16
102
}
330
16
100
AcDbVisualStyle
  2
Conceptual
 70
9
177
3
291
0
 70
58
 90
2
176
1
 90
2
176
1
 90
0
176
1
 90
3
176
1
 40
0.6
176
1
 40
30.0
176
1
 62
7
420
16777215
176
1
 90
1
176
1
 90
4
176
1
 62
7
176
1
 62
257
176
1
 90
1
176
1
 90
1
176
1
 40
1.0
176
1
 90
8
176
1
 62
7
176
1
 40
1.0
176
1
 90
1
176
1
 90
6
176
1
 90
2
176
1
 62
7
176
1
 90
5
176
1
 90
0
176
1
 90
0
176
1
290
0
176
1
 90
1
176
1
 40
0.0
176
1
 90
0
176
1
290
0
176
1
290
1
176
1
290
1
176
1
290
0
176
1
290
0
176
1
290
0
176
1
290
0
176
1
290
0
176
1
290
0
176
1
 90
50
176
1
 40
0.0
176
1
 40
1.0
176
1
 90
0
176
1
 62
18
420
0
176
1
 90
50
176
1
 90
3
176
1
 62
5
420
255
176
1
290
0
176
1
 90
50
176
1
 90
50
176
1
 90
50
176
1
290
0
176
1
 90
50
176
1
 62
256
176
0
 40
1.0
176
0
 90
2
176
1
  1
strokes_ogs.tif
176
1
290
0
176
1
 40
1.0
176
1
 40
1.0
176
1
  0
VISUALSTYLE
  5
5F
102
{ACAD_REACTORS
330
16
102
}
330
16
100
AcDbVisualStyle
  2
Dim
 70
11
177
3
291
1
 70
58
 90
2
176
1
 90
2
176
1
 90
0
176
1
 90
2
176
1
 40
0.6
176
1
 40
30.0
176
1
 62
7
420
16777215
176
1
 90
1
176
1
 90
4
176
1
 62
7
176
1
 62
257
176
1
 90
1
176
1
 90
1
176
1
 40
1.0
176
1
 90
8
176
1
 62
7
176
1
 40
1.0
176
1
 90
1
176
1
 90
6
176
1
 90
2
176
1
 62
7
176
1
 90
5
176
1
 90
0
176
1
 90
0
176
1
290
0
176
1
 90
1
176
1
 40
0.0
176
1
 90
0
176
1
290
0
176
1
290
1
176
1
290
1
176
1
290
0
176
1
290
0
176
1
290
0
176
1
290
0
176
1
290
0
176
1
290
0
176
1
 90
50
176
1
 40
0.0
176
1
 40
1.0
176
1
 90
0
176
1
 62
18
420
0
176
1
 90
50
176
1
 90
3
176
1
 62
5
420
255
176
1
290
0
176
1
 90
50
176
1
 90
50
176
1
 90
50
176
1
290
0
176
1
 90
50
176
1
 62
256
176
0
 40
1.0
176
0
 90
2
176
1
  1
strokes_ogs.tif
176
1
290
0
176
1
 40
1.0
176
1
 40
1.0
176
1
  0
VISUALSTYLE
  5
60
102
{ACAD_REACTORS
330
16
102
}
330
16
100
AcDbVisualStyle
  2
EdgeColorOff
 70
22
177
3
291
1
 70
58
 90
2
176
1
 90
2
176
1
 90
0
176
1
 90
2
176
1
 40
0.6
176
1
 40
30.0
176
1
 62
7
420
16777215
176
1
 90
1
176
1
 90
4
176
1
 62
7
176
1
 62
257
176
1
 90
1
176
1
 90
1
176
1
 40
1.0
176
1
 90
8
176
1
 62
7
176
1
 40
1.0
176
1
 90
1
176
1
 90
6
176
1
 90
2
176
1
 62
7
176
1
 90
5
176
1
 90
0
176
1
 90
0
176
1
290
0
176
1
 90
1
176
1
 40
0.0
176
1
 90
0
176
1
290
0
176
1
290
1
176
1
290
1
176
1
290
0
176
1
290
0
176
1
290
0
176
1
290
0
176
1
290
0
176
1
290
0
176
1
 90
50
176
1
 40
0.0
176
1
 40
1.0
176
1
 90
0
176
1
 62
18
420
0
176
1
 90
50
176
1
 90
3
176
1
 62
5
420
255
176
1
290
0
176
1
 90
50
176
1
 90
50
176
1
 90
50
176
1
290
0
176
1
 90
50
176
1
 62
256
176
0
 40
1.0
176
0
 90
2
176
1
  1
strokes_ogs.tif
176
1
290
0
176
1
 40
1.0
176
1
 40
1.0
176
1
  0
VISUALSTYLE
  5
61
102
{ACAD_REACTORS
330
16
102
}
330
16
100
AcDbVisualStyle
  2
Facepattern
 70
15
177
3
291
1
 70
58
 90
2
176
1
 90
2
176
1
 90
0
176
1
 90
2
176
1
 40
0.6
176
1
 40
30.0
176
1
 62
7
420
16777215
176
1
 90
1
176
1
 90
4
176
1
 62
7
176
1
 62
257
176
1
 90
1
176
1
 90
1
176
1
 40
1.0
176
1
 90
8
176
1
 62
7
176
1
 40
1.0
176
1
 90
1
176
1
 90
6
176
1
 90
2
176
1
 62
7
176
1
 90
5
176
1
 90
0
176
1
 90
0
176
1
290
0
176
1
 90
1
176
1
 40
0.0
176
1
 90
0
176
1
290
0
176
1
290
1
176
1
290
1
176
1
290
0
176
1
290
0
176
1
290
0
176
1
290
0
176
1
290
0
176
1
290
0
176
1
 90
50
176
1
 40
0.0
176
1
 40
1.0
176
1
 90
0
176
1
 62
18
420
0
176
1
 90
50
176
1
 90
3
176
1
 62
5
420
255
176
1
290
0
176
1
 90
50
176
1
 90
50
176
1
 90
50
176
1
290
0
176
1
 90
50
176
1
 62
256
176
0
 40
1.0
176
0
 90
2
176
1
  1
strokes_ogs.tif
176
1
290
0
176
1
 40
1.0
176
1
 40
1.0
176
1
  0
VISUALSTYLE
  5
62
102
{ACAD_REACTORS
330
16
102
}
330
16
100
AcDbVisualStyle
  2
Flat
 70
0
177
3
291
1
 70
58
 90
2
176
1
 90
2
176
1
 90
0
176
1
 90
2
176
1
 40
0.6
176
1
 40
30.0
176
1
 62
7
420
16777215
176
1
 90
1
176
1
 90
4
176
1
 62
7
176
1
 62
257
176
1
 90
1
176
1
 90
1
176
1
 40
1.0
176
1
 90
8
176
1
 62
7
176
1
 40
1.0
176
1
 90
1
176
1
 90
6
176
1
 90
2
176
1
 62
7
176
1
 90
5
176
1
 90
0
176
1
 90
0
176
1
290
0
176
1
 90
1
176
1
 40
0.0
176
1
 90
0
176
1
290
0
176
1
290
1
176
1
290
1
176
1
290
0
176
1
290
0
176
1
290
0
176
1
290
0
176
1
290
0
176
1
290
0
176
1
 90
50
176
1
 40
0.0
176
1
 40
1.0
176
1
 90
0
176
1
 62
18
420
0
176
1
 90
50
176
1
 90
3
176
1
 62
5
420
255
176
1
290
0
176
1
 90
50
176
1
 90
50
176
1
 90
50
176
1
290
0
176
1
 90
50
176
1
 62
256
176
0
 40
1.0
176
0
 90
2
176
1
  1
strokes_ogs.tif
176
1
290
0
176
1
 40
1.0
176
1
 40
1.0
176
1
  0
VISUALSTYLE
  5
63
102
{ACAD_REACTORS
330
16
102
}
330
16
100
AcDbVisualStyle
  2
FlatWithEdges
 70
1
177
3
291
1
 70
58
 90
2
176
1
 90
2
176
1
 90
0
176
1
 90
2
176
1
 40
0.6
176
1
 40
30.0
176
1
 62
7
420
16777215
176
1
 90
1
176
1
 90
4
176
1
 62
7
176
1
 62
257
176
1
 90
1
176
1
 90
1
176
1
 40
1.0
176
1
 90
8
176
1
 62
7
176
1
 40
1.0
176
1
 90
1
176
1
 90
6
176
1
 90
2
176
1
 62
7
176
1
 90
5
176
1
 90
0
176
1
 90
0
176
1
290
0
176
1
 90
1
176
1
 40
0.0
176
1
 90
0
176
1
290
0
176
1
290
1
176
1
290
1
176
1
290
0
176
1
290
0
176
1
290
0
176
1
290
0
176
1
290
0
176
1
290
0
176
1
 90
50
176
1
 40
0.0
176
1
 40
1.0
176
1
 90
0
176
1
 62
18
420
0
176
1
 90
50
176
1
 90
3
176
1
 62
5
420
255
176
1
290
0
176
1
 90
50
176
1
 90
50
176
1
 90
50
176
1
290
0
176
1
 90
50
176
1
 62
256
176
0
 40
1.0
176
0
 90
2
176
1
  1
strokes_ogs.tif
176
1
290
0
176
1
 40
1.0
176
1
 40
1.0
176
1
  0
VISUALSTYLE
  5
64
102
{ACAD_REACTORS
330
16
102
}
330
16
100
AcDbVisualStyle
  2
Gouraud
 70
2
177
3
291
1
 70
58
 90
2
176
1
 90
2
176
1
 90
0
176
1
 90
2
176
1
 40
0.6
176
1
 40
30.0
176
1
 62
7
420
16777215
176
1
 90
1
176
1
 90
4
176
1
 62
7
176
1
 62
257
176
1
 90
1
176
1
 90
1
176
1
 40
1.0
176
1
 90
8
176
1
 62
7
176
1
 40
1.0
176
1
 90
1
176
1
 90
6
176
1
 90
2
176
1
 62
7
176
1
 90
5
176
1
 90
0
176
1
 90
0
176
1
290
0
176
1
 90
1
176
1
 40
0.0
176
1
 90
0
176
1
290
0
176
1
290
1
176
1
290
1
176
1
290
0
176
1
290
0
176
1
290
0
176
1
290
0
176
1
290
0
176
1
290
0
176
1
 90
50
176
1
 40
0.0
176
1
 40
1.0
176
1
 90
0
176
1
 62
18
420
0
176
1
 90
50
176
1
 90
3
176
1
 62
5
420
255
176
1
290
0
176
1
 90
50
176
1
 90
50
176
1
 90
50
176
1
290
0
176
1
 90
50
176
1
 62
256
176
0
 40
1.0
176
0
 90
2
176
1
  1
strokes_ogs.tif
176
1
290
0
176
1
 40
1.0
176
1
 40
1.0
176
1
  0
VISUALSTYLE
  5
65
102
{ACAD_REACTORS
330
16
102
}
330
16
100
AcDbVisualStyle
  2
GouraudWithEdges
 70
3
177
3
291
1
 70
58
 90
2
176
1
 90
2
176
1
 90
0
176
1
 90
2
176
1
 40
0.6
176
1
 40
30.0
176
1
 62
7
420
16777215
176
1
 90
1
176
1
 90
4
176
1
 62
7
176
1
 62
257
176
1
 90
1
176
1
 90
1
176
1
 40
1.0
176
1
 90
8
176
1
 62
7
176
1
 40
1.0
176
1
 90
1
176
1
 90
6
176
1
 90
2
176
1
 62
7
176
1
 90
5
176
1
 90
0
176
1
 90
0
176
1
290
0
176
1
 90
1
176
1
 40
0.0
176
1
 90
0
176
1
290
0
176
1
290
1
176
1
290
1
176
1
290
0
176
1
290
0
176
1
290
0
176
1
290
0
176
1
290
0
176
1
290
0
176
1
 90
50
176
1
 40
0.0
176
1
 40
1.0
176
1
 90
0
176
1
 62
18
420
0
176
1
 90
50
176
1
 90
3
176
1
 62
5
420
255
176
1
290
0
176
1
 90
50
176
1
 90
50
176
1
 90
50
176
1
290
0
176
1
 90
50
176
1
 62
256
176
0
 40
1.0
176
0
 90
2
176
1
  1
strokes_ogs.tif
176
1
290
0
176
1
 40
1.0
176
1
 40
1.0
176
1
  0
VISUALSTYLE
  5
66
102
{ACAD_REACTORS
330
16
102
}
330
16
100
AcDbVisualStyle
  2
Hidden
 70
6
177
3
291
0
 70
58
 90
2
176
1
 90
2
176
1
 90
0
176
1
 90
1
176
1
 40
0.6
176
1
 40
30.0
176
1
 62
7
420
16777215
176
1
 90
1
176
1
 90
4
176
1
 62
7
176
1
 62
257
176
1
 90
1
176
1
 90
1
176
1
 40
1.0
176
1
 90
8
176
1
 62
7
176
1
 40
1.0
176
1
 90
1
176
1
 90
6
176
1
 90
2
176
1
 62
7
176
1
 90
5
176
1
 90
0
176
1
 90
0
176
1
290
0
176
1
 90
1
176
1
 40
0.0
176
1
 90
0
176
1
290
0
176
1
290
1
176
1
290
1
176
1
290
0
176
1
290
0
176
1
290
0
176
1
290
0
176
1
290
0
176
1
290
0
176
1
 90
50
176
1
 40
0.0
176
1
 40
1.0
176
1
 90
0
176
1
 62
18
420
0
176
1
 90
50
176
1
 90
3
176
1
 62
5
420
255
176
1
290
0
176
1
 90
50
176
1
 90
50
176
1
 90
50
176
1
290
0
176
1
 90
50
176
1
 62
256
176
0
 40
1.0
176
0
 90
2
176
1
  1
strokes_ogs.tif
176
1
290
0
176
1
 40
1.0
176
1
 40
1.0
176
1
  0
VISUALSTYLE
  5
67
102
{ACAD_REACTORS
330
16
102
}
330
16
100
AcDbVisualStyle
  2
JitterOff
 70
20
177
3
291
1
 70
58
 90
2
176
1
 90
2
176
1
 90
0
176
1
 90
2
176
1
 40
0.6
176
1
 40
30.0
176
1
 62
7
420
16777215
176
1
 90
1
176
1
 90
4
176
1
 62
7
176
1
 62
257
176
1
 90
1
176
1
 90
1
176
1
 40
1.0
176
1
 90
8
176
1
 62
7
176
1
 40
1.0
176
1
 90
1
176
1
 90
6
176
1
 90
2
176
1
 62
7
176
1
 90
5
176
1
 90
0
176
1
 90
0
176
1
290
0
176
1
 90
1
176
1
 40
0.0
176
1
 90
0
176
1
290
0
176
1
290
1
176
1
290
1
176
1
290
0
176
1
290
0
176
1
290
0
176
1
290
0
176
1
290
0
176
1
290
0
176
1
 90
50
176
1
 40
0.0
176
1
 40
1.0
176
1
 90
0
176
1
 62
18
420
0
176
1
 90
50
176
1
 90
3
176
1
 62
5
420
255
176
1
290
0
176
1
 90
50
176
1
 90
50
176
1
 90
50
176
1
290
0
176
1
 90
50
176
1
 62
256
176
0
 40
1.0
176
0
 90
2
176
1
  1
strokes_ogs.tif
176
1
290
0
176
1
 40
1.0
176
1
 40
1.0
176
1
  0
VISUALSTYLE
  5
68
102
{ACAD_REACTORS
330
16
102
}
330
16
100
AcDbVisualStyle
  2
Linepattern
 70
14
177
3
291
1
 70
58
 90
2
176
1
 90
2
176
1
 90
0
176
1
 90
2
176
1
 40
0.6
176
1
 40
30.0
176
1
 62
7
420
16777215
176
1
 90
1
176
1
 90
4
176
1
 62
7
176
1
 62
257
176
1
 90
1
176
1
 90
1
176
1
 40
1.0
176
1
 90
8
176
1
 62
7
176
1
 40
1.0
176
1
 90
1
176
1
 90
6
176
1
 90
2
176
1
 62
7
176
1
 90
5
176
1
 90
0
176
1
 90
0
176
1
290
0
176
1
 90
1
176
1
 40
0.0
176
1
 90
0
176
1
290
0
176
1
290
1
176
1
290
1
176
1
290
0
176
1
290
0
176
1
290
0
176
1
290
0
176
1
290
0
176
1
290
0
176
1
 90
50
176
1
 40
0.0
176
1
 40
1.0
176
1
 90
0
176
1
 62
18
420
0
176
1
 90
50
176
1
 90
3
176
1
 62
5
420
255
176
1
290
0
176
1
 90
50
176
1
 90
50
176
1
 90
50
176
1
290
0
176
1
 90
50
176
1
 62
256
176
0
 40
1.0
176
0
 90
2
176
1
  1
strokes_ogs.tif
176
1
290
0
176
1
 40
1.0
176
1
 40
1.0
176
1
  0
VISUALSTYLE
  5
69
102
{ACAD_REACTORS
330
16
102
}
330
16
100
AcDbVisualStyle
  2
Modeling
 70
10
177
3
291
0
 70
58
 90
2
176
1
 90
2
176
1
 90
0
176
1
 90
2
176
1
 40
0.6
176
1
 40
30.0
176
1
 62
7
420
16777215
176
1
 90
1
176
1
 90
4
176
1
 62
7
176
1
 62
257
176
1
 90
1
176
1
 90
1
176
1
 40
1.0
176
1
 90
8
176
1
 62
7
176
1
 40
1.0
176
1
 90
1
176
1
 90
6
176
1
 90
2
176
1
 62
7
176
1
 90
5
176
1
 90
0
176
1
 90
0
176
1
290
0
176
1
 90
1
176
1
 40
0.0
176
1
 90
0
176
1
290
0
176
1
290
1
176
1
290
1
176
1
290
0
176
1
290
0
176
1
290
0
176
1
290
0
176
1
290
0
176
1
290
0
176
1
 90
50
176
1
 40
0.0
176
1
 40
1.0
176
1
 90
0
176
1
 62
18
420
0
176
1
 90
50
176
1
 90
3
176
1
 62
5
420
255
176
1
290
0
176
1
 90
50
176
1
 90
50
176
1
 90
50
176
1
290
0
176
1
 90
50
176
1
 62
256
176
0
 40
1.0
176
0
 90
2
176
1
  1
strokes_ogs.tif
176
1
290
0
176
1
 40
1.0
176
1
 40
1.0
176
1
  0
VISUALSTYLE
  5
6A
102
{ACAD_REACTORS
330
16
102
}
330
16
100
AcDbVisualStyle
  2
OverhangOff
 70
21
177
3
291
1
 70
58
 90
2
176
1
 90
2
176
1
 90
0
176
1
 90
2
176
1
 40
0.6
176
1
 40
30.0
176
1
 62
7
420
16777215
176
1
 90
1
176
1
 90
4
176
1
 62
7
176
1
 62
257
176
1
 90
1
176
1
 90
1
176
1
 40
1.0
176
1
 90
8
176
1
 62
7
176
1
 40
1.0
176
1
 90
1
176
1
 90
6
176
1
 90
2
176
1
 62
7
176
1
 90
5
176
1
 90
0
176
1
 90
0
176
1
290
0
176
1
 90
1
176
1
 40
0.0
176
1
 90
0
176
1
290
0
176
1
290
1
176
1
290
1
176
1
290
0
176
1
290
0
176
1
290
0
176
1
290
0
176
1
290
0
176
1
290
0
176
1
 90
50
176
1
 40
0.0
176
1
 40
1.0
176
1
 90
0
176
1
 62
18
420
0
176
1
 90
50
176
1
 90
3
176
1
 62
5
420
255
176
1
290
0
176
1
 90
50
176
1
 90
50
176
1
 90
50
176
1
290
0
176
1
 90
50
176
1
 62
256
176
0
 40
1.0
176
0
 90
2
176
1
  1
strokes_ogs.tif
176
1
290
0
176
1
 40
1.0
176
1
 40
1.0
176
1
  0
VISUALSTYLE
  5
6B
102
{ACAD_REACTORS
330
16
102
}
330
16
100
AcDbVisualStyle
  2
Realistic
 70
8
177
3
291
0
 70
58
 90
2
176
1
 90
2
176
1
 90
0
176
1
 90
2
176
1
 40
0.6
176
1
 40
30.0
176
1
 62
7
420
16777215
176
1
 90
1
176
1
 90
4
176
1
 62
7
176
1
 62
257
176
1
 90
1
176
1
 90
1
176
1
 40
1.0
176
1
 90
8
176
1
 62
7
176
1
 40
1.0
176
1
 90
1
176
1
 90
6
176
1
 90
2
176
1
 62
7
176
1
 90
5
176
1
 90
0
176
1
 90
0
176
1
290
0
176
1
 90
1
176
1
 40
0.0
176
1
 90
0
176
1
290
0
176
1
290
1
176
1
290
1
176
1
290
0
176
1
290
0
176
1
290
0
176
1
290
0
176
1
290
0
176
1
290
0
176
1
 90
50
176
1
 40
0.0
176
1
 40
1.0
176
1
 90
0
176
1
 62
18
420
0
176
1
 90
50
176
1
 90
3
176
1
 62
5
420
255
176
1
290
0
176
1
 90
50
176
1
 90
50
176
1
 90
50
176
1
290
0
176
1
 90
50
176
1
 62
256
176
0
 40
1.0
176
0
 90
2
176
1
  1
strokes_ogs.tif
176
1
290
0
176
1
 40
1.0
176
1
 40
1.0
176
1
  0
VISUALSTYLE
  5
6C
102
{ACAD_REACTORS
330
16
102
}
330
16
100
AcDbVisualStyle
  2
Shaded
 70
27
177
3
291
0
 70
58
 90
2
176
1
 90
2
176
1
 90
0
176
1
 90
2
176
1
 40
0.6
176
1
 40
30.0
176
1
 62
7
420
16777215
176
1
 90
1
176
1
 90
4
176
1
 62
7
176
1
 62
257
176
1
 90
1
176
1
 90
1
176
1
 40
1.0
176
1
 90
8
176
1
 62
7
176
1
 40
1.0
176
1
 90
1
176
1
 90
6
176
1
 90
2
176
1
 62
7
176
1
 90
5
176
1
 90
0
176
1
 90
0
176
1
290
0
176
1
 90
1
176
1
 40
0.0
176
1
 90
0
176
1
290
0
176
1
290
1
176
1
290
1
176
1
290
0
176
1
290
0
176
1
290
0
176
1
290
0
176
1
290
0
176
1
290
0
176
1
 90
50
176
1
 40
0.0
176
1
 40
1.0
176
1
 90
0
176
1
 62
18
420
0
176
1
 90
50
176
1
 90
3
176
1
 62
5
420
255
176
1
290
0
176
1
 90
50
176
1
 90
50
176
1
 90
50
176
1
290
0
176
1
 90
50
176
1
 62
256
176
0
 40
1.0
176
0
 90
2
176
1
  1
strokes_ogs.tif
176
1
290
0
176
1
 40
1.0
176
1
 40
1.0
176
1
  0
VISUALSTYLE
  5
6D
102
{ACAD_REACTORS
330
16
102
}
330
16
100
AcDbVisualStyle
  2
Shaded with edges
 70
26
177
3
291
0
 70
58
 90
2
176
1
 90
2
176
1
 90
0
176
1
 90
2
176
1
 40
0.6
176
1
 40
30.0
176
1
 62
7
420
16777215
176
1
 90
1
176
1
 90
4
176
1
 62
7
176
1
 62
257
176
1
 90
1
176
1
 90
1
176
1
 40
1.0
176
1
 90
8
176
1
 62
7
176
1
 40
1.0
176
1
 90
1
176
1
 90
6
176
1
 90
2
176
1
 62
7
176
1
 90
5
176
1
 90
0
176
1
 90
0
176
1
290
0
176
1
 90
1
176
1
 40
0.0
176
1
 90
0
176
1
290
0
176
1
290
1
176
1
290
1
176
1
290
0
176
1
290
0
176
1
290
0
176
1
290
0
176
1
290
0
176
1
290
0
176
1
 90
50
176
1
 40
0.0
176
1
 40
1.0
176
1
 90
0
176
1
 62
18
420
0
176
1
 90
50
176
1
 90
3
176
1
 62
5
420
255
176
1
290
0
176
1
 90
50
176
1
 90
50
176
1
 90
50
176
1
290
0
176
1
 90
50
176
1
 62
256
176
0
 40
1.0
176
0
 90
2
176
1
  1
strokes_ogs.tif
176
1
290
0
176
1
 40
1.0
176
1
 40
1.0
176
1
  0
VISUALSTYLE
  5
6E
102
{ACAD_REACTORS
330
16
102
}
330
16
100
AcDbVisualStyle
  2
Shades of Gray
 70
23
177
3
291
0
 70
58
 90
2
176
1
 90
2
176
1
 90
0
176
1
 90
2
176
1
 40
0.6
176
1
 40
30.0
176
1
 62
7
420
16777215
176
1
 90
1
176
1
 90
4
176
1
 62
7
176
1
 62
257
176
1
 90
1
176
1
 90
1
176
1
 40
1.0
176
1
 90
8
176
1
 62
7
176
1
 40
1.0
176
1
 90
1
176
1
 90
6
176
1
 90
2
176
1
 62
7
176
1
 90
5
176
1
 90
0
176
1
 90
0
176
1
290
0
176
1
 90
1
176
1
 40
0.0
176
1
 90
0
176
1
290
0
176
1
290
1
176
1
290
1
176
1
290
0
176
1
290
0
176
1
290
0
176
1
290
0
176
1
290
0
176
1
290
0
176
1
 90
50
176
1
 40
0.0
176
1
 40
1.0
176
1
 90
0
176
1
 62
18
420
0
176
1
 90
50
176
1
 90
3
176
1
 62
5
420
255
176
1
290
0
176
1
 90
50
176
1
 90
50
176
1
 90
50
176
1
290
0
176
1
 90
50
176
1
 62
256
176
0
 40
1.0
176
0
 90
2
176
1
  1
strokes_ogs.tif
176
1
290
0
176
1
 40
1.0
176
1
 40
1.0
176
1
  0
VISUALSTYLE
  5
6F
102
{ACAD_REACTORS
330
16
102
}
330
16
100
AcDbVisualStyle
  2
Sketchy
 70
24
177
3
291
0
 70
58
 90
2
176
1
 90
2
176
1
 90
0
176
1
 90
1
176
1
 40
0.6
176
1
 40
30.0
176
1
 62
7
420
16777215
176
1
 90
1
176
1
 90
4
176
1
 62
7
176
1
 62
257
176
1
 90
1
176
1
 90
1
176
1
 40
1.0
176
1
 90
8
176
1
 62
7
176
1
 40
1.0
176
1
 90
1
176
1
 90
6
176
1
 90
2
176
1
 62
7
176
1
 90
5
176
1
 90
0
176
1
 90
0
176
1
290
0
176
1
 90
1
176
1
 40
0.0
176
1
 90
0
176
1
290
0
176
1
290
1
176
1
290
1
176
1
290
0
176
1
290
0
176
1
290
0
176
1
290
0
176
1
290
0
176
1
290
0
176
1
 90
50
176
1
 40
0.0
176
1
 40
1.0
176
1
 90
0
176
1
 62
18
420
0
176
1
 90
50
176
1
 90
3
176
1
 62
5
420
255
176
1
290
0
176
1
 90
50
176
1
 90
50
176
1
 90
50
176
1
290
0
176
1
 90
50
176
1
 62
256
176
0
 40
1.0
176
0
 90
2
176
1
  1
strokes_ogs.tif
176
1
290
0
176
1
 40
1.0
176
1
 40
1.0
176
1
  0
VISUALSTYLE
  5
70
102
{ACAD_REACTORS
330
16
102
}
330
16
100
AcDbVisualStyle
  2
Thicken
 70
13
177
3
291
1
 70
58
 90
2
176
1
 90
2
176
1
 90
0
176
1
 90
2
176
1
 40
0.6
176
1
 40
30.0
176
1
 62
7
420
16777215
176
1
 90
1
176
1
 90
4
176
1
 62
7
176
1
 62
257
176
1
 90
1
176
1
 90
1
176
1
 40
1.0
176
1
 90
8
176
1
 62
7
176
1
 40
1.0
176
1
 90
1
176
1
 90
6
176
1
 90
2
176
1
 62
7
176
1
 90
5
176
1
 90
0
176
1
 90
0
176
1
290
0
176
1
 90
1
176
1
 40
0.0
176
1
 90
0
176
1
290
0
176
1
290
1
176
1
290
1
176
1
290
0
176
1
290
0
176
1
290
0
176
1
290
0
176
1
290
0
176
1
290
0
176
1
 90
50
176
1
 40
0.0
176
1
 40
1.0
176
1
 90
0
176
1
 62
18
420
0
176
1
 90
50
176
1
 90
3
176
1
 62
5
420
255
176
1
290
0
176
1
 90
50
176
1
 90
50
176
1
 90
50
176
1
290
0
176
1
 90
50
176
1
 62
256
176
0
 40
1.0
176
0
 90
2
176
1
  1
strokes_ogs.tif
176
1
290
0
176
1
 40
1.0
176
1
 40
1.0
176
1
  0
VISUALSTYLE
  5
71
102
{ACAD_REACTORS
330
16
102
}
330
16
100
AcDbVisualStyle
  2
Wireframe
 70
5
177
3
291
0
 70
58
 90
2
176
1
 90
2
176
1
 90
0
176
1
 90
0
176
1
 40
0.6
176
1
 40
30.0
176
1
 62
7
420
16777215
176
1
 90
1
176
1
 90
4
176
1
 62
7
176
1
 62
257
176
1
 90
1
176
1
 90
1
176
1
 40
1.0
176
1
 90
8
176
1
 62
7
176
1
 40
1.0
176
1
 90
1
176
1
 90
6
176
1
 90
2
176
1
 62
7
176
1
 90
5
176
1
 90
0
176
1
 90
0
176
1
290
0
176
1
 90
1
176
1
 40
0.0
176
1
 90
0
176
1
290
0
176
1
290
1
176
1
290
1
176
1
290
0
176
1
290
0
176
1
290
0
176
1
290
0
176
1
290
0
176
1
290
0
176
1
 90
50
176
1
 40
0.0
176
1
 40
1.0
176
1
 90
0
176
1
 62
18
420
0
176
1
 90
50
176
1
 90
3
176
1
 62
5
420
255
176
1
290
0
176
1
 90
50
176
1
 90
50
176
1
 90
50
176
1
290
0
176
1
 90
50
176
1
 62
256
176
0
 40
1.0
176
0
 90
2
176
1
  1
strokes_ogs.tif
176
1
290
0
176
1
 40
1.0
176
1
 40
1.0
176
1
  0
VISUALSTYLE
  5
72
102
{ACAD_REACTORS
330
16
102
}
330
16
100
AcDbVisualStyle
  2
X-Ray
 70
25
177
3
291
0
 70
58
 90
2
176
1
 90
2
176
1
 90
0
176
1
 90
2
176
1
 40
0.5
176
1
 40
30.0
176
1
 62
7
420
16777215
176
1
 90
1
176
1
 90
4
176
1
 62
7
176
1
 62
257
176
1
 90
1
176
1
 90
1
176
1
 40
1.0
176
1
 90
8
176
1
 62
7
176
1
 40
1.0
176
1
 90
1
176
1
 90
6
176
1
 90
2
176
1
 62
7
176
1
 90
5
176
1
 90
0
176
1
 90
0
176
1
290
0
176
1
 90
1
176
1
 40
0.0
176
1
 90
0
176
1
290
0
176
1
290
1
176
1
290
1
176
1
290
0
176
1
290
0
176
1
290
0
176
1
290
0
176
1
290
0
176
1
290
0
176
1
 90
50
176
1
 40
0.0
176
1
 40
1.0
176
1
 90
0
176
1
 62
18
420
0
176
1
 90
50
176
1
 90
3
176
1
 62
5
420
255
176
1
290
0
176
1
 90
50
176
1
 90
50
176
1
 90
50
176
1
290
0
176
1
 90
50
176
1
 62
256
176
0
 40
1.0
176
0
 90
2
176
1
  1
strokes_ogs.tif
176
1
290
0
176
1
 40
1.0
176
1
 40
1.0
176
1
  0
DICTIONARYVAR
  5
2EB
330
2D
100
DictionaryVariables
280
0
  1
1.4.4 @ 2026-10-08T12:52:05.411272+00:00
  0
ENDSEC
  0
EOF
