  0
SECTION
  2
HEADER
  9
$ACADVER
  1
AC1027
  9
$ACADMAINTVER
 70
105
  9
$DWGCODEPAGE
  3
ANSI_1252
  9
$LASTSAVEDBY
  1
ezdxf
  9
$REQUIREDVERSIONS
160
0
  9
$INSBASE
 10
0.0
 20
0.0
 30
0.0
  9
$EXTMIN
 10
1e+20
 20
1e+20
 30
1e+20
  9
$EXTMAX
 10
-1e+20
 20
-1e+20
 30
-1e+20
  9
$LIMMIN
 10
0.0
 20
0.0
  9
$LIMMAX
 10
420.0
 20
297.0
  9
$ORTHOMODE
 70
0
  9
$REGENMODE
 70
1
  9
$FILLMODE
 70
1
  9
$QTEXTMODE
 70
0
  9
$MIRRTEXT
 70
1
  9
$LTSCALE
 40
1.0
  9
$ATTMODE
 70
1
  9
$TEXTSIZE
 40
2.5
  9
$TRACEWID
 40
1.0
  9
$TEXTSTYLE
  7
OpenSans
  9
$CLAYER
  8
0
  9
$CELTYPE
  6
ByLayer
  9
$CECOLOR
 62
256
  9
$CELTSCALE
 40
1.0
  9
$DISPSILH
 70
0
  9
$DIMSCALE
 40
1.0
  9
$DIMASZ
 40
0.175
  9
$DIMEXO
 40
0.125
  9
$DIMDLI
 40
3.75
  9
$DIMRND
 40
0.0
  9
$DIMDLE
 40
0.0
  9
$DIMEXE
 40
0.375
  9
$DIMTP
 40
0.0
  9
$DIMTM
 40
0.0
  9
$DIMTXT
 40
0.25
  9
$DIMCEN
 40
2.5
  9
$DIMTSZ
 40
0.0
  9
$DIMTOL
 70
0
  9
$DIMLIM
 70
0
  9
$DIMTIH
 70
0
  9
$DIMTOH
 70
0
  9
$DIMSE1
 70
0
  9
$DIMSE2
 70
0
  9
$DIMTAD
 70
1
  9
$DIMZIN
 70
12
  9
$DIMBLK
  1
ARCHTICK
  9
$DIMASO
 70
1
  9
$DIMSHO
 70
1
  9
$DIMPOST
  1

  9
$DIMAPOST
  1

  9
$DIMALT
 70
0
  9
$DIMALTD
 70
3
  9
$DIMALTF
 40
0.03937007874
  9
$DIMLFAC
 40
100.0
  9
$DIMTOFL
 70
1
  9
$DIMTVP
 40
0.0
  9
$DIMTIX
 70
0
  9
$DIMSOXD
 70
0
  9
$DIMSAH
 70
0
  9
$DIMBLK1
  1

  9
$DIMBLK2
  1

  9
$DIMSTYLE
  2
EZDXF
  9
$DIMCLRD
 70
0
  9
$DIMCLRE
 70
0
  9
$DIMCLRT
 70
0
  9
$DIMTFAC
 40
0.5
  9
$DIMGAP
 40
0.1
  9
$DIMJUST
 70
0
  9
$DIMSD1
 70
0
  9
$DIMSD2
 70
0
  9
$DIMTOLJ
 70
0
  9
$DIMTZIN
 70
8
  9
$DIMALTZ
 70
0
  9
$DIMALTTZ
 70
0
  9
$DIMUPT
 70
1
  9
$DIMDEC
 70
2
  9
$DIMTDEC
 70
2
  9
$DIMALTU
 70
2
  9
$DIMALTTD
 70
3
  9
$DIMTXSTY
  7
OpenSansCondensed-Light
  9
$DIMAUNIT
 70
0
  9
$DIMADEC
 70
2
  9
$DIMALTRND
 40
0.0
  9
$DIMAZIN
 70
3
  9
$DIMDSEP
 70
46
  9
$DIMATFIT
 70
3
  9
$DIMFRAC
 70
0
  9
$DIMLDRBLK
  1

  9
$DIMLUNIT
 70
2
  9
$DIMLWD
 70
-2
  9
$DIMLWE
 70
-2
  9
$DIMTMOVE
 70
2
  9
$DIMFXL
 40
1.0
  9
$DIMFXLON
 70
0
  9
$DIMJOGANG
 40
0.785398163397
  9
$DIMTFILL
 70
0
  9
$DIMTFILLCLR
 70
0
  9
$DIMARCSYM
 70
0
  9
$DIMLTYPE
  6

  9
$DIMLTEX1
  6

  9
$DIMLTEX2
  6

  9
$DIMTXTDIRECTION
 70
0
  9
$LUNITS
 70
2
  9
$LUPREC
 70
4
  9
$SKETCHINC
 40
1.0
  9
$FILLETRAD
 40
10.0
  9
$AUNITS
 70
0
  9
$AUPREC
 70
2
  9
$MENU
  1
.
  9
$ELEVATION
 40
0.0
  9
$PELEVATION
 40
0.0
  9
$THICKNESS
 40
0.0
  9
$LIMCHECK
 70
0
  9
$CHAMFERA
 40
0.0
  9
$CHAMFERB
 40
0.0
  9
$CHAMFERC
 40
0.0
  9
$CHAMFERD
 40
0.0
  9
$SKPOLY
 70
0
  9
$TDCREATE
 40
2461322.536087963
  9
$TDUCREATE
 40
2458532.153996898
  9
$TDUPDATE
 40
2461322.536087963
  9
$TDUUPDATE
 40
2458532.1544311
  9
$TDINDWG
 40
0.0
  9
$TDUSRTIMER
 40
0.0
  9
$USRTIMER
 70
1
  9
$ANGBASE
 50
0.0
  9
$ANGDIR
 70
0
  9
$PDMODE
 70
0
  9
$PDSIZE
 40
0.0
  9
$PLINEWID
 40
0.0
  9
$SPLFRAME
 70
0
  9
$SPLINETYPE
 70
6
  9
$SPLINESEGS
 70
8
  9
$HANDSEED
  5
37C
  9
$SURFTAB1
 70
6
  9
$SURFTAB2
 70
6
  9
$SURFTYPE
 70
6
  9
$SURFU
 70
6
  9
$SURFV
 70
6
  9
$UCSBASE
  2

  9
$UCSNAME
  2

  9
$UCSORG
 10
0.0
 20
0.0
 30
0.0
  9
$UCSXDIR
 10
1.0
 20
0.0
 30
0.0
  9
$UCSYDIR
 10
0.0
 20
1.0
 30
0.0
  9
$UCSORTHOREF
  2

  9
$UCSORTHOVIEW
 70
0
  9
$UCSORGTOP
 10
0.0
 20
0.0
 30
0.0
  9
$UCSORGBOTTOM
 10
0.0
 20
0.0
 30
0.0
  9
$UCSORGLEFT
 10
0.0
 20
0.0
 30
0.0
  9
$UCSORGRIGHT
 10
0.0
 20
0.0
 30
0.0
  9
$UCSORGFRONT
 10
0.0
 20
0.0
 30
0.0
  9
$UCSORGBACK
 10
0.0
 20
0.0
 30
0.0
  9
$PUCSBASE
  2

  9
$PUCSNAME
  2

  9
$PUCSORG
 10
0.0
 20
0.0
 30
0.0
  9
$PUCSXDIR
 10
1.0
 20
0.0
 30
0.0
  9
$PUCSYDIR
 10
0.0
 20
1.0
 30
0.0
  9
$PUCSORTHOREF
  2

  9
$PUCSORTHOVIEW
 70
0
  9
$PUCSORGTOP
 10
0.0
 20
0.0
 30
0.0
  9
$PUCSORGBOTTOM
 10
0.0
 20
0.0
 30
0.0
  9
$PUCSORGLEFT
 10
0.0
 20
0.0
 30
0.0
  9
$PUCSORGRIGHT
 10
0.0
 20
0.0
 30
0.0
  9
$PUCSORGFRONT
 10
0.0
 20
0.0
 30
0.0
  9
$PUCSORGBACK
 10
0.0
 20
0.0
 30
0.0
  9
$USERI1
 70
0
  9
$USERI2
 70
0
  9
$USERI3
 70
0
  9
$USERI4
 70
0
  9
$USERI5
 70
0
  9
$USERR1
 40
0.0
  9
$USERR2
 40
0.0
  9
$USERR3
 40
0.0
  9
$USERR4
 40
0.0
  9
$USERR5
 40
0.0
  9
$WORLDVIEW
 70
1
  9
$SHADEDGE
 70
3
  9
$SHADEDIF
 70
70
  9
$TILEMODE
 70
1
  9
$MAXACTVP
 70
64
  9
$PINSBASE
 10
0.0
 20
0.0
 30
0.0
  9
$PLIMCHECK
 70
0
  9
$PEXTMIN
 10
1e+20
 20
1e+20
 30
1e+20
  9
$PEXTMAX
 10
-1e+20
 20
-1e+20
 30
-1e+20
  9
$PLIMMIN
 10
0.0
 20
0.0
  9
$PLIMMAX
 10
420.0
 20
297.0
  9
$UNITMODE
 70
0
  9
$VISRETAIN
 70
1
  9
$PLINEGEN
 70
0
  9
$PSLTSCALE
 70
1
  9
$TREEDEPTH
 70
3020
  9
$CMLSTYLE
  2
Standard
  9
$CMLJUST
 70
0
  9
$CMLSCALE
 40
20.0
  9
$PROXYGRAPHICS
 70
1
  9
$MEASUREMENT
 70
1
  9
$CELWEIGHT
370
-1
  9
$ENDCAPS
280
0
  9
$JOINSTYLE
280
0
  9
$LWDISPLAY
290
0
  9
$INSUNITS
 70
5
  9
$HYPERLINKBASE
  1

  9
$STYLESHEET
  1

  9
$XEDIT
290
1
  9
$CEPSNTYPE
380
0
  9
$PSTYLEMODE
290
1
  9
$FINGERPRINTGUID
  2
{9B70F221-4495-493A-93E6-2084132B92A3}
  9
$VERSIONGUID
  2
{A52D0A5D-9856-479B-80D6-9714DB4D217A}
  9
$EXTNAMES
290
1
  9
$PSVPSCALE
 40
0.0
  9
$OLESTARTUP
290
0
  9
$SORTENTS
280
127
  9
$INDEXCTL
280
0
  9
$HIDETEXT
280
1
  9
$XCLIPFRAME
280
1
  9
$HALOGAP
280
0
  9
$OBSCOLOR
 70
257
  9
$OBSLTYPE
280
0
  9
$INTERSECTIONDISPLAY
280
0
  9
$INTERSECTIONCOLOR
 70
257
  9
$DIMASSOC
280
2
  9
$PROJECTNAME
  1

  9
$CAMERADISPLAY
290
0
  9
$LENSLENGTH
 40
50.0
  9
$CAMERAHEIGHT
 40
0.0
  9
$STEPSPERSEC
 40
24.0
  9
$STEPSIZE
 40
100.0
  9
$3DDWFPREC
 40
2.0
  9
$PSOLWIDTH
 40
0.005
  9
$PSOLHEIGHT
 40
0.08
  9
$LOFTANG1
 40
1.570796326795
  9
$LOFTANG2
 40
1.570796326795
  9
$LOFTMAG1
 40
0.0
  9
$LOFTMAG2
 40
0.0
  9
$LOFTPARAM
 70
7
  9
$LOFTNORMALS
280
1
  9
$LATITUDE
 40
37.795
  9
$LONGITUDE
 40
-122.394
  9
$NORTHDIRECTION
 40
0.0
  9
$TIMEZONE
 70
-8000
  9
$LIGHTGLYPHDISPLAY
280
1
  9
$TILEMODELIGHTSYNCH
280
1
  9
$CMATERIAL
347
20
  9
$SOLIDHIST
280
0
  9
$SHOWHIST
280
1
  9
$DWFFRAME
280
2
  9
$DGNFRAME
280
2
  9
$REALWORLDSCALE
290
1
  9
$INTERFERECOLOR
 62
256
  9
$CSHADOW
280
0
  9
$SHADOWPLANELOCATION
 40
0.0
  0
ENDSEC
  0
SECTION
  2
CLASSES
  0
CLASS
  1
ACDBDICTIONARYWDFLT
  2
AcDbDictionaryWithDefault
  3
ObjectDBX Classes
 90
0
 91
0
280
0
281
0
  0
CLASS
  1
SUN
  2
AcDbSun
  3
SCENEOE
 90
1153
 91
0
280
0
281
0
  0
CLASS
  1
VISUALSTYLE
  2
AcDbVisualStyle
  3
ObjectDBX Classes
 90
4095
 91
0
280
0
281
0
  0
CLASS
  1
MATERIAL
  2
AcDbMaterial
  3
ObjectDBX Classes
 90
1153
 91
0
280
0
281
0
  0
CLASS
  1
SCALE
  2
AcDbScale
  3
ObjectDBX Classes
 90
1153
 91
0
280
0
281
0
  0
CLASS
  1
TABLESTYLE
  2
AcDbTableStyle
  3
ObjectDBX Classes
 90
4095
 91
0
280
0
281
0
  0
CLASS
  1
MLEADERSTYLE
  2
AcDbMLeaderStyle
  3
ACDB_MLEADERSTYLE_CLASS
 90
4095
 91
0
280
0
281
0
  0
CLASS
  1
DICTIONARYVAR
  2
AcDbDictionaryVar
  3
ObjectDBX Classes
 90
0
 91
0
280
0
281
0
  0
CLASS
  1
CELLSTYLEMAP
  2
AcDbCellStyleMap
  3
ObjectDBX Classes
 90
1152
 91
0
280
0
281
0
  0
CLASS
  1
MENTALRAYRENDERSETTINGS
  2
AcDbMentalRayRenderSettings
  3
SCENEOE
 90
1024
 91
0
280
0
281
0
  0
CLASS
  1
ACDBDETAILVIEWSTYLE
  2
AcDbDetailViewStyle
  3
ObjectDBX Classes
 90
1025
 91
0
280
0
281
0
  0
CLASS
  1
ACDBSECTIONVIEWSTYLE
  2
AcDbSectionViewStyle
  3
ObjectDBX Classes
 90
1025
 91
0
280
0
281
0
  0
CLASS
  1
RASTERVARIABLES
  2
AcDbRasterVariables
  3
ISM
 90
0
 91
0
280
0
281
0
  0
CLASS
  1
ACDBPLACEHOLDER
  2
AcDbPlaceHolder
  3
ObjectDBX Classes
 90
0
 91
0
280
0
281
0
  0
CLASS
  1
LAYOUT
  2
AcDbLayout
  3
ObjectDBX Classes
 90
0
 91
0
280
0
281
0
  0
ENDSEC
  0
SECTION
  2
TABLES
  0
TABLE
  2
VPORT
  5
8
330
0
100
AcDbSymbolTable
 70
1
  0
VPORT
  5
23
330
8
100
AcDbSymbolTableRecord
100
AcDbViewportTableRecord
  2
*Active
 70
0
 10
0.0
 20
0.0
 11
1.0
 21
1.0
 12
0.0
 22
0.0
 13
0.0
 23
0.0
 14
0.5
 24
0.5
 15
0.5
 25
0.5
 16
0.0
 26
0.0
 36
1.0
 17
0.0
 27
0.0
 37
0.0
 40
1000.0
 41
1.34
 42
50.0
 43
0.0
 44
0.0
 50
0.0
 51
0.0
 71
0
 72
1000
 73
1
 74
3
 75
0
 76
0
 77
0
 78
0
281
0
 65
0
146
0.0
  0
ENDTAB
  0
TABLE
  2
LTYPE
  5
2
330
0
100
AcDbSymbolTable
 70
21
  0
LTYPE
  5
24
330
2
100
AcDbSymbolTableRecord
100
AcDbLinetypeTableRecord
  2
ByBlock
 70
0
  3

 72
65
 73
0
 40
0.0
  0
LTYPE
  5
25
330
2
100
AcDbSymbolTableRecord
100
AcDbLinetypeTableRecord
  2
ByLayer
 70
0
  3

 72
65
 73
0
 40
0.0
  0
LTYPE
  5
26
330
2
100
AcDbSymbolTableRecord
100
AcDbLinetypeTableRecord
  2
Continuous
 70
0
  3

 72
65
 73
0
 40
0.0
  0
LTYPE
  5
2F
330
2
100
AcDbSymbolTableRecord
100
AcDbLinetypeTableRecord
  2
CENTER
 70
0
  3
Center ____ _ ____ _ ____ _ ____ _ ____ _ ____
 72
65
 73
4
 40
5.08
 49
3.175
 74
0
 49
-0.635
 74
0
 49
0.635
 74
0
 49
-0.635
 74
0
  0
LTYPE
  5
30
330
2
100
AcDbSymbolTableRecord
100
AcDbLinetypeTableRecord
  2
CENTERX2
 70
0
  3
Center (2x) ________  __  ________  __  ________
 72
65
 73
4
 40
8.89
 49
6.35
 74
0
 49
-0.635
 74
0
 49
1.27
 74
0
 49
-0.635
 74
0
  0
LTYPE
  5
31
330
2
100
AcDbSymbolTableRecord
100
AcDbLinetypeTableRecord
  2
CENTER2
 70
0
  3
Center (.5x) ____ _ ____ _ ____ _ ____ _ ____
 72
65
 73
4
 40
2.54
 49
1.587
 74
0
 49
-0.318
 74
0
 49
0.318
 74
0
 49
-0.318
 74
0
  0
LTYPE
  5
32
330
2
100
AcDbSymbolTableRecord
100
AcDbLinetypeTableRecord
  2
DASHED
 70
0
  3
Dashed __ __ __ __ __ __ __ __ __ __ __ __ __ _
 72
65
 73
2
 40
1.524
 49
1.27
 74
0
 49
-0.254
 74
0
  0
LTYPE
  5
33
330
2
100
AcDbSymbolTableRecord
100
AcDbLinetypeTableRecord
  2
DASHEDX2
 70
0
  3
Dashed (2x) ____  ____  ____  ____  ____  ____
 72
65
 73
2
 40
3.048
 49
2.54
 74
0
 49
-0.508
 74
0
  0
LTYPE
  5
34
330
2
100
AcDbSymbolTableRecord
100
AcDbLinetypeTableRecord
  2
DASHED2
 70
0
  3
Dashed (.5x) _ _ _ _ _ _ _ _ _ _ _ _ _ _
 72
65
 73
2
 40
0.762
 49
0.635
 74
0
 49
-0.127
 74
0
  0
LTYPE
  5
35
330
2
100
AcDbSymbolTableRecord
100
AcDbLinetypeTableRecord
  2
PHANTOM
 70
0
  3
Phantom ______  __  __  ______  __  __  ______
 72
65
 73
6
 40
6.35
 49
3.175
 74
0
 49
-0.635
 74
0
 49
0.635
 74
0
 49
-0.635
 74
0
 49
0.635
 74
0
 49
-0.635
 74
0
  0
LTYPE
  5
36
330
2
100
AcDbSymbolTableRecord
100
AcDbLinetypeTableRecord
  2
PHANTOMX2
 70
0
  3
Phantom (2x)____________    ____    ____    ____________
 72
65
 73
6
 40
10.795
 49
6.35
 74
0
 49
-0.635
 74
0
 49
1.27
 74
0
 49
-0.635
 74
0
 49
1.27
 74
0
 49
-0.635
 74
0
  0
LTYPE
  5
37
330
2
100
AcDbSymbolTableRecord
100
AcDbLinetypeTableRecord
  2
PHANTOM2
 70
0
  3
Phantom (.5x) ___ _ _ ___ _ _ ___ _ _ ___ _ _ ___
 72
65
 73
6
 40
3.175
 49
1.587
 74
0
 49
-0.318
 74
0
 49
0.318
 74
0
 49
-0.318
 74
0
 49
0.318
 74
0
 49
-0.318
 74
0
  0
LTYPE
  5
38
330
2
100
AcDbSymbolTableRecord
100
AcDbLinetypeTableRecord
  2
DASHDOT
 70
0
  3
Dash dot __ . __ . __ . __ . __ . __ . __ . __
 72
65
 73
4
 40
3.556
 49
2.54
 74
0
 49
-0.508
 74
0
 49
0.0
 74
0
 49
-0.508
 74
0
  0
LTYPE
  5
39
330
2
100
AcDbSymbolTableRecord
100
AcDbLinetypeTableRecord
  2
DASHDOTX2
 70
0
  3
Dash dot (2x) ____  .  ____  .  ____  .  ____
 72
65
 73
4
 40
6.096
 49
5.08
 74
0
 49
-0.508
 74
0
 49
0.0
 74
0
 49
-0.508
 74
0
  0
LTYPE
  5
3A
330
2
100
AcDbSymbolTableRecord
100
AcDbLinetypeTableRecord
  2
DASHDOT2
 70
0
  3
Dash dot (.5x) _ . _ . _ . _ . _ . _ . _ . _
 72
65
 73
4
 40
1.778
 49
1.27
 74
0
 49
-0.254
 74
0
 49
0.0
 74
0
 49
-0.254
 74
0
  0
LTYPE
  5
3B
330
2
100
AcDbSymbolTableRecord
100
AcDbLinetypeTableRecord
  2
DOT
 70
0
  3
Dot .  .  .  .  .  .  .  .  .  .  .  .  .  .  .  .
 72
65
 73
2
 40
0.508
 49
0.0
 74
0
 49
-0.508
 74
0
  0
LTYPE
  5
3C
330
2
100
AcDbSymbolTableRecord
100
AcDbLinetypeTableRecord
  2
DOTX2
 70
0
  3
Dot (2x) .    .    .    .    .    .    .    . 
 72
65
 73
2
 40
1.016
 49
0.0
 74
0
 49
-1.016
 74
0
  0
LTYPE
  5
3D
330
2
100
AcDbSymbolTableRecord
100
AcDbLinetypeTableRecord
  2
DOT2
 70
0
  3
Dot (.5) . . . . . . . . . . . . . . . . . . . 
 72
65
 73
2
 40
0.254
 49
0.0
 74
0
 49
-0.254
 74
0
  0
LTYPE
  5
3E
330
2
100
AcDbSymbolTableRecord
100
AcDbLinetypeTableRecord
  2
DIVIDE
 70
0
  3
Divide __ . . __ . . __ . . __ . . __ . . __
 72
65
 73
6
 40
4.064
 49
2.54
 74
0
 49
-0.508
 74
0
 49
0.0
 74
0
 49
-0.508
 74
0
 49
0.0
 74
0
 49
-0.508
 74
0
  0
LTYPE
  5
3F
330
2
100
AcDbSymbolTableRecord
100
AcDbLinetypeTableRecord
  2
DIVIDEX2
 70
0
  3
Divide (2x) ____  . .  ____  . .  ____  . .  ____
 72
65
 73
6
 40
6.604
 49
5.08
 74
0
 49
-0.508
 74
0
 49
0.0
 74
0
 49
-0.508
 74
0
 49
0.0
 74
0
 49
-0.508
 74
0
  0
LTYPE
  5
40
330
2
100
AcDbSymbolTableRecord
100
AcDbLinetypeTableRecord
  2
DIVIDE2
 70
0
  3
Divide(.5x) _ . _ . _ . _ . _ . _ . _ . _
 72
65
 73
6
 40
2.032
 49
1.27
 74
0
 49
-0.254
 74
0
 49
0.0
 74
0
 49
-0.254
 74
0
 49
0.0
 74
0
 49
-0.254
 74
0
  0
ENDTAB
  0
TABLE
  2
LAYER
  5
1
330
0
100
AcDbSymbolTable
 70
11
  0
LAYER
  5
27
330
1
100
AcDbSymbolTableRecord
100
AcDbLayerTableRecord
  2
0
 70
0
 62
7
  6
Continuous
370
-3
390
13
347
21
  0
LAYER
  5
28
330
1
100
AcDbSymbolTableRecord
100
AcDbLayerTableRecord
  2
Defpoints
 70
0
 62
7
  6
Continuous
290
0
370
-3
390
13
347
21
  0
LAYER
  5
8A
330
1
100
AcDbSymbolTableRecord
100
AcDbLayerTableRecord
  2
MURI_ESISTENTI
 70
0
 62
7
  6
Continuous
370
-3
390
13
347
21
  0
LAYER
  5
8B
330
1
100
AcDbSymbolTableRecord
100
AcDbLayerTableRecord
  2
ARREDI_BAR_RIMOSSI
 70
0
 62
30
  6
DASHED
370
-3
390
13
347
21
  0
LAYER
  5
8C
330
1
100
AcDbSymbolTableRecord
100
AcDbLayerTableRecord
  2
TAVOLI_80x80
 70
0
 62
5
  6
Continuous
370
-3
390
13
347
21
  0
LAYER
  5
8D
330
1
100
AcDbSymbolTableRecord
100
AcDbLayerTableRecord
  2
SEDIE
 70
0
 62
8
  6
Continuous
370
-3
390
13
347
21
  0
LAYER
  5
8E
330
1
100
AcDbSymbolTableRecord
100
AcDbLayerTableRecord
  2
FASCIA_SEDUTA
 70
0
 62
2
  6
Continuous
370
-3
390
13
347
21
  0
LAYER
  5
8F
330
1
100
AcDbSymbolTableRecord
100
AcDbLayerTableRecord
  2
PERCORSI
 70
0
 62
3
  6
Continuous
370
-3
390
13
347
21
  0
LAYER
  5
90
330
1
100
AcDbSymbolTableRecord
100
AcDbLayerTableRecord
  2
MONTACARICHI
 70
0
 62
6
  6
Continuous
370
-3
390
13
347
21
  0
LAYER
  5
91
330
1
100
AcDbSymbolTableRecord
100
AcDbLayerTableRecord
  2
TESTI
 70
0
 62
7
  6
Continuous
370
-3
390
13
347
21
  0
LAYER
  5
92
330
1
100
AcDbSymbolTableRecord
100
AcDbLayerTableRecord
  2
NUMERAZIONE
 70
0
 62
5
  6
Continuous
370
-3
390
13
347
21
  0
ENDTAB
  0
TABLE
  2
STYLE
  5
5
330
0
100
AcDbSymbolTable
 70
26
  0
STYLE
  5
29
330
5
100
AcDbSymbolTableRecord
100
AcDbTextStyleTableRecord
  2
Standard
 70
0
 40
0.0
 41
1.0
 50
0.0
 71
0
 42
2.5
  3
txt
  4

  0
STYLE
  5
41
330
5
100
AcDbSymbolTableRecord
100
AcDbTextStyleTableRecord
  2
OpenSans-Light
 70
0
 40
0.0
 41
1.0
 50
0.0
 71
0
 42
2.5
  3
OpenSans-Light.ttf
  4

  0
STYLE
  5
42
330
5
100
AcDbSymbolTableRecord
100
AcDbTextStyleTableRecord
  2
OpenSans-Light-Italic
 70
0
 40
0.0
 41
1.0
 50
0.0
 71
0
 42
2.5
  3
OpenSans-LightItalic.ttf
  4

  0
STYLE
  5
43
330
5
100
AcDbSymbolTableRecord
100
AcDbTextStyleTableRecord
  2
OpenSans
 70
0
 40
0.0
 41
1.0
 50
0.0
 71
0
 42
2.5
  3
OpenSans-Regular.ttf
  4

  0
STYLE
  5
44
330
5
100
AcDbSymbolTableRecord
100
AcDbTextStyleTableRecord
  2
OpenSans-Italic
 70
0
 40
0.0
 41
1.0
 50
0.0
 71
0
 42
2.5
  3
OpenSans-Italic.ttf
  4

  0
STYLE
  5
45
330
5
100
AcDbSymbolTableRecord
100
AcDbTextStyleTableRecord
  2
OpenSans-SemiBold
 70
0
 40
0.0
 41
1.0
 50
0.0
 71
0
 42
2.5
  3
OpenSans-SemiBold.ttf
  4

  0
STYLE
  5
46
330
5
100
AcDbSymbolTableRecord
100
AcDbTextStyleTableRecord
  2
OpenSans-SemiBoldItalic
 70
0
 40
0.0
 41
1.0
 50
0.0
 71
0
 42
2.5
  3
OpenSans-SemiBoldItalic.ttf
  4

  0
STYLE
  5
47
330
5
100
AcDbSymbolTableRecord
100
AcDbTextStyleTableRecord
  2
OpenSans-Bold
 70
0
 40
0.0
 41
1.0
 50
0.0
 71
0
 42
2.5
  3
OpenSans-Bold.ttf
  4

  0
STYLE
  5
48
330
5
100
AcDbSymbolTableRecord
100
AcDbTextStyleTableRecord
  2
OpenSans-BoldItalic
 70
0
 40
0.0
 41
1.0
 50
0.0
 71
0
 42
2.5
  3
OpenSans-BoldItalic.ttf
  4

  0
STYLE
  5
49
330
5
100
AcDbSymbolTableRecord
100
AcDbTextStyleTableRecord
  2
OpenSans-ExtraBold
 70
0
 40
0.0
 41
1.0
 50
0.0
 71
0
 42
2.5
  3
OpenSans-ExtraBold.ttf
  4

  0
STYLE
  5
4A
330
5
100
AcDbSymbolTableRecord
100
AcDbTextStyleTableRecord
  2
OpenSans-ExtraBoldItalic
 70
0
 40
0.0
 41
1.0
 50
0.0
 71
0
 42
2.5
  3
OpenSans-ExtraBoldItalic.ttf
  4

  0
STYLE
  5
4B
330
5
100
AcDbSymbolTableRecord
100
AcDbTextStyleTableRecord
  2
OpenSansCondensed-Bold
 70
0
 40
0.0
 41
1.0
 50
0.0
 71
0
 42
2.5
  3
OpenSansCondensed-Bold.ttf
  4

  0
STYLE
  5
4C
330
5
100
AcDbSymbolTableRecord
100
AcDbTextStyleTableRecord
  2
OpenSansCondensed-Light
 70
0
 40
0.0
 41
1.0
 50
0.0
 71
0
 42
2.5
  3
OpenSansCondensed-Light.ttf
  4

  0
STYLE
  5
4D
330
5
100
AcDbSymbolTableRecord
100
AcDbTextStyleTableRecord
  2
OpenSansCondensed-Italic
 70
0
 40
0.0
 41
1.0
 50
0.0
 71
0
 42
2.5
  3
OpenSansCondensed-LightItalic.ttf
  4

  0
STYLE
  5
4E
330
5
100
AcDbSymbolTableRecord
100
AcDbTextStyleTableRecord
  2
LiberationSans
 70
0
 40
0.0
 41
1.0
 50
0.0
 71
0
 42
2.5
  3
LiberationSans-Regular.ttf
  4

  0
STYLE
  5
4F
330
5
100
AcDbSymbolTableRecord
100
AcDbTextStyleTableRecord
  2
LiberationSans-Bold
 70
0
 40
0.0
 41
1.0
 50
0.0
 71
0
 42
2.5
  3
LiberationSans-Bold.ttf
  4

  0
STYLE
  5
50
330
5
100
AcDbSymbolTableRecord
100
AcDbTextStyleTableRecord
  2
LiberationSans-BoldItalic
 70
0
 40
0.0
 41
1.0
 50
0.0
 71
0
 42
2.5
  3
LiberationSans-BoldItalic.ttf
  4

  0
STYLE
  5
51
330
5
100
AcDbSymbolTableRecord
100
AcDbTextStyleTableRecord
  2
LiberationSans-Italic
 70
0
 40
0.0
 41
1.0
 50
0.0
 71
0
 42
2.5
  3
LiberationSans-Italic.ttf
  4

  0
STYLE
  5
52
330
5
100
AcDbSymbolTableRecord
100
AcDbTextStyleTableRecord
  2
LiberationSerif
 70
0
 40
0.0
 41
1.0
 50
0.0
 71
0
 42
2.5
  3
LiberationSerif-Regular.ttf
  4

  0
STYLE
  5
53
330
5
100
AcDbSymbolTableRecord
100
AcDbTextStyleTableRecord
  2
LiberationSerif-Bold
 70
0
 40
0.0
 41
1.0
 50
0.0
 71
0
 42
2.5
  3
LiberationSerif-Bold.ttf
  4

  0
STYLE
  5
54
330
5
100
AcDbSymbolTableRecord
100
AcDbTextStyleTableRecord
  2
LiberationSerif-BoldItalic
 70
0
 40
0.0
 41
1.0
 50
0.0
 71
0
 42
2.5
  3
LiberationSerif-BoldItalic.ttf
  4

  0
STYLE
  5
55
330
5
100
AcDbSymbolTableRecord
100
AcDbTextStyleTableRecord
  2
LiberationSerif-Italic
 70
0
 40
0.0
 41
1.0
 50
0.0
 71
0
 42
2.5
  3
LiberationSerif-Italic.ttf
  4

  0
STYLE
  5
56
330
5
100
AcDbSymbolTableRecord
100
AcDbTextStyleTableRecord
  2
LiberationMono
 70
0
 40
0.0
 41
1.0
 50
0.0
 71
0
 42
2.5
  3
LiberationMono-Regular.ttf
  4

  0
STYLE
  5
57
330
5
100
AcDbSymbolTableRecord
100
AcDbTextStyleTableRecord
  2
LiberationMono-Bold
 70
0
 40
0.0
 41
1.0
 50
0.0
 71
0
 42
2.5
  3
LiberationMono-Bold.ttf
  4

  0
STYLE
  5
58
330
5
100
AcDbSymbolTableRecord
100
AcDbTextStyleTableRecord
  2
LiberationMono-BoldItalic
 70
0
 40
0.0
 41
1.0
 50
0.0
 71
0
 42
2.5
  3
LiberationMono-BoldItalic.ttf
  4

  0
STYLE
  5
59
330
5
100
AcDbSymbolTableRecord
100
AcDbTextStyleTableRecord
  2
LiberationMono-Italic
 70
0
 40
0.0
 41
1.0
 50
0.0
 71
0
 42
2.5
  3
LiberationMono-Italic.ttf
  4

  0
ENDTAB
  0
TABLE
  2
VIEW
  5
7
330
0
100
AcDbSymbolTable
 70
0
  0
ENDTAB
  0
TABLE
  2
UCS
  5
6
330
0
100
AcDbSymbolTable
 70
0
  0
ENDTAB
  0
TABLE
  2
APPID
  5
3
330
0
100
AcDbSymbolTable
 70
3
  0
APPID
  5
2A
330
3
100
AcDbSymbolTableRecord
100
AcDbRegAppTableRecord
  2
ACAD
 70
0
  0
APPID
  5
379
330
3
100
AcDbSymbolTableRecord
100
AcDbRegAppTableRecord
  2
HATCHBACKGROUNDCOLOR
 70
0
  0
APPID
  5
37A
330
3
100
AcDbSymbolTableRecord
100
AcDbRegAppTableRecord
  2
EZDXF
 70
0
  0
ENDTAB
  0
TABLE
  2
DIMSTYLE
  5
4
330
0
100
AcDbSymbolTable
 70
12
100
AcDbDimStyleTable
  0
DIMSTYLE
105
2B
330
4
100
AcDbSymbolTableRecord
100
AcDbDimStyleTableRecord
  2
Standard
 70
0
 40
1.0
 41
2.5
 42
0.625
 43
3.75
 44
1.25
 45
0.0
 46
0.0
 47
0.0
 48
0.0
 49
2.5
140
2.5
141
2.5
142
0.0
143
0.03937007874
144
1.0
145
0.0
146
1.0
147
0.625
148
0.0
 69
0
 70
0
 71
0
 72
0
 73
0
 74
0
 75
0
 76
0
 77
1
 78
8
 79
3
170
0
171
3
172
1
173
0
174
0
175
0
176
0
177
0
178
0
179
2
271
2
272
2
273
2
274
3
275
0
276
0
277
2
278
44
279
0
280
0
281
0
282
0
283
0
284
8
285
0
286
0
288
0
289
3
290
0
371
-2
372
-2
  0
DIMSTYLE
105
73
330
4
100
AcDbSymbolTableRecord
100
AcDbDimStyleTableRecord
  2
EZDXF
 70
0
 40
1.0
 41
0.175
 42
0.125
 43
3.75
 44
0.375
 45
0.0
 46
0.0
 47
0.0
 48
0.0
 49
2.5
140
0.25
141
2.5
142
0.0
143
0.03937007874
144
100.0
145
0.0
146
0.5
147
0.1
148
0.0
 69
0
 70
0
 71
0
 72
0
 73
0
 74
0
 75
0
 76
0
 77
1
 78
12
 79
3
170
0
171
3
172
1
173
0
174
0
175
0
176
0
177
0
178
0
179
2
271
2
272
2
273
2
274
3
275
0
276
0
277
2
278
46
279
2
280
0
281
0
282
0
283
0
284
8
285
0
286
0
288
1
289
3
290
0
340
4C
342
74
371
-2
372
-2
  0
DIMSTYLE
105
7C
330
4
100
AcDbSymbolTableRecord
100
AcDbDimStyleTableRecord
  2
EZ_M_100_H25_CM
 70
0
 40
1.0
 41
0.25
 42
0.125
 43
3.75
 44
0.375
 45
0.0
 46
0.0
 47
0.0
 48
0.0
 49
2.5
140
0.25
141
2.5
142
0.125
143
0.03937007874
144
100.0
145
0.0
146
0.5
147
0.1
148
0.0
 69
0
 70
0
 71
0
 72
0
 73
0
 74
0
 75
0
 76
0
 77
1
 78
12
 79
3
170
0
171
3
172
1
173
0
174
0
175
0
176
0
177
0
178
0
179
2
271
2
272
2
273
2
274
3
275
0
276
0
277
2
278
46
279
2
280
0
281
0
282
0
283
0
284
8
285
0
286
0
288
1
289
3
290
0
340
4C
371
-2
372
-2
  0
DIMSTYLE
105
7D
330
4
100
AcDbSymbolTableRecord
100
AcDbDimStyleTableRecord
  2
EZ_M_50_H25_CM
 70
0
 40
1.0
 41
0.125
 42
0.0625
 43
3.75
 44
0.1875
 45
0.0
 46
0.0
 47
0.0
 48
0.0
 49
2.5
140
0.125
141
2.5
142
0.0625
143
0.03937007874
144
100.0
145
0.0
146
0.5
147
0.05
148
0.0
 69
0
 70
0
 71
0
 72
0
 73
0
 74
0
 75
0
 76
0
 77
1
 78
12
 79
3
170
0
171
3
172
1
173
0
174
0
175
0
176
0
177
0
178
0
179
2
271
2
272
2
273
2
274
3
275
0
276
0
277
2
278
46
279
2
280
0
281
0
282
0
283
0
284
8
285
0
286
0
288
1
289
3
290
0
340
4C
371
-2
372
-2
  0
DIMSTYLE
105
7E
330
4
100
AcDbSymbolTableRecord
100
AcDbDimStyleTableRecord
  2
EZ_M_25_H25_CM
 70
0
 40
1.0
 41
0.0625
 42
0.03125
 43
3.75
 44
0.09375
 45
0.0
 46
0.0
 47
0.0
 48
0.0
 49
2.5
140
0.0625
141
2.5
142
0.03125
143
0.03937007874
144
100.0
145
0.0
146
0.5
147
0.025
148
0.0
 69
0
 70
0
 71
0
 72
0
 73
0
 74
0
 75
0
 76
0
 77
1
 78
12
 79
3
170
0
171
3
172
1
173
0
174
0
175
0
176
0
177
0
178
0
179
2
271
2
272
2
273
2
274
3
275
0
276
0
277
2
278
46
279
2
280
0
281
0
282
0
283
0
284
8
285
0
286
0
288
1
289
3
290
0
340
4C
371
-2
372
-2
  0
DIMSTYLE
105
7F
330
4
100
AcDbSymbolTableRecord
100
AcDbDimStyleTableRecord
  2
EZ_M_20_H25_CM
 70
0
 40
1.0
 41
0.05
 42
0.025
 43
3.75
 44
0.07500000000000001
 45
0.0
 46
0.0
 47
0.0
 48
0.0
 49
2.5
140
0.05
141
2.5
142
0.025
143
0.03937007874
144
100.0
145
0.0
146
0.5
147
0.020000000000000004
148
0.0
 69
0
 70
0
 71
0
 72
0
 73
0
 74
0
 75
0
 76
0
 77
1
 78
12
 79
3
170
0
171
3
172
1
173
0
174
0
175
0
176
0
177
0
178
0
179
2
271
2
272
2
273
2
274
3
275
0
276
0
277
2
278
46
279
2
280
0
281
0
282
0
283
0
284
8
285
0
286
0
288
1
289
3
290
0
340
4C
371
-2
372
-2
  0
DIMSTYLE
105
80
330
4
100
AcDbSymbolTableRecord
100
AcDbDimStyleTableRecord
  2
EZ_M_10_H25_CM
 70
0
 40
1.0
 41
0.025
 42
0.0125
 43
3.75
 44
0.037500000000000006
 45
0.0
 46
0.0
 47
0.0
 48
0.0
 49
2.5
140
0.025
141
2.5
142
0.0125
143
0.03937007874
144
100.0
145
0.0
146
0.5
147
0.010000000000000002
148
0.0
 69
0
 70
0
 71
0
 72
0
 73
0
 74
0
 75
0
 76
0
 77
1
 78
12
 79
3
170
0
171
3
172
1
173
0
174
0
175
0
176
0
177
0
178
0
179
2
271
2
272
2
273
2
274
3
275
0
276
0
277
2
278
46
279
2
280
0
281
0
282
0
283
0
284
8
285
0
286
0
288
1
289
3
290
0
340
4C
371
-2
372
-2
  0
DIMSTYLE
105
81
330
4
100
AcDbSymbolTableRecord
100
AcDbDimStyleTableRecord
  2
EZ_M_5_H25_CM
 70
0
 40
1.0
 41
0.0125
 42
0.00625
 43
3.75
 44
0.018750000000000003
 45
0.0
 46
0.0
 47
0.0
 48
0.0
 49
2.5
140
0.0125
141
2.5
142
0.00625
143
0.03937007874
144
100.0
145
0.0
146
0.5
147
0.005000000000000001
148
0.0
 69
0
 70
0
 71
0
 72
0
 73
0
 74
0
 75
0
 76
0
 77
1
 78
12
 79
3
170
0
171
3
172
1
173
0
174
0
175
0
176
0
177
0
178
0
179
2
271
2
272
2
273
2
274
3
275
0
276
0
277
2
278
46
279
2
280
0
281
0
282
0
283
0
284
8
285
0
286
0
288
1
289
3
290
0
340
4C
371
-2
372
-2
  0
DIMSTYLE
105
82
330
4
100
AcDbSymbolTableRecord
100
AcDbDimStyleTableRecord
  2
EZ_M_1_H25_CM
 70
0
 40
1.0
 41
0.0025
 42
0.00125
 43
3.75
 44
0.00375
 45
0.0
 46
0.0
 47
0.0
 48
0.0
 49
2.5
140
0.0025
141
2.5
142
0.00125
143
0.03937007874
144
100.0
145
0.0
146
0.5
147
0.001
148
0.0
 69
0
 70
0
 71
0
 72
0
 73
0
 74
0
 75
0
 76
0
 77
1
 78
12
 79
3
170
0
171
3
172
1
173
0
174
0
175
0
176
0
177
0
178
0
179
2
271
2
272
2
273
2
274
3
275
0
276
0
277
2
278
46
279
2
280
0
281
0
282
0
283
0
284
8
285
0
286
0
288
1
289
3
290
0
340
4C
371
-2
372
-2
  0
DIMSTYLE
105
83
330
4
100
AcDbSymbolTableRecord
100
AcDbDimStyleTableRecord
  2
EZ_RADIUS
 70
0
 40
1.0
 41
0.25
 42
0.125
 43
3.75
 44
0.375
 45
0.0
 46
0.0
 47
0.0
 48
0.0
 49
2.5
140
0.25
141
0.0
142
0.0
143
0.03937007874
144
100.0
145
0.0
146
0.5
147
0.1
148
0.0
 69
0
 70
0
 71
0
 72
0
 73
0
 74
0
 75
0
 76
0
 77
1
 78
12
 79
3
170
0
171
3
172
0
173
0
174
0
175
0
176
0
177
0
178
0
179
2
271
2
272
2
273
2
274
3
275
0
276
0
277
2
278
46
279
1
280
0
281
0
282
0
283
0
284
8
285
0
286
0
288
1
289
3
290
0
340
4C
342
84
371
-2
372
-2
  0
DIMSTYLE
105
88
330
4
100
AcDbSymbolTableRecord
100
AcDbDimStyleTableRecord
  2
EZ_RADIUS_INSIDE
 70
0
 40
1.0
 41
0.25
 42
0.125
 43
3.75
 44
0.375
 45
0.0
 46
0.0
 47
0.0
 48
0.0
 49
2.5
140
0.25
141
0.0
142
0.0
143
0.03937007874
144
100.0
145
0.0
146
0.5
147
0.1
148
0.0
 69
0
 70
0
 71
0
 72
0
 73
0
 74
0
 75
0
 76
0
 77
0
 78
12
 79
3
170
0
171
3
172
0
173
0
174
1
175
0
176
0
177
0
178
0
179
2
271
2
272
2
273
2
274
3
275
0
276
0
277
2
278
46
279
0
280
0
281
0
282
0
283
0
284
8
285
0
286
0
288
1
289
0
290
0
340
4C
342
84
371
-2
372
-2
  0
DIMSTYLE
105
89
330
4
100
AcDbSymbolTableRecord
100
AcDbDimStyleTableRecord
  2
EZ_CURVED
 70
0
 40
1.0
 41
0.25
 42
0.125
 43
3.75
 44
0.375
 45
0.0
 46
0.0
 47
0.0
 48
0.0
 49
2.5
140
0.25
141
2.5
142
0.0
143
0.03937007874
144
100.0
145
0.0
146
0.5
147
0.1
148
0.0
 69
0
 70
0
 71
0
 72
0
 73
0
 74
0
 75
0
 76
0
 77
1
 78
12
 79
2
 90
2
170
0
171
3
172
1
173
0
174
0
175
0
176
0
177
0
178
0
179
2
271
2
272
2
273
2
274
3
275
0
276
0
277
2
278
46
279
2
280
0
281
0
282
0
283
0
284
8
285
0
286
0
288
1
289
3
290
0
340
4C
371
-2
372
-2
  0
ENDTAB
  0
TABLE
  2
BLOCK_RECORD
  5
9
330
0
100
AcDbSymbolTable
 70
7
  0
BLOCK_RECORD
  5
17
330
9
100
AcDbSymbolTableRecord
100
AcDbBlockTableRecord
  2
*Model_Space
340
1A
 70
0
280
1
281
0
  0
BLOCK_RECORD
  5
1B
330
9
100
AcDbSymbolTableRecord
100
AcDbBlockTableRecord
  2
*Paper_Space
340
1E
 70
0
280
1
281
0
  0
BLOCK_RECORD
  5
74
330
9
100
AcDbSymbolTableRecord
100
AcDbBlockTableRecord
  2
_ARCHTICK
340
0
 70
0
280
1
281
0
  0
BLOCK_RECORD
  5
78
330
9
100
AcDbSymbolTableRecord
100
AcDbBlockTableRecord
  2
_CLOSEDFILLED
340
0
 70
0
280
1
281
0
  0
BLOCK_RECORD
  5
84
330
9
100
AcDbSymbolTableRecord
100
AcDbBlockTableRecord
  2
_CLOSEDBLANK
340
0
 70
0
280
1
281
0
  0
BLOCK_RECORD
  5
93
330
9
100
AcDbSymbolTableRecord
100
AcDbBlockTableRecord
  2
TAVOLO_80x80
340
0
 70
0
280
1
281
0
  0
BLOCK_RECORD
  5
97
330
9
100
AcDbSymbolTableRecord
100
AcDbBlockTableRecord
  2
SEDIA_45x45
340
0
 70
0
280
1
281
0
  0
ENDTAB
  0
ENDSEC
  0
SECTION
  2
BLOCKS
  0
BLOCK
  5
18
330
17
100
AcDbEntity
  8
0
100
AcDbBlockBegin
  2
*Model_Space
 70
0
 10
0.0
 20
0.0
 30
0.0
  3
*Model_Space
  1

  0
ENDBLK
  5
19
330
17
100
AcDbEntity
  8
0
100
AcDbBlockEnd
  0
BLOCK
  5
1C
330
1B
100
AcDbEntity
  8
0
100
AcDbBlockBegin
  2
*Paper_Space
 70
0
 10
0.0
 20
0.0
 30
0.0
  3
*Paper_Space
  1

  0
ENDBLK
  5
1D
330
1B
100
AcDbEntity
  8
0
100
AcDbBlockEnd
  0
BLOCK
  5
75
330
74
100
AcDbEntity
  8
0
100
AcDbBlockBegin
  2
_ARCHTICK
 70
0
 10
0.0
 20
0.0
 30
0.0
  3
_ARCHTICK
  1

  0
LWPOLYLINE
  5
77
330
74
100
AcDbEntity
  8
0
  6
BYBLOCK
 62
0
100
AcDbPolyline
 90
2
 70
0
 43
0.15
 10
-0.5
 20
-0.5
 10
0.5
 20
0.5
  0
ENDBLK
  5
76
330
74
100
AcDbEntity
  8
0
100
AcDbBlockEnd
  0
BLOCK
  5
79
330
78
100
AcDbEntity
  8
0
100
AcDbBlockBegin
  2
_CLOSEDFILLED
 70
0
 10
0.0
 20
0.0
 30
0.0
  3
_CLOSEDFILLED
  1

  0
SOLID
  5
7B
330
78
100
AcDbEntity
  8
0
  6
BYBLOCK
 62
0
100
AcDbTrace
 10
-1.0
 20
0.16439898372402537
 30
0.0
 11
0.0
 21
0.0
 31
0.0
 12
-1.0
 22
-0.16439898372402537
 32
0.0
 13
-1.0
 23
-0.16439898372402537
 33
0.0
  0
ENDBLK
  5
7A
330
78
100
AcDbEntity
  8
0
100
AcDbBlockEnd
  0
BLOCK
  5
85
330
84
100
AcDbEntity
  8
0
100
AcDbBlockBegin
  2
_CLOSEDBLANK
 70
0
 10
0.0
 20
0.0
 30
0.0
  3
_CLOSEDBLANK
  1

  0
LWPOLYLINE
  5
87
330
84
100
AcDbEntity
  8
0
  6
BYBLOCK
 62
0
100
AcDbPolyline
 90
3
 70
1
 10
-1.0
 20
0.16439898372402537
 10
0.0
 20
0.0
 10
-1.0
 20
-0.16439898372402537
  0
ENDBLK
  5
86
330
84
100
AcDbEntity
  8
0
100
AcDbBlockEnd
  0
BLOCK
  5
94
330
93
100
AcDbEntity
  8
0
100
AcDbBlockBegin
  2
TAVOLO_80x80
 70
0
 10
0.0
 20
0.0
 30
0.0
  3
TAVOLO_80x80
  1

  0
LWPOLYLINE
  5
96
330
93
100
AcDbEntity
  8
0
100
AcDbPolyline
 90
4
 70
1
 10
0.0
 20
0.0
 10
80.0
 20
0.0
 10
80.0
 20
80.0
 10
0.0
 20
80.0
  0
ENDBLK
  5
95
330
93
100
AcDbEntity
  8
0
100
AcDbBlockEnd
  0
BLOCK
  5
98
330
97
100
AcDbEntity
  8
0
100
AcDbBlockBegin
  2
SEDIA_45x45
 70
0
 10
0.0
 20
0.0
 30
0.0
  3
SEDIA_45x45
  1

  0
LWPOLYLINE
  5
9A
330
97
100
AcDbEntity
  8
0
100
AcDbPolyline
 90
4
 70
1
 10
-22.5
 20
0.0
 10
22.5
 20
0.0
 10
22.5
 20
45.0
 10
-22.5
 20
45.0
  0
LINE
  5
9B
330
97
100
AcDbEntity
  8
0
100
AcDbLine
 10
-18.5
 20
40.0
 30
0.0
 11
18.5
 21
40.0
 31
0.0
  0
ENDBLK
  5
99
330
97
100
AcDbEntity
  8
0
100
AcDbBlockEnd
  0
ENDSEC
  0
SECTION
  2
ENTITIES
  0
LWPOLYLINE
  5
9C
330
17
100
AcDbEntity
  8
MURI_ESISTENTI
100
AcDbPolyline
 90
2
 70
0
 10
891.7282940973633
 20
-1918.0784834588255
 10
920.2649594399096
 20
-1847.462420275115
  0
LWPOLYLINE
  5
9D
330
17
100
AcDbEntity
  8
MURI_ESISTENTI
100
AcDbPolyline
 90
2
 70
0
 10
920.2649594399096
 20
-1847.462420275115
 10
946.383121545509
 20
-1858.5868955446429
  0
LWPOLYLINE
  5
9E
330
17
100
AcDbEntity
  8
MURI_ESISTENTI
100
AcDbPolyline
 90
2
 70
0
 10
946.383121545509
 20
-1858.5868955446429
 10
982.6584560290001
 20
-1761.8526702553331
  0
LWPOLYLINE
  5
9F
330
17
100
AcDbEntity
  8
MURI_ESISTENTI
100
AcDbPolyline
 90
2
 70
0
 10
982.6584560290001
 20
-1761.8526702553331
 10
968.1484206387463
 20
-1757.9833356848603
  0
LWPOLYLINE
  5
A0
330
17
100
AcDbEntity
  8
MURI_ESISTENTI
100
AcDbPolyline
 90
2
 70
0
 10
968.1484206387463
 20
-1757.9833356848603
 10
985.560610711765
 20
-1709.1325715943874
  0
LWPOLYLINE
  5
A1
330
17
100
AcDbEntity
  8
MURI_ESISTENTI
100
AcDbPolyline
 90
2
 70
0
 10
985.560610711765
 20
-1709.1325715943874
 10
1035.378677693874
 20
-1731.3813991295146
  0
LWPOLYLINE
  5
A2
330
17
100
AcDbEntity
  8
MURI_ESISTENTI
100
AcDbPolyline
 90
2
 70
0
 10
1035.378677693874
 20
-1731.3813991295146
 10
1018.4501390666732
 20
-1776.846480095333
  0
LWPOLYLINE
  5
A3
330
17
100
AcDbEntity
  8
MURI_ESISTENTI
100
AcDbPolyline
 90
2
 70
0
 10
1018.4501390666732
 20
-1776.846480095333
 10
1005.3910580138735
 20
-1772.4934940790424
  0
LWPOLYLINE
  5
A4
330
17
100
AcDbEntity
  8
MURI_ESISTENTI
100
AcDbPolyline
 90
2
 70
0
 10
1005.3910580138735
 20
-1772.4934940790424
 10
968.6320720845644
 20
-1866.3256876895161
  0
LWPOLYLINE
  5
A5
330
17
100
AcDbEntity
  8
MURI_ESISTENTI
100
AcDbPolyline
 90
2
 70
0
 10
968.6320720845644
 20
-1866.3256876895161
 10
1122.9232795047847
 20
-1920.9805151376615
  0
LWPOLYLINE
  5
A6
330
17
100
AcDbEntity
  8
MURI_ESISTENTI
100
AcDbPolyline
 90
2
 70
0
 10
1122.9232795047847
 20
-1920.9805151376615
 10
1217.7227760068936
 20
-1668.0204766448596
  0
LWPOLYLINE
  5
A7
330
17
100
AcDbEntity
  8
MURI_ESISTENTI
100
AcDbPolyline
 90
2
 70
0
 10
1217.7227760068936
 20
-1668.0204766448596
 10
1080.3602302178024
 20
-1614.3330750922782
  0
LWPOLYLINE
  5
A8
330
17
100
AcDbEntity
  8
MURI_ESISTENTI
100
AcDbPolyline
 90
2
 70
0
 10
1080.3602302178024
 20
-1614.3330750922782
 10
1065.8499488196921
 20
-1650.1247581299513
  0
LWPOLYLINE
  5
A9
330
17
100
AcDbEntity
  8
MURI_ESISTENTI
100
AcDbPolyline
 90
2
 70
0
 10
1065.8499488196921
 20
-1650.1247581299513
 10
1015.0645789459469
 20
-1636.098128177659
  0
LWPOLYLINE
  5
AA
330
17
100
AcDbEntity
  8
MURI_ESISTENTI
100
AcDbPolyline
 90
2
 70
0
 10
1015.0645789459469
 20
-1636.098128177659
 10
1141.302649465511
 20
-1352.1832901171488
  0
LWPOLYLINE
  5
AB
330
17
100
AcDbEntity
  8
MURI_ESISTENTI
100
AcDbPolyline
 90
2
 70
0
 10
1240.9389064336572
 20
-1128.7272198585292
 10
1224.494142256203
 20
-1123.8904593924924
  0
LWPOLYLINE
  5
AC
330
17
100
AcDbEntity
  8
MURI_ESISTENTI
100
AcDbPolyline
 90
2
 70
0
 10
1224.494142256203
 20
-1123.8904593924924
 10
1224.4941422562028
 20
-1112.7661071268928
  0
LWPOLYLINE
  5
AD
330
17
100
AcDbEntity
  8
MURI_ESISTENTI
100
AcDbPolyline
 90
2
 70
0
 10
1224.4941422562028
 20
-1112.7661071268928
 10
1230.2982056138758
 20
-1105.5109664278377
  0
LWPOLYLINE
  5
AE
330
17
100
AcDbEntity
  8
MURI_ESISTENTI
100
AcDbPolyline
 90
2
 70
0
 10
1230.2982056138758
 20
-1105.5109664278377
 10
1240.455254987839
 20
-1101.6416318573652
  0
LWPOLYLINE
  5
AF
330
17
100
AcDbEntity
  8
MURI_ESISTENTI
100
AcDbPolyline
 90
2
 70
0
 10
1240.455254987839
 20
-1101.6416318573652
 10
1244.3245895583111
 20
-1092.9355368208558
  0
LWPOLYLINE
  5
B0
330
17
100
AcDbEntity
  8
MURI_ESISTENTI
100
AcDbPolyline
 90
2
 70
0
 10
1244.3245895583111
 20
-1092.9355368208558
 10
1245.775666899694
 20
-1083.2621388927107
  0
LWPOLYLINE
  5
B1
330
17
100
AcDbEntity
  8
MURI_ESISTENTI
100
AcDbPolyline
 90
2
 70
0
 10
1245.775666899694
 20
-1083.2621388927107
 10
1249.1613500243482
 20
-1070.2030578399108
  0
LWPOLYLINE
  5
B2
330
17
100
AcDbEntity
  8
MURI_ESISTENTI
100
AcDbPolyline
 90
2
 70
0
 10
1249.1613500243482
 20
-1070.2030578399108
 10
1249.1613500243482
 20
-1062.4642656950375
  0
LWPOLYLINE
  5
B3
330
17
100
AcDbEntity
  8
MURI_ESISTENTI
100
AcDbPolyline
 90
2
 70
0
 10
1249.1613500243482
 20
-1062.4642656950375
 10
1267.0571915431847
 20
-1066.817251711328
  0
LWPOLYLINE
  5
B4
330
17
100
AcDbEntity
  8
MURI_ESISTENTI
100
AcDbPolyline
 90
2
 70
0
 10
1267.0571915431847
 20
-1066.817251711328
 10
1331.869068365294
 20
-789.1901284543089
  0
LWPOLYLINE
  5
B5
330
17
100
AcDbEntity
  8
MURI_ESISTENTI
100
AcDbPolyline
 90
2
 70
0
 10
1331.869068365294
 20
-789.1901284543089
 10
923.6507655684921
 20
-690.5211743777988
  0
LWPOLYLINE
  5
B6
330
17
100
AcDbEntity
  8
MURI_ESISTENTI
100
AcDbPolyline
 90
2
 70
0
 10
923.6507655684921
 20
-690.5211743777988
 10
942.0302585331465
 20
-623.2909173226712
  0
LWPOLYLINE
  5
B7
330
17
100
AcDbEntity
  8
MURI_ESISTENTI
100
AcDbPolyline
 90
2
 70
0
 10
942.5139099789649
 20
-623.2909173226714
 10
1069.2357549482747
 20
-653.7621884484896
  0
LWPOLYLINE
  5
B8
330
17
100
AcDbEntity
  8
MURI_ESISTENTI
100
AcDbPolyline
 90
2
 70
0
 10
1069.2357549482747
 20
-653.7621884484896
 10
1096.8048713913286
 20
-531.8771039452164
  0
LWPOLYLINE
  5
B9
330
17
100
AcDbEntity
  8
MURI_ESISTENTI
100
AcDbPolyline
 90
2
 70
0
 10
1096.8048713913286
 20
-531.8771039452164
 10
776.130924397581
 20
-456.4244032993977
  0
LWPOLYLINE
  5
BA
330
17
100
AcDbEntity
  8
MURI_ESISTENTI
100
AcDbPolyline
 90
2
 70
0
 10
725.345554523836
 20
-643.6051390745264
 10
835.6225123117633
 20
-670.2069526259438
  0
LWPOLYLINE
  5
BB
330
17
100
AcDbEntity
  8
MURI_ESISTENTI
100
AcDbPolyline
 90
2
 70
0
 10
835.6225123117633
 20
-670.2069526259438
 10
853.5183538306001
 20
-599.5910124461619
  0
LWPOLYLINE
  5
BC
330
17
100
AcDbEntity
  8
MURI_ESISTENTI
100
AcDbPolyline
 90
2
 70
0
 10
853.5183538306001
 20
-599.5910124461619
 10
743.7250474884903
 20
-575.4074561238344
  0
LWPOLYLINE
  5
BD
330
17
100
AcDbEntity
  8
MURI_ESISTENTI
100
AcDbPolyline
 90
2
 70
0
 10
859.8060686340908
 20
-601.041966783616
 10
882.0550191731462
 20
-518.8178998884885
  0
LWPOLYLINE
  5
BE
330
17
100
AcDbEntity
  8
MURI_ESISTENTI
100
AcDbPolyline
 90
2
 70
0
 10
882.0550191731462
 20
-518.8178998884885
 10
876.7346072612913
 20
-517.8505969968523
  0
LWPOLYLINE
  5
BF
330
17
100
AcDbEntity
  8
MURI_ESISTENTI
100
AcDbPolyline
 90
2
 70
0
 10
876.7346072612913
 20
-517.8505969968523
 10
853.5183538306001
 20
-599.5910124461619
  0
LWPOLYLINE
  5
C0
330
17
100
AcDbEntity
  8
MURI_ESISTENTI
100
AcDbPolyline
 90
2
 70
0
 10
853.5183538306001
 20
-599.5910124461619
 10
942.5139099789649
 20
-623.2909173226714
  0
LWPOLYLINE
  5
C1
330
17
100
AcDbEntity
  8
MURI_ESISTENTI
100
AcDbPolyline
 90
2
 70
0
 10
778.0657761887094
 20
-427.8877379568514
 10
1522.919138710895
 20
-583.6298997145257
  0
LWPOLYLINE
  5
C2
330
17
100
AcDbEntity
  8
MURI_ESISTENTI
100
AcDbPolyline
 90
2
 70
0
 10
1522.919138710895
 20
-583.6298997145257
 10
1962.5762615330075
 20
-717.6067623789627
  0
LWPOLYLINE
  5
C3
330
17
100
AcDbEntity
  8
MURI_ESISTENTI
100
AcDbPolyline
 90
2
 70
0
 10
1962.5762615330075
 20
-717.6067623789627
 10
2597.636317713084
 20
-929.9383573680548
  0
LWPOLYLINE
  5
C4
330
17
100
AcDbEntity
  8
MURI_ESISTENTI
100
AcDbPolyline
 90
2
 70
0
 10
2597.636317713084
 20
-929.9383573680548
 10
1838.2727967967157
 20
-2213.117919792791
  0
LWPOLYLINE
  5
C5
330
17
100
AcDbEntity
  8
MURI_ESISTENTI
100
AcDbPolyline
 90
2
 70
0
 10
1838.2727967967157
 20
-2213.117919792791
 10
1779.2648603283515
 20
-2224.726046508137
  0
LWPOLYLINE
  5
C6
330
17
100
AcDbEntity
  8
MURI_ESISTENTI
100
AcDbPolyline
 90
2
 70
0
 10
1779.2648603283515
 20
-2224.726046508137
 10
1763.7873990425335
 20
-2219.8892860421
  0
LWPOLYLINE
  5
C7
330
17
100
AcDbEntity
  8
MURI_ESISTENTI
100
AcDbPolyline
 90
2
 70
0
 10
1763.7873990425335
 20
-2219.8892860421
 10
1767.6567336130056
 20
-2203.4443988607177
  0
LWPOLYLINE
  5
C8
330
17
100
AcDbEntity
  8
MURI_ESISTENTI
100
AcDbPolyline
 90
2
 70
0
 10
1767.6567336130056
 20
-2203.4443988607177
 10
1621.5880927874052
 20
-2150.7241771958443
  0
LWPOLYLINE
  5
C9
330
17
100
AcDbEntity
  8
MURI_ESISTENTI
100
AcDbPolyline
 90
2
 70
0
 10
1621.5880927874052
 20
-2150.7241771958443
 10
1617.235106771115
 20
-2165.2344585939545
  0
LWPOLYLINE
  5
CA
330
17
100
AcDbEntity
  8
MURI_ESISTENTI
100
AcDbPolyline
 90
2
 70
0
 10
1617.235106771115
 20
-2165.2344585939545
 10
1067.3009031571462
 20
-1972.2496594611532
  0
LWPOLYLINE
  5
CB
330
17
100
AcDbEntity
  8
MURI_ESISTENTI
100
AcDbPolyline
 90
2
 70
0
 10
1067.3009031571462
 20
-1972.2496594611532
 10
1079.8763327641277
 20
-1939.8436595481342
  0
LWPOLYLINE
  5
CC
330
17
100
AcDbEntity
  8
MURI_ESISTENTI
100
AcDbPolyline
 90
2
 70
0
 10
1079.8763327641277
 20
-1939.8436595481342
 10
1010.2278184799102
 20
-1916.627529121371
  0
LWPOLYLINE
  5
CD
330
17
100
AcDbEntity
  8
MURI_ESISTENTI
100
AcDbPolyline
 90
2
 70
0
 10
1010.2278184799102
 20
-1916.627529121371
 10
998.6196917645647
 20
-1950.484483371844
  0
LWPOLYLINE
  5
CE
330
17
100
AcDbEntity
  8
MURI_ESISTENTI
100
AcDbPolyline
 90
2
 70
0
 10
998.6196917645647
 20
-1950.484483371844
 10
958.4748997066727
 20
-1935.0070220860257
  0
LWPOLYLINE
  5
CF
330
17
100
AcDbEntity
  8
MURI_ESISTENTI
100
AcDbPolyline
 90
2
 70
0
 10
958.4748997066727
 20
-1935.0070220860257
 10
955.5729910317643
 20
-1940.8110854436984
  0
LWPOLYLINE
  5
D0
330
17
100
AcDbEntity
  8
MURI_ESISTENTI
100
AcDbPolyline
 90
2
 70
0
 10
955.5729910317643
 20
-1940.8110854436984
 10
891.7282940973633
 20
-1918.0784834588255
  0
LWPOLYLINE
  5
D1
330
17
100
AcDbEntity
  8
MURI_ESISTENTI
100
AcDbPolyline
 90
2
 70
0
 10
1149.5250930562017
 20
-1930.170261619989
 10
1371.5300859734396
 20
-2009.49229683628
  0
LWPOLYLINE
  5
D2
330
17
100
AcDbEntity
  8
MURI_ESISTENTI
100
AcDbPolyline
 90
2
 70
0
 10
1371.5300859734396
 20
-2009.49229683628
 10
1417.9625928348223
 20
-1891.9601983492971
  0
LWPOLYLINE
  5
D3
330
17
100
AcDbEntity
  8
MURI_ESISTENTI
100
AcDbPolyline
 90
2
 70
0
 10
1417.9625928348223
 20
-1891.9601983492971
 10
1371.5300859734393
 20
-1875.515434171843
  0
LWPOLYLINE
  5
D4
330
17
100
AcDbEntity
  8
MURI_ESISTENTI
100
AcDbPolyline
 90
2
 70
0
 10
1371.5300859734393
 20
-1875.515434171843
 10
1386.5238958134396
 20
-1834.8869906681332
  0
LWPOLYLINE
  5
D5
330
17
100
AcDbEntity
  8
MURI_ESISTENTI
100
AcDbPolyline
 90
2
 70
0
 10
1386.5238958134396
 20
-1834.8869906681332
 10
1214.336969878311
 20
-1768.1403850588235
  0
LWPOLYLINE
  5
D6
330
17
100
AcDbEntity
  8
MURI_ESISTENTI
100
AcDbPolyline
 90
2
 70
0
 10
1214.336969878311
 20
-1768.1403850588235
 10
1149.5250930562017
 20
-1930.170261619989
  0
LWPOLYLINE
  5
D7
330
17
100
AcDbEntity
  8
MURI_ESISTENTI
100
AcDbPolyline
 90
2
 70
0
 10
1386.5238958134396
 20
-1834.8869906681332
 10
1390.3933533878399
 20
-1828.1156244188242
  0
LWPOLYLINE
  5
D8
330
17
100
AcDbEntity
  8
MURI_ESISTENTI
100
AcDbPolyline
 90
2
 70
0
 10
1351.6996386713308
 20
-1812.6381631330064
 10
1218.2064274527118
 20
-1759.4344130262427
  0
LWPOLYLINE
  5
D9
330
17
100
AcDbEntity
  8
MURI_ESISTENTI
100
AcDbPolyline
 90
2
 70
0
 10
1218.2064274527118
 20
-1759.4344130262427
 10
1254.9654133820213
 20
-1670.438856877878
  0
LWPOLYLINE
  5
DA
330
17
100
AcDbEntity
  8
MURI_ESISTENTI
100
AcDbPolyline
 90
2
 70
0
 10
1254.9654133820213
 20
-1670.438856877878
 10
1494.382596372277
 20
-1763.7873990425333
  0
LWPOLYLINE
  5
DB
330
17
100
AcDbEntity
  8
MURI_ESISTENTI
100
AcDbPolyline
 90
2
 70
0
 10
1494.382596372277
 20
-1763.7873990425333
 10
1392.8116106169305
 20
-2007.5576910530078
  0
LWPOLYLINE
  5
DC
330
17
100
AcDbEntity
  8
MURI_ESISTENTI
100
AcDbPolyline
 90
2
 70
0
 10
1392.8116106169305
 20
-2007.5576910530078
 10
1798.1280047388245
 20
-2145.887662737664
  0
LWPOLYLINE
  5
DD
330
17
100
AcDbEntity
  8
MURI_ESISTENTI
100
AcDbPolyline
 90
2
 70
0
 10
1798.1280047388245
 20
-2145.887662737664
 10
2140.567250825809
 20
-1569.3515225683495
  0
LWPOLYLINE
  5
DE
330
17
100
AcDbEntity
  8
MURI_ESISTENTI
100
AcDbPolyline
 90
2
 70
0
 10
2140.567250825809
 20
-1569.3515225683495
 10
1777.3302545450792
 20
-1420.8646245136586
  0
LWPOLYLINE
  5
DF
330
17
100
AcDbEntity
  8
MURI_ESISTENTI
100
AcDbPolyline
 90
2
 70
0
 10
1656.8961243792603
 20
-1371.5300859734396
 10
1649.157332234387
 20
-1389.9097019420226
  0
LWPOLYLINE
  5
E0
330
17
100
AcDbEntity
  8
MURI_ESISTENTI
100
AcDbPolyline
 90
2
 70
0
 10
1603.2085998227506
 20
-1500.1866597299497
 10
1558.2271703027502
 20
-1481.8071667652953
  0
LWPOLYLINE
  5
E1
330
17
100
AcDbEntity
  8
MURI_ESISTENTI
100
AcDbPolyline
 90
2
 70
0
 10
1558.2271703027502
 20
-1481.8071667652953
 10
1529.2069765183141
 20
-1555.3251386239135
  0
LWPOLYLINE
  5
E2
330
17
100
AcDbEntity
  8
MURI_ESISTENTI
100
AcDbPolyline
 90
2
 70
0
 10
1529.2069765183141
 20
-1555.3251386239135
 10
1574.6720574841322
 20
-1573.2209801427502
  0
LWPOLYLINE
  5
E3
330
17
100
AcDbEntity
  8
MURI_ESISTENTI
100
AcDbPolyline
 90
2
 70
0
 10
1574.6720574841322
 20
-1573.2209801427502
 10
1494.382596372277
 20
-1763.7873990425333
  0
LWPOLYLINE
  5
E4
330
17
100
AcDbEntity
  8
MURI_ESISTENTI
100
AcDbPolyline
 90
2
 70
0
 10
1897.280610261152
 20
-1888.0908637788248
 10
1975.6353425858072
 20
-1934.5232476362794
  0
LWPOLYLINE
  5
E5
330
17
100
AcDbEntity
  8
MURI_ESISTENTI
100
AcDbPolyline
 90
2
 70
0
 10
1975.6353425858072
 20
-1934.5232476362794
 10
1861.0052757776607
 20
-2125.5733179818803
  0
LWPOLYLINE
  5
E6
330
17
100
AcDbEntity
  8
MURI_ESISTENTI
100
AcDbPolyline
 90
2
 70
0
 10
1861.0052757776607
 20
-2125.5733179818803
 10
1823.2789869567162
 20
-2103.3243674428254
  0
LWPOLYLINE
  5
E7
330
17
100
AcDbEntity
  8
MURI_ESISTENTI
100
AcDbPolyline
 90
2
 70
0
 10
1857.1359412071888
 20
-2123.1550607527906
 10
1917.111180567189
 20
-2022.55137788908
  0
LWPOLYLINE
  5
E8
330
17
100
AcDbEntity
  8
MURI_ESISTENTI
100
AcDbPolyline
 90
2
 70
0
 10
1917.111180567189
 20
-2022.55137788908
 10
1970.7987051236987
 20
-1931.621215957443
  0
LWPOLYLINE
  5
E9
330
17
100
AcDbEntity
  8
MURI_ESISTENTI
100
AcDbPolyline
 90
2
 70
0
 10
1886.1562579955528
 20
-2132.828581684864
 10
1864.3909589023158
 20
-2119.769254624208
  0
LWPOLYLINE
  5
EA
330
17
100
AcDbEntity
  8
MURI_ESISTENTI
100
AcDbPolyline
 90
2
 70
0
 10
1864.3909589023158
 20
-2119.769254624208
 10
1886.1562579955528
 20
-2132.828581684864
  0
LWPOLYLINE
  5
EB
330
17
100
AcDbEntity
  8
MURI_ESISTENTI
100
AcDbPolyline
 90
2
 70
0
 10
1753.1466982227519
 20
-2010.9432511737343
 10
1537.9129485508952
 20
-1935.4906735318439
  0
LWPOLYLINE
  5
EC
330
17
100
AcDbEntity
  8
MURI_ESISTENTI
100
AcDbPolyline
 90
2
 70
0
 10
1537.9129485508952
 20
-1935.4906735318439
 10
1501.1539626215852
 20
-2044.316676982317
  0
LWPOLYLINE
  5
ED
330
17
100
AcDbEntity
  8
MURI_ESISTENTI
100
AcDbPolyline
 90
2
 70
0
 10
1537.9129485508952
 20
-1935.4906735318439
 10
1621.1044413415873
 20
-1731.3813991295146
  0
LWPOLYLINE
  5
EE
330
17
100
AcDbEntity
  8
MURI_ESISTENTI
100
AcDbPolyline
 90
2
 70
0
 10
1621.1044413415873
 20
-1731.3813991295146
 10
1524.8538674980955
 20
-1691.2367300755511
  0
LWPOLYLINE
  5
EF
330
17
100
AcDbEntity
  8
MURI_ESISTENTI
100
AcDbPolyline
 90
2
 70
0
 10
1753.1466982227519
 20
-2010.9432511737343
 10
1751.2119694355513
 20
-2020.6167721058077
  0
LWPOLYLINE
  5
F0
330
17
100
AcDbEntity
  8
MURI_ESISTENTI
100
AcDbPolyline
 90
2
 70
0
 10
1751.2119694355513
 20
-2020.6167721058077
 10
1485.1928498899495
 20
-1926.3009270495163
  0
LWPOLYLINE
  5
F1
330
17
100
AcDbEntity
  8
MURI_ESISTENTI
100
AcDbPolyline
 90
2
 70
0
 10
1485.1928498899495
 20
-1926.3009270495163
 10
1435.3746599039123
 20
-1905.5030538518433
  0
LWPOLYLINE
  5
F2
330
17
100
AcDbEntity
  8
MURI_ESISTENTI
100
AcDbPolyline
 90
2
 70
0
 10
1751.2119694355513
 20
-2020.6167721058077
 10
1717.8386666308973
 20
-2118.3183002867536
  0
LWPOLYLINE
  5
F3
330
17
100
AcDbEntity
  8
MURI_ESISTENTI
100
AcDbPolyline
 90
2
 70
0
 10
1734.7670822541688
 20
-2069.467536196281
 10
1464.3949766922763
 20
-1975.6353425858072
  0
LWPOLYLINE
  5
F4
330
17
100
AcDbEntity
  8
MURI_ESISTENTI
100
AcDbPolyline
 90
2
 70
0
 10
1464.3949766922763
 20
-1975.6353425858072
 10
1573.2209801427502
 20
-1711.0673003815878
  0
LWPOLYLINE
  5
F5
330
17
100
AcDbEntity
  8
MURI_ESISTENTI
100
AcDbPolyline
 90
2
 70
0
 10
1563.0639307687868
 20
-1953.8701664964983
 10
1554.8414871780956
 20
-1976.602645477443
  0
LWPOLYLINE
  5
F6
330
17
100
AcDbEntity
  8
MURI_ESISTENTI
100
AcDbPolyline
 90
2
 70
0
 10
1554.8414871780956
 20
-1976.602645477443
 10
1526.7885962852954
 20
-2055.4410292479165
  0
LWPOLYLINE
  5
F7
330
17
100
AcDbEntity
  8
MURI_ESISTENTI
100
AcDbPolyline
 90
2
 70
0
 10
1555.8087900697317
 20
-2063.1798213927896
 10
1575.6393603757688
 20
-2005.1393108199895
  0
LWPOLYLINE
  5
F8
330
17
100
AcDbEntity
  8
MURI_ESISTENTI
100
AcDbPolyline
 90
2
 70
0
 10
1575.6393603757688
 20
-2005.1393108199895
 10
1590.6331702157688
 20
-1963.5435644246436
  0
LWPOLYLINE
  5
F9
330
17
100
AcDbEntity
  8
MURI_ESISTENTI
100
AcDbPolyline
 90
2
 70
0
 10
1581.9270751792594
 20
-2072.3696908790453
 10
1602.2412969311142
 20
-2012.8779799609345
  0
LWPOLYLINE
  5
FA
330
17
100
AcDbEntity
  8
MURI_ESISTENTI
100
AcDbPolyline
 90
2
 70
0
 10
1602.2412969311142
 20
-2012.8779799609345
 10
1616.26768087555
 20
-1970.7985821197706
  0
LWPOLYLINE
  5
FB
330
17
100
AcDbEntity
  8
MURI_ESISTENTI
100
AcDbPolyline
 90
2
 70
0
 10
1626.4248532534418
 20
-2032.2248988211534
 10
1643.836920322532
 20
-1982.4067088351164
  0
LWPOLYLINE
  5
FC
330
17
100
AcDbEntity
  8
MURI_ESISTENTI
100
AcDbPolyline
 90
2
 70
0
 10
1669.9552054320598
 20
-1992.0801067632615
 10
1653.0266668048596
 20
-2041.414645303481
  0
LWPOLYLINE
  5
FD
330
17
100
AcDbEntity
  8
MURI_ESISTENTI
100
AcDbPolyline
 90
2
 70
0
 10
1653.0266668048596
 20
-2041.414645303481
 10
1636.0982511815869
 20
-2090.7489378358437
  0
LWPOLYLINE
  5
FE
330
17
100
AcDbEntity
  8
MURI_ESISTENTI
100
AcDbPolyline
 90
2
 70
0
 10
1663.183839182751
 20
-2099.938807322099
 10
1678.1776490227512
 20
-2056.4084551434808
  0
LWPOLYLINE
  5
FF
330
17
100
AcDbEntity
  8
MURI_ESISTENTI
100
AcDbPolyline
 90
2
 70
0
 10
1678.1776490227512
 20
-2056.4084551434808
 10
1697.5244448790418
 20
-2001.7536276953351
  0
LWPOLYLINE
  5
100
330
17
100
AcDbEntity
  8
MURI_ESISTENTI
100
AcDbPolyline
 90
2
 70
0
 10
1689.302001288351
 20
-2108.645025362536
 10
1701.8775538992604
 20
-2072.3696908790457
  0
LWPOLYLINE
  5
101
330
17
100
AcDbEntity
  8
MURI_ESISTENTI
100
AcDbPolyline
 90
2
 70
0
 10
1701.8775538992604
 20
-2072.3696908790457
 10
1723.6427299885695
 20
-2010.9432511737343
  0
LWPOLYLINE
  5
102
330
17
100
AcDbEntity
  8
MURI_ESISTENTI
100
AcDbPolyline
 90
2
 70
0
 10
1445.0481808359862
 20
-1716.3875892895146
 10
1265.606114201802
 20
-1646.2553005555503
  0
LWPOLYLINE
  5
103
330
17
100
AcDbEntity
  8
MURI_ESISTENTI
100
AcDbPolyline
 90
2
 70
0
 10
1265.606114201802
 20
-1646.2553005555503
 10
1312.0386210631852
 20
-1523.4029131606412
  0
LWPOLYLINE
  5
104
330
17
100
AcDbEntity
  8
MURI_ESISTENTI
100
AcDbPolyline
 90
2
 70
0
 10
1312.0386210631852
 20
-1523.4029131606412
 10
1493.898944926459
 20
-1592.0841245532229
  0
LWPOLYLINE
  5
105
330
17
100
AcDbEntity
  8
MURI_ESISTENTI
100
AcDbPolyline
 90
2
 70
0
 10
1493.898944926459
 20
-1592.0841245532229
 10
1435.3746599039125
 20
-1741.0549200615883
  0
LWPOLYLINE
  5
106
330
17
100
AcDbEntity
  8
MURI_ESISTENTI
100
AcDbPolyline
 90
2
 70
0
 10
1239.4879520962027
 20
-1648.6736807885688
 10
1104.54378654013
 20
-1596.9208850192597
  0
LWPOLYLINE
  5
107
330
17
100
AcDbEntity
  8
MURI_ESISTENTI
100
AcDbPolyline
 90
2
 70
0
 10
1104.54378654013
 20
-1596.9208850192597
 10
1198.8595085924928
 20
-1377.8179237808588
  0
LWPOLYLINE
  5
108
330
17
100
AcDbEntity
  8
MURI_ESISTENTI
100
AcDbPolyline
 90
2
 70
0
 10
1406.8381175652944
 20
-894.1466743303815
 10
1446.4991351734404
 20
-912.0425158492183
  0
LWPOLYLINE
  5
109
330
17
100
AcDbEntity
  8
MURI_ESISTENTI
100
AcDbPolyline
 90
2
 70
0
 10
1446.4991351734404
 20
-912.0425158492183
 10
1498.7355823885675
 20
-785.8044453296544
  0
LWPOLYLINE
  5
10A
330
17
100
AcDbEntity
  8
MURI_ESISTENTI
100
AcDbPolyline
 90
2
 70
0
 10
1498.7355823885675
 20
-785.8044453296544
 10
1460.0419906759862
 20
-769.359558148272
  0
LWPOLYLINE
  5
10B
330
17
100
AcDbEntity
  8
MURI_ESISTENTI
100
AcDbPolyline
 90
2
 70
0
 10
1460.0419906759862
 20
-769.359558148272
 10
1468.2643112627493
 20
-750.0127622919814
  0
LWPOLYLINE
  5
10C
330
17
100
AcDbEntity
  8
MURI_ESISTENTI
100
AcDbPolyline
 90
2
 70
0
 10
1513.7293922285676
 20
-647.4744736449987
 10
1697.5244448790418
 20
-701.6456496473263
  0
LWPOLYLINE
  5
10D
330
17
100
AcDbEntity
  8
MURI_ESISTENTI
100
AcDbPolyline
 90
2
 70
0
 10
1697.5244448790418
 20
-701.6456496473263
 10
1700.4264765578785
 20
-691.0048258236168
  0
LWPOLYLINE
  5
10E
330
17
100
AcDbEntity
  8
MURI_ESISTENTI
100
AcDbPolyline
 90
2
 70
0
 10
1700.4264765578785
 20
-691.0048258236168
 10
1771.5261911874065
 20
-710.8353961296538
  0
LWPOLYLINE
  5
10F
330
17
100
AcDbEntity
  8
MURI_ESISTENTI
100
AcDbPolyline
 90
2
 70
0
 10
1771.5261911874065
 20
-710.8353961296538
 10
1772.0098426332247
 20
-723.8944771824536
  0
LWPOLYLINE
  5
110
330
17
100
AcDbEntity
  8
MURI_ESISTENTI
100
AcDbPolyline
 90
2
 70
0
 10
1772.0098426332247
 20
-723.8944771824536
 10
1846.4951173834793
 20
-745.6596532717626
  0
LWPOLYLINE
  5
111
330
17
100
AcDbEntity
  8
MURI_ESISTENTI
100
AcDbPolyline
 90
2
 70
0
 10
1846.4951173834793
 20
-745.6596532717626
 10
1586.763835645296
 20
-1362.8239909369302
  0
LWPOLYLINE
  5
112
330
17
100
AcDbEntity
  8
MURI_ESISTENTI
100
AcDbPolyline
 90
2
 70
0
 10
1517.1151983571501
 20
-1528.7232020685676
 10
1187.2513818771472
 20
-1405.3870402239122
  0
LWPOLYLINE
  5
113
330
17
100
AcDbEntity
  8
MURI_ESISTENTI
100
AcDbPolyline
 90
2
 70
0
 10
1240.4552549878385
 20
-1649.157332234387
 10
1291.2407478655123
 20
-1516.147772461586
  0
LWPOLYLINE
  5
114
330
17
100
AcDbEntity
  8
MURI_ESISTENTI
100
AcDbPolyline
 90
2
 70
0
 10
1291.2407478655123
 20
-1516.147772461586
 10
1161.1332197715478
 20
-1465.3622795839128
  0
LWPOLYLINE
  5
115
330
17
100
AcDbEntity
  8
MURI_ESISTENTI
100
AcDbPolyline
 90
2
 70
0
 10
1203.6962690585297
 20
-1559.6782476441324
 10
1133.563857320638
 20
-1529.2069765183141
  0
LWPOLYLINE
  5
116
330
17
100
AcDbEntity
  8
MURI_ESISTENTI
100
AcDbPolyline
 90
2
 70
0
 10
1248.6776985785302
 20
-1261.7367796313301
 10
1191.604490897366
 20
-1239.9716035420208
  0
LWPOLYLINE
  5
117
330
17
100
AcDbEntity
  8
MURI_ESISTENTI
100
AcDbPolyline
 90
2
 70
0
 10
1198.8595085924928
 20
-1377.8179237808588
 10
1141.302649465511
 20
-1352.1832901171488
  0
LWPOLYLINE
  5
118
330
17
100
AcDbEntity
  8
MURI_ESISTENTI
100
AcDbPolyline
 90
2
 70
0
 10
1916.627529121371
 20
-758.2350828787443
 10
1683.0142864848597
 20
-1309.1365893843488
  0
LWPOLYLINE
  5
119
330
17
100
AcDbEntity
  8
MURI_ESISTENTI
100
AcDbPolyline
 90
2
 70
0
 10
1683.0142864848597
 20
-1309.1365893843488
 10
1703.8121596825329
 20
-1317.8426844208582
  0
LWPOLYLINE
  5
11A
330
17
100
AcDbEntity
  8
MURI_ESISTENTI
100
AcDbPolyline
 90
2
 70
0
 10
2174.4240820723535
 20
-1512.7620893369317
 10
2483.490148358612
 20
-984.1095333703826
  0
LWPOLYLINE
  5
11B
330
17
100
AcDbEntity
  8
MURI_ESISTENTI
100
AcDbPolyline
 90
2
 70
0
 10
2483.490148358612
 20
-984.1095333703826
 10
1916.627529121371
 20
-758.2350828787443
  0
LWPOLYLINE
  5
11C
330
17
100
AcDbEntity
  8
MURI_ESISTENTI
100
AcDbPolyline
 90
2
 70
0
 10
1573.2209801427502
 20
-827.8837201668903
 10
1511.7947864452956
 20
-971.0504523175829
  0
LWPOLYLINE
  5
11D
330
17
100
AcDbEntity
  8
MURI_ESISTENTI
100
AcDbPolyline
 90
2
 70
0
 10
1511.7947864452956
 20
-971.0504523175829
 10
1591.600473107405
 20
-1003.9401036764195
  0
LWPOLYLINE
  5
11E
330
17
100
AcDbEntity
  8
MURI_ESISTENTI
100
AcDbPolyline
 90
2
 70
0
 10
1591.600473107405
 20
-1003.9401036764195
 10
1620.1371384499514
 20
-938.6444524045642
  0
LWPOLYLINE
  5
11F
330
17
100
AcDbEntity
  8
MURI_ESISTENTI
100
AcDbPolyline
 90
2
 70
0
 10
1620.1371384499514
 20
-938.6444524045642
 10
1540.3313287839135
 20
-904.7874981540913
  0
LWPOLYLINE
  5
120
330
17
100
AcDbEntity
  8
MURI_ESISTENTI
100
AcDbPolyline
 90
2
 70
0
 10
1602.2412969311144
 20
-1001.521723443401
 10
1630.7778392697326
 20
-936.2260721715458
  0
LWPOLYLINE
  5
121
330
17
100
AcDbEntity
  8
MURI_ESISTENTI
100
AcDbPolyline
 90
2
 70
0
 10
1630.7778392697326
 20
-936.2260721715458
 10
1745.8915575236965
 20
-984.5931848162005
  0
LWPOLYLINE
  5
122
330
17
100
AcDbEntity
  8
MURI_ESISTENTI
100
AcDbPolyline
 90
2
 70
0
 10
1630.7778392697326
 20
-936.2260721715458
 10
1542.749709016932
 20
-899.4670862422365
  0
LWPOLYLINE
  5
123
330
17
100
AcDbEntity
  8
MURI_ESISTENTI
100
AcDbPolyline
 90
2
 70
0
 10
1602.2412969311144
 20
-1001.521723443401
 10
1718.3223180767147
 20
-1050.372487533874
  0
LWPOLYLINE
  5
124
330
17
100
AcDbEntity
  8
MURI_ESISTENTI
100
AcDbPolyline
 90
2
 70
0
 10
1642.8696174308964
 20
-1229.3307797183115
 10
1426.6686878713315
 20
-1138.4006177866745
  0
LWPOLYLINE
  5
125
330
17
100
AcDbEntity
  8
MURI_ESISTENTI
100
AcDbPolyline
 90
2
 70
0
 10
1426.6686878713315
 20
-1138.4006177866745
 10
1469.2317371583135
 20
-1035.8623291396918
  0
LWPOLYLINE
  5
126
330
17
100
AcDbEntity
  8
MURI_ESISTENTI
100
AcDbPolyline
 90
2
 70
0
 10
1469.2317371583135
 20
-1035.8623291396918
 10
1685.9163181636961
 20
-1126.7924910713286
  0
LWPOLYLINE
  5
127
330
17
100
AcDbEntity
  8
MURI_ESISTENTI
100
AcDbPolyline
 90
5
 70
0
 10
1557.2598674111139
 20
-1089.0662022503836
 10
1524.3702160522776
 20
-1162.5841741090019
 10
1591.600473107405
 20
-1192.5717937890022
 10
1624.4901244662412
 20
-1117.1190931431834
 10
1557.2598674111139
 20
-1089.0662022503836
  0
LWPOLYLINE
  5
128
330
17
100
AcDbEntity
  8
MURI_ESISTENTI
100
AcDbPolyline
 90
2
 70
0
 10
1580.9597722876235
 20
-1115.1843643559832
 10
1579.992346392059
 20
-1110.3477268938743
  0
LWPOLYLINE
  5
129
330
17
100
AcDbEntity
  8
MURI_ESISTENTI
100
AcDbPolyline
 90
2
 70
0
 10
1579.992346392059
 20
-1110.3477268938743
 10
1578.057740608787
 20
-1106.478392323402
  0
LWPOLYLINE
  5
12A
330
17
100
AcDbEntity
  8
MURI_ESISTENTI
100
AcDbPolyline
 90
2
 70
0
 10
1578.057740608787
 20
-1106.478392323402
 10
1574.6720574841324
 20
-1103.0925861948194
  0
LWPOLYLINE
  5
12B
330
17
100
AcDbEntity
  8
MURI_ESISTENTI
100
AcDbPolyline
 90
2
 70
0
 10
1574.6720574841324
 20
-1103.0925861948194
 10
1570.3189484639138
 20
-1101.1579804115472
  0
LWPOLYLINE
  5
12C
330
17
100
AcDbEntity
  8
MURI_ESISTENTI
100
AcDbPolyline
 90
2
 70
0
 10
1570.3189484639138
 20
-1101.1579804115472
 10
1565.9659624476235
 20
-1100.190677519911
  0
LWPOLYLINE
  5
12D
330
17
100
AcDbEntity
  8
MURI_ESISTENTI
100
AcDbPolyline
 90
2
 70
0
 10
1565.9659624476235
 20
-1100.190677519911
 10
1561.6128534274044
 20
-1101.1579804115472
  0
LWPOLYLINE
  5
12E
330
17
100
AcDbEntity
  8
MURI_ESISTENTI
100
AcDbPolyline
 90
2
 70
0
 10
1561.6128534274044
 20
-1101.1579804115472
 10
1557.2598674111139
 20
-1103.0925861948192
  0
LWPOLYLINE
  5
12F
330
17
100
AcDbEntity
  8
MURI_ESISTENTI
100
AcDbPolyline
 90
2
 70
0
 10
1557.2598674111139
 20
-1103.0925861948192
 10
1553.874184286459
 20
-1106.4783923234017
  0
LWPOLYLINE
  5
130
330
17
100
AcDbEntity
  8
MURI_ESISTENTI
100
AcDbPolyline
 90
2
 70
0
 10
1553.874184286459
 20
-1106.4783923234017
 10
1551.9394554992593
 20
-1110.3477268938746
  0
LWPOLYLINE
  5
131
330
17
100
AcDbEntity
  8
MURI_ESISTENTI
100
AcDbPolyline
 90
2
 70
0
 10
1551.9394554992593
 20
-1110.3477268938746
 10
1551.455804053441
 20
-1115.184364355983
  0
LWPOLYLINE
  5
132
330
17
100
AcDbEntity
  8
MURI_ESISTENTI
100
AcDbPolyline
 90
2
 70
0
 10
1551.455804053441
 20
-1115.184364355983
 10
1551.9394554992589
 20
-1119.5374733762017
  0
LWPOLYLINE
  5
133
330
17
100
AcDbEntity
  8
MURI_ESISTENTI
100
AcDbPolyline
 90
2
 70
0
 10
1551.9394554992589
 20
-1119.5374733762017
 10
1553.8741842864597
 20
-1123.8904593924924
  0
LWPOLYLINE
  5
134
330
17
100
AcDbEntity
  8
MURI_ESISTENTI
100
AcDbPolyline
 90
2
 70
0
 10
1553.8741842864597
 20
-1123.8904593924924
 10
1557.2598674111139
 20
-1127.2761425171468
  0
LWPOLYLINE
  5
135
330
17
100
AcDbEntity
  8
MURI_ESISTENTI
100
AcDbPolyline
 90
2
 70
0
 10
1557.2598674111139
 20
-1127.2761425171468
 10
1561.6128534274046
 20
-1129.2108713043472
  0
LWPOLYLINE
  5
136
330
17
100
AcDbEntity
  8
MURI_ESISTENTI
100
AcDbPolyline
 90
2
 70
0
 10
1561.6128534274046
 20
-1129.2108713043472
 10
1565.9659624476233
 20
-1129.694522750165
  0
LWPOLYLINE
  5
137
330
17
100
AcDbEntity
  8
MURI_ESISTENTI
100
AcDbPolyline
 90
2
 70
0
 10
1565.9659624476233
 20
-1129.694522750165
 10
1570.318948463914
 20
-1129.2108713043472
  0
LWPOLYLINE
  5
138
330
17
100
AcDbEntity
  8
MURI_ESISTENTI
100
AcDbPolyline
 90
2
 70
0
 10
1570.318948463914
 20
-1129.2108713043472
 10
1574.6720574841327
 20
-1127.2761425171468
  0
LWPOLYLINE
  5
139
330
17
100
AcDbEntity
  8
MURI_ESISTENTI
100
AcDbPolyline
 90
2
 70
0
 10
1574.6720574841327
 20
-1127.2761425171468
 10
1578.057740608787
 20
-1123.8904593924924
  0
LWPOLYLINE
  5
13A
330
17
100
AcDbEntity
  8
MURI_ESISTENTI
100
AcDbPolyline
 90
2
 70
0
 10
1578.057740608787
 20
-1123.8904593924924
 10
1579.992346392059
 20
-1119.5374733762017
  0
LWPOLYLINE
  5
13B
330
17
100
AcDbEntity
  8
MURI_ESISTENTI
100
AcDbPolyline
 90
2
 70
0
 10
1579.992346392059
 20
-1119.5374733762017
 10
1580.9597722876235
 20
-1115.1843643559832
  0
LWPOLYLINE
  5
13C
330
17
100
AcDbEntity
  8
MURI_ESISTENTI
100
AcDbPolyline
 90
2
 70
0
 10
1612.398346305078
 20
-1129.2108713043472
 10
1611.431043413442
 20
-1124.3742338422387
  0
LWPOLYLINE
  5
13D
330
17
100
AcDbEntity
  8
MURI_ESISTENTI
100
AcDbPolyline
 90
2
 70
0
 10
1611.431043413442
 20
-1124.3742338422387
 10
1609.4963146262412
 20
-1120.504776267838
  0
LWPOLYLINE
  5
13E
330
17
100
AcDbEntity
  8
MURI_ESISTENTI
100
AcDbPolyline
 90
2
 70
0
 10
1609.4963146262412
 20
-1120.504776267838
 10
1606.1106315015868
 20
-1117.1190931431834
  0
LWPOLYLINE
  5
13F
330
17
100
AcDbEntity
  8
MURI_ESISTENTI
100
AcDbPolyline
 90
2
 70
0
 10
1606.1106315015868
 20
-1117.1190931431834
 10
1602.2412969311144
 20
-1115.184364355983
  0
LWPOLYLINE
  5
140
330
17
100
AcDbEntity
  8
MURI_ESISTENTI
100
AcDbPolyline
 90
2
 70
0
 10
1602.2412969311144
 20
-1115.184364355983
 10
1597.4045364650774
 20
-1114.217061464347
  0
LWPOLYLINE
  5
141
330
17
100
AcDbEntity
  8
MURI_ESISTENTI
100
AcDbPolyline
 90
2
 70
0
 10
1597.4045364650774
 20
-1114.217061464347
 10
1593.0515504487873
 20
-1115.184364355983
  0
LWPOLYLINE
  5
142
330
17
100
AcDbEntity
  8
MURI_ESISTENTI
100
AcDbPolyline
 90
2
 70
0
 10
1593.0515504487873
 20
-1115.184364355983
 10
1588.6984414285682
 20
-1117.1190931431834
  0
LWPOLYLINE
  5
143
330
17
100
AcDbEntity
  8
MURI_ESISTENTI
100
AcDbPolyline
 90
2
 70
0
 10
1588.6984414285682
 20
-1117.1190931431834
 10
1585.796409749732
 20
-1120.504776267838
  0
LWPOLYLINE
  5
144
330
17
100
AcDbEntity
  8
MURI_ESISTENTI
100
AcDbPolyline
 90
2
 70
0
 10
1585.796409749732
 20
-1120.504776267838
 10
1583.3780295167137
 20
-1124.3742338422387
  0
LWPOLYLINE
  5
145
330
17
100
AcDbEntity
  8
MURI_ESISTENTI
100
AcDbPolyline
 90
2
 70
0
 10
1583.3780295167137
 20
-1124.3742338422387
 10
1582.8943780708958
 20
-1129.2108713043472
  0
LWPOLYLINE
  5
146
330
17
100
AcDbEntity
  8
MURI_ESISTENTI
100
AcDbPolyline
 90
2
 70
0
 10
1582.8943780708958
 20
-1129.2108713043472
 10
1583.3780295167132
 20
-1133.5639803245658
  0
LWPOLYLINE
  5
147
330
17
100
AcDbEntity
  8
MURI_ESISTENTI
100
AcDbPolyline
 90
2
 70
0
 10
1583.3780295167132
 20
-1133.5639803245658
 10
1585.7964097497322
 20
-1137.9169663408563
  0
LWPOLYLINE
  5
148
330
17
100
AcDbEntity
  8
MURI_ESISTENTI
100
AcDbPolyline
 90
2
 70
0
 10
1585.7964097497322
 20
-1137.9169663408563
 10
1588.698441428568
 20
-1140.8189980196928
  0
LWPOLYLINE
  5
149
330
17
100
AcDbEntity
  8
MURI_ESISTENTI
100
AcDbPolyline
 90
2
 70
0
 10
1588.698441428568
 20
-1140.8189980196928
 10
1593.0515504487869
 20
-1143.237378252711
  0
LWPOLYLINE
  5
14A
330
17
100
AcDbEntity
  8
MURI_ESISTENTI
100
AcDbPolyline
 90
2
 70
0
 10
1593.0515504487869
 20
-1143.237378252711
 10
1597.4045364650776
 20
-1143.721029698529
  0
LWPOLYLINE
  5
14B
330
17
100
AcDbEntity
  8
MURI_ESISTENTI
100
AcDbPolyline
 90
2
 70
0
 10
1597.4045364650776
 20
-1143.721029698529
 10
1602.2412969311142
 20
-1143.237378252711
  0
LWPOLYLINE
  5
14C
330
17
100
AcDbEntity
  8
MURI_ESISTENTI
100
AcDbPolyline
 90
2
 70
0
 10
1602.2412969311142
 20
-1143.237378252711
 10
1606.1106315015868
 20
-1140.8189980196928
  0
LWPOLYLINE
  5
14D
330
17
100
AcDbEntity
  8
MURI_ESISTENTI
100
AcDbPolyline
 90
2
 70
0
 10
1606.1106315015868
 20
-1140.8189980196928
 10
1609.496314626241
 20
-1137.9169663408563
  0
LWPOLYLINE
  5
14E
330
17
100
AcDbEntity
  8
MURI_ESISTENTI
100
AcDbPolyline
 90
2
 70
0
 10
1609.496314626241
 20
-1137.9169663408563
 10
1611.431043413442
 20
-1133.563980324566
  0
LWPOLYLINE
  5
14F
330
17
100
AcDbEntity
  8
MURI_ESISTENTI
100
AcDbPolyline
 90
2
 70
0
 10
1611.431043413442
 20
-1133.563980324566
 10
1612.398346305078
 20
-1129.2108713043472
  0
LWPOLYLINE
  5
150
330
17
100
AcDbEntity
  8
MURI_ESISTENTI
100
AcDbPolyline
 90
2
 70
0
 10
1596.9208850192595
 20
-1167.9045860208566
 10
1596.4372335734417
 20
-1163.551477000638
  0
LWPOLYLINE
  5
151
330
17
100
AcDbEntity
  8
MURI_ESISTENTI
100
AcDbPolyline
 90
2
 70
0
 10
1596.4372335734417
 20
-1163.551477000638
 10
1594.0188533404232
 20
-1159.1984909843475
  0
LWPOLYLINE
  5
152
330
17
100
AcDbEntity
  8
MURI_ESISTENTI
100
AcDbPolyline
 90
2
 70
0
 10
1594.0188533404232
 20
-1159.1984909843475
 10
1591.1168216615868
 20
-1156.296459305511
  0
LWPOLYLINE
  5
153
330
17
100
AcDbEntity
  8
MURI_ESISTENTI
100
AcDbPolyline
 90
2
 70
0
 10
1591.1168216615868
 20
-1156.296459305511
 10
1586.763835645296
 20
-1153.8780790724925
  0
LWPOLYLINE
  5
154
330
17
100
AcDbEntity
  8
MURI_ESISTENTI
100
AcDbPolyline
 90
2
 70
0
 10
1586.763835645296
 20
-1153.8780790724925
 10
1582.4107266250778
 20
-1153.3944276266745
  0
LWPOLYLINE
  5
155
330
17
100
AcDbEntity
  8
MURI_ESISTENTI
100
AcDbPolyline
 90
2
 70
0
 10
1582.4107266250778
 20
-1153.3944276266745
 10
1577.5739661590408
 20
-1153.8780790724925
  0
LWPOLYLINE
  5
156
330
17
100
AcDbEntity
  8
MURI_ESISTENTI
100
AcDbPolyline
 90
2
 70
0
 10
1577.5739661590408
 20
-1153.8780790724925
 10
1573.7046315885682
 20
-1156.296459305511
  0
LWPOLYLINE
  5
157
330
17
100
AcDbEntity
  8
MURI_ESISTENTI
100
AcDbPolyline
 90
2
 70
0
 10
1573.7046315885682
 20
-1156.296459305511
 10
1570.318948463914
 20
-1159.1984909843475
  0
LWPOLYLINE
  5
158
330
17
100
AcDbEntity
  8
MURI_ESISTENTI
100
AcDbPolyline
 90
2
 70
0
 10
1570.318948463914
 20
-1159.1984909843475
 10
1568.3842196767139
 20
-1163.5514770006382
  0
LWPOLYLINE
  5
159
330
17
100
AcDbEntity
  8
MURI_ESISTENTI
100
AcDbPolyline
 90
2
 70
0
 10
1568.3842196767139
 20
-1163.5514770006382
 10
1567.4169167850773
 20
-1167.9045860208566
  0
LWPOLYLINE
  5
15A
330
17
100
AcDbEntity
  8
MURI_ESISTENTI
100
AcDbPolyline
 90
2
 70
0
 10
1567.4169167850773
 20
-1167.9045860208566
 10
1568.3842196767134
 20
-1172.741223482965
  0
LWPOLYLINE
  5
15B
330
17
100
AcDbEntity
  8
MURI_ESISTENTI
100
AcDbPolyline
 90
2
 70
0
 10
1568.3842196767134
 20
-1172.741223482965
 10
1570.3189484639138
 20
-1176.610681057366
  0
LWPOLYLINE
  5
15C
330
17
100
AcDbEntity
  8
MURI_ESISTENTI
100
AcDbPolyline
 90
2
 70
0
 10
1570.3189484639138
 20
-1176.610681057366
 10
1573.7046315885684
 20
-1179.9963641820204
  0
LWPOLYLINE
  5
15D
330
17
100
AcDbEntity
  8
MURI_ESISTENTI
100
AcDbPolyline
 90
2
 70
0
 10
1573.7046315885684
 20
-1179.9963641820204
 10
1577.5739661590408
 20
-1181.9310929692208
  0
LWPOLYLINE
  5
15E
330
17
100
AcDbEntity
  8
MURI_ESISTENTI
100
AcDbPolyline
 90
2
 70
0
 10
1577.5739661590408
 20
-1181.9310929692208
 10
1582.4107266250776
 20
-1182.898395860857
  0
LWPOLYLINE
  5
15F
330
17
100
AcDbEntity
  8
MURI_ESISTENTI
100
AcDbPolyline
 90
2
 70
0
 10
1582.4107266250776
 20
-1182.898395860857
 10
1586.7638356452962
 20
-1181.9310929692206
  0
LWPOLYLINE
  5
160
330
17
100
AcDbEntity
  8
MURI_ESISTENTI
100
AcDbPolyline
 90
2
 70
0
 10
1586.7638356452962
 20
-1181.9310929692206
 10
1591.1168216615868
 20
-1179.9963641820204
  0
LWPOLYLINE
  5
161
330
17
100
AcDbEntity
  8
MURI_ESISTENTI
100
AcDbPolyline
 90
2
 70
0
 10
1591.1168216615868
 20
-1179.9963641820204
 10
1594.0188533404232
 20
-1176.6106810573658
  0
LWPOLYLINE
  5
162
330
17
100
AcDbEntity
  8
MURI_ESISTENTI
100
AcDbPolyline
 90
2
 70
0
 10
1594.0188533404232
 20
-1176.6106810573658
 10
1596.4372335734415
 20
-1172.741223482965
  0
LWPOLYLINE
  5
163
330
17
100
AcDbEntity
  8
MURI_ESISTENTI
100
AcDbPolyline
 90
2
 70
0
 10
1596.4372335734415
 20
-1172.741223482965
 10
1596.9208850192595
 20
-1167.9045860208566
  0
LWPOLYLINE
  5
164
330
17
100
AcDbEntity
  8
MURI_ESISTENTI
100
AcDbPolyline
 90
2
 70
0
 10
1564.5148851062409
 20
-1150.976047393656
 10
1563.5475822146047
 20
-1146.6230613773655
  0
LWPOLYLINE
  5
165
330
17
100
AcDbEntity
  8
MURI_ESISTENTI
100
AcDbPolyline
 90
2
 70
0
 10
1563.5475822146047
 20
-1146.6230613773655
 10
1561.6128534274046
 20
-1142.7537268068932
  0
LWPOLYLINE
  5
166
330
17
100
AcDbEntity
  8
MURI_ESISTENTI
100
AcDbPolyline
 90
2
 70
0
 10
1561.6128534274046
 20
-1142.7537268068932
 10
1558.22717030275
 20
-1139.3679206783106
  0
LWPOLYLINE
  5
167
330
17
100
AcDbEntity
  8
MURI_ESISTENTI
100
AcDbPolyline
 90
2
 70
0
 10
1558.22717030275
 20
-1139.3679206783106
 10
1554.3578357322779
 20
-1136.9496634492205
  0
LWPOLYLINE
  5
168
330
17
100
AcDbEntity
  8
MURI_ESISTENTI
100
AcDbPolyline
 90
2
 70
0
 10
1554.3578357322779
 20
-1136.9496634492205
 10
1549.5210752662408
 20
-1136.465888999474
  0
LWPOLYLINE
  5
169
330
17
100
AcDbEntity
  8
MURI_ESISTENTI
100
AcDbPolyline
 90
2
 70
0
 10
1549.5210752662408
 20
-1136.465888999474
 10
1545.16808924995
 20
-1136.9496634492202
  0
LWPOLYLINE
  5
16A
330
17
100
AcDbEntity
  8
MURI_ESISTENTI
100
AcDbPolyline
 90
2
 70
0
 10
1545.16808924995
 20
-1136.9496634492202
 10
1540.8149802297316
 20
-1139.3679206783106
  0
LWPOLYLINE
  5
16B
330
17
100
AcDbEntity
  8
MURI_ESISTENTI
100
AcDbPolyline
 90
2
 70
0
 10
1540.8149802297316
 20
-1139.3679206783106
 10
1537.9129485508952
 20
-1142.7537268068932
  0
LWPOLYLINE
  5
16C
330
17
100
AcDbEntity
  8
MURI_ESISTENTI
100
AcDbPolyline
 90
2
 70
0
 10
1537.9129485508952
 20
-1142.7537268068932
 10
1535.494691321805
 20
-1146.6230613773655
  0
LWPOLYLINE
  5
16D
330
17
100
AcDbEntity
  8
MURI_ESISTENTI
100
AcDbPolyline
 90
2
 70
0
 10
1535.494691321805
 20
-1146.6230613773655
 10
1535.0109168720585
 20
-1150.976047393656
  0
LWPOLYLINE
  5
16E
330
17
100
AcDbEntity
  8
MURI_ESISTENTI
100
AcDbPolyline
 90
2
 70
0
 10
1535.0109168720585
 20
-1150.976047393656
 10
1535.4946913218048
 20
-1155.8128078596928
  0
LWPOLYLINE
  5
16F
330
17
100
AcDbEntity
  8
MURI_ESISTENTI
100
AcDbPolyline
 90
2
 70
0
 10
1535.4946913218048
 20
-1155.8128078596928
 10
1537.9129485508954
 20
-1159.6821424301654
  0
LWPOLYLINE
  5
170
330
17
100
AcDbEntity
  8
MURI_ESISTENTI
100
AcDbPolyline
 90
2
 70
0
 10
1537.9129485508954
 20
-1159.6821424301654
 10
1540.8149802297314
 20
-1163.0678255548198
  0
LWPOLYLINE
  5
171
330
17
100
AcDbEntity
  8
MURI_ESISTENTI
100
AcDbPolyline
 90
2
 70
0
 10
1540.8149802297314
 20
-1163.0678255548198
 10
1545.16808924995
 20
-1165.0025543420202
  0
LWPOLYLINE
  5
172
330
17
100
AcDbEntity
  8
MURI_ESISTENTI
100
AcDbPolyline
 90
2
 70
0
 10
1545.16808924995
 20
-1165.0025543420202
 10
1549.5210752662408
 20
-1165.9698572336563
  0
LWPOLYLINE
  5
173
330
17
100
AcDbEntity
  8
MURI_ESISTENTI
100
AcDbPolyline
 90
2
 70
0
 10
1549.5210752662408
 20
-1165.9698572336563
 10
1554.3578357322779
 20
-1165.0025543420204
  0
LWPOLYLINE
  5
174
330
17
100
AcDbEntity
  8
MURI_ESISTENTI
100
AcDbPolyline
 90
2
 70
0
 10
1554.3578357322779
 20
-1165.0025543420204
 10
1558.22717030275
 20
-1163.0678255548198
  0
LWPOLYLINE
  5
175
330
17
100
AcDbEntity
  8
MURI_ESISTENTI
100
AcDbPolyline
 90
2
 70
0
 10
1558.22717030275
 20
-1163.0678255548198
 10
1561.6128534274046
 20
-1159.6821424301656
  0
LWPOLYLINE
  5
176
330
17
100
AcDbEntity
  8
MURI_ESISTENTI
100
AcDbPolyline
 90
2
 70
0
 10
1561.6128534274046
 20
-1159.6821424301656
 10
1563.5475822146052
 20
-1155.812807859693
  0
LWPOLYLINE
  5
177
330
17
100
AcDbEntity
  8
MURI_ESISTENTI
100
AcDbPolyline
 90
2
 70
0
 10
1563.5475822146052
 20
-1155.812807859693
 10
1564.5148851062409
 20
-1150.976047393656
  0
LWPOLYLINE
  5
178
330
17
100
AcDbEntity
  8
MURI_ESISTENTI
100
AcDbPolyline
 90
2
 70
0
 10
1572.2536772511144
 20
-1115.1843643559832
 10
1571.7700258052962
 20
-1111.7986812313286
  0
LWPOLYLINE
  5
179
330
17
100
AcDbEntity
  8
MURI_ESISTENTI
100
AcDbPolyline
 90
2
 70
0
 10
1571.7700258052962
 20
-1111.7986812313286
 10
1569.351645572278
 20
-1109.8640754480566
  0
LWPOLYLINE
  5
17A
330
17
100
AcDbEntity
  8
MURI_ESISTENTI
100
AcDbPolyline
 90
2
 70
0
 10
1569.351645572278
 20
-1109.8640754480566
 10
1565.9659624476233
 20
-1108.8966495524921
  0
LWPOLYLINE
  5
17B
330
17
100
AcDbEntity
  8
MURI_ESISTENTI
100
AcDbPolyline
 90
2
 70
0
 10
1565.9659624476233
 20
-1108.8966495524921
 10
1563.0639307687868
 20
-1109.8640754480564
  0
LWPOLYLINE
  5
17C
330
17
100
AcDbEntity
  8
MURI_ESISTENTI
100
AcDbPolyline
 90
2
 70
0
 10
1563.0639307687868
 20
-1109.8640754480564
 10
1560.6455505357685
 20
-1111.7986812313288
  0
LWPOLYLINE
  5
17D
330
17
100
AcDbEntity
  8
MURI_ESISTENTI
100
AcDbPolyline
 90
2
 70
0
 10
1560.6455505357685
 20
-1111.7986812313288
 10
1559.6782476441324
 20
-1115.1843643559832
  0
LWPOLYLINE
  5
17E
330
17
100
AcDbEntity
  8
MURI_ESISTENTI
100
AcDbPolyline
 90
2
 70
0
 10
1559.6782476441324
 20
-1115.1843643559832
 10
1560.6455505357683
 20
-1118.5701704845658
  0
LWPOLYLINE
  5
17F
330
17
100
AcDbEntity
  8
MURI_ESISTENTI
100
AcDbPolyline
 90
2
 70
0
 10
1560.6455505357683
 20
-1118.5701704845658
 10
1563.0639307687868
 20
-1120.5047762678378
  0
LWPOLYLINE
  5
180
330
17
100
AcDbEntity
  8
MURI_ESISTENTI
100
AcDbPolyline
 90
2
 70
0
 10
1563.0639307687868
 20
-1120.5047762678378
 10
1565.9659624476233
 20
-1121.4722021634022
  0
LWPOLYLINE
  5
181
330
17
100
AcDbEntity
  8
MURI_ESISTENTI
100
AcDbPolyline
 90
2
 70
0
 10
1565.9659624476233
 20
-1121.4722021634022
 10
1569.351645572278
 20
-1120.5047762678378
  0
LWPOLYLINE
  5
182
330
17
100
AcDbEntity
  8
MURI_ESISTENTI
100
AcDbPolyline
 90
2
 70
0
 10
1569.351645572278
 20
-1120.5047762678378
 10
1571.7700258052962
 20
-1118.5701704845658
  0
LWPOLYLINE
  5
183
330
17
100
AcDbEntity
  8
MURI_ESISTENTI
100
AcDbPolyline
 90
2
 70
0
 10
1571.7700258052962
 20
-1118.5701704845658
 10
1572.2536772511144
 20
-1115.1843643559832
  0
LWPOLYLINE
  5
184
330
17
100
AcDbEntity
  8
MURI_ESISTENTI
100
AcDbPolyline
 90
2
 70
0
 10
1604.1759027143867
 20
-1128.7272198585292
 10
1603.6922512685687
 20
-1125.3415367338746
  0
LWPOLYLINE
  5
185
330
17
100
AcDbEntity
  8
MURI_ESISTENTI
100
AcDbPolyline
 90
2
 70
0
 10
1603.6922512685687
 20
-1125.3415367338746
 10
1601.2738710355502
 20
-1123.4068079466742
  0
LWPOLYLINE
  5
186
330
17
100
AcDbEntity
  8
MURI_ESISTENTI
100
AcDbPolyline
 90
2
 70
0
 10
1601.2738710355502
 20
-1123.4068079466742
 10
1597.8881879108956
 20
-1122.4395050550384
  0
LWPOLYLINE
  5
187
330
17
100
AcDbEntity
  8
MURI_ESISTENTI
100
AcDbPolyline
 90
2
 70
0
 10
1597.8881879108956
 20
-1122.4395050550384
 10
1594.986156232059
 20
-1123.4068079466742
  0
LWPOLYLINE
  5
188
330
17
100
AcDbEntity
  8
MURI_ESISTENTI
100
AcDbPolyline
 90
2
 70
0
 10
1594.986156232059
 20
-1123.4068079466742
 10
1592.567775999041
 20
-1125.3415367338746
  0
LWPOLYLINE
  5
189
330
17
100
AcDbEntity
  8
MURI_ESISTENTI
100
AcDbPolyline
 90
2
 70
0
 10
1592.567775999041
 20
-1125.3415367338746
 10
1591.600473107405
 20
-1128.7272198585292
  0
LWPOLYLINE
  5
18A
330
17
100
AcDbEntity
  8
MURI_ESISTENTI
100
AcDbPolyline
 90
2
 70
0
 10
1591.600473107405
 20
-1128.7272198585292
 10
1592.5677759990406
 20
-1132.1129029831834
  0
LWPOLYLINE
  5
18B
330
17
100
AcDbEntity
  8
MURI_ESISTENTI
100
AcDbPolyline
 90
2
 70
0
 10
1592.5677759990406
 20
-1132.1129029831834
 10
1594.9861562320596
 20
-1134.047631770384
  0
LWPOLYLINE
  5
18C
330
17
100
AcDbEntity
  8
MURI_ESISTENTI
100
AcDbPolyline
 90
2
 70
0
 10
1594.9861562320596
 20
-1134.047631770384
 10
1597.8881879108953
 20
-1135.0149346620199
  0
LWPOLYLINE
  5
18D
330
17
100
AcDbEntity
  8
MURI_ESISTENTI
100
AcDbPolyline
 90
2
 70
0
 10
1597.8881879108953
 20
-1135.0149346620199
 10
1601.27387103555
 20
-1134.047631770384
  0
LWPOLYLINE
  5
18E
330
17
100
AcDbEntity
  8
MURI_ESISTENTI
100
AcDbPolyline
 90
2
 70
0
 10
1601.27387103555
 20
-1134.047631770384
 10
1603.692251268569
 20
-1132.1129029831836
  0
LWPOLYLINE
  5
18F
330
17
100
AcDbEntity
  8
MURI_ESISTENTI
100
AcDbPolyline
 90
2
 70
0
 10
1603.692251268569
 20
-1132.1129029831836
 10
1604.1759027143867
 20
-1128.7272198585292
  0
LWPOLYLINE
  5
190
330
17
100
AcDbEntity
  8
MURI_ESISTENTI
100
AcDbPolyline
 90
2
 70
0
 10
1555.3251386239135
 20
-1151.9434732892205
 10
1554.3578357322776
 20
-1149.041441610384
  0
LWPOLYLINE
  5
191
330
17
100
AcDbEntity
  8
MURI_ESISTENTI
100
AcDbPolyline
 90
2
 70
0
 10
1554.3578357322776
 20
-1149.041441610384
 10
1552.423106945077
 20
-1146.6230613773657
  0
LWPOLYLINE
  5
192
330
17
100
AcDbEntity
  8
MURI_ESISTENTI
100
AcDbPolyline
 90
2
 70
0
 10
1552.423106945077
 20
-1146.6230613773657
 10
1549.0374238204226
 20
-1145.6557584857296
  0
LWPOLYLINE
  5
193
330
17
100
AcDbEntity
  8
MURI_ESISTENTI
100
AcDbPolyline
 90
2
 70
0
 10
1549.0374238204226
 20
-1145.6557584857296
 10
1545.6517406957682
 20
-1146.6230613773655
  0
LWPOLYLINE
  5
194
330
17
100
AcDbEntity
  8
MURI_ESISTENTI
100
AcDbPolyline
 90
2
 70
0
 10
1545.6517406957682
 20
-1146.6230613773655
 10
1543.7170119085679
 20
-1149.041441610384
  0
LWPOLYLINE
  5
195
330
17
100
AcDbEntity
  8
MURI_ESISTENTI
100
AcDbPolyline
 90
2
 70
0
 10
1543.7170119085679
 20
-1149.041441610384
 10
1542.749709016932
 20
-1151.9434732892205
  0
LWPOLYLINE
  5
196
330
17
100
AcDbEntity
  8
MURI_ESISTENTI
100
AcDbPolyline
 90
2
 70
0
 10
1542.749709016932
 20
-1151.9434732892205
 10
1543.717011908568
 20
-1155.329156413875
  0
LWPOLYLINE
  5
197
330
17
100
AcDbEntity
  8
MURI_ESISTENTI
100
AcDbPolyline
 90
2
 70
0
 10
1543.717011908568
 20
-1155.329156413875
 10
1545.6517406957685
 20
-1157.7475366468934
  0
LWPOLYLINE
  5
198
330
17
100
AcDbEntity
  8
MURI_ESISTENTI
100
AcDbPolyline
 90
2
 70
0
 10
1545.6517406957685
 20
-1157.7475366468934
 10
1549.0374238204226
 20
-1158.7148395385293
  0
LWPOLYLINE
  5
199
330
17
100
AcDbEntity
  8
MURI_ESISTENTI
100
AcDbPolyline
 90
2
 70
0
 10
1549.0374238204226
 20
-1158.7148395385293
 10
1552.4231069450768
 20
-1157.7475366468932
  0
LWPOLYLINE
  5
19A
330
17
100
AcDbEntity
  8
MURI_ESISTENTI
100
AcDbPolyline
 90
2
 70
0
 10
1552.4231069450768
 20
-1157.7475366468932
 10
1554.3578357322779
 20
-1155.3291564138751
  0
LWPOLYLINE
  5
19B
330
17
100
AcDbEntity
  8
MURI_ESISTENTI
100
AcDbPolyline
 90
2
 70
0
 10
1554.3578357322779
 20
-1155.3291564138751
 10
1555.3251386239135
 20
-1151.9434732892205
  0
LWPOLYLINE
  5
19C
330
17
100
AcDbEntity
  8
MURI_ESISTENTI
100
AcDbPolyline
 90
2
 70
0
 10
1589.1820928743862
 20
-1167.4209345750385
 10
1588.2147899827505
 20
-1164.035251450384
  0
LWPOLYLINE
  5
19D
330
17
100
AcDbEntity
  8
MURI_ESISTENTI
100
AcDbPolyline
 90
2
 70
0
 10
1588.2147899827505
 20
-1164.035251450384
 10
1586.28006119555
 20
-1161.6168712173658
  0
LWPOLYLINE
  5
19E
330
17
100
AcDbEntity
  8
MURI_ESISTENTI
100
AcDbPolyline
 90
2
 70
0
 10
1586.28006119555
 20
-1161.6168712173658
 10
1582.8943780708955
 20
-1161.1332197715478
  0
LWPOLYLINE
  5
19F
330
17
100
AcDbEntity
  8
MURI_ESISTENTI
100
AcDbPolyline
 90
2
 70
0
 10
1582.8943780708955
 20
-1161.1332197715478
 10
1579.5086949462411
 20
-1161.6168712173658
  0
LWPOLYLINE
  5
1A0
330
17
100
AcDbEntity
  8
MURI_ESISTENTI
100
AcDbPolyline
 90
2
 70
0
 10
1579.5086949462411
 20
-1161.6168712173658
 10
1577.5739661590408
 20
-1164.035251450384
  0
LWPOLYLINE
  5
1A1
330
17
100
AcDbEntity
  8
MURI_ESISTENTI
100
AcDbPolyline
 90
2
 70
0
 10
1577.5739661590408
 20
-1164.035251450384
 10
1576.6066632674044
 20
-1167.4209345750387
  0
LWPOLYLINE
  5
1A2
330
17
100
AcDbEntity
  8
MURI_ESISTENTI
100
AcDbPolyline
 90
2
 70
0
 10
1576.6066632674044
 20
-1167.4209345750387
 10
1577.5739661590408
 20
-1170.3229662538752
  0
LWPOLYLINE
  5
1A3
330
17
100
AcDbEntity
  8
MURI_ESISTENTI
100
AcDbPolyline
 90
2
 70
0
 10
1577.5739661590408
 20
-1170.3229662538752
 10
1579.5086949462411
 20
-1172.7412234829653
  0
LWPOLYLINE
  5
1A4
330
17
100
AcDbEntity
  8
MURI_ESISTENTI
100
AcDbPolyline
 90
2
 70
0
 10
1579.5086949462411
 20
-1172.7412234829653
 10
1582.8943780708958
 20
-1173.7086493785296
  0
LWPOLYLINE
  5
1A5
330
17
100
AcDbEntity
  8
MURI_ESISTENTI
100
AcDbPolyline
 90
2
 70
0
 10
1582.8943780708958
 20
-1173.7086493785296
 10
1586.28006119555
 20
-1172.741223482965
  0
LWPOLYLINE
  5
1A6
330
17
100
AcDbEntity
  8
MURI_ESISTENTI
100
AcDbPolyline
 90
2
 70
0
 10
1586.28006119555
 20
-1172.741223482965
 10
1588.2147899827503
 20
-1170.322966253875
  0
LWPOLYLINE
  5
1A7
330
17
100
AcDbEntity
  8
MURI_ESISTENTI
100
AcDbPolyline
 90
2
 70
0
 10
1588.2147899827503
 20
-1170.322966253875
 10
1589.1820928743862
 20
-1167.4209345750385
  0
LWPOLYLINE
  5
1A8
330
17
100
AcDbEntity
  8
MURI_ESISTENTI
100
AcDbPolyline
 90
2
 70
0
 10
1553.8741842864597
 20
-1071.170360731547
 10
1535.0109168720583
 20
-1116.6354416973652
  0
LWPOLYLINE
  5
1A9
330
17
100
AcDbEntity
  8
MURI_ESISTENTI
100
AcDbPolyline
 90
2
 70
0
 10
1535.0109168720583
 20
-1116.6354416973652
 10
1526.7885962852956
 20
-1113.733410018529
  0
LWPOLYLINE
  5
1AA
330
17
100
AcDbEntity
  8
MURI_ESISTENTI
100
AcDbPolyline
 90
2
 70
0
 10
1526.7885962852956
 20
-1113.733410018529
 10
1450.3684697439123
 20
-1081.811061551328
  0
LWPOLYLINE
  5
1AB
330
17
100
AcDbEntity
  8
MURI_ESISTENTI
100
AcDbPolyline
 90
2
 70
0
 10
1535.0109168720583
 20
-1116.6354416973652
 10
1510.8273605497313
 20
-1173.7086493785293
  0
LWPOLYLINE
  5
1AC
330
17
100
AcDbEntity
  8
MURI_ESISTENTI
100
AcDbPolyline
 90
2
 70
0
 10
1447.9502125148224
 20
-1087.131473463183
 10
1532.5926596429686
 20
-1122.4395050550381
  0
LWPOLYLINE
  5
1AD
330
17
100
AcDbEntity
  8
MURI_ESISTENTI
100
AcDbPolyline
 90
2
 70
0
 10
1447.466438065076
 20
-1096.3212199455102
 10
1438.760466032495
 20
-1117.6027445890013
  0
LWPOLYLINE
  5
1AE
330
17
100
AcDbEntity
  8
MURI_ESISTENTI
100
AcDbPolyline
 90
2
 70
0
 10
1438.760466032495
 20
-1117.6027445890013
 10
1472.617420282968
 20
-1133.0802058748195
  0
LWPOLYLINE
  5
1AF
330
17
100
AcDbEntity
  8
MURI_ESISTENTI
100
AcDbPolyline
 90
2
 70
0
 10
1472.617420282968
 20
-1133.0802058748195
 10
1482.2908182111134
 20
-1110.8313783396925
  0
LWPOLYLINE
  5
1B0
330
17
100
AcDbEntity
  8
MURI_ESISTENTI
100
AcDbPolyline
 90
2
 70
0
 10
1482.2908182111134
 20
-1110.8313783396925
 10
1444.564529390168
 20
-1095.3539170538745
  0
LWPOLYLINE
  5
1B1
330
17
100
AcDbEntity
  8
MURI_ESISTENTI
100
AcDbPolyline
 90
2
 70
0
 10
1482.2908182111134
 20
-1110.8313783396925
 10
1522.435487265077
 20
-1128.243568412711
  0
LWPOLYLINE
  5
1B2
330
17
100
AcDbEntity
  8
MURI_ESISTENTI
100
AcDbPolyline
 90
2
 70
0
 10
1522.435487265077
 20
-1128.243568412711
 10
1509.860057658095
 20
-1158.7148395385293
  0
LWPOLYLINE
  5
1B3
330
17
100
AcDbEntity
  8
MURI_ESISTENTI
100
AcDbPolyline
 90
2
 70
0
 10
1513.2457407827494
 20
-1150.976047393656
 10
1472.617420282968
 20
-1133.0802058748195
  0
LWPOLYLINE
  5
1B4
330
17
100
AcDbEntity
  8
MURI_ESISTENTI
100
AcDbPolyline
 90
2
 70
0
 10
1479.872437978095
 20
-1136.4658889994741
 10
1489.5458359062404
 20
-1113.733410018529
  0
LWPOLYLINE
  5
1B5
330
17
100
AcDbEntity
  8
MURI_ESISTENTI
100
AcDbPolyline
 90
2
 70
0
 10
1530.17427940995
 20
-1127.2761425171468
 10
1524.370216052277
 20
-1124.8578852880564
  0
LWPOLYLINE
  5
1B6
330
17
100
AcDbEntity
  8
MURI_ESISTENTI
100
AcDbPolyline
 90
2
 70
0
 10
1524.370216052277
 20
-1124.8578852880564
 10
1446.0154837276225
 20
-1091.9682339292199
  0
LWPOLYLINE
  5
1B7
330
17
100
AcDbEntity
  8
MURI_ESISTENTI
100
AcDbPolyline
 90
2
 70
0
 10
1453.7542758724956
 20
-785.3206708799082
 10
1480.3560894239129
 20
-796.4451461494358
  0
LWPOLYLINE
  5
1B8
330
17
100
AcDbEntity
  8
MURI_ESISTENTI
100
AcDbPolyline
 90
2
 70
0
 10
1480.3560894239129
 20
-796.4451461494358
 10
1438.276691582749
 20
-893.6630228845637
  0
LWPOLYLINE
  5
1B9
330
17
100
AcDbEntity
  8
MURI_ESISTENTI
100
AcDbPolyline
 90
2
 70
0
 10
1438.276691582749
 20
-893.6630228845637
 10
1411.1911035815851
 20
-881.5712447233999
  0
LWPOLYLINE
  5
1BA
330
17
100
AcDbEntity
  8
MURI_ESISTENTI
100
AcDbPolyline
 90
2
 70
0
 10
1411.1911035815851
 20
-881.5712447233999
 10
1453.2705014227492
 20
-784.8370194340902
  0
LWPOLYLINE
  5
1BB
330
17
100
AcDbEntity
  8
MURI_ESISTENTI
100
AcDbPolyline
 90
2
 70
0
 10
1573.2209801427502
 20
-827.8837201668903
 10
1775.8791772036968
 20
-913.4935931906004
  0
LWPOLYLINE
  5
1BC
330
17
100
AcDbEntity
  8
MURI_ESISTENTI
100
AcDbPolyline
 90
2
 70
0
 10
1589.6657443202043
 20
-918.8140051024553
 10
1619.6533640002046
 20
-847.7142904729271
  0
LWPOLYLINE
  5
1BD
330
17
100
AcDbEntity
  8
MURI_ESISTENTI
100
AcDbPolyline
 90
2
 70
0
 10
1775.8791772036968
 20
-913.4935931906004
 10
1745.4079060778788
 20
-875.283529919909
  0
LWPOLYLINE
  5
1BE
330
17
100
AcDbEntity
  8
MURI_ESISTENTI
100
AcDbPolyline
 90
2
 70
0
 10
1745.4079060778788
 20
-875.283529919909
 10
1742.022222953224
 20
-878.1855615987455
  0
LWPOLYLINE
  5
1BF
330
17
100
AcDbEntity
  8
MURI_ESISTENTI
100
AcDbPolyline
 90
2
 70
0
 10
1742.022222953224
 20
-878.1855615987455
 10
1769.107810954388
 20
-910.5915615117641
  0
LWPOLYLINE
  5
1C0
330
17
100
AcDbEntity
  8
MURI_ESISTENTI
100
AcDbPolyline
 90
2
 70
0
 10
1725.0936843260238
 20
-892.2120685471095
 10
1702.3612053450784
 20
-862.2244488671093
  0
LWPOLYLINE
  5
1C1
330
17
100
AcDbEntity
  8
MURI_ESISTENTI
100
AcDbPolyline
 90
2
 70
0
 10
1702.3612053450784
 20
-862.2244488671093
 10
1706.2305399155507
 20
-858.8387657424547
  0
LWPOLYLINE
  5
1C2
330
17
100
AcDbEntity
  8
MURI_ESISTENTI
100
AcDbPolyline
 90
2
 70
0
 10
1706.2305399155507
 20
-858.8387657424547
 10
1732.3488250250787
 20
-895.1141002259459
  0
LWPOLYLINE
  5
1C3
330
17
100
AcDbEntity
  8
MURI_ESISTENTI
100
AcDbPolyline
 90
2
 70
0
 10
1660.7654589497329
 20
-865.1264805459457
 10
1695.5898390957698
 20
-866.5774348833997
  0
LWPOLYLINE
  5
1C4
330
17
100
AcDbEntity
  8
MURI_ESISTENTI
100
AcDbPolyline
 90
2
 70
0
 10
1695.5898390957698
 20
-866.5774348833997
 10
1696.0734905415877
 20
-861.7407974212913
  0
LWPOLYLINE
  5
1C5
330
17
100
AcDbEntity
  8
MURI_ESISTENTI
100
AcDbPolyline
 90
2
 70
0
 10
1696.0734905415877
 20
-861.7407974212913
 10
1650.6084095757692
 20
-860.7733715257268
  0
LWPOLYLINE
  5
1C6
330
17
100
AcDbEntity
  8
MURI_ESISTENTI
100
AcDbPolyline
 90
5
 70
0
 10
1855.2012124199882
 20
-877.7019101529274
 10
1857.1359412071884
 20
-872.8651496868906
 10
1809.7361314541697
 20
-851.5836250433996
 10
1807.8015256708975
 20
-857.3876884010724
 10
1855.2012124199882
 20
-877.7019101529274
  0
LWPOLYLINE
  5
1C7
330
17
100
AcDbEntity
  8
MURI_ESISTENTI
100
AcDbPolyline
 90
2
 70
0
 10
1862.9400045648613
 20
-884.4732764022363
 10
1799.095430634388
 20
-858.3551142966368
  0
LWPOLYLINE
  5
1C8
330
17
100
AcDbEntity
  8
MURI_ESISTENTI
100
AcDbPolyline
 90
2
 70
0
 10
1844.0768601543884
 20
-771.2942869354723
 10
1891.4765469034796
 20
-792.5758115789635
  0
LWPOLYLINE
  5
1C9
330
17
100
AcDbEntity
  8
MURI_ESISTENTI
100
AcDbPolyline
 90
2
 70
0
 10
1891.4765469034796
 20
-792.5758115789635
 10
1889.5419411202072
 20
-797.412449041072
  0
LWPOLYLINE
  5
1CA
330
17
100
AcDbEntity
  8
MURI_ESISTENTI
100
AcDbPolyline
 90
2
 70
0
 10
1889.5419411202072
 20
-797.412449041072
 10
1842.1421313671885
 20
-777.0983502931451
  0
LWPOLYLINE
  5
1CB
330
17
100
AcDbEntity
  8
MURI_ESISTENTI
100
AcDbPolyline
 90
2
 70
0
 10
1842.1421313671885
 20
-777.0983502931451
 10
1844.0768601543884
 20
-771.2942869354723
  0
LWPOLYLINE
  5
1CC
330
17
100
AcDbEntity
  8
MURI_ESISTENTI
100
AcDbPolyline
 90
2
 70
0
 10
1596.4372335734415
 20
-1360.40573370784
 10
1643.836920322532
 20
-1381.6871353474028
  0
LWPOLYLINE
  5
1CD
330
17
100
AcDbEntity
  8
MURI_ESISTENTI
100
AcDbPolyline
 90
2
 70
0
 10
1649.157332234387
 20
-1389.9097019420226
 10
1586.763835645296
 20
-1362.8239909369302
  0
LWPOLYLINE
  5
1CE
330
17
100
AcDbEntity
  8
MURI_ESISTENTI
100
AcDbPolyline
 90
2
 70
0
 10
1643.836920322532
 20
-1381.6871353474028
 10
1641.4186630934419
 20
-1386.5238958134396
  0
LWPOLYLINE
  5
1CF
330
17
100
AcDbEntity
  8
MURI_ESISTENTI
100
AcDbPolyline
 90
2
 70
0
 10
1594.5025047862412
 20
-1366.209797065513
 10
1596.4372335734415
 20
-1360.40573370784
  0
LWPOLYLINE
  5
1D0
330
17
100
AcDbEntity
  8
MURI_ESISTENTI
100
AcDbPolyline
 90
2
 70
0
 10
1553.8741842864597
 20
-1441.1787232615854
 10
1616.2676808755502
 20
-1468.2643112627493
  0
LWPOLYLINE
  5
1D1
330
17
100
AcDbEntity
  8
MURI_ESISTENTI
100
AcDbPolyline
 90
2
 70
0
 10
1607.5615858390408
 20
-1464.8786281380947
 10
1605.6269800557686
 20
-1469.7153886041315
  0
LWPOLYLINE
  5
1D2
330
17
100
AcDbEntity
  8
MURI_ESISTENTI
100
AcDbPolyline
 90
2
 70
0
 10
1605.6269800557686
 20
-1469.7153886041315
 10
1558.2271703027502
 20
-1449.4011668522764
  0
LWPOLYLINE
  5
1D3
330
17
100
AcDbEntity
  8
MURI_ESISTENTI
100
AcDbPolyline
 90
2
 70
0
 10
1558.2271703027502
 20
-1449.4011668522764
 10
1560.1618990899506
 20
-1443.5971034946037
  0
LWPOLYLINE
  5
1D4
330
17
100
AcDbEntity
  8
MURI_ESISTENTI
100
AcDbPolyline
 90
2
 70
0
 10
1564.0312336604227
 20
-1489.5458359062402
 10
1644.3206947722786
 20
-1522.9192617148233
  0
LWPOLYLINE
  5
1D5
330
17
100
AcDbEntity
  8
MURI_ESISTENTI
100
AcDbPolyline
 90
2
 70
0
 10
1644.3206947722786
 20
-1522.9192617148233
 10
1548.0701209287865
 20
-1752.6629237730056
  0
LWPOLYLINE
  5
1D6
330
17
100
AcDbEntity
  8
MURI_ESISTENTI
100
AcDbPolyline
 90
2
 70
0
 10
1548.0701209287865
 20
-1752.6629237730056
 10
1506.4743745334408
 20
-1735.2508567039154
  0
LWPOLYLINE
  5
1D7
330
17
100
AcDbEntity
  8
MURI_ESISTENTI
100
AcDbPolyline
 90
2
 70
0
 10
1609.496314626241
 20
-1759.4344130262427
 10
1513.2457407827496
 20
-1718.805969522533
  0
LWPOLYLINE
  5
1D8
330
17
100
AcDbEntity
  8
MURI_ESISTENTI
100
AcDbPolyline
 90
2
 70
0
 10
1598.3718393567137
 20
-1786.5198780234784
 10
1502.1213885171503
 20
-1746.3752089695147
  0
LWPOLYLINE
  5
1D9
330
17
100
AcDbEntity
  8
MURI_ESISTENTI
100
AcDbPolyline
 90
2
 70
0
 10
1585.7964097497322
 20
-1813.1218145788243
 10
1489.0621844604223
 20
-1772.9771455248606
  0
LWPOLYLINE
  5
1DA
330
17
100
AcDbEntity
  8
MURI_ESISTENTI
100
AcDbPolyline
 90
2
 70
0
 10
1576.6066632674047
 20
-1839.72375113417
 10
1480.3560894239133
 20
-1799.0953076304602
  0
LWPOLYLINE
  5
1DB
330
17
100
AcDbEntity
  8
MURI_ESISTENTI
100
AcDbPolyline
 90
2
 70
0
 10
1565.9659624476233
 20
-1865.3582617939514
 10
1469.2317371583138
 20
-1825.213592739988
  0
LWPOLYLINE
  5
1DC
330
17
100
AcDbEntity
  8
MURI_ESISTENTI
100
AcDbPolyline
 90
2
 70
0
 10
1554.8414871780958
 20
-1894.3785785823159
 10
1458.5909133346038
 20
-1854.2339095283521
  0
LWPOLYLINE
  5
1DD
330
17
100
AcDbEntity
  8
MURI_ESISTENTI
100
AcDbPolyline
 90
2
 70
0
 10
1544.684437804132
 20
-1918.0784834588248
 10
1447.9502125148226
 20
-1877.9338144048616
  0
LWPOLYLINE
  5
1DE
330
17
100
AcDbEntity
  8
MURI_ESISTENTI
100
AcDbPolyline
 90
5
 70
0
 10
1437.793040136931
 20
-1742.9895258448605
 10
1436.342085799477
 20
-1748.7935892025334
 10
1483.258121102749
 20
-1769.1076879504596
 10
1485.676501335768
 20
-1764.2710504883514
 10
1437.793040136931
 20
-1742.9895258448605
  0
LWPOLYLINE
  5
1DF
330
17
100
AcDbEntity
  8
MURI_ESISTENTI
100
AcDbPolyline
 90
5
 70
0
 10
1404.903388778094
 20
-1823.7625153986057
 10
1402.968782994822
 20
-1829.5667017602066
 10
1450.3684697439128
 20
-1849.8808005081335
 10
1452.3031985311125
 20
-1845.0441630460246
 10
1404.903388778094
 20
-1823.7625153986057
  0
LWPOLYLINE
  5
1E0
330
17
100
AcDbEntity
  8
MURI_ESISTENTI
100
AcDbPolyline
 90
2
 70
0
 10
1458.5909133346038
 20
-1854.2339095283521
 10
1390.3933533878399
 20
-1828.1156244188242
  0
LWPOLYLINE
  5
1E1
330
17
100
AcDbEntity
  8
MURI_ESISTENTI
100
AcDbPolyline
 90
2
 70
0
 10
1390.3933533878399
 20
-1828.1156244188242
 10
1427.6359907629678
 20
-1737.6691139330055
  0
LWPOLYLINE
  5
1E2
330
17
100
AcDbEntity
  8
MURI_ESISTENTI
100
AcDbPolyline
 90
5
 70
0
 10
1254.4817619362034
 20
-1695.1060646460235
 10
1293.1753536487843
 20
-1710.58364893577
 10
1274.3122092383119
 20
-1756.532258343478
 10
1237.0695718631844
 20
-1741.5385715074065
 10
1254.4817619362034
 20
-1695.1060646460235
  0
LWPOLYLINE
  5
1E3
330
17
100
AcDbEntity
  8
MURI_ESISTENTI
100
AcDbPolyline
 90
5
 70
0
 10
1366.209797065513
 20
-1189.6697621101655
 10
1610.4636175178775
 20
-1293.1753536487845
 10
1580.4759978378772
 20
-1359.4383078122758
 10
1338.1567831687848
 20
-1255.9327162736572
 10
1366.209797065513
 20
-1189.6697621101655
  0
LWPOLYLINE
  5
1E4
330
17
100
AcDbEntity
  8
MURI_ESISTENTI
100
AcDbPolyline
 90
2
 70
0
 10
1610.4636175178775
 20
-1293.1753536487845
 10
1583.3780295167135
 20
-1255.449064827839
  0
LWPOLYLINE
  5
1E5
330
17
100
AcDbEntity
  8
MURI_ESISTENTI
100
AcDbPolyline
 90
2
 70
0
 10
1583.3780295167135
 20
-1255.449064827839
 10
1579.025043500423
 20
-1257.8674450608573
  0
LWPOLYLINE
  5
1E6
330
17
100
AcDbEntity
  8
MURI_ESISTENTI
100
AcDbPolyline
 90
2
 70
0
 10
1579.025043500423
 20
-1257.8674450608573
 10
1604.1759027143867
 20
-1290.7570964196943
  0
LWPOLYLINE
  5
1E7
330
17
100
AcDbEntity
  8
MURI_ESISTENTI
100
AcDbPolyline
 90
2
 70
0
 10
1538.396723000641
 20
-1262.7040825229658
 10
1573.7046315885682
 20
-1263.6715084185303
  0
LWPOLYLINE
  5
1E8
330
17
100
AcDbEntity
  8
MURI_ESISTENTI
100
AcDbPolyline
 90
2
 70
0
 10
1573.7046315885682
 20
-1263.6715084185303
 10
1573.22098014275
 20
-1258.3510965066755
  0
LWPOLYLINE
  5
1E9
330
17
100
AcDbEntity
  8
MURI_ESISTENTI
100
AcDbPolyline
 90
2
 70
0
 10
1573.22098014275
 20
-1258.3510965066755
 10
1526.7885962852954
 20
-1257.8674450608573
  0
LWPOLYLINE
  5
1EA
330
17
100
AcDbEntity
  8
MURI_ESISTENTI
100
AcDbPolyline
 90
5
 70
0
 10
1476.0031034076223
 20
-1269.9592232220211
 10
1472.1337688371502
 20
-1279.6326211501664
 10
1359.438307812276
 20
-1232.232811397148
 10
1363.3077653866762
 20
-1222.559413469002
 10
1476.0031034076223
 20
-1269.9592232220211
  0
LWPOLYLINE
  5
1EB
330
17
100
AcDbEntity
  8
MURI_ESISTENTI
100
AcDbPolyline
 90
5
 70
0
 10
1495.3498992639131
 20
-1279.6326211501664
 10
1589.6657443202046
 20
-1318.8099873124943
 10
1585.7964097497322
 20
-1329.4508111362038
 10
1491.9642161392585
 20
-1287.3712902911116
 10
1495.3498992639131
 20
-1279.6326211501664
  0
LWPOLYLINE
  5
1EC
330
17
100
AcDbEntity
  8
MURI_ESISTENTI
100
AcDbPolyline
 90
2
 70
0
 10
1498.2519309427494
 20
-1245.7756668996938
 10
1490.0296103559863
 20
-1265.1224627559843
  0
LWPOLYLINE
  5
1ED
330
17
100
AcDbEntity
  8
MURI_ESISTENTI
100
AcDbPolyline
 90
2
 70
0
 10
1490.0296103559863
 20
-1265.1224627559843
 10
1357.5037020290035
 20
-1209.5003324162026
  0
LWPOLYLINE
  5
1EE
330
17
100
AcDbEntity
  8
MURI_ESISTENTI
100
AcDbPolyline
 90
2
 70
0
 10
1469.7153886041315
 20
-1312.0386210631852
 10
1490.0296103559863
 20
-1265.1224627559843
  0
LWPOLYLINE
  5
1EF
330
17
100
AcDbEntity
  8
MURI_ESISTENTI
100
AcDbPolyline
 90
2
 70
0
 10
1490.0296103559863
 20
-1265.1224627559843
 10
1601.757522481368
 20
-1313.0059239548211
  0
LWPOLYLINE
  5
1F0
330
17
100
AcDbEntity
  8
MURI_ESISTENTI
100
AcDbPolyline
 90
2
 70
0
 10
1588.6984414285687
 20
-1341.5425892973676
 10
1468.7480857124954
 20
-1289.7896705241299
  0
LWPOLYLINE
  5
1F1
330
17
100
AcDbEntity
  8
MURI_ESISTENTI
100
AcDbPolyline
 90
2
 70
0
 10
1468.7480857124954
 20
-1289.7896705241299
 10
1346.379226759476
 20
-1237.0695718631846
  0
LWPOLYLINE
  5
1F2
330
17
100
AcDbEntity
  8
MURI_ESISTENTI
100
AcDbPolyline
 90
2
 70
0
 10
1468.2643112627493
 20
-750.0127622919814
 10
1113.7334100185292
 20
-664.8866637180174
  0
LWPOLYLINE
  5
1F3
330
17
100
AcDbEntity
  8
MURI_ESISTENTI
100
AcDbPolyline
 90
2
 70
0
 10
1113.7334100185292
 20
-664.8866637180174
 10
1143.237378252711
 20
-542.5178047649978
  0
LWPOLYLINE
  5
1F4
330
17
100
AcDbEntity
  8
MURI_ESISTENTI
100
AcDbPolyline
 90
2
 70
0
 10
1143.237378252711
 20
-542.5178047649978
 10
1455.2052302099494
 20
-608.7807589284891
  0
LWPOLYLINE
  5
1F5
330
17
100
AcDbEntity
  8
MURI_ESISTENTI
100
AcDbPolyline
 90
2
 70
0
 10
1455.2052302099494
 20
-608.7807589284891
 10
1438.760466032495
 20
-648.9254279824528
  0
LWPOLYLINE
  5
1F6
330
17
100
AcDbEntity
  8
MURI_ESISTENTI
100
AcDbPolyline
 90
2
 70
0
 10
1438.760466032495
 20
-648.9254279824528
 10
1502.1213885171505
 20
-674.0764102003446
  0
LWPOLYLINE
  5
1F7
330
17
100
AcDbEntity
  8
MURI_ESISTENTI
100
AcDbPolyline
 90
2
 70
0
 10
1432.4727512290046
 20
-660.5335546977985
 10
1311.0711951676208
 20
-631.9970123591805
  0
LWPOLYLINE
  5
1F8
330
17
100
AcDbEntity
  8
MURI_ESISTENTI
100
AcDbPolyline
 90
2
 70
0
 10
1311.0711951676208
 20
-631.9970123591805
 10
1322.1956704371482
 20
-580.2442165898711
  0
LWPOLYLINE
  5
1F9
330
17
100
AcDbEntity
  8
MURI_ESISTENTI
100
AcDbPolyline
 90
2
 70
0
 10
1311.0711951676208
 20
-631.9970123591805
 10
1232.2328113971478
 20
-615.0684737319801
  0
LWPOLYLINE
  5
1FA
330
17
100
AcDbEntity
  8
MURI_ESISTENTI
100
AcDbPolyline
 90
2
 70
0
 10
1232.2328113971478
 20
-615.0684737319801
 10
1243.3572866666752
 20
-563.7993294084887
  0
LWPOLYLINE
  5
1FB
330
17
100
AcDbEntity
  8
MURI_ESISTENTI
100
AcDbPolyline
 90
2
 70
0
 10
1120.9884277136557
 20
-635.382695483835
 10
1165.0025543420202
 20
-646.0233963036163
  0
LWPOLYLINE
  5
1FC
330
17
100
AcDbEntity
  8
MURI_ESISTENTI
100
AcDbPolyline
 90
2
 70
0
 10
1165.0025543420202
 20
-646.0233963036163
 10
1178.06163539482
 20
-583.6298997145258
  0
LWPOLYLINE
  5
1FD
330
17
100
AcDbEntity
  8
MURI_ESISTENTI
100
AcDbPolyline
 90
2
 70
0
 10
1178.06163539482
 20
-583.6298997145258
 10
1135.4987091117664
 20
-573.4727273366342
  0
LWPOLYLINE
  5
1FE
330
17
100
AcDbEntity
  8
MURI_ESISTENTI
100
AcDbPolyline
 90
2
 70
0
 10
1135.4987091117664
 20
-573.4727273366342
 10
1171.773920591329
 20
-615.0684737319801
  0
LWPOLYLINE
  5
1FF
330
17
100
AcDbEntity
  8
MURI_ESISTENTI
100
AcDbPolyline
 90
2
 70
0
 10
1171.773920591329
 20
-615.0684737319801
 10
1120.9884277136557
 20
-635.382695483835
  0
LWPOLYLINE
  5
200
330
17
100
AcDbEntity
  8
MURI_ESISTENTI
100
AcDbPolyline
 90
5
 70
0
 10
1374.9157690980942
 20
-639.7356815001256
 10
1383.621864134603
 20
-603.4603470166344
 10
1328.9670366864577
 20
-591.3685688554707
 10
1320.7447160996946
 20
-626.1929490015078
 10
1374.9157690980942
 20
-639.7356815001256
  0
LWPOLYLINE
  5
201
330
17
100
AcDbEntity
  8
MURI_ESISTENTI
100
AcDbPolyline
 90
2
 70
0
 10
1375.8831949936582
 20
-635.3826954838349
 10
1430.054370995986
 20
-648.4417765366347
  0
LWPOLYLINE
  5
202
330
17
100
AcDbEntity
  8
MURI_ESISTENTI
100
AcDbPolyline
 90
2
 70
0
 10
1430.054370995986
 20
-648.4417765366347
 10
1436.3420857994768
 20
-619.905234198017
  0
LWPOLYLINE
  5
203
330
17
100
AcDbEntity
  8
MURI_ESISTENTI
100
AcDbPolyline
 90
2
 70
0
 10
1436.3420857994768
 20
-619.905234198017
 10
1382.6545612429672
 20
-606.8460301412889
  0
LWPOLYLINE
  5
204
330
17
100
AcDbEntity
  8
MURI_ESISTENTI
100
AcDbPolyline
 90
2
 70
0
 10
1663.6674906285687
 20
-1576.1230118215865
 10
1600.7902195897318
 20
-1722.6754270969336
  0
LWPOLYLINE
  5
205
330
17
100
AcDbEntity
  8
MURI_ESISTENTI
100
AcDbPolyline
 90
2
 70
0
 10
1704.2958111283504
 20
-1591.6004731074047
 10
1639.4839343062415
 20
-1741.0549200615883
  0
LWPOLYLINE
  5
206
330
17
100
AcDbEntity
  8
MURI_ESISTENTI
100
AcDbPolyline
 90
2
 70
0
 10
1639.4839343062415
 20
-1741.0549200615883
 10
1600.7902195897318
 20
-1722.6754270969336
  0
LWPOLYLINE
  5
207
330
17
100
AcDbEntity
  8
MURI_ESISTENTI
100
AcDbPolyline
 90
2
 70
0
 10
1703.3285082367145
 20
-1591.1168216615868
 10
1704.7795855780969
 20
-1584.8291068580959
  0
LWPOLYLINE
  5
208
330
17
100
AcDbEntity
  8
MURI_ESISTENTI
100
AcDbPolyline
 90
2
 70
0
 10
1704.7795855780969
 20
-1584.8291068580959
 10
1704.2958111283508
 20
-1578.0577406087868
  0
LWPOLYLINE
  5
209
330
17
100
AcDbEntity
  8
MURI_ESISTENTI
100
AcDbPolyline
 90
2
 70
0
 10
1704.2958111283508
 20
-1578.0577406087868
 10
1701.3937794495143
 20
-1572.2536772511141
  0
LWPOLYLINE
  5
20A
330
17
100
AcDbEntity
  8
MURI_ESISTENTI
100
AcDbPolyline
 90
2
 70
0
 10
1701.3937794495143
 20
-1572.2536772511141
 10
1697.0407934332236
 20
-1567.4169167850773
  0
LWPOLYLINE
  5
20B
330
17
100
AcDbEntity
  8
MURI_ESISTENTI
100
AcDbPolyline
 90
2
 70
0
 10
1697.0407934332236
 20
-1567.4169167850773
 10
1691.2367300755516
 20
-1564.031233660423
  0
LWPOLYLINE
  5
20C
330
17
100
AcDbEntity
  8
MURI_ESISTENTI
100
AcDbPolyline
 90
2
 70
0
 10
1691.2367300755516
 20
-1564.031233660423
 10
1684.9490152720603
 20
-1562.5801563190407
  0
LWPOLYLINE
  5
20D
330
17
100
AcDbEntity
  8
MURI_ESISTENTI
100
AcDbPolyline
 90
2
 70
0
 10
1684.9490152720603
 20
-1562.5801563190407
 10
1678.177649022751
 20
-1563.5474592106766
  0
LWPOLYLINE
  5
20E
330
17
100
AcDbEntity
  8
MURI_ESISTENTI
100
AcDbPolyline
 90
2
 70
0
 10
1678.177649022751
 20
-1563.5474592106766
 10
1672.373585665078
 20
-1566.4496138934412
  0
LWPOLYLINE
  5
20F
330
17
100
AcDbEntity
  8
MURI_ESISTENTI
100
AcDbPolyline
 90
2
 70
0
 10
1672.373585665078
 20
-1566.4496138934412
 10
1667.5368251990417
 20
-1570.802599909732
  0
LWPOLYLINE
  5
210
330
17
100
AcDbEntity
  8
MURI_ESISTENTI
100
AcDbPolyline
 90
2
 70
0
 10
1667.5368251990417
 20
-1570.802599909732
 10
1664.1511420743866
 20
-1576.6066632674044
  0
LWPOLYLINE
  5
211
330
17
100
AcDbEntity
  8
MURI_ESISTENTI
100
AcDbPolyline
 90
2
 70
0
 10
1621.1044413415868
 20
-1731.8650505753326
 10
1620.6207898957687
 20
-1732.3487020211505
  0
LWPOLYLINE
  5
212
330
17
100
AcDbEntity
  8
MURI_ESISTENTI
100
AcDbPolyline
 90
2
 70
0
 10
1620.6207898957687
 20
-1732.3487020211505
 10
1620.1371384499512
 20
-1732.3487020211505
  0
LWPOLYLINE
  5
213
330
17
100
AcDbEntity
  8
MURI_ESISTENTI
100
AcDbPolyline
 90
2
 70
0
 10
1620.1371384499512
 20
-1732.3487020211505
 10
1619.6533640002044
 20
-1732.3487020211505
  0
LWPOLYLINE
  5
214
330
17
100
AcDbEntity
  8
MURI_ESISTENTI
100
AcDbPolyline
 90
2
 70
0
 10
1619.6533640002044
 20
-1732.3487020211505
 10
1619.6533640002049
 20
-1731.8650505753326
  0
LWPOLYLINE
  5
215
330
17
100
AcDbEntity
  8
MURI_ESISTENTI
100
AcDbPolyline
 90
2
 70
0
 10
1619.6533640002049
 20
-1731.8650505753326
 10
1619.6533640002049
 20
-1731.3813991295146
  0
LWPOLYLINE
  5
216
330
17
100
AcDbEntity
  8
MURI_ESISTENTI
100
AcDbPolyline
 90
2
 70
0
 10
1619.6533640002049
 20
-1731.3813991295146
 10
1620.1371384499512
 20
-1730.8977476836965
  0
LWPOLYLINE
  5
217
330
17
100
AcDbEntity
  8
MURI_ESISTENTI
100
AcDbPolyline
 90
2
 70
0
 10
1620.1371384499512
 20
-1730.8977476836965
 10
1620.6207898957691
 20
-1731.3813991295146
  0
LWPOLYLINE
  5
218
330
17
100
AcDbEntity
  8
MURI_ESISTENTI
100
AcDbPolyline
 90
2
 70
0
 10
1620.6207898957691
 20
-1731.3813991295146
 10
1621.1044413415868
 20
-1731.8650505753326
  0
LWPOLYLINE
  5
219
330
17
100
AcDbEntity
  8
MURI_ESISTENTI
100
AcDbPolyline
 90
2
 70
0
 10
1621.1044413415868
 20
-1731.8650505753326
 10
1620.6207898957691
 20
-1731.3813991295146
  0
LWPOLYLINE
  5
21A
330
17
100
AcDbEntity
  8
MURI_ESISTENTI
100
AcDbPolyline
 90
2
 70
0
 10
1620.6207898957691
 20
-1731.3813991295146
 10
1620.1371384499512
 20
-1730.8977476836965
  0
LWPOLYLINE
  5
21B
330
17
100
AcDbEntity
  8
MURI_ESISTENTI
100
AcDbPolyline
 90
2
 70
0
 10
1620.1371384499512
 20
-1730.8977476836965
 10
1619.6533640002049
 20
-1731.3813991295146
  0
LWPOLYLINE
  5
21C
330
17
100
AcDbEntity
  8
MURI_ESISTENTI
100
AcDbPolyline
 90
2
 70
0
 10
1619.6533640002049
 20
-1731.3813991295146
 10
1619.6533640002049
 20
-1731.8650505753326
  0
LWPOLYLINE
  5
21D
330
17
100
AcDbEntity
  8
MURI_ESISTENTI
100
AcDbPolyline
 90
2
 70
0
 10
1619.6533640002049
 20
-1731.8650505753326
 10
1619.6533640002044
 20
-1732.3487020211505
  0
LWPOLYLINE
  5
21E
330
17
100
AcDbEntity
  8
MURI_ESISTENTI
100
AcDbPolyline
 90
2
 70
0
 10
1619.6533640002044
 20
-1732.3487020211505
 10
1620.1371384499512
 20
-1732.3487020211505
  0
LWPOLYLINE
  5
21F
330
17
100
AcDbEntity
  8
MURI_ESISTENTI
100
AcDbPolyline
 90
2
 70
0
 10
1620.1371384499512
 20
-1732.3487020211505
 10
1620.6207898957687
 20
-1732.3487020211505
  0
LWPOLYLINE
  5
220
330
17
100
AcDbEntity
  8
MURI_ESISTENTI
100
AcDbPolyline
 90
2
 70
0
 10
1620.6207898957687
 20
-1732.3487020211505
 10
1621.1044413415868
 20
-1731.8650505753326
  0
LWPOLYLINE
  5
221
330
17
100
AcDbEntity
  8
MURI_ESISTENTI
100
AcDbPolyline
 90
2
 70
0
 10
1600.7902195897318
 20
-1722.6754270969336
 10
1598.8556138064594
 20
-1729.4467933462424
  0
LWPOLYLINE
  5
222
330
17
100
AcDbEntity
  8
MURI_ESISTENTI
100
AcDbPolyline
 90
2
 70
0
 10
1598.8556138064594
 20
-1729.4467933462424
 10
1599.339265252278
 20
-1735.7345081497333
  0
LWPOLYLINE
  5
223
330
17
100
AcDbEntity
  8
MURI_ESISTENTI
100
AcDbPolyline
 90
2
 70
0
 10
1599.339265252278
 20
-1735.7345081497333
 10
1601.2738710355504
 20
-1742.0222229532242
  0
LWPOLYLINE
  5
224
330
17
100
AcDbEntity
  8
MURI_ESISTENTI
100
AcDbPolyline
 90
2
 70
0
 10
1601.2738710355504
 20
-1742.0222229532242
 10
1605.6269800557686
 20
-1747.342634865079
  0
LWPOLYLINE
  5
225
330
17
100
AcDbEntity
  8
MURI_ESISTENTI
100
AcDbPolyline
 90
2
 70
0
 10
1605.6269800557686
 20
-1747.342634865079
 10
1610.9473919676234
 20
-1751.2118464316231
  0
LWPOLYLINE
  5
226
330
17
100
AcDbEntity
  8
MURI_ESISTENTI
100
AcDbPolyline
 90
2
 70
0
 10
1610.9473919676234
 20
-1751.2118464316231
 10
1617.7187582169327
 20
-1753.1466982227519
  0
LWPOLYLINE
  5
227
330
17
100
AcDbEntity
  8
MURI_ESISTENTI
100
AcDbPolyline
 90
2
 70
0
 10
1617.7187582169327
 20
-1753.1466982227519
 10
1624.4901244662415
 20
-1752.6629237730056
  0
LWPOLYLINE
  5
228
330
17
100
AcDbEntity
  8
MURI_ESISTENTI
100
AcDbPolyline
 90
2
 70
0
 10
1624.4901244662415
 20
-1752.6629237730056
 10
1630.7778392697326
 20
-1750.7281949858054
  0
LWPOLYLINE
  5
229
330
17
100
AcDbEntity
  8
MURI_ESISTENTI
100
AcDbPolyline
 90
2
 70
0
 10
1630.7778392697326
 20
-1750.7281949858054
 10
1636.0982511815869
 20
-1746.3752089695147
  0
LWPOLYLINE
  5
22A
330
17
100
AcDbEntity
  8
MURI_ESISTENTI
100
AcDbPolyline
 90
2
 70
0
 10
1636.0982511815869
 20
-1746.3752089695147
 10
1639.4839343062415
 20
-1741.0549200615883
  0
LWPOLYLINE
  5
22B
330
17
100
AcDbEntity
  8
MURI_ESISTENTI
100
AcDbPolyline
 90
2
 70
0
 10
1564.0312336604227
 20
-1489.5458359062402
 10
1538.3967230006415
 20
-1552.9067583908952
  0
LWPOLYLINE
  5
22C
330
17
100
AcDbEntity
  8
MURI_ESISTENTI
100
AcDbPolyline
 90
2
 70
0
 10
1538.3967230006415
 20
-1552.9067583908952
 10
1605.143328609951
 20
-1579.5086949462411
  0
LWPOLYLINE
  5
22D
330
17
100
AcDbEntity
  8
MURI_ESISTENTI
100
AcDbPolyline
 90
2
 70
0
 10
1605.143328609951
 20
-1579.5086949462411
 10
1631.2614907155505
 20
-1517.5988498029683
  0
LWPOLYLINE
  5
22E
330
17
100
AcDbEntity
  8
MURI_ESISTENTI
100
AcDbPolyline
 90
2
 70
0
 10
1604.1759027143864
 20
-1506.4743745334406
 10
1579.0250435004232
 20
-1569.3515225683493
  0
LWPOLYLINE
  5
22F
330
17
100
AcDbEntity
  8
MURI_ESISTENTI
100
AcDbPolyline
 90
2
 70
0
 10
1561.1292019815862
 20
-1604.6595541602044
 10
1586.2800611955504
 20
-1614.8167265380962
  0
LWPOLYLINE
  5
230
330
17
100
AcDbEntity
  8
MURI_ESISTENTI
100
AcDbPolyline
 90
2
 70
0
 10
1586.2800611955504
 20
-1614.8167265380962
 10
1571.28625135555
 20
-1651.5757124674053
  0
LWPOLYLINE
  5
231
330
17
100
AcDbEntity
  8
MURI_ESISTENTI
100
AcDbPolyline
 90
2
 70
0
 10
1571.28625135555
 20
-1651.5757124674053
 10
1546.1353921415866
 20
-1640.9348886436958
  0
LWPOLYLINE
  5
232
330
17
100
AcDbEntity
  8
MURI_ESISTENTI
100
AcDbPolyline
 90
2
 70
0
 10
1467.7806598169313
 20
-1657.8634272708962
 10
1458.1072618887858
 20
-1653.9939696964955
  0
LWPOLYLINE
  5
233
330
17
100
AcDbEntity
  8
MURI_ESISTENTI
100
AcDbPolyline
 90
2
 70
0
 10
1458.1072618887858
 20
-1653.9939696964955
 10
1427.6359907629676
 20
-1730.4140962378785
  0
LWPOLYLINE
  5
234
330
17
100
AcDbEntity
  8
MURI_ESISTENTI
100
AcDbPolyline
 90
2
 70
0
 10
1427.6359907629676
 20
-1730.4140962378785
 10
1354.1180189043491
 20
-1698.975522220424
  0
LWPOLYLINE
  5
235
330
17
100
AcDbEntity
  8
MURI_ESISTENTI
100
AcDbPolyline
 90
2
 70
0
 10
1354.1180189043491
 20
-1698.975522220424
 10
1350.7322127757664
 20
-1707.6814942530052
  0
LWPOLYLINE
  5
236
330
17
100
AcDbEntity
  8
MURI_ESISTENTI
100
AcDbPolyline
 90
2
 70
0
 10
1350.7322127757664
 20
-1707.6814942530052
 10
1354.1180189043491
 20
-1698.975522220424
  0
LWPOLYLINE
  5
237
330
17
100
AcDbEntity
  8
MURI_ESISTENTI
100
AcDbPolyline
 90
2
 70
0
 10
1457.6236104429681
 20
-1655.4450470378779
 10
1445.5318322818043
 20
-1651.5757124674053
  0
LWPOLYLINE
  5
238
330
17
100
AcDbEntity
  8
MURI_ESISTENTI
100
AcDbPolyline
 90
2
 70
0
 10
1445.5318322818043
 20
-1651.5757124674053
 10
1433.9237055664587
 20
-1649.640983680205
  0
LWPOLYLINE
  5
239
330
17
100
AcDbEntity
  8
MURI_ESISTENTI
100
AcDbPolyline
 90
2
 70
0
 10
1433.9237055664587
 20
-1649.640983680205
 10
1421.3482759594767
 20
-1649.640983680205
  0
LWPOLYLINE
  5
23A
330
17
100
AcDbEntity
  8
MURI_ESISTENTI
100
AcDbPolyline
 90
2
 70
0
 10
1421.3482759594767
 20
-1649.640983680205
 10
1409.2564977983131
 20
-1651.5757124674053
  0
LWPOLYLINE
  5
23B
330
17
100
AcDbEntity
  8
MURI_ESISTENTI
100
AcDbPolyline
 90
2
 70
0
 10
1409.2564977983131
 20
-1651.5757124674053
 10
1397.6483710829675
 20
-1655.4450470378779
  0
LWPOLYLINE
  5
23C
330
17
100
AcDbEntity
  8
MURI_ESISTENTI
100
AcDbPolyline
 90
2
 70
0
 10
1397.6483710829675
 20
-1655.4450470378779
 10
1387.0075472592578
 20
-1660.7654589497326
  0
LWPOLYLINE
  5
23D
330
17
100
AcDbEntity
  8
MURI_ESISTENTI
100
AcDbPolyline
 90
2
 70
0
 10
1387.0075472592578
 20
-1660.7654589497326
 10
1376.8504978852943
 20
-1667.5368251990415
  0
LWPOLYLINE
  5
23E
330
17
100
AcDbEntity
  8
MURI_ESISTENTI
100
AcDbPolyline
 90
2
 70
0
 10
1376.8504978852943
 20
-1667.5368251990415
 10
1368.1444028487851
 20
-1675.759268789733
  0
LWPOLYLINE
  5
23F
330
17
100
AcDbEntity
  8
MURI_ESISTENTI
100
AcDbPolyline
 90
2
 70
0
 10
1368.1444028487851
 20
-1675.759268789733
 10
1360.4057337078402
 20
-1685.432666717878
  0
LWPOLYLINE
  5
240
330
17
100
AcDbEntity
  8
MURI_ESISTENTI
100
AcDbPolyline
 90
2
 70
0
 10
1360.4057337078402
 20
-1685.432666717878
 10
1354.601670350167
 20
-1696.0733675376594
  0
LWPOLYLINE
  5
241
330
17
100
AcDbEntity
  8
MURI_ESISTENTI
100
AcDbPolyline
 90
2
 70
0
 10
1354.601670350167
 20
-1696.0733675376594
 10
1350.2485613299486
 20
-1707.6814942530054
  0
LWPOLYLINE
  5
242
330
17
100
AcDbEntity
  8
MURI_ESISTENTI
100
AcDbPolyline
 90
2
 70
0
 10
1308.1691634887848
 20
-1563.0638077648587
 10
1343.4771950806396
 20
-1577.0903147132226
  0
LWPOLYLINE
  5
243
330
17
100
AcDbEntity
  8
MURI_ESISTENTI
100
AcDbPolyline
 90
2
 70
0
 10
1343.4771950806396
 20
-1577.0903147132226
 10
1326.5487794573676
 20
-1624.4901244662417
  0
LWPOLYLINE
  5
244
330
17
100
AcDbEntity
  8
MURI_ESISTENTI
100
AcDbPolyline
 90
2
 70
0
 10
1326.5487794573676
 20
-1624.4901244662417
 10
1286.8876388452936
 20
-1610.4636175178773
  0
LWPOLYLINE
  5
245
330
17
100
AcDbEntity
  8
MURI_ESISTENTI
100
AcDbPolyline
 90
2
 70
0
 10
1286.8876388452936
 20
-1610.4636175178773
 10
1305.7509062596944
 20
-1562.5801563190407
  0
LWPOLYLINE
  5
246
330
17
100
AcDbEntity
  8
MURI_ESISTENTI
100
AcDbPolyline
 90
2
 70
0
 10
1203.6962690585297
 20
-1559.6782476441324
 10
1178.545409844566
 20
-1625.4574273578776
  0
LWPOLYLINE
  5
247
330
17
100
AcDbEntity
  8
MURI_ESISTENTI
100
AcDbPolyline
 90
2
 70
0
 10
1283.0183042748213
 20
-1441.1787232615854
 10
1253.5143360406385
 20
-1520.0171070320584
  0
LWPOLYLINE
  5
248
330
17
100
AcDbEntity
  8
MURI_ESISTENTI
100
AcDbPolyline
 90
2
 70
0
 10
1253.5143360406385
 20
-1520.0171070320584
 10
1244.3245895583113
 20
-1516.147772461586
  0
LWPOLYLINE
  5
249
330
17
100
AcDbEntity
  8
MURI_ESISTENTI
100
AcDbPolyline
 90
2
 70
0
 10
1244.3245895583113
 20
-1516.147772461586
 10
1273.3449063466755
 20
-1437.7930401369308
  0
LWPOLYLINE
  5
24A
330
17
100
AcDbEntity
  8
MURI_ESISTENTI
100
AcDbPolyline
 90
2
 70
0
 10
1194.9901740220203
 20
-1408.2891949066768
 10
1191.6044908973663
 20
-1419.8971986180943
  0
LWPOLYLINE
  5
24B
330
17
100
AcDbEntity
  8
MURI_ESISTENTI
100
AcDbPolyline
 90
2
 70
0
 10
1191.6044908973663
 20
-1419.8971986180943
 10
1189.6697621101657
 20
-1431.5053253334402
  0
LWPOLYLINE
  5
24C
330
17
100
AcDbEntity
  8
MURI_ESISTENTI
100
AcDbPolyline
 90
2
 70
0
 10
1189.6697621101657
 20
-1431.5053253334402
 10
1189.6697621101657
 20
-1443.5971034946037
  0
LWPOLYLINE
  5
24D
330
17
100
AcDbEntity
  8
MURI_ESISTENTI
100
AcDbPolyline
 90
2
 70
0
 10
1189.6697621101657
 20
-1443.5971034946037
 10
1191.6044908973658
 20
-1455.6888816557675
  0
LWPOLYLINE
  5
24E
330
17
100
AcDbEntity
  8
MURI_ESISTENTI
100
AcDbPolyline
 90
2
 70
0
 10
1191.6044908973658
 20
-1455.6888816557675
 10
1194.9901740220205
 20
-1466.813233921367
  0
LWPOLYLINE
  5
24F
330
17
100
AcDbEntity
  8
MURI_ESISTENTI
100
AcDbPolyline
 90
2
 70
0
 10
1194.9901740220205
 20
-1466.813233921367
 10
1199.8269344880573
 20
-1477.9377091908946
  0
LWPOLYLINE
  5
250
330
17
100
AcDbEntity
  8
MURI_ESISTENTI
100
AcDbPolyline
 90
2
 70
0
 10
1199.8269344880573
 20
-1477.9377091908946
 10
1206.5983007373661
 20
-1488.0948815687861
  0
LWPOLYLINE
  5
251
330
17
100
AcDbEntity
  8
MURI_ESISTENTI
100
AcDbPolyline
 90
2
 70
0
 10
1206.5983007373661
 20
-1488.0948815687861
 10
1214.3369698783113
 20
-1496.800853601367
  0
LWPOLYLINE
  5
252
330
17
100
AcDbEntity
  8
MURI_ESISTENTI
100
AcDbPolyline
 90
2
 70
0
 10
1214.3369698783113
 20
-1496.800853601367
 10
1223.0430649148204
 20
-1504.5396457462402
  0
LWPOLYLINE
  5
253
330
17
100
AcDbEntity
  8
MURI_ESISTENTI
100
AcDbPolyline
 90
2
 70
0
 10
1223.0430649148204
 20
-1504.5396457462402
 10
1233.200237292712
 20
-1511.3111349994776
  0
LWPOLYLINE
  5
254
330
17
100
AcDbEntity
  8
MURI_ESISTENTI
100
AcDbPolyline
 90
2
 70
0
 10
1233.200237292712
 20
-1511.3111349994776
 10
1244.3245895583113
 20
-1516.147772461586
  0
LWPOLYLINE
  5
255
330
17
100
AcDbEntity
  8
MURI_ESISTENTI
100
AcDbPolyline
 90
2
 70
0
 10
1451.8195470852952
 20
-1451.335895639477
 10
1334.2874485983123
 20
-1402.0014801031862
  0
LWPOLYLINE
  5
256
330
17
100
AcDbEntity
  8
MURI_ESISTENTI
100
AcDbPolyline
 90
2
 70
0
 10
1334.2874485983123
 20
-1402.0014801031862
 10
1352.666941562967
 20
-1354.1180189043494
  0
LWPOLYLINE
  5
257
330
17
100
AcDbEntity
  8
MURI_ESISTENTI
100
AcDbPolyline
 90
2
 70
0
 10
1352.666941562967
 20
-1354.1180189043494
 10
1477.9378321948227
 20
-1405.8706916697301
  0
LWPOLYLINE
  5
258
330
17
100
AcDbEntity
  8
MURI_ESISTENTI
100
AcDbPolyline
 90
2
 70
0
 10
1477.9378321948227
 20
-1405.8706916697301
 10
1459.0745647804222
 20
-1457.13995899715
  0
LWPOLYLINE
  5
259
330
17
100
AcDbEntity
  8
MURI_ESISTENTI
100
AcDbPolyline
 90
2
 70
0
 10
1459.0745647804222
 20
-1457.13995899715
 10
1505.0234201959865
 20
-1476.0031034076223
  0
LWPOLYLINE
  5
25A
330
17
100
AcDbEntity
  8
MURI_ESISTENTI
100
AcDbPolyline
 90
2
 70
0
 10
1505.0234201959865
 20
-1476.0031034076223
 10
1527.2722477311136
 20
-1422.7992302969308
  0
LWPOLYLINE
  5
25B
330
17
100
AcDbEntity
  8
MURI_ESISTENTI
100
AcDbPolyline
 90
2
 70
0
 10
1527.2722477311136
 20
-1422.7992302969308
 10
1478.4214836406406
 20
-1402.4851315490039
  0
LWPOLYLINE
  5
25C
330
17
100
AcDbEntity
  8
MURI_ESISTENTI
100
AcDbPolyline
 90
2
 70
0
 10
1478.4214836406406
 20
-1402.4851315490039
 10
1477.9378321948227
 20
-1405.8706916697301
  0
LWPOLYLINE
  5
25D
330
17
100
AcDbEntity
  8
MURI_ESISTENTI
100
AcDbPolyline
 90
2
 70
0
 10
1283.985607166457
 20
-1386.5238958134396
 10
1332.352719811112
 20
-1405.8706916697304
  0
LWPOLYLINE
  5
25E
330
17
100
AcDbEntity
  8
MURI_ESISTENTI
100
AcDbPolyline
 90
2
 70
0
 10
1332.352719811112
 20
-1405.8706916697304
 10
1334.2874485983123
 20
-1402.0014801031862
  0
LWPOLYLINE
  5
25F
330
17
100
AcDbEntity
  8
MURI_ESISTENTI
100
AcDbPolyline
 90
2
 70
0
 10
1352.666941562967
 20
-1354.1180189043494
 10
1354.1180189043491
 20
-1349.2812584383123
  0
LWPOLYLINE
  5
260
330
17
100
AcDbEntity
  8
MURI_ESISTENTI
100
AcDbPolyline
 90
2
 70
0
 10
1354.1180189043491
 20
-1349.2812584383123
 10
1304.7834803641301
 20
-1330.41811402784
  0
LWPOLYLINE
  5
261
330
17
100
AcDbEntity
  8
MURI_ESISTENTI
100
AcDbPolyline
 90
2
 70
0
 10
1304.7834803641301
 20
-1330.41811402784
 10
1283.985607166457
 20
-1386.5238958134396
  0
LWPOLYLINE
  5
262
330
17
100
AcDbEntity
  8
MURI_ESISTENTI
100
AcDbPolyline
 90
2
 70
0
 10
1351.6996386713308
 20
-1356.0526246876213
 10
1345.8955753136581
 20
-1354.6016703501673
  0
LWPOLYLINE
  5
263
330
17
100
AcDbEntity
  8
MURI_ESISTENTI
100
AcDbPolyline
 90
2
 70
0
 10
1345.8955753136581
 20
-1354.6016703501673
 10
1339.607860510167
 20
-1355.0853217959852
  0
LWPOLYLINE
  5
264
330
17
100
AcDbEntity
  8
MURI_ESISTENTI
100
AcDbPolyline
 90
2
 70
0
 10
1339.607860510167
 20
-1355.0853217959852
 10
1333.803797152494
 20
-1356.5362761334393
  0
LWPOLYLINE
  5
265
330
17
100
AcDbEntity
  8
MURI_ESISTENTI
100
AcDbPolyline
 90
2
 70
0
 10
1333.803797152494
 20
-1356.5362761334393
 10
1328.4833852406393
 20
-1359.922082262022
  0
LWPOLYLINE
  5
266
330
17
100
AcDbEntity
  8
MURI_ESISTENTI
100
AcDbPolyline
 90
2
 70
0
 10
1328.4833852406393
 20
-1359.922082262022
 10
1324.6140506701665
 20
-1364.2750682783123
  0
LWPOLYLINE
  5
267
330
17
100
AcDbEntity
  8
MURI_ESISTENTI
100
AcDbPolyline
 90
2
 70
0
 10
1324.6140506701665
 20
-1364.2750682783123
 10
1321.2283675455128
 20
-1369.5953571862392
  0
LWPOLYLINE
  5
268
330
17
100
AcDbEntity
  8
MURI_ESISTENTI
100
AcDbPolyline
 90
2
 70
0
 10
1321.2283675455128
 20
-1369.5953571862392
 10
1319.7772902041297
 20
-1375.3994205439117
  0
LWPOLYLINE
  5
269
330
17
100
AcDbEntity
  8
MURI_ESISTENTI
100
AcDbPolyline
 90
2
 70
0
 10
1319.7772902041297
 20
-1375.3994205439117
 10
1320.2609416499483
 20
-1381.6871353474028
  0
LWPOLYLINE
  5
26A
330
17
100
AcDbEntity
  8
MURI_ESISTENTI
100
AcDbPolyline
 90
2
 70
0
 10
1320.2609416499483
 20
-1381.6871353474028
 10
1321.7120189913305
 20
-1387.4911987050757
  0
LWPOLYLINE
  5
26B
330
17
100
AcDbEntity
  8
MURI_ESISTENTI
100
AcDbPolyline
 90
2
 70
0
 10
1321.7120189913305
 20
-1387.4911987050757
 10
1325.0977021159847
 20
-1392.8116106169305
  0
LWPOLYLINE
  5
26C
330
17
100
AcDbEntity
  8
MURI_ESISTENTI
100
AcDbPolyline
 90
2
 70
0
 10
1325.0977021159847
 20
-1392.8116106169305
 10
1329.4506881322757
 20
-1397.1647196371493
  0
LWPOLYLINE
  5
26D
330
17
100
AcDbEntity
  8
MURI_ESISTENTI
100
AcDbPolyline
 90
2
 70
0
 10
1329.4506881322757
 20
-1397.1647196371493
 10
1334.7711000441304
 20
-1400.0666283120577
  0
LWPOLYLINE
  5
26E
330
17
100
AcDbEntity
  8
MURI_ESISTENTI
100
AcDbPolyline
 90
2
 70
0
 10
1451.8195470852952
 20
-1451.335895639477
 10
1458.5909133346038
 20
-1453.270501422749
  0
LWPOLYLINE
  5
26F
330
17
100
AcDbEntity
  8
MURI_ESISTENTI
100
AcDbPolyline
 90
2
 70
0
 10
1458.5909133346038
 20
-1453.270501422749
 10
1465.3622795839126
 20
-1453.270501422749
  0
LWPOLYLINE
  5
270
330
17
100
AcDbEntity
  8
MURI_ESISTENTI
100
AcDbPolyline
 90
2
 70
0
 10
1465.3622795839126
 20
-1453.270501422749
 10
1472.1337688371502
 20
-1451.3358956394768
  0
LWPOLYLINE
  5
271
330
17
100
AcDbEntity
  8
MURI_ESISTENTI
100
AcDbPolyline
 90
2
 70
0
 10
1472.1337688371502
 20
-1451.3358956394768
 10
1477.9378321948227
 20
-1447.9500895108943
  0
LWPOLYLINE
  5
272
330
17
100
AcDbEntity
  8
MURI_ESISTENTI
100
AcDbPolyline
 90
2
 70
0
 10
1477.9378321948227
 20
-1447.9500895108943
 10
1482.7744696569314
 20
-1443.1134520487856
  0
LWPOLYLINE
  5
273
330
17
100
AcDbEntity
  8
MURI_ESISTENTI
100
AcDbPolyline
 90
2
 70
0
 10
1482.7744696569314
 20
-1443.1134520487856
 10
1486.1601527815858
 20
-1437.3093886911129
  0
LWPOLYLINE
  5
274
330
17
100
AcDbEntity
  8
MURI_ESISTENTI
100
AcDbPolyline
 90
2
 70
0
 10
1486.1601527815858
 20
-1437.3093886911129
 10
1487.611230122968
 20
-1431.021673887622
  0
LWPOLYLINE
  5
275
330
17
100
AcDbEntity
  8
MURI_ESISTENTI
100
AcDbPolyline
 90
2
 70
0
 10
1487.611230122968
 20
-1431.021673887622
 10
1487.6112301229682
 20
-1424.2501846343848
  0
LWPOLYLINE
  5
276
330
17
100
AcDbEntity
  8
MURI_ESISTENTI
100
AcDbPolyline
 90
2
 70
0
 10
1487.6112301229682
 20
-1424.2501846343848
 10
1486.1601527815858
 20
-1417.478818385076
  0
LWPOLYLINE
  5
277
330
17
100
AcDbEntity
  8
MURI_ESISTENTI
100
AcDbPolyline
 90
2
 70
0
 10
1486.1601527815858
 20
-1417.478818385076
 10
1482.7744696569312
 20
-1411.674755027403
  0
LWPOLYLINE
  5
278
330
17
100
AcDbEntity
  8
MURI_ESISTENTI
100
AcDbPolyline
 90
2
 70
0
 10
1482.7744696569312
 20
-1411.674755027403
 10
1477.9378321948227
 20
-1406.8381175652944
  0
LWPOLYLINE
  5
279
330
17
100
AcDbEntity
  8
MURI_ESISTENTI
100
AcDbPolyline
 90
2
 70
0
 10
1477.9378321948227
 20
-1406.8381175652944
 10
1471.6499943874037
 20
-1403.4524344406402
  0
LWPOLYLINE
  5
27A
330
17
100
AcDbEntity
  8
MURI_ESISTENTI
100
AcDbPolyline
 90
2
 70
0
 10
1341.5424662934392
 20
-1389.425927492276
 10
1395.2299908499488
 20
-1411.191103581585
  0
LWPOLYLINE
  5
27B
330
17
100
AcDbEntity
  8
MURI_ESISTENTI
100
AcDbPolyline
 90
2
 70
0
 10
1395.2299908499488
 20
-1411.191103581585
 10
1376.3668464394764
 20
-1456.1725331015855
  0
LWPOLYLINE
  5
27C
330
17
100
AcDbEntity
  8
MURI_ESISTENTI
100
AcDbPolyline
 90
2
 70
0
 10
2031.2574729255896
 20
-1841.6584799213706
 10
1992.5638812130078
 20
-1818.4422264906789
  0
LWPOLYLINE
  5
27D
330
17
100
AcDbEntity
  8
MURI_ESISTENTI
100
AcDbPolyline
 90
2
 70
0
 10
2032.2248988211534
 20
-1842.1421313671885
 10
2146.371314183482
 20
-1650.1247581299513
  0
LWPOLYLINE
  5
27E
330
17
100
AcDbEntity
  8
MURI_ESISTENTI
100
AcDbPolyline
 90
2
 70
0
 10
2146.371314183482
 20
-1650.1247581299513
 10
2106.22652212559
 20
-1626.9085046992598
  0
LWPOLYLINE
  5
27F
330
17
100
AcDbEntity
  8
MURI_ESISTENTI
100
AcDbPolyline
 90
2
 70
0
 10
2026.9044869092988
 20
-1839.2400996883518
 10
2141.0509022716274
 20
-1647.2226034471867
  0
LWPOLYLINE
  5
280
330
17
100
AcDbEntity
  8
MURI_ESISTENTI
100
AcDbPolyline
 90
2
 70
0
 10
2135.246838913954
 20
-1774.9117513081328
 10
2088.814332052571
 20
-1747.342634865079
  0
LWPOLYLINE
  5
281
330
17
100
AcDbEntity
  8
MURI_ESISTENTI
100
AcDbPolyline
 90
2
 70
0
 10
2220.8565889337365
 20
-1521.9518358192588
 10
2182.162997221155
 20
-1499.2193568383138
  0
LWPOLYLINE
  5
282
330
17
100
AcDbEntity
  8
MURI_ESISTENTI
100
AcDbPolyline
 90
2
 70
0
 10
2220.8565889337365
 20
-1521.9518358192588
 10
2335.9703071877007
 20
-1328.4833852406393
  0
LWPOLYLINE
  5
283
330
17
100
AcDbEntity
  8
MURI_ESISTENTI
100
AcDbPolyline
 90
2
 70
0
 10
2335.9703071877007
 20
-1328.4833852406393
 10
2295.825515129809
 20
-1304.7834803641301
  0
LWPOLYLINE
  5
284
330
17
100
AcDbEntity
  8
MURI_ESISTENTI
100
AcDbPolyline
 90
2
 70
0
 10
2329.68259238421
 20
-1324.614050670167
 10
2216.0198284676994
 20
-1519.0498041404226
  0
LWPOLYLINE
  5
285
330
17
100
AcDbEntity
  8
MURI_ESISTENTI
100
AcDbPolyline
 90
2
 70
0
 10
2352.898845814901
 20
-1343.4771950806394
 10
2333.5520499586105
 20
-1332.3527198111117
  0
LWPOLYLINE
  5
286
330
17
100
AcDbEntity
  8
MURI_ESISTENTI
100
AcDbPolyline
 90
2
 70
0
 10
2243.58919091861
 20
-1528.2395506227497
 10
2224.242395062319
 20
-1516.631423907404
  0
LWPOLYLINE
  5
287
330
17
100
AcDbEntity
  8
MURI_ESISTENTI
100
AcDbPolyline
 90
2
 70
0
 10
2439.959550172137
 20
-1148.0740157148196
 10
2400.7823070137374
 20
-1125.3415367338744
  0
LWPOLYLINE
  5
288
330
17
100
AcDbEntity
  8
MURI_ESISTENTI
100
AcDbPolyline
 90
2
 70
0
 10
2439.959550172137
 20
-1148.0740157148196
 10
2503.8042471065382
 20
-1044.0847727303828
  0
LWPOLYLINE
  5
289
330
17
100
AcDbEntity
  8
MURI_ESISTENTI
100
AcDbPolyline
 90
2
 70
0
 10
2503.8042471065382
 20
-1044.0847727303828
 10
2462.6921521570107
 20
-1019.9012164080558
  0
LWPOLYLINE
  5
28A
330
17
100
AcDbEntity
  8
MURI_ESISTENTI
100
AcDbPolyline
 90
2
 70
0
 10
2437.0576414972293
 20
-1146.6230613773655
 10
2498.483835194683
 20
-1041.1827410515466
  0
LWPOLYLINE
  5
28B
330
17
100
AcDbEntity
  8
MURI_ESISTENTI
100
AcDbPolyline
 90
2
 70
0
 10
2463.659455048647
 20
-1156.7801107513292
 10
2442.861704854902
 20
-1143.7210296985295
  0
LWPOLYLINE
  5
28C
330
17
100
AcDbEntity
  8
MURI_ESISTENTI
100
AcDbPolyline
 90
2
 70
0
 10
2520.2491342879207
 20
-1061.0133113575835
 10
2500.902092423774
 20
-1049.4051846422378
  0
LWPOLYLINE
  5
28D
330
17
100
AcDbEntity
  8
MURI_ESISTENTI
100
AcDbPolyline
 90
2
 70
0
 10
1091.9681109252917
 20
-553.1586285887074
 10
1139.8516951280567
 20
-563.7993294084887
  0
LWPOLYLINE
  5
28E
330
17
100
AcDbEntity
  8
MURI_ESISTENTI
100
AcDbPolyline
 90
2
 70
0
 10
1118.5701704845658
 20
-644.5724419661624
 10
1073.588617960637
 20
-634.4153925921989
  0
LWPOLYLINE
  5
28F
330
17
100
AcDbEntity
  8
MURI_ESISTENTI
100
AcDbPolyline
 90
2
 70
0
 10
941.0629556415106
 20
-628.6113292345261
 10
852.0673994931458
 20
-604.9114243580167
  0
LWPOLYLINE
  5
290
330
17
100
AcDbEntity
  8
MURI_ESISTENTI
100
AcDbPolyline
 90
2
 70
0
 10
940.5790581878364
 20
-628.6113292345261
 10
943.4812128706008
 20
-617.0032025191805
  0
LWPOLYLINE
  5
291
330
17
100
AcDbEntity
  8
MURI_ESISTENTI
100
AcDbPolyline
 90
2
 70
0
 10
943.4812128706008
 20
-617.0032025191805
 10
944.9321672080548
 20
-604.9114243580168
  0
LWPOLYLINE
  5
292
330
17
100
AcDbEntity
  8
MURI_ESISTENTI
100
AcDbPolyline
 90
2
 70
0
 10
944.9321672080548
 20
-604.9114243580168
 10
944.448515762237
 20
-592.8196461968531
  0
LWPOLYLINE
  5
293
330
17
100
AcDbEntity
  8
MURI_ESISTENTI
100
AcDbPolyline
 90
2
 70
0
 10
944.448515762237
 20
-592.8196461968531
 10
942.5139099789648
 20
-581.2115194815074
  0
LWPOLYLINE
  5
294
330
17
100
AcDbEntity
  8
MURI_ESISTENTI
100
AcDbPolyline
 90
2
 70
0
 10
942.5139099789648
 20
-581.2115194815074
 10
938.644452404564
 20
-569.6033927661616
  0
LWPOLYLINE
  5
295
330
17
100
AcDbEntity
  8
MURI_ESISTENTI
100
AcDbPolyline
 90
2
 70
0
 10
938.644452404564
 20
-569.6033927661616
 10
933.8076919385272
 20
-558.9626919463802
  0
LWPOLYLINE
  5
296
330
17
100
AcDbEntity
  8
MURI_ESISTENTI
100
AcDbPolyline
 90
2
 70
0
 10
933.8076919385272
 20
-558.9626919463802
 10
927.0363256892184
 20
-548.8055195684886
  0
LWPOLYLINE
  5
297
330
17
100
AcDbEntity
  8
MURI_ESISTENTI
100
AcDbPolyline
 90
2
 70
0
 10
927.0363256892184
 20
-548.8055195684886
 10
918.8140051024554
 20
-540.0994245319794
  0
LWPOLYLINE
  5
298
330
17
100
AcDbEntity
  8
MURI_ESISTENTI
100
AcDbPolyline
 90
2
 70
0
 10
918.8140051024554
 20
-540.0994245319794
 10
909.6241356161996
 20
-532.3607553910343
  0
LWPOLYLINE
  5
299
330
17
100
AcDbEntity
  8
MURI_ESISTENTI
100
AcDbPolyline
 90
2
 70
0
 10
909.6241356161996
 20
-532.3607553910343
 10
899.4672092461647
 20
-526.0730405875436
  0
LWPOLYLINE
  5
29A
330
17
100
AcDbEntity
  8
MURI_ESISTENTI
100
AcDbPolyline
 90
2
 70
0
 10
899.4672092461647
 20
-526.0730405875436
 10
888.3427339766371
 20
-521.2362801215068
  0
LWPOLYLINE
  5
29B
330
17
100
AcDbEntity
  8
MURI_ESISTENTI
100
AcDbPolyline
 90
2
 70
0
 10
888.3427339766371
 20
-521.2362801215068
 10
876.7346072612913
 20
-517.8505969968523
  0
LWPOLYLINE
  5
29C
330
17
100
AcDbEntity
  8
MURI_ESISTENTI
100
AcDbPolyline
 90
2
 70
0
 10
1375.39954354784
 20
-605.8787272496527
 10
1374.915769098094
 20
-604.4277729121987
  0
LWPOLYLINE
  5
29D
330
17
100
AcDbEntity
  8
MURI_ESISTENTI
100
AcDbPolyline
 90
2
 70
0
 10
1374.915769098094
 20
-604.4277729121987
 10
1372.9811633148217
 20
-603.4603470166344
  0
LWPOLYLINE
  5
29E
330
17
100
AcDbEntity
  8
MURI_ESISTENTI
100
AcDbPolyline
 90
2
 70
0
 10
1372.9811633148217
 20
-603.4603470166344
 10
1371.5300859734393
 20
-604.4277729121986
  0
LWPOLYLINE
  5
29F
330
17
100
AcDbEntity
  8
MURI_ESISTENTI
100
AcDbPolyline
 90
2
 70
0
 10
1371.5300859734393
 20
-604.4277729121986
 10
1370.5627830818034
 20
-605.8787272496527
  0
LWPOLYLINE
  5
2A0
330
17
100
AcDbEntity
  8
MURI_ESISTENTI
100
AcDbPolyline
 90
2
 70
0
 10
1370.5627830818034
 20
-605.8787272496527
 10
1371.5300859734396
 20
-607.8134560368533
  0
LWPOLYLINE
  5
2A1
330
17
100
AcDbEntity
  8
MURI_ESISTENTI
100
AcDbPolyline
 90
2
 70
0
 10
1371.5300859734396
 20
-607.8134560368533
 10
1372.981163314822
 20
-608.2971074826712
  0
LWPOLYLINE
  5
2A2
330
17
100
AcDbEntity
  8
MURI_ESISTENTI
100
AcDbPolyline
 90
2
 70
0
 10
1372.981163314822
 20
-608.2971074826712
 10
1374.9157690980942
 20
-607.8134560368533
  0
LWPOLYLINE
  5
2A3
330
17
100
AcDbEntity
  8
MURI_ESISTENTI
100
AcDbPolyline
 90
2
 70
0
 10
1374.9157690980942
 20
-607.8134560368533
 10
1375.39954354784
 20
-605.8787272496527
  0
LWPOLYLINE
  5
2A4
330
17
100
AcDbEntity
  8
MURI_ESISTENTI
100
AcDbPolyline
 90
2
 70
0
 10
1372.981163314822
 20
-608.2971074826712
 10
1363.7914168324944
 20
-620.3888856438349
  0
LWPOLYLINE
  5
2A5
330
17
100
AcDbEntity
  8
MURI_ESISTENTI
100
AcDbPolyline
 90
2
 70
0
 10
1370.5627830818034
 20
-605.8787272496527
 10
1356.5362761334393
 20
-611.6827906073257
  0
LWPOLYLINE
  5
2A6
330
17
100
AcDbEntity
  8
MURI_ESISTENTI
100
AcDbPolyline
 90
2
 70
0
 10
1435.3746599039123
 20
-622.323614431035
 10
1382.1709097971489
 20
-608.7807589284891
  0
LWPOLYLINE
  5
2A7
330
17
100
AcDbEntity
  8
MURI_ESISTENTI
100
AcDbPolyline
 90
2
 70
0
 10
1435.3746599039123
 20
-624.7418716601253
 10
1382.1709097971493
 20
-611.1991391615077
  0
LWPOLYLINE
  5
2A8
330
17
100
AcDbEntity
  8
MURI_ESISTENTI
100
AcDbPolyline
 90
2
 70
0
 10
1434.8910084580946
 20
-626.6766004473258
 10
1381.2036069055132
 20
-613.617519394526
  0
LWPOLYLINE
  5
2A9
330
17
100
AcDbEntity
  8
MURI_ESISTENTI
100
AcDbPolyline
 90
2
 70
0
 10
1434.4073570122764
 20
-629.0949806803442
 10
1380.7198324557667
 20
-616.0357766236161
  0
LWPOLYLINE
  5
2AA
330
17
100
AcDbEntity
  8
MURI_ESISTENTI
100
AcDbPolyline
 90
2
 70
0
 10
1433.4400541206403
 20
-631.5133609133626
 10
1379.7525295641308
 20
-618.4541568566347
  0
LWPOLYLINE
  5
2AB
330
17
100
AcDbEntity
  8
MURI_ESISTENTI
100
AcDbPolyline
 90
2
 70
0
 10
1432.9564026748226
 20
-633.4479666966347
 10
1379.2688781183128
 20
-620.3888856438349
  0
LWPOLYLINE
  5
2AC
330
17
100
AcDbEntity
  8
MURI_ESISTENTI
100
AcDbPolyline
 90
2
 70
0
 10
1432.9564026748224
 20
-635.8663469296531
 10
1378.7852266724944
 20
-622.8072658768533
  0
LWPOLYLINE
  5
2AD
330
17
100
AcDbEntity
  8
MURI_ESISTENTI
100
AcDbPolyline
 90
2
 70
0
 10
1431.988976779258
 20
-638.7683786084896
 10
1378.3015752266767
 20
-625.7092975556899
  0
LWPOLYLINE
  5
2AE
330
17
100
AcDbEntity
  8
MURI_ESISTENTI
100
AcDbPolyline
 90
2
 70
0
 10
1431.5053253334402
 20
-641.1867588415079
 10
1377.8178007769302
 20
-628.1275547847798
  0
LWPOLYLINE
  5
2AF
330
17
100
AcDbEntity
  8
MURI_ESISTENTI
100
AcDbPolyline
 90
2
 70
0
 10
1431.021673887622
 20
-643.6051390745263
 10
1377.3341493311123
 20
-630.5459350177981
  0
LWPOLYLINE
  5
2B0
330
17
100
AcDbEntity
  8
MURI_ESISTENTI
100
AcDbPolyline
 90
2
 70
0
 10
1430.054370995986
 20
-646.5071707533627
 10
1376.3668464394761
 20
-632.9643152508165
  0
LWPOLYLINE
  5
2B1
330
17
100
AcDbEntity
  8
MURI_ESISTENTI
100
AcDbPolyline
 90
2
 70
0
 10
1438.760466032495
 20
-1117.6027445890013
 10
1435.3746599039125
 20
-1125.8251881796925
  0
LWPOLYLINE
  5
2B2
330
17
100
AcDbEntity
  8
MURI_ESISTENTI
100
AcDbPolyline
 90
2
 70
0
 10
1435.3746599039125
 20
-1125.8251881796925
 10
1509.860057658095
 20
-1158.7148395385293
  0
LWPOLYLINE
  5
2B3
330
17
100
AcDbEntity
  8
MURI_ESISTENTI
100
AcDbPolyline
 90
2
 70
0
 10
1550.488501161805
 20
-1079.876455768056
 10
1465.8460540336591
 20
-1045.0520756220192
  0
LWPOLYLINE
  5
2B4
330
17
100
AcDbEntity
  8
MURI_ESISTENTI
100
AcDbPolyline
 90
2
 70
0
 10
1581.9270751792599
 20
-1616.7513323213684
 10
1563.0639307687868
 20
-1609.0126631804233
  0
LWPOLYLINE
  5
2B5
330
17
100
AcDbEntity
  8
MURI_ESISTENTI
100
AcDbPolyline
 90
2
 70
0
 10
1563.0639307687868
 20
-1609.0126631804233
 10
1550.488501161805
 20
-1639.0002828604236
  0
LWPOLYLINE
  5
2B6
330
17
100
AcDbEntity
  8
MURI_ESISTENTI
100
AcDbPolyline
 90
2
 70
0
 10
1550.488501161805
 20
-1639.0002828604236
 10
1569.8352970180956
 20
-1647.2226034471867
  0
LWPOLYLINE
  5
2B7
330
17
100
AcDbEntity
  8
MURI_ESISTENTI
100
AcDbPolyline
 90
2
 70
0
 10
1569.8352970180956
 20
-1647.2226034471867
 10
1582.4107266250778
 20
-1617.2349837671863
  0
LWPOLYLINE
  5
2B8
330
17
100
AcDbEntity
  8
MURI_ESISTENTI
100
AcDbPolyline
 90
2
 70
0
 10
1565.4821879978772
 20
-1625.941201807624
 10
1564.514885106241
 20
-1624.0063500164954
  0
LWPOLYLINE
  5
2B9
330
17
100
AcDbEntity
  8
MURI_ESISTENTI
100
AcDbPolyline
 90
2
 70
0
 10
1564.514885106241
 20
-1624.0063500164954
 10
1563.0639307687873
 20
-1623.5226985706772
  0
LWPOLYLINE
  5
2BA
330
17
100
AcDbEntity
  8
MURI_ESISTENTI
100
AcDbPolyline
 90
2
 70
0
 10
1563.0639307687873
 20
-1623.5226985706772
 10
1561.1292019815867
 20
-1624.0063500164954
  0
LWPOLYLINE
  5
2BB
330
17
100
AcDbEntity
  8
MURI_ESISTENTI
100
AcDbPolyline
 90
2
 70
0
 10
1561.1292019815867
 20
-1624.0063500164954
 10
1560.16189908995
 20
-1625.9412018076237
  0
LWPOLYLINE
  5
2BC
330
17
100
AcDbEntity
  8
MURI_ESISTENTI
100
AcDbPolyline
 90
2
 70
0
 10
1560.16189908995
 20
-1625.9412018076237
 10
1561.1292019815867
 20
-1627.875807590896
  0
LWPOLYLINE
  5
2BD
330
17
100
AcDbEntity
  8
MURI_ESISTENTI
100
AcDbPolyline
 90
2
 70
0
 10
1561.1292019815867
 20
-1627.875807590896
 10
1563.063930768787
 20
-1628.359459036714
  0
LWPOLYLINE
  5
2BE
330
17
100
AcDbEntity
  8
MURI_ESISTENTI
100
AcDbPolyline
 90
2
 70
0
 10
1563.063930768787
 20
-1628.359459036714
 10
1564.5148851062409
 20
-1627.8758075908959
  0
LWPOLYLINE
  5
2BF
330
17
100
AcDbEntity
  8
MURI_ESISTENTI
100
AcDbPolyline
 90
2
 70
0
 10
1564.5148851062409
 20
-1627.8758075908959
 10
1565.4821879978772
 20
-1625.941201807624
  0
LWPOLYLINE
  5
2C0
330
17
100
AcDbEntity
  8
MURI_ESISTENTI
100
AcDbPolyline
 90
2
 70
0
 10
1897.280610261152
 20
-1888.0908637788248
 10
1891.476546903479
 20
-1899.2153390483525
  0
LWPOLYLINE
  5
2C1
330
17
100
AcDbEntity
  8
MURI_ESISTENTI
100
AcDbPolyline
 90
2
 70
0
 10
1891.476546903479
 20
-1899.2153390483525
 10
1887.6072123330068
 20
-1911.7907686553344
  0
LWPOLYLINE
  5
2C2
330
17
100
AcDbEntity
  8
MURI_ESISTENTI
100
AcDbPolyline
 90
2
 70
0
 10
1887.6072123330068
 20
-1911.7907686553344
 10
1885.1888320999888
 20
-1924.366198262316
  0
LWPOLYLINE
  5
2C3
330
17
100
AcDbEntity
  8
MURI_ESISTENTI
100
AcDbPolyline
 90
2
 70
0
 10
1885.1888320999888
 20
-1924.366198262316
 10
1884.7051806541706
 20
-1937.4252793151159
  0
LWPOLYLINE
  5
2C4
330
17
100
AcDbEntity
  8
MURI_ESISTENTI
100
AcDbPolyline
 90
2
 70
0
 10
1884.7051806541706
 20
-1937.4252793151159
 10
1886.1562579955528
 20
-1950.484483371844
  0
LWPOLYLINE
  5
2C5
330
17
100
AcDbEntity
  8
MURI_ESISTENTI
100
AcDbPolyline
 90
2
 70
0
 10
1886.1562579955528
 20
-1950.484483371844
 10
1889.0581666704607
 20
-1963.0599129788257
  0
LWPOLYLINE
  5
2C6
330
17
100
AcDbEntity
  8
MURI_ESISTENTI
100
AcDbPolyline
 90
2
 70
0
 10
1889.0581666704607
 20
-1963.0599129788257
 10
1894.3785785823159
 20
-1974.668039694171
  0
LWPOLYLINE
  5
2C7
330
17
100
AcDbEntity
  8
MURI_ESISTENTI
100
AcDbPolyline
 90
2
 70
0
 10
1894.3785785823159
 20
-1974.668039694171
 10
1900.6662933858065
 20
-1985.7923919597704
  0
LWPOLYLINE
  5
2C8
330
17
100
AcDbEntity
  8
MURI_ESISTENTI
100
AcDbPolyline
 90
2
 70
0
 10
1900.6662933858065
 20
-1985.7923919597704
 10
1908.8887369764975
 20
-1995.9495643376624
  0
LWPOLYLINE
  5
2C9
330
17
100
AcDbEntity
  8
MURI_ESISTENTI
100
AcDbPolyline
 90
2
 70
0
 10
1908.8887369764975
 20
-1995.9495643376624
 10
1918.0784834588253
 20
-2005.1393108199895
  0
LWPOLYLINE
  5
2CA
330
17
100
AcDbEntity
  8
MURI_ESISTENTI
100
AcDbPolyline
 90
2
 70
0
 10
1918.0784834588253
 20
-2005.1393108199895
 10
1928.7193072825348
 20
-2012.3943285151165
  0
LWPOLYLINE
  5
2CB
330
17
100
AcDbEntity
  8
MURI_ESISTENTI
100
AcDbPolyline
 90
2
 70
0
 10
1974.6680396941713
 20
-1982.4067088351162
 10
1979.988451606026
 20
-2023.035029334898
  0
LWPOLYLINE
  5
2CC
330
17
100
AcDbEntity
  8
MURI_ESISTENTI
100
AcDbPolyline
 90
2
 70
0
 10
1979.988451606026
 20
-2023.035029334898
 10
1988.2107721927894
 20
-2010.9432511737343
  0
LWPOLYLINE
  5
2CD
330
17
100
AcDbEntity
  8
MURI_ESISTENTI
100
AcDbPolyline
 90
2
 70
0
 10
1988.2107721927894
 20
-2010.9432511737343
 10
1998.8515960164987
 20
-2017.2310889811533
  0
LWPOLYLINE
  5
2CE
330
17
100
AcDbEntity
  8
MURI_ESISTENTI
100
AcDbPolyline
 90
2
 70
0
 10
1998.8515960164987
 20
-2017.2310889811533
 10
2013.3617544106808
 20
-1991.1128038716254
  0
LWPOLYLINE
  5
2CF
330
17
100
AcDbEntity
  8
MURI_ESISTENTI
100
AcDbPolyline
 90
2
 70
0
 10
2013.3617544106808
 20
-1991.1128038716254
 10
2001.753627695335
 20
-1983.8577861764986
  0
LWPOLYLINE
  5
2D0
330
17
100
AcDbEntity
  8
MURI_ESISTENTI
100
AcDbPolyline
 90
2
 70
0
 10
2001.753627695335
 20
-1983.8577861764986
 10
2008.524993944644
 20
-1972.733310906971
  0
LWPOLYLINE
  5
2D1
330
17
100
AcDbEntity
  8
MURI_ESISTENTI
100
AcDbPolyline
 90
2
 70
0
 10
2008.524993944644
 20
-1972.733310906971
 10
1974.668039694171
 20
-1982.8903602809341
  0
LWPOLYLINE
  5
2D2
330
17
100
AcDbEntity
  8
MURI_ESISTENTI
100
AcDbPolyline
 90
2
 70
0
 10
1390.3933533878405
 20
-1961.125184191625
 10
1377.8178007769302
 20
-1956.2884237255887
  0
LWPOLYLINE
  5
2D3
330
17
100
AcDbEntity
  8
MURI_ESISTENTI
100
AcDbPolyline
 90
2
 70
0
 10
1377.8178007769302
 20
-1956.2884237255887
 10
1359.4383078122758
 20
-1998.3678215667526
  0
LWPOLYLINE
  5
2D4
330
17
100
AcDbEntity
  8
MURI_ESISTENTI
100
AcDbPolyline
 90
2
 70
0
 10
1359.4383078122758
 20
-1998.3678215667526
 10
1373.948466206458
 20
-2003.6882334786073
  0
LWPOLYLINE
  5
2D5
330
17
100
AcDbEntity
  8
MURI_ESISTENTI
100
AcDbPolyline
 90
2
 70
0
 10
1363.7914168324944
 20
-1956.7721981753346
 10
1326.0650050076213
 20
-1938.876356656498
  0
LWPOLYLINE
  5
2D6
330
17
100
AcDbEntity
  8
MURI_ESISTENTI
100
AcDbPolyline
 90
2
 70
0
 10
1348.7976069924944
 20
-1990.6291524258074
 10
1309.6202408301667
 20
-1974.184265244425
  0
LWPOLYLINE
  5
2D7
330
17
100
AcDbEntity
  8
MURI_ESISTENTI
100
AcDbPolyline
 90
2
 70
0
 10
1363.7914168324944
 20
-1956.7721981753346
 10
1349.2812584383125
 20
-1991.1128038716256
  0
LWPOLYLINE
  5
2D8
330
17
100
AcDbEntity
  8
MURI_ESISTENTI
100
AcDbPolyline
 90
2
 70
0
 10
1357.9873534748217
 20
-1970.7985821197703
 10
1369.5954801901676
 20
-1975.6353425858074
  0
LWPOLYLINE
  5
2D9
330
17
100
AcDbEntity
  8
MURI_ESISTENTI
100
AcDbPolyline
 90
2
 70
0
 10
1356.5362761334393
 20
-1973.700613798607
 10
1367.6607514029668
 20
-1979.0210257104613
  0
LWPOLYLINE
  5
2DA
330
17
100
AcDbEntity
  8
MURI_ESISTENTI
100
AcDbPolyline
 90
10
 70
0
 10
1325.507305197006
 20
-1938.5716759262614
 10
1323.6225163421277
 20
-1938.7525300024004
 10
1321.6011951516657
 20
-1939.4694827795524
 10
1319.4932832452391
 20
-1940.6747652013075
 10
1317.348722242466
 20
-1942.3206082112558
 10
1315.2174537629664
 20
-1944.3592427529886
 10
1313.1494194263596
 20
-1946.742899770095
 10
1311.1945608522642
 20
-1949.423810206168
 10
1309.4028196603003
 20
-1952.3542050047963
 10
1307.8241374700865
 20
-1955.4863151095715
  0
LWPOLYLINE
  5
2DB
330
17
100
AcDbEntity
  8
MURI_ESISTENTI
100
AcDbPolyline
 90
10
 70
0
 10
1307.8241374700865
 20
-1955.4863151095715
 10
1306.5604529856814
 20
-1958.6364803012382
 10
1305.6769701001267
 20
-1961.6189298898528
 10
1305.168405212586
 20
-1964.3827291129671
 10
1305.0294747222254
 20
-1966.8769432081326
 10
1305.2548950282094
 20
-1969.050637412904
 10
1305.839382529703
 20
-1970.8528769648333
 10
1306.7776536258714
 20
-1972.2327271014738
 10
1308.0644247158796
 20
-1973.1392530603773
 10
1309.6944121988922
 20
-1973.5215200790974
  0
LWPOLYLINE
  5
2DC
330
17
100
AcDbEntity
  8
MURI_ESISTENTI
100
AcDbPolyline
 90
2
 70
0
 10
1259.8020508441298
 20
-1817.9585750448612
 10
1261.7367796313297
 20
-1815.5401948118426
  0
LWPOLYLINE
  5
2DD
330
17
100
AcDbEntity
  8
MURI_ESISTENTI
100
AcDbPolyline
 90
2
 70
0
 10
1261.7367796313297
 20
-1815.5401948118426
 10
1266.0898886515486
 20
-1809.7361314541697
  0
LWPOLYLINE
  5
2DE
330
17
100
AcDbEntity
  8
MURI_ESISTENTI
100
AcDbPolyline
 90
2
 70
0
 10
1266.0898886515486
 20
-1809.7361314541697
 10
1268.508145880639
 20
-1805.8667968836974
  0
LWPOLYLINE
  5
2DF
330
17
100
AcDbEntity
  8
MURI_ESISTENTI
100
AcDbPolyline
 90
2
 70
0
 10
1268.508145880639
 20
-1805.8667968836974
 10
1269.4755717762032
 20
-1801.0300364176605
  0
LWPOLYLINE
  5
2E0
330
17
100
AcDbEntity
  8
MURI_ESISTENTI
100
AcDbPolyline
 90
2
 70
0
 10
1269.4755717762032
 20
-1801.0300364176605
 10
1266.573540097367
 20
-1796.1933989555519
  0
LWPOLYLINE
  5
2E1
330
17
100
AcDbEntity
  8
MURI_ESISTENTI
100
AcDbPolyline
 90
2
 70
0
 10
1266.573540097367
 20
-1796.1933989555519
 10
1219.657381790166
 20
-1777.8139059908974
  0
LWPOLYLINE
  5
2E2
330
17
100
AcDbEntity
  8
MURI_ESISTENTI
100
AcDbPolyline
 90
2
 70
0
 10
1219.657381790166
 20
-1777.8139059908974
 10
1194.5065225762025
 20
-1839.2400996883518
  0
LWPOLYLINE
  5
2E3
330
17
100
AcDbEntity
  8
MURI_ESISTENTI
100
AcDbPolyline
 90
2
 70
0
 10
1194.5065225762025
 20
-1839.2400996883518
 10
1243.8409381124932
 20
-1857.6195926530067
  0
LWPOLYLINE
  5
2E4
330
17
100
AcDbEntity
  8
MURI_ESISTENTI
100
AcDbPolyline
 90
2
 70
0
 10
1243.8409381124932
 20
-1857.6195926530067
 10
1246.74296979133
 20
-1856.1686383155527
  0
LWPOLYLINE
  5
2E5
330
17
100
AcDbEntity
  8
MURI_ESISTENTI
100
AcDbPolyline
 90
2
 70
0
 10
1246.74296979133
 20
-1856.1686383155527
 10
1250.6123043618022
 20
-1854.7175609741703
  0
LWPOLYLINE
  5
2E6
330
17
100
AcDbEntity
  8
MURI_ESISTENTI
100
AcDbPolyline
 90
2
 70
0
 10
1250.6123043618022
 20
-1854.7175609741703
 10
1251.5797302573665
 20
-1850.8482264036977
  0
LWPOLYLINE
  5
2E7
330
17
100
AcDbEntity
  8
MURI_ESISTENTI
100
AcDbPolyline
 90
2
 70
0
 10
1251.5797302573665
 20
-1850.8482264036977
 10
1252.0633817031849
 20
-1846.011465937661
  0
LWPOLYLINE
  5
2E8
330
17
100
AcDbEntity
  8
MURI_ESISTENTI
100
AcDbPolyline
 90
2
 70
0
 10
1252.0633817031849
 20
-1846.011465937661
 10
1250.6123043618022
 20
-1840.207402579988
  0
LWPOLYLINE
  5
2E9
330
17
100
AcDbEntity
  8
MURI_ESISTENTI
100
AcDbPolyline
 90
2
 70
0
 10
1250.6123043618022
 20
-1840.207402579988
 10
1253.030684594821
 20
-1832.468733439043
  0
LWPOLYLINE
  5
2EA
330
17
100
AcDbEntity
  8
MURI_ESISTENTI
100
AcDbPolyline
 90
2
 70
0
 10
1253.030684594821
 20
-1832.468733439043
 10
1259.8020508441298
 20
-1817.9585750448612
  0
LWPOLYLINE
  5
2EB
330
17
100
AcDbEntity
  8
MURI_ESISTENTI
100
AcDbPolyline
 90
2
 70
0
 10
1243.8409381124932
 20
-1857.6195926530067
 10
1241.9063323292214
 20
-1851.3318778495159
  0
LWPOLYLINE
  5
2EC
330
17
100
AcDbEntity
  8
MURI_ESISTENTI
100
AcDbPolyline
 90
2
 70
0
 10
1241.9063323292214
 20
-1851.3318778495159
 10
1240.4552549878388
 20
-1846.9787688292968
  0
LWPOLYLINE
  5
2ED
330
17
100
AcDbEntity
  8
MURI_ESISTENTI
100
AcDbPolyline
 90
2
 70
0
 10
1240.4552549878388
 20
-1846.9787688292968
 10
1237.0695718631846
 20
-1844.5605116002068
  0
LWPOLYLINE
  5
2EE
330
17
100
AcDbEntity
  8
MURI_ESISTENTI
100
AcDbPolyline
 90
2
 70
0
 10
1237.0695718631846
 20
-1844.5605116002068
 10
1229.3307797183113
 20
-1842.1421313671885
  0
LWPOLYLINE
  5
2EF
330
17
100
AcDbEntity
  8
MURI_ESISTENTI
100
AcDbPolyline
 90
2
 70
0
 10
1229.3307797183113
 20
-1842.1421313671885
 10
1221.5921105773664
 20
-1842.1421313671883
  0
LWPOLYLINE
  5
2F0
330
17
100
AcDbEntity
  8
MURI_ESISTENTI
100
AcDbPolyline
 90
2
 70
0
 10
1221.5921105773664
 20
-1842.1421313671883
 10
1216.2716986655116
 20
-1840.2074025799882
  0
LWPOLYLINE
  5
2F1
330
17
100
AcDbEntity
  8
MURI_ESISTENTI
100
AcDbPolyline
 90
2
 70
0
 10
1216.2716986655116
 20
-1840.2074025799882
 10
1212.4023640950388
 20
-1838.2727967967157
  0
LWPOLYLINE
  5
2F2
330
17
100
AcDbEntity
  8
MURI_ESISTENTI
100
AcDbPolyline
 90
2
 70
0
 10
1212.4023640950388
 20
-1838.2727967967157
 10
1210.4676353078385
 20
-1835.3706421139511
  0
LWPOLYLINE
  5
2F3
330
17
100
AcDbEntity
  8
MURI_ESISTENTI
100
AcDbPolyline
 90
2
 70
0
 10
1210.4676353078385
 20
-1835.3706421139511
 10
1211.4349381994748
 20
-1827.6319729730064
  0
LWPOLYLINE
  5
2F4
330
17
100
AcDbEntity
  8
MURI_ESISTENTI
100
AcDbPolyline
 90
2
 70
0
 10
1211.4349381994748
 20
-1827.6319729730064
 10
1223.5267163606386
 20
-1795.709747509734
  0
LWPOLYLINE
  5
2F5
330
17
100
AcDbEntity
  8
MURI_ESISTENTI
100
AcDbPolyline
 90
2
 70
0
 10
1223.5267163606386
 20
-1795.709747509734
 10
1228.3634768266757
 20
-1792.8075928269693
  0
LWPOLYLINE
  5
2F6
330
17
100
AcDbEntity
  8
MURI_ESISTENTI
100
AcDbPolyline
 90
2
 70
0
 10
1228.3634768266757
 20
-1792.8075928269693
 10
1236.1022689715487
 20
-1793.7750187225336
  0
LWPOLYLINE
  5
2F7
330
17
100
AcDbEntity
  8
MURI_ESISTENTI
100
AcDbPolyline
 90
2
 70
0
 10
1236.1022689715487
 20
-1793.7750187225336
 10
1242.3899837750396
 20
-1796.6770504013698
  0
LWPOLYLINE
  5
2F8
330
17
100
AcDbEntity
  8
MURI_ESISTENTI
100
AcDbPolyline
 90
2
 70
0
 10
1242.3899837750396
 20
-1796.6770504013698
 10
1248.6776985785302
 20
-1800.0627335260242
  0
LWPOLYLINE
  5
2F9
330
17
100
AcDbEntity
  8
MURI_ESISTENTI
100
AcDbPolyline
 90
2
 70
0
 10
1248.6776985785302
 20
-1800.0627335260242
 10
1256.900019165293
 20
-1800.0627335260242
  0
LWPOLYLINE
  5
2FA
330
17
100
AcDbEntity
  8
MURI_ESISTENTI
100
AcDbPolyline
 90
2
 70
0
 10
1256.900019165293
 20
-1800.0627335260242
 10
1266.573540097367
 20
-1796.1933989555519
  0
LWPOLYLINE
  5
2FB
330
17
100
AcDbEntity
  8
MURI_ESISTENTI
100
AcDbPolyline
 90
2
 70
0
 10
1229.8145541680574
 20
-1815.0565433660247
 10
1229.3307797183115
 20
-1813.121814578824
  0
LWPOLYLINE
  5
2FC
330
17
100
AcDbEntity
  8
MURI_ESISTENTI
100
AcDbPolyline
 90
2
 70
0
 10
1229.3307797183115
 20
-1813.121814578824
 10
1227.8798253808573
 20
-1811.6707372374417
  0
LWPOLYLINE
  5
2FD
330
17
100
AcDbEntity
  8
MURI_ESISTENTI
100
AcDbPolyline
 90
2
 70
0
 10
1227.8798253808573
 20
-1811.6707372374417
 10
1225.945096593657
 20
-1811.187085791624
  0
LWPOLYLINE
  5
2FE
330
17
100
AcDbEntity
  8
MURI_ESISTENTI
100
AcDbPolyline
 90
2
 70
0
 10
1225.945096593657
 20
-1811.187085791624
 10
1223.5267163606384
 20
-1811.6707372374417
  0
LWPOLYLINE
  5
2FF
330
17
100
AcDbEntity
  8
MURI_ESISTENTI
100
AcDbPolyline
 90
2
 70
0
 10
1223.5267163606384
 20
-1811.6707372374417
 10
1222.0757620231843
 20
-1813.1218145788241
  0
LWPOLYLINE
  5
300
330
17
100
AcDbEntity
  8
MURI_ESISTENTI
100
AcDbPolyline
 90
2
 70
0
 10
1222.0757620231843
 20
-1813.1218145788241
 10
1221.5921105773664
 20
-1815.0565433660245
  0
LWPOLYLINE
  5
301
330
17
100
AcDbEntity
  8
MURI_ESISTENTI
100
AcDbPolyline
 90
2
 70
0
 10
1221.5921105773664
 20
-1815.0565433660245
 10
1222.0757620231843
 20
-1817.4748005951146
  0
LWPOLYLINE
  5
302
330
17
100
AcDbEntity
  8
MURI_ESISTENTI
100
AcDbPolyline
 90
2
 70
0
 10
1222.0757620231843
 20
-1817.4748005951146
 10
1223.5267163606384
 20
-1818.9258779364968
  0
LWPOLYLINE
  5
303
330
17
100
AcDbEntity
  8
MURI_ESISTENTI
100
AcDbPolyline
 90
2
 70
0
 10
1223.5267163606384
 20
-1818.9258779364968
 10
1225.945096593657
 20
-1819.4096523862434
  0
LWPOLYLINE
  5
304
330
17
100
AcDbEntity
  8
MURI_ESISTENTI
100
AcDbPolyline
 90
2
 70
0
 10
1225.945096593657
 20
-1819.4096523862434
 10
1227.8798253808573
 20
-1818.925877936497
  0
LWPOLYLINE
  5
305
330
17
100
AcDbEntity
  8
MURI_ESISTENTI
100
AcDbPolyline
 90
2
 70
0
 10
1227.8798253808573
 20
-1818.925877936497
 10
1229.3307797183113
 20
-1817.4748005951146
  0
LWPOLYLINE
  5
306
330
17
100
AcDbEntity
  8
MURI_ESISTENTI
100
AcDbPolyline
 90
2
 70
0
 10
1229.3307797183113
 20
-1817.4748005951146
 10
1229.8145541680574
 20
-1815.0565433660247
  0
LWPOLYLINE
  5
307
330
17
100
AcDbEntity
  8
MURI_ESISTENTI
100
AcDbPolyline
 90
2
 70
0
 10
1350.2485613299484
 20
-1816.0238462576606
 10
1270.9265261136575
 20
-1783.61796934857
  0
LWPOLYLINE
  5
308
330
17
100
AcDbEntity
  8
MURI_ESISTENTI
100
AcDbPolyline
 90
2
 70
0
 10
1270.9265261136575
 20
-1783.61796934857
 10
1271.8938290052934
 20
-1781.1994661116235
  0
LWPOLYLINE
  5
309
330
17
100
AcDbEntity
  8
MURI_ESISTENTI
100
AcDbPolyline
 90
2
 70
0
 10
1270.9265261136575
 20
-1783.61796934857
 10
1269.9592232220214
 20
-1786.5198780234782
  0
LWPOLYLINE
  5
30A
330
17
100
AcDbEntity
  8
MURI_ESISTENTI
100
AcDbPolyline
 90
2
 70
0
 10
1269.9592232220214
 20
-1786.5198780234782
 10
1349.2812584383125
 20
-1818.4422264906789
  0
LWPOLYLINE
  5
30B
330
17
100
AcDbEntity
  8
MURI_ESISTENTI
100
AcDbPolyline
 90
2
 70
0
 10
1351.6996386713308
 20
-1812.6381631330064
 10
1348.7976069924946
 20
-1820.3769552778795
  0
LWPOLYLINE
  5
30C
330
17
100
AcDbEntity
  8
MURI_ESISTENTI
100
AcDbPolyline
 90
2
 70
0
 10
1191.604490897366
 20
-1239.9716035420208
 10
1240.9389064336572
 20
-1128.7272198585292
  0
LWPOLYLINE
  5
30D
330
17
100
AcDbEntity
  8
MURI_ESISTENTI
100
AcDbPolyline
 90
2
 70
0
 10
1248.6776985785302
 20
-1261.7367796313301
 10
1406.8381175652944
 20
-894.1466743303815
  0
LWPOLYLINE
  5
30E
330
17
100
AcDbEntity
  8
MURI_ESISTENTI
100
AcDbPolyline
 90
2
 70
0
 10
1502.1213885171505
 20
-674.0764102003446
 10
1513.7293922285676
 20
-647.4744736449987
  0
LWPOLYLINE
  5
30F
330
17
100
AcDbEntity
  8
MURI_ESISTENTI
100
AcDbPolyline
 90
2
 70
0
 10
1553.8741842864597
 20
-1441.1787232615854
 10
1517.1151983571501
 20
-1528.7232020685676
  0
LWPOLYLINE
  5
310
330
17
100
AcDbEntity
  8
MURI_ESISTENTI
100
AcDbPolyline
 90
2
 70
0
 10
1616.2676808755502
 20
-1468.2643112627493
 10
1603.2085998227506
 20
-1500.1866597299497
  0
LWPOLYLINE
  5
311
330
17
100
AcDbEntity
  8
MURI_ESISTENTI
100
AcDbPolyline
 90
2
 70
0
 10
1862.4563531190431
 20
-1929.686610174171
 10
1862.4563531190431
 20
-1929.686610174171
  0
LWPOLYLINE
  5
312
330
17
100
AcDbEntity
  8
MURI_ESISTENTI
100
AcDbPolyline
 90
2
 70
0
 10
1905.503053851843
 20
-1951.9354377092977
 10
1905.503053851843
 20
-1951.9354377092977
  0
LWPOLYLINE
  5
313
330
17
100
AcDbEntity
  8
MURI_ESISTENTI
100
AcDbPolyline
 90
2
 70
0
 10
1802.9647652048607
 20
-1358.9546563664578
 10
2174.4240820723535
 20
-1512.7620893369317
  0
LWPOLYLINE
  5
314
330
17
100
AcDbEntity
  8
MURI_ESISTENTI
100
AcDbPolyline
 90
2
 70
0
 10
1678.1776490227512
 20
-1380.2361810099487
 10
1656.8961243792603
 20
-1371.5300859734396
  0
LWPOLYLINE
  5
315
330
17
100
AcDbEntity
  8
PERCORSI
100
AcDbPolyline
 90
4
 70
1
 10
1911.7957112146012
 20
-741.6449005969487
 10
2070.5878685580337
 20
-807.7436960944349
 10
1832.3247685089557
 20
-1380.134030704483
 10
1673.532611165523
 20
-1314.0352352069967
  0
LWPOLYLINE
  5
316
330
17
100
AcDbEntity
  8
PERCORSI
100
AcDbPolyline
 90
4
 70
1
 10
1850.3084595890325
 20
-889.3585353350256
 10
2067.262860610583
 20
-979.6679361600795
 10
2028.8333283446025
 20
-1071.9889578713776
 10
1811.878927323052
 20
-981.6795570463237
  0
INSERT
  5
317
330
17
100
AcDbEntity
  8
TAVOLI_80x80
100
AcDbBlockReference
  2
TAVOLO_80x80
 10
2080.337916008311
 20
-974.2787872155477
 30
0.0
 50
-22.6
  0
INSERT
  5
319
330
17
100
AcDbEntity
  8
TAVOLI_80x80
100
AcDbBlockReference
  2
TAVOLO_80x80
 10
2154.194733377349
 20
-1005.022413028332
 30
0.0
 50
-22.6
  0
INSERT
  5
31B
330
17
100
AcDbEntity
  8
TAVOLI_80x80
100
AcDbBlockReference
  2
TAVOLO_80x80
 10
2228.051550746388
 20
-1035.7660388411164
 30
0.0
 50
-22.6
  0
LWPOLYLINE
  5
31D
330
17
100
AcDbEntity
  8
FASCIA_SEDUTA
100
AcDbPolyline
 90
4
 70
1
 10
2134.1392611806837
 20
-845.0293568197304
 10
2355.709713287799
 20
-937.2602342580833
 10
2278.850648755838
 20
-1121.9022776806794
 10
2057.2801966487227
 20
-1029.6714002423266
  0
INSERT
  5
31E
330
17
100
AcDbEntity
  8
SEDIE
100
AcDbBlockReference
  2
SEDIA_45x45
 10
2149.9314271189132
 20
-911.1777316673365
 30
0.0
 50
-22.6
  0
INSERT
  5
320
330
17
100
AcDbEntity
  8
SEDIE
100
AcDbBlockReference
  2
SEDIA_45x45
 10
2223.788244487952
 20
-941.9213574801208
 30
0.0
 50
-22.6
  0
INSERT
  5
322
330
17
100
AcDbEntity
  8
SEDIE
100
AcDbBlockReference
  2
SEDIA_45x45
 10
2297.64506185699
 20
-972.664983292905
 30
0.0
 50
-22.6
  0
INSERT
  5
324
330
17
100
AcDbEntity
  8
SEDIE
100
AcDbBlockReference
  2
SEDIA_45x45
 10
2115.344848079531
 20
-994.2666512075048
 30
0.0
 50
157.4
  0
INSERT
  5
326
330
17
100
AcDbEntity
  8
SEDIE
100
AcDbBlockReference
  2
SEDIA_45x45
 10
2189.2016654485697
 20
-1025.010277020289
 30
0.0
 50
157.4
  0
INSERT
  5
328
330
17
100
AcDbEntity
  8
SEDIE
100
AcDbBlockReference
  2
SEDIA_45x45
 10
2263.058482817608
 20
-1055.7539028330734
 30
0.0
 50
157.4
  0
TEXT
  5
32A
330
17
100
AcDbEntity
  8
NUMERAZIONE
100
AcDbText
 10
2206.4949549682606
 20
-983.465817250205
 30
0.0
 40
14.0
  1
T1 6p
 50
-22.6
 72
1
 11
2206.4949549682606
 21
-983.465817250205
 31
0.0
100
AcDbText
 73
2
  0
INSERT
  5
32B
330
17
100
AcDbEntity
  8
TAVOLI_80x80
100
AcDbBlockReference
  2
TAVOLO_80x80
 10
1915.796416918853
 20
-1187.4127710787366
 30
0.0
 50
-22.6
  0
LWPOLYLINE
  5
32D
330
17
100
AcDbEntity
  8
FASCIA_SEDUTA
100
AcDbPolyline
 90
4
 70
1
 10
1969.5977620912258
 20
-1058.1633406829192
 10
2043.454579460264
 20
-1088.9069664957035
 10
1966.5955149283034
 20
-1273.5490099182996
 10
1892.7386975592651
 20
-1242.8053841055155
  0
INSERT
  5
32E
330
17
100
AcDbEntity
  8
SEDIE
100
AcDbBlockReference
  2
SEDIA_45x45
 10
1985.3899280294556
 20
-1124.3117155305254
 30
0.0
 50
-22.6
  0
INSERT
  5
330
330
17
100
AcDbEntity
  8
SEDIE
100
AcDbBlockReference
  2
SEDIA_45x45
 10
1950.8033489900733
 20
-1207.4006350706936
 30
0.0
 50
157.4
  0
TEXT
  5
332
330
17
100
AcDbEntity
  8
NUMERAZIONE
100
AcDbText
 10
1968.0966385097645
 20
-1165.8561753006095
 30
0.0
 40
14.0
  1
T2 2p
 50
-22.6
 72
1
 11
1968.0966385097645
 21
-1165.8561753006095
 31
0.0
100
AcDbText
 73
2
  0
INSERT
  5
333
330
17
100
AcDbEntity
  8
TAVOLI_80x80
100
AcDbBlockReference
  2
TAVOLO_80x80
 10
2045.0458473146705
 20
-1241.214116251109
 30
0.0
 50
-22.6
  0
INSERT
  5
335
330
17
100
AcDbEntity
  8
TAVOLI_80x80
100
AcDbBlockReference
  2
TAVOLO_80x80
 10
2118.9026646837087
 20
-1271.9577420638932
 30
0.0
 50
-22.6
  0
INSERT
  5
337
330
17
100
AcDbEntity
  8
TAVOLI_80x80
100
AcDbBlockReference
  2
TAVOLO_80x80
 10
2192.7594820527474
 20
-1302.7013678766775
 30
0.0
 50
-22.6
  0
LWPOLYLINE
  5
339
330
17
100
AcDbEntity
  8
FASCIA_SEDUTA
100
AcDbPolyline
 90
4
 70
1
 10
2098.847192487043
 20
-1111.9646858552917
 10
2320.4176445941584
 20
-1204.1955632936447
 10
2243.5585800621975
 20
-1388.8376067162408
 10
2021.988127955082
 20
-1296.606729277888
  0
INSERT
  5
33A
330
17
100
AcDbEntity
  8
SEDIE
100
AcDbBlockReference
  2
SEDIA_45x45
 10
2114.6393584252733
 20
-1178.1130607028979
 30
0.0
 50
-22.6
  0
INSERT
  5
33C
330
17
100
AcDbEntity
  8
SEDIE
100
AcDbBlockReference
  2
SEDIA_45x45
 10
2188.4961757943115
 20
-1208.856686515682
 30
0.0
 50
-22.6
  0
INSERT
  5
33E
330
17
100
AcDbEntity
  8
SEDIE
100
AcDbBlockReference
  2
SEDIA_45x45
 10
2262.3529931633498
 20
-1239.6003123284663
 30
0.0
 50
-22.6
  0
INSERT
  5
340
330
17
100
AcDbEntity
  8
SEDIE
100
AcDbBlockReference
  2
SEDIA_45x45
 10
2080.0527793858905
 20
-1261.2019802430661
 30
0.0
 50
157.4
  0
INSERT
  5
342
330
17
100
AcDbEntity
  8
SEDIE
100
AcDbBlockReference
  2
SEDIA_45x45
 10
2153.909596754929
 20
-1291.9456060558505
 30
0.0
 50
157.4
  0
INSERT
  5
344
330
17
100
AcDbEntity
  8
SEDIE
100
AcDbBlockReference
  2
SEDIA_45x45
 10
2227.7664141239675
 20
-1322.6892318686348
 30
0.0
 50
157.4
  0
TEXT
  5
346
330
17
100
AcDbEntity
  8
NUMERAZIONE
100
AcDbText
 10
2171.20288627462
 20
-1250.4011462857661
 30
0.0
 40
14.0
  1
T3 6p
 50
-22.6
 72
1
 11
2171.20288627462
 21
-1250.4011462857661
 31
0.0
100
AcDbText
 73
2
  0
INSERT
  5
347
330
17
100
AcDbEntity
  8
TAVOLI_80x80
100
AcDbBlockReference
  2
TAVOLO_80x80
 10
1894.3299654136713
 20
-1395.1125338609208
 30
0.0
 50
-22.6
  0
LWPOLYLINE
  5
349
330
17
100
AcDbEntity
  8
FASCIA_SEDUTA
100
AcDbPolyline
 90
4
 70
1
 10
1869.680978199677
 20
-1298.1979971322942
 10
2054.323021622273
 20
-1375.057061664255
 10
2023.5793958094887
 20
-1448.9138790332934
 10
1838.9373523868926
 20
-1372.0548145013327
  0
INSERT
  5
34A
330
17
100
AcDbEntity
  8
SEDIE
100
AcDbBlockReference
  2
SEDIA_45x45
 10
1988.1746467746668
 20
-1390.849227602485
 30
0.0
 50
-112.6
  0
INSERT
  5
34C
330
17
100
AcDbEntity
  8
SEDIE
100
AcDbBlockReference
  2
SEDIA_45x45
 10
1905.0857272344986
 20
-1356.2626485631026
 30
0.0
 50
67.4
  0
TEXT
  5
34E
330
17
100
AcDbEntity
  8
NUMERAZIONE
100
AcDbText
 10
1946.6301870045827
 20
-1373.5559380827938
 30
0.0
 40
14.0
  1
T4 2p
 50
-22.6
 72
1
 11
1946.6301870045827
 21
-1373.5559380827938
 31
0.0
100
AcDbText
 73
2
  0
LWPOLYLINE
  5
34F
330
17
100
AcDbEntity
  8
PERCORSI
100
AcDbPolyline
 90
4
 70
1
 10
1774.33517325722
 20
-1410.1541380084202
 10
1898.9685525674727
 20
-1462.0340065674939
 10
1679.9202186513844
 20
-1988.263830321893
 10
1555.2868393411318
 20
-1936.3839617628194
  0
LWPOLYLINE
  5
350
330
17
100
AcDbEntity
  8
PERCORSI
100
AcDbPolyline
 90
4
 70
1
 10
1607.935298545525
 20
-1809.9041620183411
 10
1921.8267723639385
 20
-1940.5645717226744
 10
1869.1783131595453
 20
-2067.044371467153
 10
1555.2868393411318
 20
-1936.3839617628194
  0
LWPOLYLINE
  5
351
330
17
100
AcDbEntity
  8
PERCORSI
100
AcDbPolyline
 90
4
 70
1
 10
1844.4842538090782
 20
-1840.129842551978
 10
2019.8941950605447
 20
-1913.1459538573408
 10
1943.035130528584
 20
-2097.787997279937
 10
1767.6251892771174
 20
-2024.7718859745744
  0
INSERT
  5
352
330
17
100
AcDbEntity
  8
TAVOLI_80x80
100
AcDbBlockReference
  2
TAVOLO_80x80
 10
1864.3819735280902
 20
-1545.1229261076621
 30
0.0
 50
-22.6
  0
INSERT
  5
354
330
17
100
AcDbEntity
  8
TAVOLI_80x80
100
AcDbBlockReference
  2
TAVOLO_80x80
 10
1938.2387908971286
 20
-1575.8665519204465
 30
0.0
 50
-22.6
  0
INSERT
  5
356
330
17
100
AcDbEntity
  8
TAVOLI_80x80
100
AcDbBlockReference
  2
TAVOLO_80x80
 10
2012.0956082661671
 20
-1606.6101777332308
 30
0.0
 50
-22.6
  0
LWPOLYLINE
  5
358
330
17
100
AcDbEntity
  8
FASCIA_SEDUTA
100
AcDbPolyline
 90
4
 70
1
 10
1895.1255993408745
 20
-1471.2661087386236
 10
2116.6960514479897
 20
-1563.4969861769766
 10
2062.8947062756174
 20
-1692.7464165727938
 10
1841.324254168502
 20
-1600.515539134441
  0
INSERT
  5
359
330
17
100
AcDbEntity
  8
SEDIE
100
AcDbBlockReference
  2
SEDIA_45x45
 10
1899.3889055993104
 20
-1565.1107900996192
 30
0.0
 50
157.4
  0
INSERT
  5
35B
330
17
100
AcDbEntity
  8
SEDIE
100
AcDbBlockReference
  2
SEDIA_45x45
 10
1973.2457229683487
 20
-1595.8544159124035
 30
0.0
 50
157.4
  0
INSERT
  5
35D
330
17
100
AcDbEntity
  8
SEDIE
100
AcDbBlockReference
  2
SEDIA_45x45
 10
2047.1025403373872
 20
-1626.5980417251878
 30
0.0
 50
157.4
  0
TEXT
  5
35F
330
17
100
AcDbEntity
  8
NUMERAZIONE
100
AcDbText
 10
1990.53901248804
 20
-1554.3099561423194
 30
0.0
 40
14.0
  1
T5 3p
 50
-22.6
 72
1
 11
1990.53901248804
 21
-1554.3099561423194
 31
0.0
100
AcDbText
 73
2
  0
INSERT
  5
360
330
17
100
AcDbEntity
  8
TAVOLI_80x80
100
AcDbBlockReference
  2
TAVOLO_80x80
 10
1842.9155220229081
 20
-1752.8226888898466
 30
0.0
 50
-22.6
  0
INSERT
  5
362
330
17
100
AcDbEntity
  8
TAVOLI_80x80
100
AcDbBlockReference
  2
TAVOLO_80x80
 10
1812.171896210124
 20
-1826.679506258885
 30
0.0
 50
-22.6
  0
LWPOLYLINE
  5
364
330
17
100
AcDbEntity
  8
FASCIA_SEDUTA
100
AcDbPolyline
 90
4
 70
1
 10
1818.2665348089138
 20
-1655.9081521612197
 10
2002.9085782315099
 20
-1732.7672166931807
 10
1941.4213266059412
 20
-1880.4808514312576
 10
1756.7792831833451
 20
-1803.6217868992967
  0
INSERT
  5
365
330
17
100
AcDbEntity
  8
SEDIE
100
AcDbBlockReference
  2
SEDIA_45x45
 10
1936.7602033839037
 20
-1748.5593826314107
 30
0.0
 50
-112.6
  0
INSERT
  5
367
330
17
100
AcDbEntity
  8
SEDIE
100
AcDbBlockReference
  2
SEDIA_45x45
 10
1906.0165775711196
 20
-1822.4162000004492
 30
0.0
 50
-112.6
  0
INSERT
  5
369
330
17
100
AcDbEntity
  8
SEDIE
100
AcDbBlockReference
  2
SEDIA_45x45
 10
1853.6712838437354
 20
-1713.9728035920284
 30
0.0
 50
67.4
  0
INSERT
  5
36B
330
17
100
AcDbEntity
  8
SEDIE
100
AcDbBlockReference
  2
SEDIA_45x45
 10
1822.927658030951
 20
-1787.829620961067
 30
0.0
 50
67.4
  0
TEXT
  5
36D
330
17
100
AcDbEntity
  8
NUMERAZIONE
100
AcDbText
 10
1879.8439307074275
 20
-1768.1945017962387
 30
0.0
 40
14.0
  1
T6 4p
 50
-22.6
 72
1
 11
1879.8439307074275
 21
-1768.1945017962387
 31
0.0
100
AcDbText
 73
2
  0
LWPOLYLINE
  5
36E
330
17
100
AcDbEntity
  8
TESTI
100
AcDbPolyline
 90
4
 70
1
 10
1799.1266327098529
 20
-1030.5301351605915
 10
1831.4389903088072
 20
-1043.9804714536845
 10
1748.4312006142895
 20
-1243.3938783500885
 10
1716.1188430153352
 20
-1229.9435420569953
  0
LWPOLYLINE
  5
36F
330
17
100
AcDbEntity
  8
MONTACARICHI
100
AcDbPolyline
 90
4
 70
1
 10
1869.545761790259
 20
-908.1980205726505
 10
1943.4025791592974
 20
-938.9416463854349
 10
1912.658953346513
 20
-1012.7984637544733
 10
1838.8021359774746
 20
-982.054837941689
  0
LINE
  5
370
330
17
100
AcDbEntity
  8
MONTACARICHI
100
AcDbLine
 10
1869.545761790259
 20
-908.1980205726505
 30
0.0
 11
1912.658953346513
 21
-1012.7984637544733
 31
0.0
  0
LINE
  5
371
330
17
100
AcDbEntity
  8
MONTACARICHI
100
AcDbLine
 10
1943.4025791592974
 20
-938.9416463854349
 30
0.0
 11
1838.8021359774746
 21
-982.054837941689
 31
0.0
  0
TEXT
  5
372
330
17
100
AcDbEntity
  8
MONTACARICHI
100
AcDbText
 10
1829.1947529109796
 20
-1005.1350933695135
 30
0.0
 40
10.0
  1
MC montacarichi bevande (ingombro parametrico)
 50
-22.6
 11
1829.1947529109796
 21
-1005.1350933695135
 31
0.0
100
AcDbText
  0
TEXT
  5
373
330
17
100
AcDbEntity
  8
TESTI
100
AcDbText
 10
1766.6041946675514
 20
-1298.6183501641322
 30
0.0
 40
18.0
  1
SALA NORD
 72
1
 11
1766.6041946675514
 21
-1298.6183501641322
 31
0.0
100
AcDbText
 73
2
  0
TEXT
  5
374
330
17
100
AcDbEntity
  8
TESTI
100
AcDbText
 10
1681.4438783010817
 20
-1945.5709917974768
 30
0.0
 40
18.0
  1
INGRESSO / SALA SUD
 72
1
 11
1681.4438783010817
 21
-1945.5709917974768
 31
0.0
100
AcDbText
 73
2
  0
TEXT
  5
375
330
17
100
AcDbEntity
  8
TESTI
100
AcDbText
 10
1518.8836317649802
 20
-1217.1657706148428
 30
0.0
 40
18.0
  1
CUCINA
 72
1
 11
1518.8836317649802
 21
-1217.1657706148428
 31
0.0
100
AcDbText
 73
2
  0
TEXT
  5
376
330
17
100
AcDbEntity
  8
TESTI
100
AcDbText
 10
1555.9472568589172
 20
-1622.5375600808786
 30
0.0
 40
18.0
  1
CASSA
 72
1
 11
1555.9472568589172
 21
-1622.5375600808786
 31
0.0
100
AcDbText
 73
2
  0
TEXT
  5
377
330
17
100
AcDbEntity
  8
TESTI
100
AcDbText
 10
1369.80408985486
 20
-1653.371330166608
 30
0.0
 40
18.0
  1
WC
 72
1
 11
1369.80408985486
 21
-1653.371330166608
 31
0.0
100
AcDbText
 73
2
  0
TEXT
  5
378
330
17
100
AcDbEntity
  8
TESTI
100
AcDbText
 10
1257.9527970552635
 20
-751.1023634504414
 30
0.0
 40
18.0
  1
AREA LAVAGGIO
 72
1
 11
1257.9527970552635
 21
-751.1023634504414
 31
0.0
100
AcDbText
 73
2
  0
ENDSEC
  0
SECTION
  2
OBJECTS
  0
DICTIONARY
  5
A
330
0
100
AcDbDictionary
281
1
  3
ACAD_COLOR
350
B
  3
ACAD_GROUP
350
C
  3
ACAD_LAYOUT
350
D
  3
ACAD_MATERIAL
350
E
  3
ACAD_MLEADERSTYLE
350
F
  3
ACAD_MLINESTYLE
350
10
  3
ACAD_PLOTSETTINGS
350
11
  3
ACAD_PLOTSTYLENAME
350
12
  3
ACAD_SCALELIST
350
14
  3
ACAD_TABLESTYLE
350
15
  3
ACAD_VISUALSTYLE
350
16
  3
EZDXF_META
350
2D
  0
DICTIONARY
  5
B
330
A
100
AcDbDictionary
281
1
  0
DICTIONARY
  5
C
330
A
100
AcDbDictionary
281
1
  0
DICTIONARY
  5
D
330
A
100
AcDbDictionary
281
1
  3
Model
350
1A
  3
Layout1
350
1E
  0
DICTIONARY
  5
E
330
A
100
AcDbDictionary
281
1
  3
ByBlock
350
1F
  3
ByLayer
350
20
  3
Global
350
21
  0
DICTIONARY
  5
F
330
A
100
AcDbDictionary
281
1
  3
Standard
350
2C
  0
DICTIONARY
  5
10
330
A
100
AcDbDictionary
281
1
  3
Standard
350
22
  0
DICTIONARY
  5
11
330
A
100
AcDbDictionary
281
1
  0
ACDBDICTIONARYWDFLT
  5
12
330
A
100
AcDbDictionary
281
1
  3
Normal
350
13
100
AcDbDictionaryWithDefault
340
13
  0
ACDBPLACEHOLDER
  5
13
330
12
  0
DICTIONARY
  5
14
330
A
100
AcDbDictionary
281
1
  0
DICTIONARY
  5
15
330
A
100
AcDbDictionary
281
1
  0
DICTIONARY
  5
16
330
A
100
AcDbDictionary
281
1
  3
2dWireframe
350
5A
  3
Basic
350
5B
  3
Brighten
350
5C
  3
ColorChange
350
5D
  3
Conceptual
350
5E
  3
Dim
350
5F
  3
EdgeColorOff
350
60
  3
Facepattern
350
61
  3
Flat
350
62
  3
FlatWithEdges
350
63
  3
Gouraud
350
64
  3
GouraudWithEdges
350
65
  3
Hidden
350
66
  3
JitterOff
350
67
  3
Linepattern
350
68
  3
Modeling
350
69
  3
OverhangOff
350
6A
  3
Realistic
350
6B
  3
Shaded
350
6C
  3
Shaded with edges
350
6D
  3
Shades of Gray
350
6E
  3
Sketchy
350
6F
  3
Thicken
350
70
  3
Wireframe
350
71
  3
X-Ray
350
72
  0
LAYOUT
  5
1A
330
D
100
AcDbPlotSettings
  1

  4
A3
  6

 40
7.5
 41
20.0
 42
7.5
 43
20.0
 44
420.0
 45
297.0
 46
0.0
 47
0.0
 48
0.0
 49
0.0
140
0.0
141
0.0
142
1.0
143
1.0
 70
1024
 72
1
 73
0
 74
5
  7

 75
16
 76
0
 77
2
 78
300
147
1.0
148
0.0
149
0.0
100
AcDbLayout
  1
Model
 70
1
 71
0
 10
0.0
 20
0.0
 11
420.0
 21
297.0
 12
0.0
 22
0.0
 32
0.0
 14
1e+20
 24
1e+20
 34
1e+20
 15
-1e+20
 25
-1e+20
 35
-1e+20
146
0.0
 13
0.0
 23
0.0
 33
0.0
 16
1.0
 26
0.0
 36
0.0
 17
0.0
 27
1.0
 37
0.0
 76
1
330
17
  0
LAYOUT
  5
1E
330
D
100
AcDbPlotSettings
  1

  4
A3
  6

 40
7.5
 41
20.0
 42
7.5
 43
20.0
 44
420.0
 45
297.0
 46
0.0
 47
0.0
 48
0.0
 49
0.0
140
0.0
141
0.0
142
1.0
143
1.0
 70
0
 72
1
 73
0
 74
5
  7

 75
16
 76
0
 77
2
 78
300
147
1.0
148
0.0
149
0.0
100
AcDbLayout
  1
Layout1
 70
1
 71
1
 10
0.0
 20
0.0
 11
420.0
 21
297.0
 12
0.0
 22
0.0
 32
0.0
 14
1e+20
 24
1e+20
 34
1e+20
 15
-1e+20
 25
-1e+20
 35
-1e+20
146
0.0
 13
0.0
 23
0.0
 33
0.0
 16
1.0
 26
0.0
 36
0.0
 17
0.0
 27
1.0
 37
0.0
 76
1
330
1B
  0
MATERIAL
  5
1F
102
{ACAD_REACTORS
330
E
102
}
330
E
100
AcDbMaterial
  1
ByBlock
  2

 70
0
 40
1.0
 71
1
 41
1.0
 91
-1023410177
 42
1.0
 72
1
  3

 73
1
 74
1
 75
1
 44
0.5
 73
0
 45
1.0
 46
1.0
 77
1
  4

 78
1
 79
1
170
1
 48
1.0
171
1
  6

172
1
173
1
174
1
140
1.0
141
1.0
175
1
  7

176
1
177
1
178
1
143
1.0
179
1
  8

270
1
271
1
272
1
145
1.0
146
1.0
273
1
  9

274
1
275
1
276
1
 42
1.0
 72
1
  3

 73
1
 74
1
 75
1
 94
63
  0
MATERIAL
  5
20
102
{ACAD_REACTORS
330
E
102
}
330
E
100
AcDbMaterial
  1
ByLayer
  2

 70
0
 40
1.0
 71
1
 41
1.0
 91
-1023410177
 42
1.0
 72
1
  3

 73
1
 74
1
 75
1
 44
0.5
 73
0
 45
1.0
 46
1.0
 77
1
  4

 78
1
 79
1
170
1
 48
1.0
171
1
  6

172
1
173
1
174
1
140
1.0
141
1.0
175
1
  7

176
1
177
1
178
1
143
1.0
179
1
  8

270
1
271
1
272
1
145
1.0
146
1.0
273
1
  9

274
1
275
1
276
1
 42
1.0
 72
1
  3

 73
1
 74
1
 75
1
 94
63
  0
MATERIAL
  5
21
102
{ACAD_REACTORS
330
E
102
}
330
E
100
AcDbMaterial
  1
Global
  2

 70
0
 40
1.0
 71
1
 41
1.0
 91
-1023410177
 42
1.0
 72
1
  3

 73
1
 74
1
 75
1
 44
0.5
 73
0
 45
1.0
 46
1.0
 77
1
  4

 78
1
 79
1
170
1
 48
1.0
171
1
  6

172
1
173
1
174
1
140
1.0
141
1.0
175
1
  7

176
1
177
1
178
1
143
1.0
179
1
  8

270
1
271
1
272
1
145
1.0
146
1.0
273
1
  9

274
1
275
1
276
1
 42
1.0
 72
1
  3

 73
1
 74
1
 75
1
 94
63
  0
MLINESTYLE
  5
22
102
{ACAD_REACTORS
330
10
102
}
330
10
100
AcDbMlineStyle
  2
Standard
 70
0
  3

 62
256
 51
90.0
 52
90.0
 71
2
 49
0.5
 62
256
  6
BYLAYER
 49
-0.5
 62
256
  6
BYLAYER
  0
MLEADERSTYLE
  5
2C
102
{ACAD_REACTORS
330
F
102
}
330
F
100
AcDbMLeaderStyle
179
2
170
2
171
1
172
0
 90
2
 40
0.0
 41
0.0
173
1
 91
-1056964608
 92
-2
290
1
 42
2.0
291
1
 43
8.0
  3
Standard
 44
4.0
300

342
29
174
1
175
1
176
0
178
1
 93
-1056964608
 45
4.0
292
0
297
0
 46
4.0
 94
-1056964608
 47
1.0
 49
1.0
140
1.0
294
1
141
0.0
177
0
142
1.0
295
0
296
0
143
3.75
271
0
272
9
273
9
  0
DICTIONARY
  5
2D
330
A
100
AcDbDictionary
280
1
281
1
  3
CREATED_BY_EZDXF
350
2E
  3
WRITTEN_BY_EZDXF
350
37B
  0
DICTIONARYVAR
  5
2E
330
2D
100
DictionaryVariables
280
0
  1
1.4.4 @ 2026-10-08T12:51:58.052883+00:00
  0
VISUALSTYLE
  5
5A
102
{ACAD_REACTORS
330
16
102
}
330
16
100
AcDbVisualStyle
  2
2dWireframe
 70
4
177
3
291
0
 70
58
 90
2
176
1
 90
2
176
1
 90
0
176
1
 90
0
176
1
 40
0.6
176
1
 40
30.0
176
1
 62
7
420
16777215
176
1
 90
1
176
1
 90
4
176
1
 62
7
176
1
 62
257
176
1
 90
1
176
1
 90
1
176
1
 40
1.0
176
1
 90
8
176
1
 62
7
176
1
 40
1.0
176
1
 90
1
176
1
 90
6
176
1
 90
2
176
1
 62
7
176
1
 90
5
176
1
 90
0
176
1
 90
0
176
1
290
0
176
1
 90
1
176
1
 40
0.0
176
1
 90
0
176
1
290
1
176
1
290
1
176
1
290
0
176
1
290
0
176
1
290
0
176
1
290
0
176
1
290
0
176
1
290
0
176
1
290
0
176
1
 90
50
176
1
 40
0.0
176
1
 40
1.0
176
1
 90
0
176
1
 62
18
420
0
176
1
 90
50
176
1
 90
3
176
1
 62
5
420
255
176
1
290
0
176
1
 90
50
176
1
 90
50
176
1
 90
50
176
1
290
0
176
1
 90
50
176
1
 62
256
176
0
 40
1.0
176
0
 90
2
176
1
  1
strokes_ogs.tif
176
1
290
0
176
1
 40
1.0
176
1
 40
1.0
176
1
  0
VISUALSTYLE
  5
5B
102
{ACAD_REACTORS
330
16
102
}
330
16
100
AcDbVisualStyle
  2
Basic
 70
7
177
3
291
1
 70
58
 90
2
176
1
 90
2
176
1
 90
0
176
1
 90
1
176
1
 40
0.6
176
1
 40
30.0
176
1
 62
7
420
16777215
176
1
 90
1
176
1
 90
4
176
1
 62
7
176
1
 62
257
176
1
 90
1
176
1
 90
1
176
1
 40
1.0
176
1
 90
8
176
1
 62
7
176
1
 40
1.0
176
1
 90
1
176
1
 90
6
176
1
 90
2
176
1
 62
7
176
1
 90
5
176
1
 90
0
176
1
 90
0
176
1
290
0
176
1
 90
1
176
1
 40
0.0
176
1
 90
0
176
1
290
0
176
1
290
1
176
1
290
1
176
1
290
0
176
1
290
0
176
1
290
0
176
1
290
0
176
1
290
0
176
1
290
0
176
1
 90
50
176
1
 40
0.0
176
1
 40
1.0
176
1
 90
0
176
1
 62
18
420
0
176
1
 90
50
176
1
 90
3
176
1
 62
5
420
255
176
1
290
0
176
1
 90
50
176
1
 90
50
176
1
 90
50
176
1
290
0
176
1
 90
50
176
1
 62
256
176
0
 40
1.0
176
0
 90
2
176
1
  1
strokes_ogs.tif
176
1
290
0
176
1
 40
1.0
176
1
 40
1.0
176
1
  0
VISUALSTYLE
  5
5C
102
{ACAD_REACTORS
330
16
102
}
330
16
100
AcDbVisualStyle
  2
Brighten
 70
12
177
3
291
1
 70
58
 90
2
176
1
 90
2
176
1
 90
0
176
1
 90
2
176
1
 40
0.6
176
1
 40
30.0
176
1
 62
7
420
16777215
176
1
 90
1
176
1
 90
4
176
1
 62
7
176
1
 62
257
176
1
 90
1
176
1
 90
1
176
1
 40
1.0
176
1
 90
8
176
1
 62
7
176
1
 40
1.0
176
1
 90
1
176
1
 90
6
176
1
 90
2
176
1
 62
7
176
1
 90
5
176
1
 90
0
176
1
 90
0
176
1
290
0
176
1
 90
1
176
1
 40
0.0
176
1
 90
0
176
1
290
0
176
1
290
1
176
1
290
1
176
1
290
0
176
1
290
0
176
1
290
0
176
1
290
0
176
1
290
0
176
1
290
0
176
1
 90
50
176
1
 40
0.0
176
1
 40
1.0
176
1
 90
0
176
1
 62
18
420
0
176
1
 90
50
176
1
 90
3
176
1
 62
5
420
255
176
1
290
0
176
1
 90
50
176
1
 90
50
176
1
 90
50
176
1
290
0
176
1
 90
50
176
1
 62
256
176
0
 40
1.0
176
0
 90
2
176
1
  1
strokes_ogs.tif
176
1
290
0
176
1
 40
1.0
176
1
 40
1.0
176
1
  0
VISUALSTYLE
  5
5D
102
{ACAD_REACTORS
330
16
102
}
330
16
100
AcDbVisualStyle
  2
ColorChange
 70
16
177
3
291
1
 70
58
 90
2
176
1
 90
2
176
1
 90
0
176
1
 90
2
176
1
 40
0.6
176
1
 40
30.0
176
1
 62
7
420
16777215
176
1
 90
1
176
1
 90
4
176
1
 62
7
176
1
 62
257
176
1
 90
1
176
1
 90
1
176
1
 40
1.0
176
1
 90
8
176
1
 62
7
176
1
 40
1.0
176
1
 90
1
176
1
 90
6
176
1
 90
2
176
1
 62
7
176
1
 90
5
176
1
 90
0
176
1
 90
0
176
1
290
0
176
1
 90
1
176
1
 40
0.0
176
1
 90
0
176
1
290
0
176
1
290
1
176
1
290
1
176
1
290
0
176
1
290
0
176
1
290
0
176
1
290
0
176
1
290
0
176
1
290
0
176
1
 90
50
176
1
 40
0.0
176
1
 40
1.0
176
1
 90
0
176
1
 62
18
420
0
176
1
 90
50
176
1
 90
3
176
1
 62
5
420
255
176
1
290
0
176
1
 90
50
176
1
 90
50
176
1
 90
50
176
1
290
0
176
1
 90
50
176
1
 62
256
176
0
 40
1.0
176
0
 90
2
176
1
  1
strokes_ogs.tif
176
1
290
0
176
1
 40
1.0
176
1
 40
1.0
176
1
  0
VISUALSTYLE
  5
5E
102
{ACAD_REACTORS
330
16
102
}
330
16
100
AcDbVisualStyle
  2
Conceptual
 70
9
177
3
291
0
 70
58
 90
2
176
1
 90
2
176
1
 90
0
176
1
 90
3
176
1
 40
0.6
176
1
 40
30.0
176
1
 62
7
420
16777215
176
1
 90
1
176
1
 90
4
176
1
 62
7
176
1
 62
257
176
1
 90
1
176
1
 90
1
176
1
 40
1.0
176
1
 90
8
176
1
 62
7
176
1
 40
1.0
176
1
 90
1
176
1
 90
6
176
1
 90
2
176
1
 62
7
176
1
 90
5
176
1
 90
0
176
1
 90
0
176
1
290
0
176
1
 90
1
176
1
 40
0.0
176
1
 90
0
176
1
290
0
176
1
290
1
176
1
290
1
176
1
290
0
176
1
290
0
176
1
290
0
176
1
290
0
176
1
290
0
176
1
290
0
176
1
 90
50
176
1
 40
0.0
176
1
 40
1.0
176
1
 90
0
176
1
 62
18
420
0
176
1
 90
50
176
1
 90
3
176
1
 62
5
420
255
176
1
290
0
176
1
 90
50
176
1
 90
50
176
1
 90
50
176
1
290
0
176
1
 90
50
176
1
 62
256
176
0
 40
1.0
176
0
 90
2
176
1
  1
strokes_ogs.tif
176
1
290
0
176
1
 40
1.0
176
1
 40
1.0
176
1
  0
VISUALSTYLE
  5
5F
102
{ACAD_REACTORS
330
16
102
}
330
16
100
AcDbVisualStyle
  2
Dim
 70
11
177
3
291
1
 70
58
 90
2
176
1
 90
2
176
1
 90
0
176
1
 90
2
176
1
 40
0.6
176
1
 40
30.0
176
1
 62
7
420
16777215
176
1
 90
1
176
1
 90
4
176
1
 62
7
176
1
 62
257
176
1
 90
1
176
1
 90
1
176
1
 40
1.0
176
1
 90
8
176
1
 62
7
176
1
 40
1.0
176
1
 90
1
176
1
 90
6
176
1
 90
2
176
1
 62
7
176
1
 90
5
176
1
 90
0
176
1
 90
0
176
1
290
0
176
1
 90
1
176
1
 40
0.0
176
1
 90
0
176
1
290
0
176
1
290
1
176
1
290
1
176
1
290
0
176
1
290
0
176
1
290
0
176
1
290
0
176
1
290
0
176
1
290
0
176
1
 90
50
176
1
 40
0.0
176
1
 40
1.0
176
1
 90
0
176
1
 62
18
420
0
176
1
 90
50
176
1
 90
3
176
1
 62
5
420
255
176
1
290
0
176
1
 90
50
176
1
 90
50
176
1
 90
50
176
1
290
0
176
1
 90
50
176
1
 62
256
176
0
 40
1.0
176
0
 90
2
176
1
  1
strokes_ogs.tif
176
1
290
0
176
1
 40
1.0
176
1
 40
1.0
176
1
  0
VISUALSTYLE
  5
60
102
{ACAD_REACTORS
330
16
102
}
330
16
100
AcDbVisualStyle
  2
EdgeColorOff
 70
22
177
3
291
1
 70
58
 90
2
176
1
 90
2
176
1
 90
0
176
1
 90
2
176
1
 40
0.6
176
1
 40
30.0
176
1
 62
7
420
16777215
176
1
 90
1
176
1
 90
4
176
1
 62
7
176
1
 62
257
176
1
 90
1
176
1
 90
1
176
1
 40
1.0
176
1
 90
8
176
1
 62
7
176
1
 40
1.0
176
1
 90
1
176
1
 90
6
176
1
 90
2
176
1
 62
7
176
1
 90
5
176
1
 90
0
176
1
 90
0
176
1
290
0
176
1
 90
1
176
1
 40
0.0
176
1
 90
0
176
1
290
0
176
1
290
1
176
1
290
1
176
1
290
0
176
1
290
0
176
1
290
0
176
1
290
0
176
1
290
0
176
1
290
0
176
1
 90
50
176
1
 40
0.0
176
1
 40
1.0
176
1
 90
0
176
1
 62
18
420
0
176
1
 90
50
176
1
 90
3
176
1
 62
5
420
255
176
1
290
0
176
1
 90
50
176
1
 90
50
176
1
 90
50
176
1
290
0
176
1
 90
50
176
1
 62
256
176
0
 40
1.0
176
0
 90
2
176
1
  1
strokes_ogs.tif
176
1
290
0
176
1
 40
1.0
176
1
 40
1.0
176
1
  0
VISUALSTYLE
  5
61
102
{ACAD_REACTORS
330
16
102
}
330
16
100
AcDbVisualStyle
  2
Facepattern
 70
15
177
3
291
1
 70
58
 90
2
176
1
 90
2
176
1
 90
0
176
1
 90
2
176
1
 40
0.6
176
1
 40
30.0
176
1
 62
7
420
16777215
176
1
 90
1
176
1
 90
4
176
1
 62
7
176
1
 62
257
176
1
 90
1
176
1
 90
1
176
1
 40
1.0
176
1
 90
8
176
1
 62
7
176
1
 40
1.0
176
1
 90
1
176
1
 90
6
176
1
 90
2
176
1
 62
7
176
1
 90
5
176
1
 90
0
176
1
 90
0
176
1
290
0
176
1
 90
1
176
1
 40
0.0
176
1
 90
0
176
1
290
0
176
1
290
1
176
1
290
1
176
1
290
0
176
1
290
0
176
1
290
0
176
1
290
0
176
1
290
0
176
1
290
0
176
1
 90
50
176
1
 40
0.0
176
1
 40
1.0
176
1
 90
0
176
1
 62
18
420
0
176
1
 90
50
176
1
 90
3
176
1
 62
5
420
255
176
1
290
0
176
1
 90
50
176
1
 90
50
176
1
 90
50
176
1
290
0
176
1
 90
50
176
1
 62
256
176
0
 40
1.0
176
0
 90
2
176
1
  1
strokes_ogs.tif
176
1
290
0
176
1
 40
1.0
176
1
 40
1.0
176
1
  0
VISUALSTYLE
  5
62
102
{ACAD_REACTORS
330
16
102
}
330
16
100
AcDbVisualStyle
  2
Flat
 70
0
177
3
291
1
 70
58
 90
2
176
1
 90
2
176
1
 90
0
176
1
 90
2
176
1
 40
0.6
176
1
 40
30.0
176
1
 62
7
420
16777215
176
1
 90
1
176
1
 90
4
176
1
 62
7
176
1
 62
257
176
1
 90
1
176
1
 90
1
176
1
 40
1.0
176
1
 90
8
176
1
 62
7
176
1
 40
1.0
176
1
 90
1
176
1
 90
6
176
1
 90
2
176
1
 62
7
176
1
 90
5
176
1
 90
0
176
1
 90
0
176
1
290
0
176
1
 90
1
176
1
 40
0.0
176
1
 90
0
176
1
290
0
176
1
290
1
176
1
290
1
176
1
290
0
176
1
290
0
176
1
290
0
176
1
290
0
176
1
290
0
176
1
290
0
176
1
 90
50
176
1
 40
0.0
176
1
 40
1.0
176
1
 90
0
176
1
 62
18
420
0
176
1
 90
50
176
1
 90
3
176
1
 62
5
420
255
176
1
290
0
176
1
 90
50
176
1
 90
50
176
1
 90
50
176
1
290
0
176
1
 90
50
176
1
 62
256
176
0
 40
1.0
176
0
 90
2
176
1
  1
strokes_ogs.tif
176
1
290
0
176
1
 40
1.0
176
1
 40
1.0
176
1
  0
VISUALSTYLE
  5
63
102
{ACAD_REACTORS
330
16
102
}
330
16
100
AcDbVisualStyle
  2
FlatWithEdges
 70
1
177
3
291
1
 70
58
 90
2
176
1
 90
2
176
1
 90
0
176
1
 90
2
176
1
 40
0.6
176
1
 40
30.0
176
1
 62
7
420
16777215
176
1
 90
1
176
1
 90
4
176
1
 62
7
176
1
 62
257
176
1
 90
1
176
1
 90
1
176
1
 40
1.0
176
1
 90
8
176
1
 62
7
176
1
 40
1.0
176
1
 90
1
176
1
 90
6
176
1
 90
2
176
1
 62
7
176
1
 90
5
176
1
 90
0
176
1
 90
0
176
1
290
0
176
1
 90
1
176
1
 40
0.0
176
1
 90
0
176
1
290
0
176
1
290
1
176
1
290
1
176
1
290
0
176
1
290
0
176
1
290
0
176
1
290
0
176
1
290
0
176
1
290
0
176
1
 90
50
176
1
 40
0.0
176
1
 40
1.0
176
1
 90
0
176
1
 62
18
420
0
176
1
 90
50
176
1
 90
3
176
1
 62
5
420
255
176
1
290
0
176
1
 90
50
176
1
 90
50
176
1
 90
50
176
1
290
0
176
1
 90
50
176
1
 62
256
176
0
 40
1.0
176
0
 90
2
176
1
  1
strokes_ogs.tif
176
1
290
0
176
1
 40
1.0
176
1
 40
1.0
176
1
  0
VISUALSTYLE
  5
64
102
{ACAD_REACTORS
330
16
102
}
330
16
100
AcDbVisualStyle
  2
Gouraud
 70
2
177
3
291
1
 70
58
 90
2
176
1
 90
2
176
1
 90
0
176
1
 90
2
176
1
 40
0.6
176
1
 40
30.0
176
1
 62
7
420
16777215
176
1
 90
1
176
1
 90
4
176
1
 62
7
176
1
 62
257
176
1
 90
1
176
1
 90
1
176
1
 40
1.0
176
1
 90
8
176
1
 62
7
176
1
 40
1.0
176
1
 90
1
176
1
 90
6
176
1
 90
2
176
1
 62
7
176
1
 90
5
176
1
 90
0
176
1
 90
0
176
1
290
0
176
1
 90
1
176
1
 40
0.0
176
1
 90
0
176
1
290
0
176
1
290
1
176
1
290
1
176
1
290
0
176
1
290
0
176
1
290
0
176
1
290
0
176
1
290
0
176
1
290
0
176
1
 90
50
176
1
 40
0.0
176
1
 40
1.0
176
1
 90
0
176
1
 62
18
420
0
176
1
 90
50
176
1
 90
3
176
1
 62
5
420
255
176
1
290
0
176
1
 90
50
176
1
 90
50
176
1
 90
50
176
1
290
0
176
1
 90
50
176
1
 62
256
176
0
 40
1.0
176
0
 90
2
176
1
  1
strokes_ogs.tif
176
1
290
0
176
1
 40
1.0
176
1
 40
1.0
176
1
  0
VISUALSTYLE
  5
65
102
{ACAD_REACTORS
330
16
102
}
330
16
100
AcDbVisualStyle
  2
GouraudWithEdges
 70
3
177
3
291
1
 70
58
 90
2
176
1
 90
2
176
1
 90
0
176
1
 90
2
176
1
 40
0.6
176
1
 40
30.0
176
1
 62
7
420
16777215
176
1
 90
1
176
1
 90
4
176
1
 62
7
176
1
 62
257
176
1
 90
1
176
1
 90
1
176
1
 40
1.0
176
1
 90
8
176
1
 62
7
176
1
 40
1.0
176
1
 90
1
176
1
 90
6
176
1
 90
2
176
1
 62
7
176
1
 90
5
176
1
 90
0
176
1
 90
0
176
1
290
0
176
1
 90
1
176
1
 40
0.0
176
1
 90
0
176
1
290
0
176
1
290
1
176
1
290
1
176
1
290
0
176
1
290
0
176
1
290
0
176
1
290
0
176
1
290
0
176
1
290
0
176
1
 90
50
176
1
 40
0.0
176
1
 40
1.0
176
1
 90
0
176
1
 62
18
420
0
176
1
 90
50
176
1
 90
3
176
1
 62
5
420
255
176
1
290
0
176
1
 90
50
176
1
 90
50
176
1
 90
50
176
1
290
0
176
1
 90
50
176
1
 62
256
176
0
 40
1.0
176
0
 90
2
176
1
  1
strokes_ogs.tif
176
1
290
0
176
1
 40
1.0
176
1
 40
1.0
176
1
  0
VISUALSTYLE
  5
66
102
{ACAD_REACTORS
330
16
102
}
330
16
100
AcDbVisualStyle
  2
Hidden
 70
6
177
3
291
0
 70
58
 90
2
176
1
 90
2
176
1
 90
0
176
1
 90
1
176
1
 40
0.6
176
1
 40
30.0
176
1
 62
7
420
16777215
176
1
 90
1
176
1
 90
4
176
1
 62
7
176
1
 62
257
176
1
 90
1
176
1
 90
1
176
1
 40
1.0
176
1
 90
8
176
1
 62
7
176
1
 40
1.0
176
1
 90
1
176
1
 90
6
176
1
 90
2
176
1
 62
7
176
1
 90
5
176
1
 90
0
176
1
 90
0
176
1
290
0
176
1
 90
1
176
1
 40
0.0
176
1
 90
0
176
1
290
0
176
1
290
1
176
1
290
1
176
1
290
0
176
1
290
0
176
1
290
0
176
1
290
0
176
1
290
0
176
1
290
0
176
1
 90
50
176
1
 40
0.0
176
1
 40
1.0
176
1
 90
0
176
1
 62
18
420
0
176
1
 90
50
176
1
 90
3
176
1
 62
5
420
255
176
1
290
0
176
1
 90
50
176
1
 90
50
176
1
 90
50
176
1
290
0
176
1
 90
50
176
1
 62
256
176
0
 40
1.0
176
0
 90
2
176
1
  1
strokes_ogs.tif
176
1
290
0
176
1
 40
1.0
176
1
 40
1.0
176
1
  0
VISUALSTYLE
  5
67
102
{ACAD_REACTORS
330
16
102
}
330
16
100
AcDbVisualStyle
  2
JitterOff
 70
20
177
3
291
1
 70
58
 90
2
176
1
 90
2
176
1
 90
0
176
1
 90
2
176
1
 40
0.6
176
1
 40
30.0
176
1
 62
7
420
16777215
176
1
 90
1
176
1
 90
4
176
1
 62
7
176
1
 62
257
176
1
 90
1
176
1
 90
1
176
1
 40
1.0
176
1
 90
8
176
1
 62
7
176
1
 40
1.0
176
1
 90
1
176
1
 90
6
176
1
 90
2
176
1
 62
7
176
1
 90
5
176
1
 90
0
176
1
 90
0
176
1
290
0
176
1
 90
1
176
1
 40
0.0
176
1
 90
0
176
1
290
0
176
1
290
1
176
1
290
1
176
1
290
0
176
1
290
0
176
1
290
0
176
1
290
0
176
1
290
0
176
1
290
0
176
1
 90
50
176
1
 40
0.0
176
1
 40
1.0
176
1
 90
0
176
1
 62
18
420
0
176
1
 90
50
176
1
 90
3
176
1
 62
5
420
255
176
1
290
0
176
1
 90
50
176
1
 90
50
176
1
 90
50
176
1
290
0
176
1
 90
50
176
1
 62
256
176
0
 40
1.0
176
0
 90
2
176
1
  1
strokes_ogs.tif
176
1
290
0
176
1
 40
1.0
176
1
 40
1.0
176
1
  0
VISUALSTYLE
  5
68
102
{ACAD_REACTORS
330
16
102
}
330
16
100
AcDbVisualStyle
  2
Linepattern
 70
14
177
3
291
1
 70
58
 90
2
176
1
 90
2
176
1
 90
0
176
1
 90
2
176
1
 40
0.6
176
1
 40
30.0
176
1
 62
7
420
16777215
176
1
 90
1
176
1
 90
4
176
1
 62
7
176
1
 62
257
176
1
 90
1
176
1
 90
1
176
1
 40
1.0
176
1
 90
8
176
1
 62
7
176
1
 40
1.0
176
1
 90
1
176
1
 90
6
176
1
 90
2
176
1
 62
7
176
1
 90
5
176
1
 90
0
176
1
 90
0
176
1
290
0
176
1
 90
1
176
1
 40
0.0
176
1
 90
0
176
1
290
0
176
1
290
1
176
1
290
1
176
1
290
0
176
1
290
0
176
1
290
0
176
1
290
0
176
1
290
0
176
1
290
0
176
1
 90
50
176
1
 40
0.0
176
1
 40
1.0
176
1
 90
0
176
1
 62
18
420
0
176
1
 90
50
176
1
 90
3
176
1
 62
5
420
255
176
1
290
0
176
1
 90
50
176
1
 90
50
176
1
 90
50
176
1
290
0
176
1
 90
50
176
1
 62
256
176
0
 40
1.0
176
0
 90
2
176
1
  1
strokes_ogs.tif
176
1
290
0
176
1
 40
1.0
176
1
 40
1.0
176
1
  0
VISUALSTYLE
  5
69
102
{ACAD_REACTORS
330
16
102
}
330
16
100
AcDbVisualStyle
  2
Modeling
 70
10
177
3
291
0
 70
58
 90
2
176
1
 90
2
176
1
 90
0
176
1
 90
2
176
1
 40
0.6
176
1
 40
30.0
176
1
 62
7
420
16777215
176
1
 90
1
176
1
 90
4
176
1
 62
7
176
1
 62
257
176
1
 90
1
176
1
 90
1
176
1
 40
1.0
176
1
 90
8
176
1
 62
7
176
1
 40
1.0
176
1
 90
1
176
1
 90
6
176
1
 90
2
176
1
 62
7
176
1
 90
5
176
1
 90
0
176
1
 90
0
176
1
290
0
176
1
 90
1
176
1
 40
0.0
176
1
 90
0
176
1
290
0
176
1
290
1
176
1
290
1
176
1
290
0
176
1
290
0
176
1
290
0
176
1
290
0
176
1
290
0
176
1
290
0
176
1
 90
50
176
1
 40
0.0
176
1
 40
1.0
176
1
 90
0
176
1
 62
18
420
0
176
1
 90
50
176
1
 90
3
176
1
 62
5
420
255
176
1
290
0
176
1
 90
50
176
1
 90
50
176
1
 90
50
176
1
290
0
176
1
 90
50
176
1
 62
256
176
0
 40
1.0
176
0
 90
2
176
1
  1
strokes_ogs.tif
176
1
290
0
176
1
 40
1.0
176
1
 40
1.0
176
1
  0
VISUALSTYLE
  5
6A
102
{ACAD_REACTORS
330
16
102
}
330
16
100
AcDbVisualStyle
  2
OverhangOff
 70
21
177
3
291
1
 70
58
 90
2
176
1
 90
2
176
1
 90
0
176
1
 90
2
176
1
 40
0.6
176
1
 40
30.0
176
1
 62
7
420
16777215
176
1
 90
1
176
1
 90
4
176
1
 62
7
176
1
 62
257
176
1
 90
1
176
1
 90
1
176
1
 40
1.0
176
1
 90
8
176
1
 62
7
176
1
 40
1.0
176
1
 90
1
176
1
 90
6
176
1
 90
2
176
1
 62
7
176
1
 90
5
176
1
 90
0
176
1
 90
0
176
1
290
0
176
1
 90
1
176
1
 40
0.0
176
1
 90
0
176
1
290
0
176
1
290
1
176
1
290
1
176
1
290
0
176
1
290
0
176
1
290
0
176
1
290
0
176
1
290
0
176
1
290
0
176
1
 90
50
176
1
 40
0.0
176
1
 40
1.0
176
1
 90
0
176
1
 62
18
420
0
176
1
 90
50
176
1
 90
3
176
1
 62
5
420
255
176
1
290
0
176
1
 90
50
176
1
 90
50
176
1
 90
50
176
1
290
0
176
1
 90
50
176
1
 62
256
176
0
 40
1.0
176
0
 90
2
176
1
  1
strokes_ogs.tif
176
1
290
0
176
1
 40
1.0
176
1
 40
1.0
176
1
  0
VISUALSTYLE
  5
6B
102
{ACAD_REACTORS
330
16
102
}
330
16
100
AcDbVisualStyle
  2
Realistic
 70
8
177
3
291
0
 70
58
 90
2
176
1
 90
2
176
1
 90
0
176
1
 90
2
176
1
 40
0.6
176
1
 40
30.0
176
1
 62
7
420
16777215
176
1
 90
1
176
1
 90
4
176
1
 62
7
176
1
 62
257
176
1
 90
1
176
1
 90
1
176
1
 40
1.0
176
1
 90
8
176
1
 62
7
176
1
 40
1.0
176
1
 90
1
176
1
 90
6
176
1
 90
2
176
1
 62
7
176
1
 90
5
176
1
 90
0
176
1
 90
0
176
1
290
0
176
1
 90
1
176
1
 40
0.0
176
1
 90
0
176
1
290
0
176
1
290
1
176
1
290
1
176
1
290
0
176
1
290
0
176
1
290
0
176
1
290
0
176
1
290
0
176
1
290
0
176
1
 90
50
176
1
 40
0.0
176
1
 40
1.0
176
1
 90
0
176
1
 62
18
420
0
176
1
 90
50
176
1
 90
3
176
1
 62
5
420
255
176
1
290
0
176
1
 90
50
176
1
 90
50
176
1
 90
50
176
1
290
0
176
1
 90
50
176
1
 62
256
176
0
 40
1.0
176
0
 90
2
176
1
  1
strokes_ogs.tif
176
1
290
0
176
1
 40
1.0
176
1
 40
1.0
176
1
  0
VISUALSTYLE
  5
6C
102
{ACAD_REACTORS
330
16
102
}
330
16
100
AcDbVisualStyle
  2
Shaded
 70
27
177
3
291
0
 70
58
 90
2
176
1
 90
2
176
1
 90
0
176
1
 90
2
176
1
 40
0.6
176
1
 40
30.0
176
1
 62
7
420
16777215
176
1
 90
1
176
1
 90
4
176
1
 62
7
176
1
 62
257
176
1
 90
1
176
1
 90
1
176
1
 40
1.0
176
1
 90
8
176
1
 62
7
176
1
 40
1.0
176
1
 90
1
176
1
 90
6
176
1
 90
2
176
1
 62
7
176
1
 90
5
176
1
 90
0
176
1
 90
0
176
1
290
0
176
1
 90
1
176
1
 40
0.0
176
1
 90
0
176
1
290
0
176
1
290
1
176
1
290
1
176
1
290
0
176
1
290
0
176
1
290
0
176
1
290
0
176
1
290
0
176
1
290
0
176
1
 90
50
176
1
 40
0.0
176
1
 40
1.0
176
1
 90
0
176
1
 62
18
420
0
176
1
 90
50
176
1
 90
3
176
1
 62
5
420
255
176
1
290
0
176
1
 90
50
176
1
 90
50
176
1
 90
50
176
1
290
0
176
1
 90
50
176
1
 62
256
176
0
 40
1.0
176
0
 90
2
176
1
  1
strokes_ogs.tif
176
1
290
0
176
1
 40
1.0
176
1
 40
1.0
176
1
  0
VISUALSTYLE
  5
6D
102
{ACAD_REACTORS
330
16
102
}
330
16
100
AcDbVisualStyle
  2
Shaded with edges
 70
26
177
3
291
0
 70
58
 90
2
176
1
 90
2
176
1
 90
0
176
1
 90
2
176
1
 40
0.6
176
1
 40
30.0
176
1
 62
7
420
16777215
176
1
 90
1
176
1
 90
4
176
1
 62
7
176
1
 62
257
176
1
 90
1
176
1
 90
1
176
1
 40
1.0
176
1
 90
8
176
1
 62
7
176
1
 40
1.0
176
1
 90
1
176
1
 90
6
176
1
 90
2
176
1
 62
7
176
1
 90
5
176
1
 90
0
176
1
 90
0
176
1
290
0
176
1
 90
1
176
1
 40
0.0
176
1
 90
0
176
1
290
0
176
1
290
1
176
1
290
1
176
1
290
0
176
1
290
0
176
1
290
0
176
1
290
0
176
1
290
0
176
1
290
0
176
1
 90
50
176
1
 40
0.0
176
1
 40
1.0
176
1
 90
0
176
1
 62
18
420
0
176
1
 90
50
176
1
 90
3
176
1
 62
5
420
255
176
1
290
0
176
1
 90
50
176
1
 90
50
176
1
 90
50
176
1
290
0
176
1
 90
50
176
1
 62
256
176
0
 40
1.0
176
0
 90
2
176
1
  1
strokes_ogs.tif
176
1
290
0
176
1
 40
1.0
176
1
 40
1.0
176
1
  0
VISUALSTYLE
  5
6E
102
{ACAD_REACTORS
330
16
102
}
330
16
100
AcDbVisualStyle
  2
Shades of Gray
 70
23
177
3
291
0
 70
58
 90
2
176
1
 90
2
176
1
 90
0
176
1
 90
2
176
1
 40
0.6
176
1
 40
30.0
176
1
 62
7
420
16777215
176
1
 90
1
176
1
 90
4
176
1
 62
7
176
1
 62
257
176
1
 90
1
176
1
 90
1
176
1
 40
1.0
176
1
 90
8
176
1
 62
7
176
1
 40
1.0
176
1
 90
1
176
1
 90
6
176
1
 90
2
176
1
 62
7
176
1
 90
5
176
1
 90
0
176
1
 90
0
176
1
290
0
176
1
 90
1
176
1
 40
0.0
176
1
 90
0
176
1
290
0
176
1
290
1
176
1
290
1
176
1
290
0
176
1
290
0
176
1
290
0
176
1
290
0
176
1
290
0
176
1
290
0
176
1
 90
50
176
1
 40
0.0
176
1
 40
1.0
176
1
 90
0
176
1
 62
18
420
0
176
1
 90
50
176
1
 90
3
176
1
 62
5
420
255
176
1
290
0
176
1
 90
50
176
1
 90
50
176
1
 90
50
176
1
290
0
176
1
 90
50
176
1
 62
256
176
0
 40
1.0
176
0
 90
2
176
1
  1
strokes_ogs.tif
176
1
290
0
176
1
 40
1.0
176
1
 40
1.0
176
1
  0
VISUALSTYLE
  5
6F
102
{ACAD_REACTORS
330
16
102
}
330
16
100
AcDbVisualStyle
  2
Sketchy
 70
24
177
3
291
0
 70
58
 90
2
176
1
 90
2
176
1
 90
0
176
1
 90
1
176
1
 40
0.6
176
1
 40
30.0
176
1
 62
7
420
16777215
176
1
 90
1
176
1
 90
4
176
1
 62
7
176
1
 62
257
176
1
 90
1
176
1
 90
1
176
1
 40
1.0
176
1
 90
8
176
1
 62
7
176
1
 40
1.0
176
1
 90
1
176
1
 90
6
176
1
 90
2
176
1
 62
7
176
1
 90
5
176
1
 90
0
176
1
 90
0
176
1
290
0
176
1
 90
1
176
1
 40
0.0
176
1
 90
0
176
1
290
0
176
1
290
1
176
1
290
1
176
1
290
0
176
1
290
0
176
1
290
0
176
1
290
0
176
1
290
0
176
1
290
0
176
1
 90
50
176
1
 40
0.0
176
1
 40
1.0
176
1
 90
0
176
1
 62
18
420
0
176
1
 90
50
176
1
 90
3
176
1
 62
5
420
255
176
1
290
0
176
1
 90
50
176
1
 90
50
176
1
 90
50
176
1
290
0
176
1
 90
50
176
1
 62
256
176
0
 40
1.0
176
0
 90
2
176
1
  1
strokes_ogs.tif
176
1
290
0
176
1
 40
1.0
176
1
 40
1.0
176
1
  0
VISUALSTYLE
  5
70
102
{ACAD_REACTORS
330
16
102
}
330
16
100
AcDbVisualStyle
  2
Thicken
 70
13
177
3
291
1
 70
58
 90
2
176
1
 90
2
176
1
 90
0
176
1
 90
2
176
1
 40
0.6
176
1
 40
30.0
176
1
 62
7
420
16777215
176
1
 90
1
176
1
 90
4
176
1
 62
7
176
1
 62
257
176
1
 90
1
176
1
 90
1
176
1
 40
1.0
176
1
 90
8
176
1
 62
7
176
1
 40
1.0
176
1
 90
1
176
1
 90
6
176
1
 90
2
176
1
 62
7
176
1
 90
5
176
1
 90
0
176
1
 90
0
176
1
290
0
176
1
 90
1
176
1
 40
0.0
176
1
 90
0
176
1
290
0
176
1
290
1
176
1
290
1
176
1
290
0
176
1
290
0
176
1
290
0
176
1
290
0
176
1
290
0
176
1
290
0
176
1
 90
50
176
1
 40
0.0
176
1
 40
1.0
176
1
 90
0
176
1
 62
18
420
0
176
1
 90
50
176
1
 90
3
176
1
 62
5
420
255
176
1
290
0
176
1
 90
50
176
1
 90
50
176
1
 90
50
176
1
290
0
176
1
 90
50
176
1
 62
256
176
0
 40
1.0
176
0
 90
2
176
1
  1
strokes_ogs.tif
176
1
290
0
176
1
 40
1.0
176
1
 40
1.0
176
1
  0
VISUALSTYLE
  5
71
102
{ACAD_REACTORS
330
16
102
}
330
16
100
AcDbVisualStyle
  2
Wireframe
 70
5
177
3
291
0
 70
58
 90
2
176
1
 90
2
176
1
 90
0
176
1
 90
0
176
1
 40
0.6
176
1
 40
30.0
176
1
 62
7
420
16777215
176
1
 90
1
176
1
 90
4
176
1
 62
7
176
1
 62
257
176
1
 90
1
176
1
 90
1
176
1
 40
1.0
176
1
 90
8
176
1
 62
7
176
1
 40
1.0
176
1
 90
1
176
1
 90
6
176
1
 90
2
176
1
 62
7
176
1
 90
5
176
1
 90
0
176
1
 90
0
176
1
290
0
176
1
 90
1
176
1
 40
0.0
176
1
 90
0
176
1
290
0
176
1
290
1
176
1
290
1
176
1
290
0
176
1
290
0
176
1
290
0
176
1
290
0
176
1
290
0
176
1
290
0
176
1
 90
50
176
1
 40
0.0
176
1
 40
1.0
176
1
 90
0
176
1
 62
18
420
0
176
1
 90
50
176
1
 90
3
176
1
 62
5
420
255
176
1
290
0
176
1
 90
50
176
1
 90
50
176
1
 90
50
176
1
290
0
176
1
 90
50
176
1
 62
256
176
0
 40
1.0
176
0
 90
2
176
1
  1
strokes_ogs.tif
176
1
290
0
176
1
 40
1.0
176
1
 40
1.0
176
1
  0
VISUALSTYLE
  5
72
102
{ACAD_REACTORS
330
16
102
}
330
16
100
AcDbVisualStyle
  2
X-Ray
 70
25
177
3
291
0
 70
58
 90
2
176
1
 90
2
176
1
 90
0
176
1
 90
2
176
1
 40
0.5
176
1
 40
30.0
176
1
 62
7
420
16777215
176
1
 90
1
176
1
 90
4
176
1
 62
7
176
1
 62
257
176
1
 90
1
176
1
 90
1
176
1
 40
1.0
176
1
 90
8
176
1
 62
7
176
1
 40
1.0
176
1
 90
1
176
1
 90
6
176
1
 90
2
176
1
 62
7
176
1
 90
5
176
1
 90
0
176
1
 90
0
176
1
290
0
176
1
 90
1
176
1
 40
0.0
176
1
 90
0
176
1
290
0
176
1
290
1
176
1
290
1
176
1
290
0
176
1
290
0
176
1
290
0
176
1
290
0
176
1
290
0
176
1
290
0
176
1
 90
50
176
1
 40
0.0
176
1
 40
1.0
176
1
 90
0
176
1
 62
18
420
0
176
1
 90
50
176
1
 90
3
176
1
 62
5
420
255
176
1
290
0
176
1
 90
50
176
1
 90
50
176
1
 90
50
176
1
290
0
176
1
 90
50
176
1
 62
256
176
0
 40
1.0
176
0
 90
2
176
1
  1
strokes_ogs.tif
176
1
290
0
176
1
 40
1.0
176
1
 40
1.0
176
1
  0
DICTIONARYVAR
  5
37B
330
2D
100
DictionaryVariables
280
0
  1
1.4.4 @ 2026-10-08T12:51:58.145493+00:00
  0
ENDSEC
  0
EOF
